<?xml version="1.0" encoding="utf-8" standalone="no"?>
<!DOCTYPE svg PUBLIC "-//W3C//DTD SVG 1.1//EN"
  "http://www.w3.org/Graphics/SVG/1.1/DTD/svg11.dtd">
<svg xmlns:xlink="http://www.w3.org/1999/xlink" width="273.6pt" height="187.2pt" viewBox="0 0 273.6 187.2" xmlns="http://www.w3.org/2000/svg" version="1.1">
 <metadata>
  <rdf:RDF xmlns:dc="http://purl.org/dc/elements/1.1/" xmlns:cc="http://creativecommons.org/ns#" xmlns:rdf="http://www.w3.org/1999/02/22-rdf-syntax-ns#">
   <cc:Work>
    <dc:type rdf:resource="http://purl.org/dc/dcmitype/StillImage"/>
    <dc:date>2022-04-20T17:29:29.288668</dc:date>
    <dc:format>image/svg+xml</dc:format>
    <dc:creator>
     <cc:Agent>
      <dc:title>Matplotlib v3.5.1, https://matplotlib.org/</dc:title>
     </cc:Agent>
    </dc:creator>
   </cc:Work>
  </rdf:RDF>
 </metadata>
 <defs>
  <style type="text/css">*{stroke-linejoin: round; stroke-linecap: butt}</style>
 </defs>
 <g id="figure_1">
  <g id="patch_1">
   <path d="M 0 187.2 
L 273.6 187.2 
L 273.6 0 
L 0 0 
L 0 187.2 
z
" style="fill: none"/>
  </g>
  <g id="axes_1">
   <g id="patch_2">
    <path d="M 34.2 163.8 
L 246.24 163.8 
L 246.24 22.464 
L 34.2 22.464 
z
" style="fill: #ffffff"/>
   </g>
   <g id="matplotlib.axis_1">
    <g id="xtick_1">
     <g id="line2d_1">
      <defs>
       <path id="ma5b3adb23c" d="M 0 0 
L 0 3.5 
" style="stroke: #000000; stroke-width: 0.8"/>
      </defs>
      <g>
       <use xlink:href="#ma5b3adb23c" x="43.838182" y="163.8" style="stroke: #000000; stroke-width: 0.8"/>
      </g>
     </g>
     <g id="text_1">
      <!-- 0 -->
      <g transform="translate(40.752369 178.170484)scale(0.097 -0.097)">
       <defs>
        <path id="DejaVuSans-30" d="M 2034 4250 
Q 1547 4250 1301 3770 
Q 1056 3291 1056 2328 
Q 1056 1369 1301 889 
Q 1547 409 2034 409 
Q 2525 409 2770 889 
Q 3016 1369 3016 2328 
Q 3016 3291 2770 3770 
Q 2525 4250 2034 4250 
z
M 2034 4750 
Q 2819 4750 3233 4129 
Q 3647 3509 3647 2328 
Q 3647 1150 3233 529 
Q 2819 -91 2034 -91 
Q 1250 -91 836 529 
Q 422 1150 422 2328 
Q 422 3509 836 4129 
Q 1250 4750 2034 4750 
z
" transform="scale(0.015625)"/>
       </defs>
       <use xlink:href="#DejaVuSans-30"/>
      </g>
     </g>
    </g>
    <g id="xtick_2">
     <g id="line2d_2">
      <g>
       <use xlink:href="#ma5b3adb23c" x="92.053198" y="163.8" style="stroke: #000000; stroke-width: 0.8"/>
      </g>
     </g>
     <g id="text_2">
      <!-- 500 -->
      <g transform="translate(82.795761 178.170484)scale(0.097 -0.097)">
       <defs>
        <path id="DejaVuSans-35" d="M 691 4666 
L 3169 4666 
L 3169 4134 
L 1269 4134 
L 1269 2991 
Q 1406 3038 1543 3061 
Q 1681 3084 1819 3084 
Q 2600 3084 3056 2656 
Q 3513 2228 3513 1497 
Q 3513 744 3044 326 
Q 2575 -91 1722 -91 
Q 1428 -91 1123 -41 
Q 819 9 494 109 
L 494 744 
Q 775 591 1075 516 
Q 1375 441 1709 441 
Q 2250 441 2565 725 
Q 2881 1009 2881 1497 
Q 2881 1984 2565 2268 
Q 2250 2553 1709 2553 
Q 1456 2553 1204 2497 
Q 953 2441 691 2322 
L 691 4666 
z
" transform="scale(0.015625)"/>
       </defs>
       <use xlink:href="#DejaVuSans-35"/>
       <use xlink:href="#DejaVuSans-30" x="63.623047"/>
       <use xlink:href="#DejaVuSans-30" x="127.246094"/>
      </g>
     </g>
    </g>
    <g id="xtick_3">
     <g id="line2d_3">
      <g>
       <use xlink:href="#ma5b3adb23c" x="140.268215" y="163.8" style="stroke: #000000; stroke-width: 0.8"/>
      </g>
     </g>
     <g id="text_3">
      <!-- 1000 -->
      <g transform="translate(127.924965 178.170484)scale(0.097 -0.097)">
       <defs>
        <path id="DejaVuSans-31" d="M 794 531 
L 1825 531 
L 1825 4091 
L 703 3866 
L 703 4441 
L 1819 4666 
L 2450 4666 
L 2450 531 
L 3481 531 
L 3481 0 
L 794 0 
L 794 531 
z
" transform="scale(0.015625)"/>
       </defs>
       <use xlink:href="#DejaVuSans-31"/>
       <use xlink:href="#DejaVuSans-30" x="63.623047"/>
       <use xlink:href="#DejaVuSans-30" x="127.246094"/>
       <use xlink:href="#DejaVuSans-30" x="190.869141"/>
      </g>
     </g>
    </g>
    <g id="xtick_4">
     <g id="line2d_4">
      <g>
       <use xlink:href="#ma5b3adb23c" x="188.483232" y="163.8" style="stroke: #000000; stroke-width: 0.8"/>
      </g>
     </g>
     <g id="text_4">
      <!-- 1500 -->
      <g transform="translate(176.139982 178.170484)scale(0.097 -0.097)">
       <use xlink:href="#DejaVuSans-31"/>
       <use xlink:href="#DejaVuSans-35" x="63.623047"/>
       <use xlink:href="#DejaVuSans-30" x="127.246094"/>
       <use xlink:href="#DejaVuSans-30" x="190.869141"/>
      </g>
     </g>
    </g>
    <g id="xtick_5">
     <g id="line2d_5">
      <g>
       <use xlink:href="#ma5b3adb23c" x="236.698248" y="163.8" style="stroke: #000000; stroke-width: 0.8"/>
      </g>
     </g>
     <g id="text_5">
      <!-- 2000 -->
      <g transform="translate(224.354998 178.170484)scale(0.097 -0.097)">
       <defs>
        <path id="DejaVuSans-32" d="M 1228 531 
L 3431 531 
L 3431 0 
L 469 0 
L 469 531 
Q 828 903 1448 1529 
Q 2069 2156 2228 2338 
Q 2531 2678 2651 2914 
Q 2772 3150 2772 3378 
Q 2772 3750 2511 3984 
Q 2250 4219 1831 4219 
Q 1534 4219 1204 4116 
Q 875 4013 500 3803 
L 500 4441 
Q 881 4594 1212 4672 
Q 1544 4750 1819 4750 
Q 2544 4750 2975 4387 
Q 3406 4025 3406 3419 
Q 3406 3131 3298 2873 
Q 3191 2616 2906 2266 
Q 2828 2175 2409 1742 
Q 1991 1309 1228 531 
z
" transform="scale(0.015625)"/>
       </defs>
       <use xlink:href="#DejaVuSans-32"/>
       <use xlink:href="#DejaVuSans-30" x="63.623047"/>
       <use xlink:href="#DejaVuSans-30" x="127.246094"/>
       <use xlink:href="#DejaVuSans-30" x="190.869141"/>
      </g>
     </g>
    </g>
    <g id="text_6">
     <!-- Learning Curve -->
     <g transform="translate(103.313016 191.558266)scale(0.097 -0.097)">
      <defs>
       <path id="DejaVuSans-4c" d="M 628 4666 
L 1259 4666 
L 1259 531 
L 3531 531 
L 3531 0 
L 628 0 
L 628 4666 
z
" transform="scale(0.015625)"/>
       <path id="DejaVuSans-65" d="M 3597 1894 
L 3597 1613 
L 953 1613 
Q 991 1019 1311 708 
Q 1631 397 2203 397 
Q 2534 397 2845 478 
Q 3156 559 3463 722 
L 3463 178 
Q 3153 47 2828 -22 
Q 2503 -91 2169 -91 
Q 1331 -91 842 396 
Q 353 884 353 1716 
Q 353 2575 817 3079 
Q 1281 3584 2069 3584 
Q 2775 3584 3186 3129 
Q 3597 2675 3597 1894 
z
M 3022 2063 
Q 3016 2534 2758 2815 
Q 2500 3097 2075 3097 
Q 1594 3097 1305 2825 
Q 1016 2553 972 2059 
L 3022 2063 
z
" transform="scale(0.015625)"/>
       <path id="DejaVuSans-61" d="M 2194 1759 
Q 1497 1759 1228 1600 
Q 959 1441 959 1056 
Q 959 750 1161 570 
Q 1363 391 1709 391 
Q 2188 391 2477 730 
Q 2766 1069 2766 1631 
L 2766 1759 
L 2194 1759 
z
M 3341 1997 
L 3341 0 
L 2766 0 
L 2766 531 
Q 2569 213 2275 61 
Q 1981 -91 1556 -91 
Q 1019 -91 701 211 
Q 384 513 384 1019 
Q 384 1609 779 1909 
Q 1175 2209 1959 2209 
L 2766 2209 
L 2766 2266 
Q 2766 2663 2505 2880 
Q 2244 3097 1772 3097 
Q 1472 3097 1187 3025 
Q 903 2953 641 2809 
L 641 3341 
Q 956 3463 1253 3523 
Q 1550 3584 1831 3584 
Q 2591 3584 2966 3190 
Q 3341 2797 3341 1997 
z
" transform="scale(0.015625)"/>
       <path id="DejaVuSans-72" d="M 2631 2963 
Q 2534 3019 2420 3045 
Q 2306 3072 2169 3072 
Q 1681 3072 1420 2755 
Q 1159 2438 1159 1844 
L 1159 0 
L 581 0 
L 581 3500 
L 1159 3500 
L 1159 2956 
Q 1341 3275 1631 3429 
Q 1922 3584 2338 3584 
Q 2397 3584 2469 3576 
Q 2541 3569 2628 3553 
L 2631 2963 
z
" transform="scale(0.015625)"/>
       <path id="DejaVuSans-6e" d="M 3513 2113 
L 3513 0 
L 2938 0 
L 2938 2094 
Q 2938 2591 2744 2837 
Q 2550 3084 2163 3084 
Q 1697 3084 1428 2787 
Q 1159 2491 1159 1978 
L 1159 0 
L 581 0 
L 581 3500 
L 1159 3500 
L 1159 2956 
Q 1366 3272 1645 3428 
Q 1925 3584 2291 3584 
Q 2894 3584 3203 3211 
Q 3513 2838 3513 2113 
z
" transform="scale(0.015625)"/>
       <path id="DejaVuSans-69" d="M 603 3500 
L 1178 3500 
L 1178 0 
L 603 0 
L 603 3500 
z
M 603 4863 
L 1178 4863 
L 1178 4134 
L 603 4134 
L 603 4863 
z
" transform="scale(0.015625)"/>
       <path id="DejaVuSans-67" d="M 2906 1791 
Q 2906 2416 2648 2759 
Q 2391 3103 1925 3103 
Q 1463 3103 1205 2759 
Q 947 2416 947 1791 
Q 947 1169 1205 825 
Q 1463 481 1925 481 
Q 2391 481 2648 825 
Q 2906 1169 2906 1791 
z
M 3481 434 
Q 3481 -459 3084 -895 
Q 2688 -1331 1869 -1331 
Q 1566 -1331 1297 -1286 
Q 1028 -1241 775 -1147 
L 775 -588 
Q 1028 -725 1275 -790 
Q 1522 -856 1778 -856 
Q 2344 -856 2625 -561 
Q 2906 -266 2906 331 
L 2906 616 
Q 2728 306 2450 153 
Q 2172 0 1784 0 
Q 1141 0 747 490 
Q 353 981 353 1791 
Q 353 2603 747 3093 
Q 1141 3584 1784 3584 
Q 2172 3584 2450 3431 
Q 2728 3278 2906 2969 
L 2906 3500 
L 3481 3500 
L 3481 434 
z
" transform="scale(0.015625)"/>
       <path id="DejaVuSans-20" transform="scale(0.015625)"/>
       <path id="DejaVuSans-43" d="M 4122 4306 
L 4122 3641 
Q 3803 3938 3442 4084 
Q 3081 4231 2675 4231 
Q 1875 4231 1450 3742 
Q 1025 3253 1025 2328 
Q 1025 1406 1450 917 
Q 1875 428 2675 428 
Q 3081 428 3442 575 
Q 3803 722 4122 1019 
L 4122 359 
Q 3791 134 3420 21 
Q 3050 -91 2638 -91 
Q 1578 -91 968 557 
Q 359 1206 359 2328 
Q 359 3453 968 4101 
Q 1578 4750 2638 4750 
Q 3056 4750 3426 4639 
Q 3797 4528 4122 4306 
z
" transform="scale(0.015625)"/>
       <path id="DejaVuSans-75" d="M 544 1381 
L 544 3500 
L 1119 3500 
L 1119 1403 
Q 1119 906 1312 657 
Q 1506 409 1894 409 
Q 2359 409 2629 706 
Q 2900 1003 2900 1516 
L 2900 3500 
L 3475 3500 
L 3475 0 
L 2900 0 
L 2900 538 
Q 2691 219 2414 64 
Q 2138 -91 1772 -91 
Q 1169 -91 856 284 
Q 544 659 544 1381 
z
M 1991 3584 
L 1991 3584 
z
" transform="scale(0.015625)"/>
       <path id="DejaVuSans-76" d="M 191 3500 
L 800 3500 
L 1894 563 
L 2988 3500 
L 3597 3500 
L 2284 0 
L 1503 0 
L 191 3500 
z
" transform="scale(0.015625)"/>
      </defs>
      <use xlink:href="#DejaVuSans-4c"/>
      <use xlink:href="#DejaVuSans-65" x="53.962891"/>
      <use xlink:href="#DejaVuSans-61" x="115.486328"/>
      <use xlink:href="#DejaVuSans-72" x="176.765625"/>
      <use xlink:href="#DejaVuSans-6e" x="216.128906"/>
      <use xlink:href="#DejaVuSans-69" x="279.507812"/>
      <use xlink:href="#DejaVuSans-6e" x="307.291016"/>
      <use xlink:href="#DejaVuSans-67" x="370.669922"/>
      <use xlink:href="#DejaVuSans-20" x="434.146484"/>
      <use xlink:href="#DejaVuSans-43" x="465.933594"/>
      <use xlink:href="#DejaVuSans-75" x="535.757812"/>
      <use xlink:href="#DejaVuSans-72" x="599.136719"/>
      <use xlink:href="#DejaVuSans-76" x="640.25"/>
      <use xlink:href="#DejaVuSans-65" x="699.429688"/>
     </g>
    </g>
   </g>
   <g id="matplotlib.axis_2">
    <g id="ytick_1">
     <g id="line2d_6">
      <defs>
       <path id="m344a73cc63" d="M 0 0 
L -3.5 0 
" style="stroke: #000000; stroke-width: 0.8"/>
      </defs>
      <g>
       <use xlink:href="#m344a73cc63" x="34.2" y="147.852163" style="stroke: #000000; stroke-width: 0.8"/>
      </g>
     </g>
     <g id="text_7">
      <!-- 0.25 -->
      <g transform="translate(5.602344 151.537405)scale(0.097 -0.097)">
       <defs>
        <path id="DejaVuSans-2e" d="M 684 794 
L 1344 794 
L 1344 0 
L 684 0 
L 684 794 
z
" transform="scale(0.015625)"/>
       </defs>
       <use xlink:href="#DejaVuSans-30"/>
       <use xlink:href="#DejaVuSans-2e" x="63.623047"/>
       <use xlink:href="#DejaVuSans-32" x="95.410156"/>
       <use xlink:href="#DejaVuSans-35" x="159.033203"/>
      </g>
     </g>
    </g>
    <g id="ytick_2">
     <g id="line2d_7">
      <g>
       <use xlink:href="#m344a73cc63" x="34.2" y="126.590204" style="stroke: #000000; stroke-width: 0.8"/>
      </g>
     </g>
     <g id="text_8">
      <!-- 0.50 -->
      <g transform="translate(5.602344 130.275446)scale(0.097 -0.097)">
       <use xlink:href="#DejaVuSans-30"/>
       <use xlink:href="#DejaVuSans-2e" x="63.623047"/>
       <use xlink:href="#DejaVuSans-35" x="95.410156"/>
       <use xlink:href="#DejaVuSans-30" x="159.033203"/>
      </g>
     </g>
    </g>
    <g id="ytick_3">
     <g id="line2d_8">
      <g>
       <use xlink:href="#m344a73cc63" x="34.2" y="105.328245" style="stroke: #000000; stroke-width: 0.8"/>
      </g>
     </g>
     <g id="text_9">
      <!-- 0.75 -->
      <g transform="translate(5.602344 109.013487)scale(0.097 -0.097)">
       <defs>
        <path id="DejaVuSans-37" d="M 525 4666 
L 3525 4666 
L 3525 4397 
L 1831 0 
L 1172 0 
L 2766 4134 
L 525 4134 
L 525 4666 
z
" transform="scale(0.015625)"/>
       </defs>
       <use xlink:href="#DejaVuSans-30"/>
       <use xlink:href="#DejaVuSans-2e" x="63.623047"/>
       <use xlink:href="#DejaVuSans-37" x="95.410156"/>
       <use xlink:href="#DejaVuSans-35" x="159.033203"/>
      </g>
     </g>
    </g>
    <g id="ytick_4">
     <g id="line2d_9">
      <g>
       <use xlink:href="#m344a73cc63" x="34.2" y="84.066286" style="stroke: #000000; stroke-width: 0.8"/>
      </g>
     </g>
     <g id="text_10">
      <!-- 1.00 -->
      <g transform="translate(5.602344 87.751528)scale(0.097 -0.097)">
       <use xlink:href="#DejaVuSans-31"/>
       <use xlink:href="#DejaVuSans-2e" x="63.623047"/>
       <use xlink:href="#DejaVuSans-30" x="95.410156"/>
       <use xlink:href="#DejaVuSans-30" x="159.033203"/>
      </g>
     </g>
    </g>
    <g id="ytick_5">
     <g id="line2d_10">
      <g>
       <use xlink:href="#m344a73cc63" x="34.2" y="62.804327" style="stroke: #000000; stroke-width: 0.8"/>
      </g>
     </g>
     <g id="text_11">
      <!-- 1.25 -->
      <g transform="translate(5.602344 66.489569)scale(0.097 -0.097)">
       <use xlink:href="#DejaVuSans-31"/>
       <use xlink:href="#DejaVuSans-2e" x="63.623047"/>
       <use xlink:href="#DejaVuSans-32" x="95.410156"/>
       <use xlink:href="#DejaVuSans-35" x="159.033203"/>
      </g>
     </g>
    </g>
    <g id="ytick_6">
     <g id="line2d_11">
      <g>
       <use xlink:href="#m344a73cc63" x="34.2" y="41.542368" style="stroke: #000000; stroke-width: 0.8"/>
      </g>
     </g>
     <g id="text_12">
      <!-- 1.50 -->
      <g transform="translate(5.602344 45.22761)scale(0.097 -0.097)">
       <use xlink:href="#DejaVuSans-31"/>
       <use xlink:href="#DejaVuSans-2e" x="63.623047"/>
       <use xlink:href="#DejaVuSans-35" x="95.410156"/>
       <use xlink:href="#DejaVuSans-30" x="159.033203"/>
      </g>
     </g>
    </g>
    <g id="text_13">
     <!-- Loss -->
     <g transform="translate(-0.414953 103.770172)rotate(-90)scale(0.097 -0.097)">
      <defs>
       <path id="DejaVuSans-6f" d="M 1959 3097 
Q 1497 3097 1228 2736 
Q 959 2375 959 1747 
Q 959 1119 1226 758 
Q 1494 397 1959 397 
Q 2419 397 2687 759 
Q 2956 1122 2956 1747 
Q 2956 2369 2687 2733 
Q 2419 3097 1959 3097 
z
M 1959 3584 
Q 2709 3584 3137 3096 
Q 3566 2609 3566 1747 
Q 3566 888 3137 398 
Q 2709 -91 1959 -91 
Q 1206 -91 779 398 
Q 353 888 353 1747 
Q 353 2609 779 3096 
Q 1206 3584 1959 3584 
z
" transform="scale(0.015625)"/>
       <path id="DejaVuSans-73" d="M 2834 3397 
L 2834 2853 
Q 2591 2978 2328 3040 
Q 2066 3103 1784 3103 
Q 1356 3103 1142 2972 
Q 928 2841 928 2578 
Q 928 2378 1081 2264 
Q 1234 2150 1697 2047 
L 1894 2003 
Q 2506 1872 2764 1633 
Q 3022 1394 3022 966 
Q 3022 478 2636 193 
Q 2250 -91 1575 -91 
Q 1294 -91 989 -36 
Q 684 19 347 128 
L 347 722 
Q 666 556 975 473 
Q 1284 391 1588 391 
Q 1994 391 2212 530 
Q 2431 669 2431 922 
Q 2431 1156 2273 1281 
Q 2116 1406 1581 1522 
L 1381 1569 
Q 847 1681 609 1914 
Q 372 2147 372 2553 
Q 372 3047 722 3315 
Q 1072 3584 1716 3584 
Q 2034 3584 2315 3537 
Q 2597 3491 2834 3397 
z
" transform="scale(0.015625)"/>
      </defs>
      <use xlink:href="#DejaVuSans-4c"/>
      <use xlink:href="#DejaVuSans-6f" x="53.962891"/>
      <use xlink:href="#DejaVuSans-73" x="115.144531"/>
      <use xlink:href="#DejaVuSans-73" x="167.244141"/>
     </g>
    </g>
   </g>
   <g id="line2d_12">
    <path d="M 43.838182 32.899476 
L 44.031042 28.888364 
L 44.127472 28.914075 
L 44.320332 31.445028 
L 44.416762 31.019434 
L 44.609622 31.441783 
L 44.706052 32.561367 
L 44.802482 32.552516 
L 45.188202 33.53082 
L 45.477492 34.950736 
L 45.766782 36.084179 
L 46.248933 39.122989 
L 46.538223 40.689852 
L 47.116803 44.879169 
L 47.502523 47.702211 
L 49.141834 60.379189 
L 50.009704 67.017904 
L 50.877574 72.983636 
L 51.166864 74.623041 
L 51.649015 77.268913 
L 51.745445 77.424864 
L 52.420455 80.983971 
L 53.095465 83.912627 
L 53.674045 86.336365 
L 54.541916 90.037746 
L 55.024066 91.383981 
L 55.216926 91.79057 
L 55.988366 94.404096 
L 56.663376 96.487317 
L 57.049096 97.778171 
L 57.820537 99.992154 
L 57.916967 99.9619 
L 58.399117 101.26203 
L 59.941997 104.287914 
L 60.327717 104.697504 
L 60.906298 105.795477 
L 62.159888 107.722075 
L 62.256318 107.789425 
L 62.449178 108.112021 
L 62.545608 108.10791 
L 62.834898 108.443089 
L 63.413479 109.032911 
L 63.606339 109.183168 
L 63.702769 109.197109 
L 63.992059 109.690265 
L 64.859929 110.745804 
L 65.149219 111.080151 
L 66.40281 112.175554 
L 66.88496 112.61963 
L 67.36711 113.046375 
L 69.488571 114.783965 
L 69.681431 114.845911 
L 71.224311 116.269077 
L 71.513601 116.501978 
L 72.188612 117.277674 
L 72.574332 117.604418 
L 72.863622 117.745181 
L 73.249342 118.077738 
L 73.442202 118.062531 
L 81.542325 122.873661 
L 82.024475 123.133551 
L 82.410195 123.333011 
L 82.988775 123.612052 
L 83.181635 123.709179 
L 86.074536 124.786835 
L 86.363826 124.889112 
L 86.942407 125.108945 
L 87.135267 125.122323 
L 87.713847 125.369697 
L 88.195997 125.444676 
L 88.967437 125.75942 
L 91.571048 126.390247 
L 91.860338 126.408446 
L 92.342489 126.569608 
L 93.017499 126.717723 
L 93.499649 126.885923 
L 98.899731 128.302996 
L 99.381881 128.443584 
L 100.442611 128.7235 
L 101.021192 128.810463 
L 102.178352 129.052532 
L 102.949792 129.173585 
L 103.431942 129.289932 
L 104.203383 129.466215 
L 110.953485 130.636233 
L 111.146345 130.572715 
L 112.399935 130.704105 
L 112.978516 130.787479 
L 113.846386 130.874153 
L 114.232106 130.932746 
L 114.810686 131.021412 
L 116.160707 131.11501 
L 117.414297 131.377002 
L 117.896447 131.400475 
L 119.150038 131.440306 
L 123.103669 131.981869 
L 123.971539 132.12176 
L 126.96087 132.530498 
L 128.310891 132.584912 
L 129.950201 132.834382 
L 130.335922 132.802438 
L 131.685942 132.869416 
L 133.325253 133.012809 
L 134.578843 133.122483 
L 135.253853 133.266682 
L 136.025294 133.404943 
L 136.411014 133.449119 
L 136.989594 133.538026 
L 137.761034 133.59506 
L 138.436044 133.65595 
L 140.171785 133.834334 
L 140.268215 148.278905 
L 140.364645 143.038285 
L 140.461075 143.489486 
L 140.750365 136.67259 
L 141.425375 143.497784 
L 141.521805 144.063043 
L 141.714666 146.485319 
L 141.811096 143.929644 
L 141.907526 144.431816 
L 142.100386 143.688416 
L 142.293246 145.390598 
L 142.389676 144.513687 
L 142.582536 145.408175 
L 142.678966 145.623725 
L 142.968256 144.682394 
L 143.161116 145.653965 
L 143.257546 145.364167 
L 143.353976 143.871677 
L 143.546836 144.765611 
L 143.643266 144.469992 
L 143.836126 144.884079 
L 143.932556 145.256113 
L 144.028986 144.732159 
L 144.125416 144.816521 
L 144.221846 144.771673 
L 144.414706 145.530986 
L 144.511136 145.393018 
L 144.896857 146.235213 
L 144.993287 146.0657 
L 145.089717 146.462556 
L 145.186147 145.983996 
L 145.282577 146.116856 
L 145.475437 145.774634 
L 145.764727 146.270502 
L 145.957587 146.26761 
L 146.150447 146.671508 
L 146.246877 146.613328 
L 146.343307 146.359115 
L 146.439737 146.560119 
L 146.536167 146.44605 
L 146.729027 146.667366 
L 146.825457 146.631633 
L 146.921887 146.428957 
L 147.114747 146.740563 
L 147.307607 147.150458 
L 147.500468 147.254549 
L 147.789758 147.618455 
L 147.982618 147.219815 
L 148.850488 147.820972 
L 149.043348 147.995412 
L 149.236208 148.203709 
L 149.332638 148.128585 
L 149.525498 148.220311 
L 149.621928 148.175303 
L 149.814788 148.515024 
L 150.104078 148.155869 
L 150.200508 148.308998 
L 150.393369 148.302442 
L 150.489799 148.295468 
L 150.682659 148.414465 
L 150.875519 148.190834 
L 151.164809 148.449096 
L 151.261239 148.354262 
L 151.357669 148.432627 
L 151.454099 148.342131 
L 151.743389 148.417201 
L 151.936249 148.434657 
L 152.032679 148.180641 
L 152.321969 148.459857 
L 152.611259 148.302611 
L 152.804119 148.407476 
L 153.189839 148.61795 
L 154.15414 148.804086 
L 154.44343 149.034405 
L 154.73272 148.918057 
L 155.11844 149.11365 
L 155.3113 148.666863 
L 155.79345 149.021705 
L 155.88988 148.911885 
L 156.372031 149.129768 
L 156.564891 149.016376 
L 157.239901 149.016338 
L 157.529191 149.168135 
L 157.818481 149.250317 
L 158.011341 149.210144 
L 158.204201 149.270168 
L 158.300631 149.337811 
L 158.493491 149.277288 
L 158.589921 149.35717 
L 158.686351 149.196508 
L 158.975641 149.320887 
L 160.132802 149.298164 
L 160.325662 149.169263 
L 160.518522 149.157647 
L 160.711382 149.180001 
L 160.904242 149.146258 
L 162.350693 148.78479 
L 162.543553 148.777474 
L 162.736413 148.81739 
L 163.314993 148.921871 
L 163.700713 148.983626 
L 163.990003 149.02153 
L 164.279293 149.026578 
L 165.147164 149.097763 
L 165.436454 149.156068 
L 165.629314 149.132692 
L 165.822174 149.069651 
L 166.015034 148.923535 
L 166.400754 148.953074 
L 166.786474 148.891309 
L 166.979334 148.866803 
L 167.654344 149.03037 
L 167.847205 149.030349 
L 168.522215 149.245267 
L 169.100795 149.094804 
L 169.582945 149.166732 
L 169.872235 149.175997 
L 170.065095 149.192428 
L 171.704406 149.150826 
L 172.090126 149.214647 
L 172.282986 149.164173 
L 172.765136 149.26419 
L 173.054426 149.125054 
L 174.597307 149.294163 
L 175.947327 149.220937 
L 176.525907 149.279649 
L 176.718768 149.253102 
L 176.911628 149.285027 
L 177.200918 149.147563 
L 178.550938 148.883297 
L 178.840228 148.767091 
L 179.322378 148.77451 
L 180.190249 148.702838 
L 180.286679 148.72337 
L 180.479539 148.611753 
L 180.865259 148.624771 
L 181.058119 148.594913 
L 182.69743 148.635932 
L 183.27601 148.627752 
L 184.04745 148.698058 
L 184.5296 148.544143 
L 185.397471 148.564719 
L 186.361771 148.478563 
L 187.422501 148.290332 
L 187.904651 148.308802 
L 190.026112 148.282766 
L 191.086843 148.374226 
L 191.568993 148.293984 
L 192.436863 148.421424 
L 193.015443 148.503537 
L 203.719177 148.181647 
L 204.008467 148.110413 
L 204.490617 148.097462 
L 205.069197 147.993409 
L 210.662139 148.048276 
L 210.951429 147.987917 
L 211.8193 147.876495 
L 212.7836 147.857545 
L 214.13362 147.876579 
L 214.422911 147.858255 
L 216.930091 147.960922 
L 221.462303 148.068935 
L 222.137313 147.967459 
L 222.812323 147.992167 
L 225.608794 147.990747 
L 225.898084 147.882562 
L 230.430296 148.04259 
L 231.298166 148.012891 
L 232.166037 148.023998 
L 235.251798 147.96059 
L 236.601818 147.983454 
L 236.601818 147.983454 
" clip-path="url(#p857d691433)" style="fill: none; stroke: #1f77b4; stroke-width: 1.6; stroke-linecap: square"/>
   </g>
   <g id="line2d_13">
    <path d="M 43.838182 155.126539 
L 43.934612 155.195561 
L 44.031042 157.375636 
L 44.127472 146.780451 
L 44.223902 148.029276 
L 44.320332 145.206136 
L 44.416762 147.528428 
L 44.513192 146.451667 
L 44.609622 146.844711 
L 44.802482 142.507315 
L 44.898912 142.496352 
L 45.284632 135.745498 
L 45.381062 135.969954 
L 45.959643 141.907085 
L 46.056073 139.223396 
L 46.248933 141.162284 
L 46.441793 140.683968 
L 46.538223 141.30734 
L 46.634653 140.983621 
L 46.731083 139.740665 
L 46.923943 140.664063 
L 47.020373 139.996195 
L 47.406093 142.515081 
L 47.502523 142.430868 
L 47.695383 141.656842 
L 48.081103 143.480166 
L 48.177533 143.136482 
L 48.273963 142.181996 
L 48.659683 143.213699 
L 48.756114 142.983203 
L 48.948974 143.334578 
L 49.045404 143.097935 
L 49.141834 143.192667 
L 49.623984 144.874868 
L 49.720414 144.856824 
L 50.009704 145.417612 
L 50.298994 143.33 
L 50.395424 143.600695 
L 50.588284 142.895662 
L 50.974004 143.444025 
L 51.070434 143.258405 
L 51.166864 143.332943 
L 51.263294 143.251138 
L 51.456154 143.38069 
L 51.841875 143.120927 
L 52.227595 143.493585 
L 52.516885 143.962216 
L 52.613315 143.683223 
L 52.709745 143.919799 
L 52.806175 143.853085 
L 52.902605 144.039824 
L 52.999035 143.952607 
L 53.191895 144.262863 
L 53.384755 144.039705 
L 53.674045 143.617946 
L 53.963335 143.359275 
L 54.349055 142.70501 
L 54.734776 143.237 
L 55.024066 142.707983 
L 55.216926 143.069717 
L 55.313356 142.883174 
L 55.506216 143.057155 
L 55.795506 143.095492 
L 55.891936 142.869 
L 56.181226 143.308017 
L 56.277656 143.083351 
L 56.952666 143.589662 
L 57.049096 143.726985 
L 57.145526 143.49358 
L 57.531247 143.808005 
L 57.627677 143.720362 
L 57.820537 143.967955 
L 58.013397 143.871015 
L 58.206257 143.946745 
L 58.399117 143.923277 
L 58.495547 143.781036 
L 58.591977 143.894167 
L 58.977697 143.702146 
L 59.170557 143.909542 
L 59.363417 143.961927 
L 59.652707 143.271179 
L 59.845567 143.517952 
L 60.038427 143.446557 
L 60.327717 143.606041 
L 60.424148 143.308065 
L 60.906298 143.631448 
L 61.099158 143.209484 
L 61.388448 143.251252 
L 61.484878 142.944631 
L 61.677738 143.176937 
L 61.774168 143.065152 
L 62.063458 143.368838 
L 62.449178 143.259411 
L 62.545608 143.357164 
L 62.642038 143.277792 
L 62.738468 143.383797 
L 62.834898 142.934127 
L 63.027758 143.113804 
L 63.124188 143.070006 
L 63.220618 143.152077 
L 63.509909 142.966228 
L 63.702769 142.950101 
L 64.184919 143.319958 
L 64.474209 143.105729 
L 64.667069 143.237897 
L 64.763499 143.103073 
L 65.245649 143.415997 
L 65.342079 143.373466 
L 65.631369 143.583363 
L 65.920659 143.291334 
L 66.113519 143.331212 
L 66.30638 143.489182 
L 66.49924 143.134606 
L 66.98139 143.295157 
L 67.27068 143.181456 
L 67.36711 143.271765 
L 67.46354 143.174187 
L 67.55997 143.252803 
L 67.75283 143.215635 
L 67.84926 143.247034 
L 68.04212 143.117644 
L 68.13855 143.188107 
L 68.33141 143.126622 
L 68.52427 143.149256 
L 69.488571 143.592032 
L 69.777861 143.455106 
L 70.067151 143.604345 
L 70.260011 143.507026 
L 70.452871 143.61114 
L 70.645731 143.559386 
L 70.935021 143.642364 
L 71.706461 143.857947 
L 71.995752 143.763593 
L 72.092182 143.811852 
L 72.285042 143.640463 
L 72.477902 143.3622 
L 72.767192 143.113067 
L 72.960052 143.095776 
L 73.924352 143.569192 
L 74.695792 143.65537 
L 75.081513 143.50019 
L 75.370803 143.641536 
L 75.756523 143.420567 
L 76.045813 143.461273 
L 76.431533 143.386423 
L 77.010113 143.546178 
L 77.299403 143.600178 
L 77.492263 143.630888 
L 77.781554 143.677504 
L 78.070844 143.451469 
L 78.552994 143.642025 
L 78.938714 143.711818 
L 79.131574 143.662702 
L 79.324434 143.626346 
L 80.095874 143.732516 
L 80.288734 143.715007 
L 80.481594 143.765904 
L 80.770885 143.579399 
L 80.963745 143.413739 
L 81.253035 143.469815 
L 81.928045 143.340534 
L 82.120905 143.332884 
L 82.313765 143.236369 
L 82.506625 143.228199 
L 82.603055 143.281956 
L 82.795915 143.125818 
L 83.181635 143.101818 
L 83.374495 143.080089 
L 84.242366 142.990703 
L 84.531656 142.891128 
L 85.013806 142.962323 
L 85.399526 142.994074 
L 85.688816 143.038853 
L 86.267396 143.162979 
L 86.460256 143.020355 
L 87.520987 143.226245 
L 87.713847 143.19989 
L 88.003137 143.270155 
L 88.195997 143.221424 
L 88.485287 143.322992 
L 88.678147 143.275027 
L 89.160297 143.28684 
L 89.353157 143.205079 
L 90.703178 143.536995 
L 91.185328 143.536323 
L 91.474618 143.545182 
L 91.956768 143.653633 
L 92.053198 138.258587 
L 92.246058 150.941043 
L 92.342489 142.869175 
L 92.438919 144.231872 
L 92.535349 139.606008 
L 92.631779 142.588326 
L 92.728209 138.616686 
L 92.824639 139.95772 
L 93.017499 139.324292 
L 93.210359 140.774621 
L 93.499649 135.549932 
L 93.596079 135.094016 
L 94.078229 140.882315 
L 94.174659 141.790564 
L 94.271089 139.172014 
L 94.560379 141.237902 
L 94.656809 140.646886 
L 94.849669 141.552907 
L 94.946099 140.342012 
L 95.138959 140.813624 
L 95.23539 140.390907 
L 95.62111 143.019993 
L 95.71754 143.077526 
L 95.81397 142.409694 
L 95.9104 142.489955 
L 96.29612 144.315441 
L 96.58541 143.065322 
L 96.77827 143.601392 
L 96.8747 143.281908 
L 97.06756 143.837031 
L 97.26042 143.467372 
L 97.35685 143.598858 
L 97.74257 144.882604 
L 97.93543 145.129932 
L 98.128291 145.662743 
L 98.224721 145.437412 
L 98.417581 143.470874 
L 98.514011 143.209286 
L 98.610441 143.498839 
L 98.803301 142.727589 
L 98.899731 142.796736 
L 99.092591 142.233803 
L 99.189021 142.491402 
L 99.285451 142.256838 
L 99.381881 142.30418 
L 99.478311 142.124789 
L 99.574741 142.413125 
L 99.864031 141.904774 
L 99.960461 142.04833 
L 100.153321 141.984835 
L 100.731901 143.045914 
L 100.828331 142.763517 
L 101.021192 143.025075 
L 101.117622 143.143279 
L 101.214052 143.056266 
L 101.406912 143.506035 
L 102.178352 141.955345 
L 102.274782 141.581242 
L 102.371212 141.633189 
L 102.467642 141.309046 
L 102.660502 141.603914 
L 102.756932 141.751333 
L 102.853362 141.588506 
L 102.949792 141.799666 
L 103.239082 141.066873 
L 103.431942 141.448808 
L 103.528372 141.32307 
L 103.624802 141.484029 
L 103.721232 141.406594 
L 104.010523 141.649345 
L 104.106953 141.577985 
L 104.396243 142.065048 
L 104.492673 141.715432 
L 105.264113 142.510749 
L 105.456973 142.346868 
L 105.746263 142.680125 
L 105.842693 142.37045 
L 105.939123 142.428123 
L 106.035553 142.595788 
L 106.131983 142.412834 
L 106.517703 142.855159 
L 106.710563 142.798515 
L 106.903424 142.929933 
L 106.999854 142.681717 
L 107.482004 143.082864 
L 107.578434 143.157283 
L 107.867724 142.466586 
L 108.060584 142.731104 
L 108.253444 142.524137 
L 108.542734 142.844371 
L 108.639164 142.660069 
L 109.121314 142.990082 
L 109.314174 142.590557 
L 109.507034 142.709438 
L 109.603464 142.691556 
L 109.699894 142.33168 
L 109.892755 142.563918 
L 109.989185 142.474025 
L 110.471335 142.825929 
L 110.664195 142.619773 
L 110.953485 142.7231 
L 111.049915 142.236792 
L 111.242775 142.340871 
L 111.532065 142.333581 
L 111.917785 142.42829 
L 112.399935 142.683889 
L 112.496365 142.522821 
L 112.592795 142.578119 
L 112.689226 142.497807 
L 112.882086 142.646541 
L 112.978516 142.533406 
L 113.364236 142.76704 
L 113.942816 142.915244 
L 114.135676 142.839933 
L 114.521396 143.065063 
L 114.714256 142.755396 
L 115.003546 143.012941 
L 115.099976 142.873641 
L 115.196406 142.938667 
L 115.485696 142.795195 
L 115.774987 142.794548 
L 115.967847 142.69017 
L 116.064277 142.751287 
L 116.257137 142.546469 
L 116.353567 142.633199 
L 116.546427 142.564235 
L 116.739287 142.607817 
L 117.414297 142.944329 
L 117.703587 143.162535 
L 118.089307 143.039066 
L 118.282167 143.124052 
L 118.475028 143.137954 
L 118.667888 143.212989 
L 118.860748 143.237425 
L 119.342898 143.397611 
L 119.535758 143.531543 
L 119.728618 143.414971 
L 120.114338 143.407402 
L 120.596488 143.189904 
L 120.885778 142.659676 
L 121.175068 142.544977 
L 122.139369 143.008133 
L 123.007239 143.15482 
L 123.200099 143.106385 
L 123.489389 143.178848 
L 123.778679 143.253705 
L 124.64655 142.888791 
L 125.22513 142.961015 
L 125.41799 142.980597 
L 125.99657 143.142481 
L 126.28586 142.930673 
L 126.86444 143.187326 
L 127.250161 143.256012 
L 127.443021 143.115492 
L 128.021601 143.324485 
L 128.214461 143.224636 
L 128.600181 143.271372 
L 128.696611 143.317416 
L 128.889471 143.191044 
L 128.985901 143.204306 
L 129.178761 143.019856 
L 129.660911 142.889277 
L 130.239492 142.923236 
L 130.335922 142.967947 
L 130.528782 142.834965 
L 130.721642 142.808364 
L 130.818072 142.866364 
L 131.010932 142.78002 
L 131.396652 142.809528 
L 131.589512 142.787786 
L 131.878802 142.799846 
L 132.168092 142.752768 
L 132.843102 142.537543 
L 133.035963 142.541256 
L 135.157423 142.768457 
L 135.639573 142.891181 
L 135.928864 142.778793 
L 136.314584 142.86334 
L 136.507444 142.878515 
L 136.700304 142.937275 
L 136.893164 142.827341 
L 137.568174 142.846452 
L 138.918195 143.211372 
L 139.400345 143.163245 
L 140.075355 143.22788 
L 140.171785 143.238264 
L 140.171785 143.238264 
" clip-path="url(#p857d691433)" style="fill: none; stroke: #ff7f0e; stroke-width: 1.6; stroke-linecap: square"/>
   </g>
   <g id="patch_3">
    <path d="M 34.2 163.8 
L 34.2 22.464 
" style="fill: none; stroke: #000000; stroke-width: 0.8; stroke-linejoin: miter; stroke-linecap: square"/>
   </g>
   <g id="patch_4">
    <path d="M 246.24 163.8 
L 246.24 22.464 
" style="fill: none; stroke: #000000; stroke-width: 0.8; stroke-linejoin: miter; stroke-linecap: square"/>
   </g>
   <g id="patch_5">
    <path d="M 34.2 163.8 
L 246.24 163.8 
" style="fill: none; stroke: #000000; stroke-width: 0.8; stroke-linejoin: miter; stroke-linecap: square"/>
   </g>
   <g id="patch_6">
    <path d="M 34.2 22.464 
L 246.24 22.464 
" style="fill: none; stroke: #000000; stroke-width: 0.8; stroke-linejoin: miter; stroke-linecap: square"/>
   </g>
  </g>
  <g id="axes_2">
   <g id="matplotlib.axis_3">
    <g id="ytick_7">
     <g id="line2d_14">
      <defs>
       <path id="m4b2cbca488" d="M 0 0 
L 3.5 0 
" style="stroke: #000000; stroke-width: 0.8"/>
      </defs>
      <g>
       <use xlink:href="#m4b2cbca488" x="246.24" y="163.109779" style="stroke: #000000; stroke-width: 0.8"/>
      </g>
     </g>
     <g id="text_14">
      <!-- 0.3 -->
      <g transform="translate(253.24 166.795021)scale(0.097 -0.097)">
       <defs>
        <path id="DejaVuSans-33" d="M 2597 2516 
Q 3050 2419 3304 2112 
Q 3559 1806 3559 1356 
Q 3559 666 3084 287 
Q 2609 -91 1734 -91 
Q 1441 -91 1130 -33 
Q 819 25 488 141 
L 488 750 
Q 750 597 1062 519 
Q 1375 441 1716 441 
Q 2309 441 2620 675 
Q 2931 909 2931 1356 
Q 2931 1769 2642 2001 
Q 2353 2234 1838 2234 
L 1294 2234 
L 1294 2753 
L 1863 2753 
Q 2328 2753 2575 2939 
Q 2822 3125 2822 3475 
Q 2822 3834 2567 4026 
Q 2313 4219 1838 4219 
Q 1578 4219 1281 4162 
Q 984 4106 628 3988 
L 628 4550 
Q 988 4650 1302 4700 
Q 1616 4750 1894 4750 
Q 2613 4750 3031 4423 
Q 3450 4097 3450 3541 
Q 3450 3153 3228 2886 
Q 3006 2619 2597 2516 
z
" transform="scale(0.015625)"/>
       </defs>
       <use xlink:href="#DejaVuSans-30"/>
       <use xlink:href="#DejaVuSans-2e" x="63.623047"/>
       <use xlink:href="#DejaVuSans-33" x="95.410156"/>
      </g>
     </g>
    </g>
    <g id="ytick_8">
     <g id="line2d_15">
      <g>
       <use xlink:href="#m4b2cbca488" x="246.24" y="142.721716" style="stroke: #000000; stroke-width: 0.8"/>
      </g>
     </g>
     <g id="text_15">
      <!-- 0.4 -->
      <g transform="translate(253.24 146.406958)scale(0.097 -0.097)">
       <defs>
        <path id="DejaVuSans-34" d="M 2419 4116 
L 825 1625 
L 2419 1625 
L 2419 4116 
z
M 2253 4666 
L 3047 4666 
L 3047 1625 
L 3713 1625 
L 3713 1100 
L 3047 1100 
L 3047 0 
L 2419 0 
L 2419 1100 
L 313 1100 
L 313 1709 
L 2253 4666 
z
" transform="scale(0.015625)"/>
       </defs>
       <use xlink:href="#DejaVuSans-30"/>
       <use xlink:href="#DejaVuSans-2e" x="63.623047"/>
       <use xlink:href="#DejaVuSans-34" x="95.410156"/>
      </g>
     </g>
    </g>
    <g id="ytick_9">
     <g id="line2d_16">
      <g>
       <use xlink:href="#m4b2cbca488" x="246.24" y="122.333652" style="stroke: #000000; stroke-width: 0.8"/>
      </g>
     </g>
     <g id="text_16">
      <!-- 0.5 -->
      <g transform="translate(253.24 126.018894)scale(0.097 -0.097)">
       <use xlink:href="#DejaVuSans-30"/>
       <use xlink:href="#DejaVuSans-2e" x="63.623047"/>
       <use xlink:href="#DejaVuSans-35" x="95.410156"/>
      </g>
     </g>
    </g>
    <g id="ytick_10">
     <g id="line2d_17">
      <g>
       <use xlink:href="#m4b2cbca488" x="246.24" y="101.945588" style="stroke: #000000; stroke-width: 0.8"/>
      </g>
     </g>
     <g id="text_17">
      <!-- 0.6 -->
      <g transform="translate(253.24 105.63083)scale(0.097 -0.097)">
       <defs>
        <path id="DejaVuSans-36" d="M 2113 2584 
Q 1688 2584 1439 2293 
Q 1191 2003 1191 1497 
Q 1191 994 1439 701 
Q 1688 409 2113 409 
Q 2538 409 2786 701 
Q 3034 994 3034 1497 
Q 3034 2003 2786 2293 
Q 2538 2584 2113 2584 
z
M 3366 4563 
L 3366 3988 
Q 3128 4100 2886 4159 
Q 2644 4219 2406 4219 
Q 1781 4219 1451 3797 
Q 1122 3375 1075 2522 
Q 1259 2794 1537 2939 
Q 1816 3084 2150 3084 
Q 2853 3084 3261 2657 
Q 3669 2231 3669 1497 
Q 3669 778 3244 343 
Q 2819 -91 2113 -91 
Q 1303 -91 875 529 
Q 447 1150 447 2328 
Q 447 3434 972 4092 
Q 1497 4750 2381 4750 
Q 2619 4750 2861 4703 
Q 3103 4656 3366 4563 
z
" transform="scale(0.015625)"/>
       </defs>
       <use xlink:href="#DejaVuSans-30"/>
       <use xlink:href="#DejaVuSans-2e" x="63.623047"/>
       <use xlink:href="#DejaVuSans-36" x="95.410156"/>
      </g>
     </g>
    </g>
    <g id="ytick_11">
     <g id="line2d_18">
      <g>
       <use xlink:href="#m4b2cbca488" x="246.24" y="81.557524" style="stroke: #000000; stroke-width: 0.8"/>
      </g>
     </g>
     <g id="text_18">
      <!-- 0.7 -->
      <g transform="translate(253.24 85.242766)scale(0.097 -0.097)">
       <use xlink:href="#DejaVuSans-30"/>
       <use xlink:href="#DejaVuSans-2e" x="63.623047"/>
       <use xlink:href="#DejaVuSans-37" x="95.410156"/>
      </g>
     </g>
    </g>
    <g id="ytick_12">
     <g id="line2d_19">
      <g>
       <use xlink:href="#m4b2cbca488" x="246.24" y="61.169461" style="stroke: #000000; stroke-width: 0.8"/>
      </g>
     </g>
     <g id="text_19">
      <!-- 0.8 -->
      <g transform="translate(253.24 64.854703)scale(0.097 -0.097)">
       <defs>
        <path id="DejaVuSans-38" d="M 2034 2216 
Q 1584 2216 1326 1975 
Q 1069 1734 1069 1313 
Q 1069 891 1326 650 
Q 1584 409 2034 409 
Q 2484 409 2743 651 
Q 3003 894 3003 1313 
Q 3003 1734 2745 1975 
Q 2488 2216 2034 2216 
z
M 1403 2484 
Q 997 2584 770 2862 
Q 544 3141 544 3541 
Q 544 4100 942 4425 
Q 1341 4750 2034 4750 
Q 2731 4750 3128 4425 
Q 3525 4100 3525 3541 
Q 3525 3141 3298 2862 
Q 3072 2584 2669 2484 
Q 3125 2378 3379 2068 
Q 3634 1759 3634 1313 
Q 3634 634 3220 271 
Q 2806 -91 2034 -91 
Q 1263 -91 848 271 
Q 434 634 434 1313 
Q 434 1759 690 2068 
Q 947 2378 1403 2484 
z
M 1172 3481 
Q 1172 3119 1398 2916 
Q 1625 2713 2034 2713 
Q 2441 2713 2670 2916 
Q 2900 3119 2900 3481 
Q 2900 3844 2670 4047 
Q 2441 4250 2034 4250 
Q 1625 4250 1398 4047 
Q 1172 3844 1172 3481 
z
" transform="scale(0.015625)"/>
       </defs>
       <use xlink:href="#DejaVuSans-30"/>
       <use xlink:href="#DejaVuSans-2e" x="63.623047"/>
       <use xlink:href="#DejaVuSans-38" x="95.410156"/>
      </g>
     </g>
    </g>
    <g id="ytick_13">
     <g id="line2d_20">
      <g>
       <use xlink:href="#m4b2cbca488" x="246.24" y="40.781397" style="stroke: #000000; stroke-width: 0.8"/>
      </g>
     </g>
     <g id="text_20">
      <!-- 0.9 -->
      <g transform="translate(253.24 44.466639)scale(0.097 -0.097)">
       <defs>
        <path id="DejaVuSans-39" d="M 703 97 
L 703 672 
Q 941 559 1184 500 
Q 1428 441 1663 441 
Q 2288 441 2617 861 
Q 2947 1281 2994 2138 
Q 2813 1869 2534 1725 
Q 2256 1581 1919 1581 
Q 1219 1581 811 2004 
Q 403 2428 403 3163 
Q 403 3881 828 4315 
Q 1253 4750 1959 4750 
Q 2769 4750 3195 4129 
Q 3622 3509 3622 2328 
Q 3622 1225 3098 567 
Q 2575 -91 1691 -91 
Q 1453 -91 1209 -44 
Q 966 3 703 97 
z
M 1959 2075 
Q 2384 2075 2632 2365 
Q 2881 2656 2881 3163 
Q 2881 3666 2632 3958 
Q 2384 4250 1959 4250 
Q 1534 4250 1286 3958 
Q 1038 3666 1038 3163 
Q 1038 2656 1286 2365 
Q 1534 2075 1959 2075 
z
" transform="scale(0.015625)"/>
       </defs>
       <use xlink:href="#DejaVuSans-30"/>
       <use xlink:href="#DejaVuSans-2e" x="63.623047"/>
       <use xlink:href="#DejaVuSans-39" x="95.410156"/>
      </g>
     </g>
    </g>
    <g id="text_21">
     <!-- Acc -->
     <g transform="translate(280.036516 101.698313)rotate(-90)scale(0.097 -0.097)">
      <defs>
       <path id="DejaVuSans-41" d="M 2188 4044 
L 1331 1722 
L 3047 1722 
L 2188 4044 
z
M 1831 4666 
L 2547 4666 
L 4325 0 
L 3669 0 
L 3244 1197 
L 1141 1197 
L 716 0 
L 50 0 
L 1831 4666 
z
" transform="scale(0.015625)"/>
       <path id="DejaVuSans-63" d="M 3122 3366 
L 3122 2828 
Q 2878 2963 2633 3030 
Q 2388 3097 2138 3097 
Q 1578 3097 1268 2742 
Q 959 2388 959 1747 
Q 959 1106 1268 751 
Q 1578 397 2138 397 
Q 2388 397 2633 464 
Q 2878 531 3122 666 
L 3122 134 
Q 2881 22 2623 -34 
Q 2366 -91 2075 -91 
Q 1284 -91 818 406 
Q 353 903 353 1747 
Q 353 2603 823 3093 
Q 1294 3584 2113 3584 
Q 2378 3584 2631 3529 
Q 2884 3475 3122 3366 
z
" transform="scale(0.015625)"/>
      </defs>
      <use xlink:href="#DejaVuSans-41"/>
      <use xlink:href="#DejaVuSans-63" x="66.658203"/>
      <use xlink:href="#DejaVuSans-63" x="121.638672"/>
     </g>
    </g>
   </g>
   <g id="line2d_21">
    <path d="M 43.838182 147.818731 
L 43.934612 147.818731 
L 44.127472 157.375636 
L 44.223902 155.464254 
L 44.320332 149.942486 
L 44.416762 151.459455 
L 44.513192 151.004366 
L 44.609622 149.23457 
L 44.802482 142.026667 
L 44.995342 142.917754 
L 45.091772 141.447462 
L 45.188202 141.872212 
L 45.381062 138.823995 
L 45.477492 139.323707 
L 45.573922 139.100154 
L 45.670352 136.987574 
L 45.766782 138.11013 
L 46.056073 132.421494 
L 46.248933 131.155407 
L 46.345363 131.300627 
L 46.634653 127.85542 
L 47.116803 123.42587 
L 47.213233 123.74949 
L 47.309663 123.366829 
L 47.502523 122.333652 
L 47.695383 122.022858 
L 47.984673 119.148017 
L 48.177533 118.732496 
L 48.273963 117.72465 
L 48.370393 117.820665 
L 49.238264 112.050201 
L 49.431124 111.318916 
L 50.684714 103.396827 
L 51.263294 100.279257 
L 51.456154 99.874928 
L 51.649015 99.024126 
L 51.745445 99.458495 
L 52.034735 98.47843 
L 52.227595 98.006984 
L 52.516885 96.568512 
L 52.999035 94.85755 
L 53.095465 94.74671 
L 53.481185 93.315991 
L 54.156195 90.595288 
L 54.541916 89.339574 
L 54.734776 88.912435 
L 54.927636 88.390156 
L 55.120496 88.533528 
L 55.313356 88.141169 
L 56.374086 85.176012 
L 57.531247 81.878321 
L 57.627677 81.893791 
L 57.820537 81.138591 
L 57.916967 81.158775 
L 58.784837 79.205061 
L 58.881267 79.155103 
L 59.074127 78.736532 
L 59.170557 78.69045 
L 59.556277 78.123257 
L 59.652707 78.236747 
L 60.134857 77.434942 
L 60.327717 77.290258 
L 60.617008 76.824584 
L 60.809868 76.690886 
L 61.099158 76.248131 
L 61.388448 75.889531 
L 61.484878 75.93419 
L 61.870598 75.226918 
L 62.256318 74.814593 
L 62.449178 74.51628 
L 62.545608 74.630815 
L 62.738468 74.338906 
L 62.931328 74.437072 
L 63.124188 74.343086 
L 63.220618 74.391428 
L 63.509909 73.911998 
L 63.702769 74.010492 
L 63.992059 73.547929 
L 64.281349 73.27787 
L 64.377779 73.090288 
L 64.474209 73.200789 
L 64.763499 72.883251 
L 65.631369 71.924841 
L 66.017089 71.804789 
L 66.40281 71.471939 
L 66.88496 71.044934 
L 68.04212 70.301618 
L 68.23498 70.159473 
L 68.6207 69.931194 
L 68.81356 69.746176 
L 69.102851 69.570819 
L 69.199281 69.384538 
L 69.295711 69.488172 
L 69.585001 69.318976 
L 69.777861 69.239732 
L 70.163581 68.805678 
L 70.549301 68.56747 
L 70.742161 68.450906 
L 71.031451 68.301677 
L 71.224311 68.144329 
L 71.513601 67.956638 
L 71.995752 67.275445 
L 72.188612 67.130371 
L 73.345772 66.382693 
L 73.827922 66.176628 
L 74.310072 65.977052 
L 74.406502 65.953926 
L 74.502932 65.811101 
L 74.695792 65.805997 
L 75.177943 65.617625 
L 75.274373 65.596225 
L 75.467233 65.437626 
L 76.335103 64.992222 
L 76.527963 64.954745 
L 76.913683 64.658838 
L 77.106543 64.476628 
L 77.299403 64.442978 
L 77.395833 64.572339 
L 77.781554 64.360513 
L 79.324434 63.455524 
L 79.613724 63.245266 
L 79.903014 63.174285 
L 80.192304 62.935882 
L 80.481594 62.801576 
L 84.820946 60.864352 
L 84.917376 60.978474 
L 85.495956 60.710371 
L 85.881676 60.603772 
L 86.074536 60.565711 
L 86.363826 60.466026 
L 86.556687 60.457714 
L 86.749547 60.363765 
L 86.942407 60.242218 
L 87.135267 60.291642 
L 87.713847 60.046106 
L 88.581717 59.908907 
L 90.606748 59.355093 
L 91.281758 59.473906 
L 91.571048 59.417361 
L 91.956768 59.436477 
L 92.342489 59.328869 
L 93.017499 59.244362 
L 93.306789 59.116776 
L 94.271089 59.010043 
L 94.463949 58.911658 
L 94.656809 58.862284 
L 94.946099 58.884923 
L 95.23539 58.787985 
L 95.9104 58.573851 
L 101.117622 57.378824 
L 101.310482 57.404332 
L 102.371212 57.237712 
L 102.660502 57.327931 
L 103.142652 57.131563 
L 103.528372 57.079515 
L 104.781963 56.929994 
L 104.974823 56.955392 
L 105.360543 56.945877 
L 105.746263 56.877022 
L 106.228413 56.831488 
L 106.710563 56.669571 
L 111.917785 55.863368 
L 112.303505 55.843037 
L 112.978516 55.763647 
L 113.846386 55.746427 
L 114.135676 55.723338 
L 115.389266 55.619679 
L 115.678557 55.665918 
L 117.125007 55.372527 
L 117.703587 55.298253 
L 118.185737 55.319774 
L 118.667888 55.324623 
L 127.443021 54.290249 
L 127.828741 54.36857 
L 131.300222 54.116156 
L 131.782372 54.112912 
L 133.421683 54.058299 
L 133.710973 54.072967 
L 135.639573 53.794025 
L 136.025294 53.800891 
L 136.507444 53.719981 
L 137.953894 53.482199 
L 138.243184 53.47193 
L 139.496775 53.449509 
L 140.171785 53.332799 
L 140.268215 33.135873 
L 140.653935 53.523941 
L 140.750365 54.373443 
L 140.943225 50.656865 
L 141.039655 50.125922 
L 141.232515 47.036824 
L 141.714666 41.09996 
L 141.811096 43.629727 
L 141.907526 43.046736 
L 142.100386 43.329907 
L 142.293246 41.823966 
L 142.389676 43.662319 
L 142.486106 42.692778 
L 142.582536 42.820206 
L 142.678966 42.447728 
L 142.968256 44.999612 
L 143.161116 43.823166 
L 143.257546 43.887391 
L 143.353976 45.106138 
L 143.546836 43.693976 
L 143.739696 44.156453 
L 143.932556 43.264552 
L 144.028986 44.285595 
L 144.125416 44.013653 
L 144.221846 44.058045 
L 145.089717 41.630903 
L 145.186147 42.202678 
L 145.282577 42.031611 
L 145.379007 42.33882 
L 145.571867 41.7826 
L 145.668297 42.078008 
L 145.764727 41.923833 
L 145.861157 42.206834 
L 146.150447 41.76792 
L 146.343307 42.294573 
L 146.439737 42.153668 
L 146.536167 42.210103 
L 146.729027 41.755828 
L 146.921887 41.87362 
L 147.211177 41.339979 
L 147.404037 40.951302 
L 147.500468 41.016122 
L 147.789758 40.39428 
L 147.982618 40.687003 
L 148.271908 39.962232 
L 148.368338 40.18175 
L 148.561198 39.873302 
L 148.657628 40.086355 
L 149.236208 39.507143 
L 149.429068 39.772608 
L 149.911218 39.444061 
L 150.104078 39.69272 
L 150.200508 39.507143 
L 150.489799 39.566689 
L 150.586229 39.389157 
L 150.682659 39.448691 
L 150.875519 39.908932 
L 151.068379 39.563529 
L 151.164809 39.618919 
L 151.261239 39.894957 
L 151.357669 39.836687 
L 151.454099 39.997242 
L 151.646959 39.881918 
L 151.936249 39.820488 
L 152.032679 39.973339 
L 152.321969 39.709405 
L 152.611259 40.050433 
L 152.804119 39.847588 
L 152.996979 39.650855 
L 153.47913 39.784153 
L 154.05771 39.595635 
L 154.15414 39.638958 
L 154.44343 39.334946 
L 154.63629 39.337242 
L 154.82915 39.25564 
L 155.21487 39.180406 
L 155.40773 39.265192 
L 155.79345 38.956537 
L 155.88988 38.999009 
L 156.08274 38.927931 
L 156.372031 38.824503 
L 156.661321 39.022779 
L 156.757751 38.988546 
L 156.854181 39.175691 
L 157.047041 39.03385 
L 157.143471 39.072737 
L 157.625621 38.697537 
L 158.107771 38.822061 
L 158.300631 38.693794 
L 158.493491 38.769417 
L 158.589921 38.673208 
L 158.686351 38.777097 
L 158.879211 38.653266 
L 159.072071 38.661979 
L 159.361362 38.514633 
L 159.747082 38.659731 
L 159.939942 38.543677 
L 160.325662 38.623092 
L 160.807812 38.494886 
L 161.000672 38.622241 
L 161.289962 38.547092 
L 161.482822 38.786406 
L 161.868542 38.799227 
L 162.157833 38.836485 
L 162.350693 38.953122 
L 162.543553 38.90297 
L 164.182863 38.560411 
L 164.568583 38.57537 
L 165.725744 38.425229 
L 166.015034 38.746389 
L 166.400754 38.757581 
L 166.593614 38.902569 
L 166.786474 38.953122 
L 166.882904 38.886115 
L 167.075764 38.890563 
L 168.329355 38.547092 
L 168.618645 38.492055 
L 168.715075 38.47396 
L 168.907935 38.651942 
L 169.775805 38.573244 
L 170.161525 38.58525 
L 170.450815 38.53319 
L 171.029396 38.511632 
L 171.318686 38.619507 
L 172.765136 38.451551 
L 173.054426 38.591618 
L 174.597307 38.418497 
L 174.886597 38.37447 
L 174.983027 38.35996 
L 175.175887 38.541794 
L 175.465177 38.601935 
L 176.043757 38.61653 
L 176.525907 38.577643 
L 176.718768 38.649791 
L 176.911628 38.654299 
L 177.297348 38.927931 
L 177.779498 38.951701 
L 178.550938 39.12295 
L 178.840228 39.364147 
L 180.093819 39.260914 
L 181.154549 39.342237 
L 181.540269 39.254668 
L 181.829559 39.271171 
L 182.311709 39.259286 
L 182.601 39.246502 
L 182.89029 39.377709 
L 184.04745 39.269093 
L 184.5296 39.368632 
L 185.493901 39.317361 
L 185.686761 39.399158 
L 185.976051 39.386423 
L 186.265341 39.373857 
L 186.554631 39.520389 
L 187.518931 39.546066 
L 188.386802 39.507143 
L 188.772522 39.633562 
L 189.158242 39.582389 
L 189.833252 39.568998 
L 193.304733 39.171814 
L 193.497593 39.219111 
L 193.883313 39.198306 
L 194.076174 39.29059 
L 194.654754 39.270332 
L 195.619054 39.252286 
L 196.101204 39.331385 
L 196.969075 39.323255 
L 197.354795 39.34598 
L 198.029805 39.316 
L 198.608385 39.359955 
L 199.090535 39.309013 
L 199.476255 39.35174 
L 200.054836 39.435323 
L 200.440556 39.354231 
L 200.826276 39.436235 
L 201.404856 39.396776 
L 201.694146 39.407276 
L 201.983436 39.397809 
L 202.465586 39.349346 
L 203.044167 39.428967 
L 203.719177 39.53615 
L 203.912037 39.632444 
L 205.840638 39.722322 
L 206.129928 39.749325 
L 207.865668 39.670505 
L 208.347818 39.69639 
L 208.733539 39.641559 
L 209.022829 39.68561 
L 209.697839 39.604349 
L 210.083559 39.603814 
L 210.469279 39.603279 
L 210.854999 39.672292 
L 211.8193 39.858719 
L 212.30145 39.915993 
L 212.68717 39.913817 
L 213.84433 39.907437 
L 214.808631 39.885794 
L 217.412242 39.753724 
L 218.955122 39.764491 
L 219.437272 39.75517 
L 220.401573 39.736881 
L 220.980153 39.704823 
L 221.558733 39.748705 
L 221.944453 39.867785 
L 222.715893 39.789974 
L 225.223074 39.694956 
L 226.765955 39.705807 
L 230.141006 39.541291 
L 230.719586 39.568208 
L 232.551757 39.547051 
L 234.673218 39.598163 
L 235.444658 39.532942 
L 236.601818 39.532626 
L 236.601818 39.532626 
" clip-path="url(#p857d691433)" style="fill: none; stroke: #1f77b4; stroke-width: 1.6; stroke-linecap: square"/>
   </g>
   <g id="line2d_22">
    <path d="M 43.838182 45.878413 
L 44.031042 28.888364 
L 44.320332 41.630903 
L 44.416762 38.596965 
L 44.609622 40.215059 
L 45.091772 53.159861 
L 45.188202 54.373443 
L 45.381062 57.871391 
L 45.670352 52.249683 
L 45.766782 51.94629 
L 45.959643 49.202559 
L 46.056073 50.125922 
L 46.345363 47.766201 
L 46.441793 47.698781 
L 46.634653 46.727915 
L 46.731083 47.52261 
L 46.923943 46.650687 
L 47.020373 46.627975 
L 47.406093 43.866428 
L 47.502523 43.918027 
L 47.695383 44.635239 
L 47.791813 44.058045 
L 47.888243 44.100383 
L 47.984673 44.140789 
L 48.081103 43.613066 
L 48.177533 43.662319 
L 48.370393 45.34747 
L 48.466823 44.838206 
L 48.563253 44.85901 
L 48.756114 44.898214 
L 48.852544 44.435858 
L 49.045404 44.951683 
L 49.623984 42.536111 
L 49.720414 43.001068 
L 49.913274 42.294573 
L 50.009704 42.349708 
L 50.298994 44.754076 
L 50.491854 44.422126 
L 50.588284 44.801579 
L 50.684714 44.46258 
L 50.781144 44.831085 
L 51.070434 44.201757 
L 51.359724 44.265435 
L 51.649015 44.946033 
L 52.131165 44.999612 
L 52.516885 44.198075 
L 52.613315 44.49335 
L 52.902605 44.000565 
L 53.095465 44.302013 
L 53.288325 44.076443 
L 53.770475 44.163076 
L 54.349055 45.64673 
L 54.734776 44.984203 
L 54.927636 45.219312 
L 55.024066 45.224951 
L 55.216926 44.807607 
L 55.313356 45.028911 
L 55.409786 44.825312 
L 55.602646 45.04963 
L 55.795506 45.062889 
L 55.891936 45.271627 
L 56.277656 44.702174 
L 56.374086 44.711154 
L 56.663376 44.356917 
L 56.759806 44.368182 
L 57.049096 44.031662 
L 57.145526 44.228297 
L 57.338386 44.070962 
L 57.434816 44.083686 
L 57.531247 43.918027 
L 57.724107 44.120823 
L 57.820537 43.958299 
L 58.013397 44.156453 
L 58.206257 44.009509 
L 58.495547 44.046148 
L 58.591977 43.892568 
L 58.784837 44.244752 
L 59.074127 43.955006 
L 59.363417 43.990624 
L 59.652707 44.642774 
L 59.845567 44.35236 
L 60.038427 44.521215 
L 60.134857 44.529199 
L 60.327717 44.396727 
L 60.424148 44.552604 
L 60.713438 44.285595 
L 60.809868 44.43858 
L 60.906298 44.303495 
L 61.099158 44.604154 
L 61.195588 44.751998 
L 61.292018 44.618165 
L 61.484878 44.908871 
L 61.677738 44.645265 
L 61.774168 44.924426 
L 62.063458 44.537098 
L 62.159888 44.677541 
L 62.256318 44.551061 
L 62.449178 44.69611 
L 62.545608 44.571489 
L 62.642038 44.708177 
L 62.738468 44.584759 
L 62.834898 44.848718 
L 63.027758 44.604154 
L 63.124188 44.737294 
L 63.317049 44.62299 
L 63.509909 44.759557 
L 63.606339 44.764989 
L 64.184919 44.195438 
L 64.474209 44.218916 
L 64.570639 44.10861 
L 64.763499 44.241762 
L 65.149219 43.926849 
L 65.245649 43.935599 
L 65.342079 44.058045 
L 65.631369 43.857569 
L 65.824229 43.986504 
L 66.20995 43.909605 
L 66.30638 43.809106 
L 66.49924 44.042623 
L 66.98139 43.657726 
L 67.46354 43.599261 
L 67.55997 43.505313 
L 67.75283 43.626713 
L 67.94569 43.54313 
L 68.04212 43.653521 
L 68.23498 43.570704 
L 68.52427 43.498483 
L 69.102851 43.06827 
L 69.392141 43.004154 
L 69.585001 42.930512 
L 69.874291 42.869107 
L 70.067151 42.797797 
L 70.260011 43.098225 
L 70.838591 42.704116 
L 71.127881 42.647912 
L 71.320741 42.58139 
L 72.381472 42.789315 
L 72.863622 43.178004 
L 73.827922 42.529415 
L 74.985083 42.653453 
L 75.081513 42.820206 
L 75.370803 42.692778 
L 75.949383 42.750003 
L 76.142243 42.99617 
L 77.010113 42.997495 
L 77.106543 42.932165 
L 77.299403 43.022322 
L 77.781554 43.062777 
L 77.974414 43.294009 
L 78.263704 43.173289 
L 78.842284 43.147867 
L 78.938714 43.085526 
L 79.324434 43.253931 
L 79.613724 43.206586 
L 79.806584 43.08459 
L 80.095874 43.174432 
L 80.288734 43.121448 
L 80.481594 43.069035 
L 80.674454 43.150249 
L 81.156605 43.448136 
L 81.253035 43.38887 
L 81.638755 43.543896 
L 81.831615 43.491204 
L 82.506625 43.849755 
L 82.603055 43.791546 
L 82.795915 43.990624 
L 83.470925 43.960851 
L 83.663786 43.908548 
L 84.628086 44.495963 
L 84.917376 44.445993 
L 85.110236 44.452676 
L 85.688816 44.413753 
L 85.978106 44.365606 
L 86.170966 44.314554 
L 86.267396 44.260306 
L 86.460256 44.382679 
L 86.749547 44.33559 
L 87.231697 44.183176 
L 87.520987 44.250512 
L 87.713847 44.257645 
L 88.003137 44.212718 
L 88.195997 44.219949 
L 88.485287 44.120823 
L 88.967437 44.302572 
L 89.546018 44.107869 
L 89.931738 44.016241 
L 90.510318 43.77655 
L 90.703178 43.837518 
L 91.956768 43.890575 
L 92.149628 45.878413 
L 92.246058 37.383382 
L 92.535349 45.878413 
L 92.631779 42.237689 
L 92.824639 45.878413 
L 93.210359 45.878413 
L 93.499649 52.249683 
L 93.596079 51.874908 
L 93.885369 47.152672 
L 93.981799 47.091983 
L 94.174659 44.77036 
L 94.271089 46.940287 
L 94.463949 44.898214 
L 94.560379 44.934524 
L 94.656809 44.968235 
L 94.753239 44.120823 
L 94.946099 45.878413 
L 95.042529 45.082004 
L 95.138959 45.106138 
L 95.23539 45.128851 
L 95.62111 42.525113 
L 95.9104 42.770479 
L 96.10326 41.729677 
L 96.19969 41.823966 
L 96.29612 41.347732 
L 96.39255 41.446226 
L 96.58541 42.692778 
L 96.68184 42.237689 
L 96.8747 42.880165 
L 97.06756 42.031611 
L 97.26042 42.63486 
L 97.64614 41.126963 
L 97.74257 41.206146 
L 97.839 40.86496 
L 97.93543 41.356871 
L 98.128291 40.701756 
L 98.224721 40.781402 
L 98.514011 42.880165 
L 98.610441 42.554267 
L 98.803301 43.006852 
L 98.899731 43.046736 
L 99.092591 43.467665 
L 99.189021 43.160007 
L 99.478311 43.918027 
L 99.574741 43.620236 
L 99.864031 44.324446 
L 100.153321 44.379289 
L 100.346181 44.120823 
L 100.442611 44.140789 
L 100.828331 43.385309 
L 101.021192 43.167237 
L 101.214052 43.223721 
L 101.503342 42.789315 
L 101.599772 42.820206 
L 102.274782 44.687518 
L 102.371212 44.698552 
L 102.564072 44.951683 
L 102.756932 44.740684 
L 102.853362 44.750758 
L 102.949792 44.537098 
L 103.239082 45.007122 
L 103.431942 44.593448 
L 103.528372 44.816538 
L 103.624802 44.61469 
L 103.817662 44.842435 
L 104.010523 44.85901 
L 104.106953 45.069366 
L 104.396243 44.495501 
L 104.589103 44.711154 
L 104.878393 44.356917 
L 104.974823 44.368182 
L 105.264113 43.846997 
L 105.456973 44.058045 
L 105.553403 44.070962 
L 105.746263 43.739802 
L 105.939123 44.120823 
L 106.035553 43.958299 
L 106.131983 44.491466 
L 106.517703 44.02188 
L 106.710563 44.379289 
L 106.806993 44.223534 
L 106.999854 44.571489 
L 107.096284 44.417483 
L 107.192714 44.588028 
L 107.482004 44.295487 
L 107.578434 44.305258 
L 107.867724 45.106138 
L 108.060584 44.810171 
L 108.253444 45.124415 
L 108.542734 44.841232 
L 108.639164 44.994532 
L 108.928454 44.720001 
L 109.024884 44.870531 
L 109.121314 44.733016 
L 109.314174 45.028911 
L 109.507034 44.898214 
L 109.603464 44.903573 
L 109.699894 45.047382 
L 109.892755 44.782281 
L 109.989185 44.924426 
L 110.278475 44.537098 
L 110.374905 44.677541 
L 110.471335 44.551061 
L 110.664195 44.69611 
L 110.760625 44.702174 
L 110.857055 44.968235 
L 110.953485 44.84348 
L 111.049915 45.106138 
L 111.242775 44.986439 
L 111.339205 44.990874 
L 111.532065 44.874079 
L 111.821355 44.888698 
L 112.014215 44.775695 
L 112.110645 44.780969 
L 112.399935 44.55608 
L 112.496365 44.681928 
L 112.785656 44.46258 
L 112.882086 44.469094 
L 112.978516 44.592463 
L 113.364236 44.271243 
L 113.557096 44.285595 
L 113.846386 44.082106 
L 114.039246 44.209085 
L 114.328536 44.120823 
L 114.521396 43.918027 
L 114.714256 44.042623 
L 115.196406 43.657726 
L 116.160707 43.847726 
L 116.257137 43.956914 
L 116.449997 43.871714 
L 116.835717 43.804051 
L 117.317867 43.455877 
L 117.510727 43.377994 
L 117.800017 43.215798 
L 118.282167 43.357906 
L 118.378597 43.553132 
L 118.667888 43.394302 
L 119.246468 43.356922 
L 119.632188 43.125665 
L 120.307198 43.277896 
L 120.500058 43.381566 
L 120.596488 43.389976 
L 120.789348 43.747555 
L 121.078638 43.937495 
L 121.946509 43.338098 
L 122.621519 43.313878 
L 122.814379 43.170628 
L 123.103669 43.35358 
L 123.200099 43.282708 
L 123.296529 43.447529 
L 123.682249 43.244696 
L 123.875109 43.3376 
L 124.067969 43.429398 
L 125.22513 43.440711 
L 125.32156 43.374093 
L 125.51442 43.534952 
L 125.70728 43.47554 
L 125.90014 43.416783 
L 126.093 43.502688 
L 126.18943 43.65295 
L 126.57515 43.464785 
L 127.0573 43.427927 
L 127.250161 43.371687 
L 127.539451 43.461127 
L 127.828741 43.275101 
L 128.310891 43.512422 
L 128.600181 43.464031 
L 128.696611 43.403489 
L 129.275191 43.705265 
L 129.564481 43.787329 
L 129.950201 43.93792 
L 130.239492 43.888399 
L 130.335922 43.829364 
L 130.432352 43.962236 
L 130.625212 43.9718 
L 131.396652 43.946779 
L 131.782372 43.842075 
L 132.168092 43.922717 
L 132.843102 44.255543 
L 133.035963 44.263162 
L 133.132393 44.266942 
L 133.325253 44.333864 
L 133.710973 44.465849 
L 133.903833 44.413753 
L 134.482413 44.202523 
L 134.771703 44.328638 
L 135.157423 44.228711 
L 135.639573 44.246915 
L 135.832433 44.422126 
L 136.314584 44.21634 
L 136.507444 44.223534 
L 136.700304 44.175751 
L 136.893164 44.292437 
L 137.761034 44.215173 
L 138.725334 43.77655 
L 139.014625 43.841698 
L 139.207485 43.850011 
L 140.171785 43.890575 
L 140.171785 43.890575 
" clip-path="url(#p857d691433)" style="fill: none; stroke: #ff7f0e; stroke-width: 1.6; stroke-linecap: square"/>
   </g>
   <g id="patch_7">
    <path d="M 34.2 163.8 
L 34.2 22.464 
" style="fill: none; stroke: #000000; stroke-width: 0.8; stroke-linejoin: miter; stroke-linecap: square"/>
   </g>
   <g id="patch_8">
    <path d="M 246.24 163.8 
L 246.24 22.464 
" style="fill: none; stroke: #000000; stroke-width: 0.8; stroke-linejoin: miter; stroke-linecap: square"/>
   </g>
   <g id="patch_9">
    <path d="M 34.2 163.8 
L 246.24 163.8 
" style="fill: none; stroke: #000000; stroke-width: 0.8; stroke-linejoin: miter; stroke-linecap: square"/>
   </g>
   <g id="patch_10">
    <path d="M 34.2 22.464 
L 246.24 22.464 
" style="fill: none; stroke: #000000; stroke-width: 0.8; stroke-linejoin: miter; stroke-linecap: square"/>
   </g>
  </g>
 </g>
 <defs>
  <clipPath id="p857d691433">
   <rect x="34.2" y="22.464" width="212.04" height="141.336"/>
  </clipPath>
 </defs>
</svg>
