<?xml version="1.0" encoding="utf-8" standalone="no"?>
<!DOCTYPE svg PUBLIC "-//W3C//DTD SVG 1.1//EN"
  "http://www.w3.org/Graphics/SVG/1.1/DTD/svg11.dtd">
<svg xmlns:xlink="http://www.w3.org/1999/xlink" width="273.6pt" height="187.2pt" viewBox="0 0 273.6 187.2" xmlns="http://www.w3.org/2000/svg" version="1.1">
 <metadata>
  <rdf:RDF xmlns:dc="http://purl.org/dc/elements/1.1/" xmlns:cc="http://creativecommons.org/ns#" xmlns:rdf="http://www.w3.org/1999/02/22-rdf-syntax-ns#">
   <cc:Work>
    <dc:type rdf:resource="http://purl.org/dc/dcmitype/StillImage"/>
    <dc:date>2022-04-20T20:17:01.927247</dc:date>
    <dc:format>image/svg+xml</dc:format>
    <dc:creator>
     <cc:Agent>
      <dc:title>Matplotlib v3.5.1, https://matplotlib.org/</dc:title>
     </cc:Agent>
    </dc:creator>
   </cc:Work>
  </rdf:RDF>
 </metadata>
 <defs>
  <style type="text/css">*{stroke-linejoin: round; stroke-linecap: butt}</style>
 </defs>
 <g id="figure_1">
  <g id="patch_1">
   <path d="M 0 187.2 
L 273.6 187.2 
L 273.6 0 
L 0 0 
z
" style="fill: #ffffff"/>
  </g>
  <g id="axes_1">
   <g id="patch_2">
    <path d="M 34.2 166.608 
L 246.24 166.608 
L 246.24 22.464 
L 34.2 22.464 
z
" style="fill: #ffffff"/>
   </g>
   <g id="matplotlib.axis_1">
    <g id="xtick_1">
     <g id="line2d_1">
      <defs>
       <path id="m37f31ed402" d="M 0 0 
L 0 3.5 
" style="stroke: #000000; stroke-width: 0.8"/>
      </defs>
      <g>
       <use xlink:href="#m37f31ed402" x="43.838182" y="166.608" style="stroke: #000000; stroke-width: 0.8"/>
      </g>
     </g>
     <g id="text_1">
      <!-- 0 -->
      <g transform="translate(40.752369 180.978484)scale(0.097 -0.097)">
       <defs>
        <path id="DejaVuSans-30" d="M 2034 4250 
Q 1547 4250 1301 3770 
Q 1056 3291 1056 2328 
Q 1056 1369 1301 889 
Q 1547 409 2034 409 
Q 2525 409 2770 889 
Q 3016 1369 3016 2328 
Q 3016 3291 2770 3770 
Q 2525 4250 2034 4250 
z
M 2034 4750 
Q 2819 4750 3233 4129 
Q 3647 3509 3647 2328 
Q 3647 1150 3233 529 
Q 2819 -91 2034 -91 
Q 1250 -91 836 529 
Q 422 1150 422 2328 
Q 422 3509 836 4129 
Q 1250 4750 2034 4750 
z
" transform="scale(0.015625)"/>
       </defs>
       <use xlink:href="#DejaVuSans-30"/>
      </g>
     </g>
    </g>
    <g id="xtick_2">
     <g id="line2d_2">
      <g>
       <use xlink:href="#m37f31ed402" x="92.053198" y="166.608" style="stroke: #000000; stroke-width: 0.8"/>
      </g>
     </g>
     <g id="text_2">
      <!-- 500 -->
      <g transform="translate(82.795761 180.978484)scale(0.097 -0.097)">
       <defs>
        <path id="DejaVuSans-35" d="M 691 4666 
L 3169 4666 
L 3169 4134 
L 1269 4134 
L 1269 2991 
Q 1406 3038 1543 3061 
Q 1681 3084 1819 3084 
Q 2600 3084 3056 2656 
Q 3513 2228 3513 1497 
Q 3513 744 3044 326 
Q 2575 -91 1722 -91 
Q 1428 -91 1123 -41 
Q 819 9 494 109 
L 494 744 
Q 775 591 1075 516 
Q 1375 441 1709 441 
Q 2250 441 2565 725 
Q 2881 1009 2881 1497 
Q 2881 1984 2565 2268 
Q 2250 2553 1709 2553 
Q 1456 2553 1204 2497 
Q 953 2441 691 2322 
L 691 4666 
z
" transform="scale(0.015625)"/>
       </defs>
       <use xlink:href="#DejaVuSans-35"/>
       <use xlink:href="#DejaVuSans-30" x="63.623047"/>
       <use xlink:href="#DejaVuSans-30" x="127.246094"/>
      </g>
     </g>
    </g>
    <g id="xtick_3">
     <g id="line2d_3">
      <g>
       <use xlink:href="#m37f31ed402" x="140.268215" y="166.608" style="stroke: #000000; stroke-width: 0.8"/>
      </g>
     </g>
     <g id="text_3">
      <!-- 1000 -->
      <g transform="translate(127.924965 180.978484)scale(0.097 -0.097)">
       <defs>
        <path id="DejaVuSans-31" d="M 794 531 
L 1825 531 
L 1825 4091 
L 703 3866 
L 703 4441 
L 1819 4666 
L 2450 4666 
L 2450 531 
L 3481 531 
L 3481 0 
L 794 0 
L 794 531 
z
" transform="scale(0.015625)"/>
       </defs>
       <use xlink:href="#DejaVuSans-31"/>
       <use xlink:href="#DejaVuSans-30" x="63.623047"/>
       <use xlink:href="#DejaVuSans-30" x="127.246094"/>
       <use xlink:href="#DejaVuSans-30" x="190.869141"/>
      </g>
     </g>
    </g>
    <g id="xtick_4">
     <g id="line2d_4">
      <g>
       <use xlink:href="#m37f31ed402" x="188.483232" y="166.608" style="stroke: #000000; stroke-width: 0.8"/>
      </g>
     </g>
     <g id="text_4">
      <!-- 1500 -->
      <g transform="translate(176.139982 180.978484)scale(0.097 -0.097)">
       <use xlink:href="#DejaVuSans-31"/>
       <use xlink:href="#DejaVuSans-35" x="63.623047"/>
       <use xlink:href="#DejaVuSans-30" x="127.246094"/>
       <use xlink:href="#DejaVuSans-30" x="190.869141"/>
      </g>
     </g>
    </g>
    <g id="xtick_5">
     <g id="line2d_5">
      <g>
       <use xlink:href="#m37f31ed402" x="236.698248" y="166.608" style="stroke: #000000; stroke-width: 0.8"/>
      </g>
     </g>
     <g id="text_5">
      <!-- 2000 -->
      <g transform="translate(224.354998 180.978484)scale(0.097 -0.097)">
       <defs>
        <path id="DejaVuSans-32" d="M 1228 531 
L 3431 531 
L 3431 0 
L 469 0 
L 469 531 
Q 828 903 1448 1529 
Q 2069 2156 2228 2338 
Q 2531 2678 2651 2914 
Q 2772 3150 2772 3378 
Q 2772 3750 2511 3984 
Q 2250 4219 1831 4219 
Q 1534 4219 1204 4116 
Q 875 4013 500 3803 
L 500 4441 
Q 881 4594 1212 4672 
Q 1544 4750 1819 4750 
Q 2544 4750 2975 4387 
Q 3406 4025 3406 3419 
Q 3406 3131 3298 2873 
Q 3191 2616 2906 2266 
Q 2828 2175 2409 1742 
Q 1991 1309 1228 531 
z
" transform="scale(0.015625)"/>
       </defs>
       <use xlink:href="#DejaVuSans-32"/>
       <use xlink:href="#DejaVuSans-30" x="63.623047"/>
       <use xlink:href="#DejaVuSans-30" x="127.246094"/>
       <use xlink:href="#DejaVuSans-30" x="190.869141"/>
      </g>
     </g>
    </g>
    <g id="text_6">
     <!-- Learning Curve -->
     <g transform="translate(103.313016 194.366266)scale(0.097 -0.097)">
      <defs>
       <path id="DejaVuSans-4c" d="M 628 4666 
L 1259 4666 
L 1259 531 
L 3531 531 
L 3531 0 
L 628 0 
L 628 4666 
z
" transform="scale(0.015625)"/>
       <path id="DejaVuSans-65" d="M 3597 1894 
L 3597 1613 
L 953 1613 
Q 991 1019 1311 708 
Q 1631 397 2203 397 
Q 2534 397 2845 478 
Q 3156 559 3463 722 
L 3463 178 
Q 3153 47 2828 -22 
Q 2503 -91 2169 -91 
Q 1331 -91 842 396 
Q 353 884 353 1716 
Q 353 2575 817 3079 
Q 1281 3584 2069 3584 
Q 2775 3584 3186 3129 
Q 3597 2675 3597 1894 
z
M 3022 2063 
Q 3016 2534 2758 2815 
Q 2500 3097 2075 3097 
Q 1594 3097 1305 2825 
Q 1016 2553 972 2059 
L 3022 2063 
z
" transform="scale(0.015625)"/>
       <path id="DejaVuSans-61" d="M 2194 1759 
Q 1497 1759 1228 1600 
Q 959 1441 959 1056 
Q 959 750 1161 570 
Q 1363 391 1709 391 
Q 2188 391 2477 730 
Q 2766 1069 2766 1631 
L 2766 1759 
L 2194 1759 
z
M 3341 1997 
L 3341 0 
L 2766 0 
L 2766 531 
Q 2569 213 2275 61 
Q 1981 -91 1556 -91 
Q 1019 -91 701 211 
Q 384 513 384 1019 
Q 384 1609 779 1909 
Q 1175 2209 1959 2209 
L 2766 2209 
L 2766 2266 
Q 2766 2663 2505 2880 
Q 2244 3097 1772 3097 
Q 1472 3097 1187 3025 
Q 903 2953 641 2809 
L 641 3341 
Q 956 3463 1253 3523 
Q 1550 3584 1831 3584 
Q 2591 3584 2966 3190 
Q 3341 2797 3341 1997 
z
" transform="scale(0.015625)"/>
       <path id="DejaVuSans-72" d="M 2631 2963 
Q 2534 3019 2420 3045 
Q 2306 3072 2169 3072 
Q 1681 3072 1420 2755 
Q 1159 2438 1159 1844 
L 1159 0 
L 581 0 
L 581 3500 
L 1159 3500 
L 1159 2956 
Q 1341 3275 1631 3429 
Q 1922 3584 2338 3584 
Q 2397 3584 2469 3576 
Q 2541 3569 2628 3553 
L 2631 2963 
z
" transform="scale(0.015625)"/>
       <path id="DejaVuSans-6e" d="M 3513 2113 
L 3513 0 
L 2938 0 
L 2938 2094 
Q 2938 2591 2744 2837 
Q 2550 3084 2163 3084 
Q 1697 3084 1428 2787 
Q 1159 2491 1159 1978 
L 1159 0 
L 581 0 
L 581 3500 
L 1159 3500 
L 1159 2956 
Q 1366 3272 1645 3428 
Q 1925 3584 2291 3584 
Q 2894 3584 3203 3211 
Q 3513 2838 3513 2113 
z
" transform="scale(0.015625)"/>
       <path id="DejaVuSans-69" d="M 603 3500 
L 1178 3500 
L 1178 0 
L 603 0 
L 603 3500 
z
M 603 4863 
L 1178 4863 
L 1178 4134 
L 603 4134 
L 603 4863 
z
" transform="scale(0.015625)"/>
       <path id="DejaVuSans-67" d="M 2906 1791 
Q 2906 2416 2648 2759 
Q 2391 3103 1925 3103 
Q 1463 3103 1205 2759 
Q 947 2416 947 1791 
Q 947 1169 1205 825 
Q 1463 481 1925 481 
Q 2391 481 2648 825 
Q 2906 1169 2906 1791 
z
M 3481 434 
Q 3481 -459 3084 -895 
Q 2688 -1331 1869 -1331 
Q 1566 -1331 1297 -1286 
Q 1028 -1241 775 -1147 
L 775 -588 
Q 1028 -725 1275 -790 
Q 1522 -856 1778 -856 
Q 2344 -856 2625 -561 
Q 2906 -266 2906 331 
L 2906 616 
Q 2728 306 2450 153 
Q 2172 0 1784 0 
Q 1141 0 747 490 
Q 353 981 353 1791 
Q 353 2603 747 3093 
Q 1141 3584 1784 3584 
Q 2172 3584 2450 3431 
Q 2728 3278 2906 2969 
L 2906 3500 
L 3481 3500 
L 3481 434 
z
" transform="scale(0.015625)"/>
       <path id="DejaVuSans-20" transform="scale(0.015625)"/>
       <path id="DejaVuSans-43" d="M 4122 4306 
L 4122 3641 
Q 3803 3938 3442 4084 
Q 3081 4231 2675 4231 
Q 1875 4231 1450 3742 
Q 1025 3253 1025 2328 
Q 1025 1406 1450 917 
Q 1875 428 2675 428 
Q 3081 428 3442 575 
Q 3803 722 4122 1019 
L 4122 359 
Q 3791 134 3420 21 
Q 3050 -91 2638 -91 
Q 1578 -91 968 557 
Q 359 1206 359 2328 
Q 359 3453 968 4101 
Q 1578 4750 2638 4750 
Q 3056 4750 3426 4639 
Q 3797 4528 4122 4306 
z
" transform="scale(0.015625)"/>
       <path id="DejaVuSans-75" d="M 544 1381 
L 544 3500 
L 1119 3500 
L 1119 1403 
Q 1119 906 1312 657 
Q 1506 409 1894 409 
Q 2359 409 2629 706 
Q 2900 1003 2900 1516 
L 2900 3500 
L 3475 3500 
L 3475 0 
L 2900 0 
L 2900 538 
Q 2691 219 2414 64 
Q 2138 -91 1772 -91 
Q 1169 -91 856 284 
Q 544 659 544 1381 
z
M 1991 3584 
L 1991 3584 
z
" transform="scale(0.015625)"/>
       <path id="DejaVuSans-76" d="M 191 3500 
L 800 3500 
L 1894 563 
L 2988 3500 
L 3597 3500 
L 2284 0 
L 1503 0 
L 191 3500 
z
" transform="scale(0.015625)"/>
      </defs>
      <use xlink:href="#DejaVuSans-4c"/>
      <use xlink:href="#DejaVuSans-65" x="53.962891"/>
      <use xlink:href="#DejaVuSans-61" x="115.486328"/>
      <use xlink:href="#DejaVuSans-72" x="176.765625"/>
      <use xlink:href="#DejaVuSans-6e" x="216.128906"/>
      <use xlink:href="#DejaVuSans-69" x="279.507812"/>
      <use xlink:href="#DejaVuSans-6e" x="307.291016"/>
      <use xlink:href="#DejaVuSans-67" x="370.669922"/>
      <use xlink:href="#DejaVuSans-20" x="434.146484"/>
      <use xlink:href="#DejaVuSans-43" x="465.933594"/>
      <use xlink:href="#DejaVuSans-75" x="535.757812"/>
      <use xlink:href="#DejaVuSans-72" x="599.136719"/>
      <use xlink:href="#DejaVuSans-76" x="640.25"/>
      <use xlink:href="#DejaVuSans-65" x="699.429688"/>
     </g>
    </g>
   </g>
   <g id="matplotlib.axis_2">
    <g id="ytick_1">
     <g id="line2d_6">
      <defs>
       <path id="m905fc333f0" d="M 0 0 
L -3.5 0 
" style="stroke: #000000; stroke-width: 0.8"/>
      </defs>
      <g>
       <use xlink:href="#m905fc333f0" x="34.2" y="147.87353" style="stroke: #000000; stroke-width: 0.8"/>
      </g>
     </g>
     <g id="text_7">
      <!-- 0.2 -->
      <g transform="translate(11.773969 151.558772)scale(0.097 -0.097)">
       <defs>
        <path id="DejaVuSans-2e" d="M 684 794 
L 1344 794 
L 1344 0 
L 684 0 
L 684 794 
z
" transform="scale(0.015625)"/>
       </defs>
       <use xlink:href="#DejaVuSans-30"/>
       <use xlink:href="#DejaVuSans-2e" x="63.623047"/>
       <use xlink:href="#DejaVuSans-32" x="95.410156"/>
      </g>
     </g>
    </g>
    <g id="ytick_2">
     <g id="line2d_7">
      <g>
       <use xlink:href="#m905fc333f0" x="34.2" y="113.714145" style="stroke: #000000; stroke-width: 0.8"/>
      </g>
     </g>
     <g id="text_8">
      <!-- 0.4 -->
      <g transform="translate(11.773969 117.399388)scale(0.097 -0.097)">
       <defs>
        <path id="DejaVuSans-34" d="M 2419 4116 
L 825 1625 
L 2419 1625 
L 2419 4116 
z
M 2253 4666 
L 3047 4666 
L 3047 1625 
L 3713 1625 
L 3713 1100 
L 3047 1100 
L 3047 0 
L 2419 0 
L 2419 1100 
L 313 1100 
L 313 1709 
L 2253 4666 
z
" transform="scale(0.015625)"/>
       </defs>
       <use xlink:href="#DejaVuSans-30"/>
       <use xlink:href="#DejaVuSans-2e" x="63.623047"/>
       <use xlink:href="#DejaVuSans-34" x="95.410156"/>
      </g>
     </g>
    </g>
    <g id="ytick_3">
     <g id="line2d_8">
      <g>
       <use xlink:href="#m905fc333f0" x="34.2" y="79.554761" style="stroke: #000000; stroke-width: 0.8"/>
      </g>
     </g>
     <g id="text_9">
      <!-- 0.6 -->
      <g transform="translate(11.773969 83.240003)scale(0.097 -0.097)">
       <defs>
        <path id="DejaVuSans-36" d="M 2113 2584 
Q 1688 2584 1439 2293 
Q 1191 2003 1191 1497 
Q 1191 994 1439 701 
Q 1688 409 2113 409 
Q 2538 409 2786 701 
Q 3034 994 3034 1497 
Q 3034 2003 2786 2293 
Q 2538 2584 2113 2584 
z
M 3366 4563 
L 3366 3988 
Q 3128 4100 2886 4159 
Q 2644 4219 2406 4219 
Q 1781 4219 1451 3797 
Q 1122 3375 1075 2522 
Q 1259 2794 1537 2939 
Q 1816 3084 2150 3084 
Q 2853 3084 3261 2657 
Q 3669 2231 3669 1497 
Q 3669 778 3244 343 
Q 2819 -91 2113 -91 
Q 1303 -91 875 529 
Q 447 1150 447 2328 
Q 447 3434 972 4092 
Q 1497 4750 2381 4750 
Q 2619 4750 2861 4703 
Q 3103 4656 3366 4563 
z
" transform="scale(0.015625)"/>
       </defs>
       <use xlink:href="#DejaVuSans-30"/>
       <use xlink:href="#DejaVuSans-2e" x="63.623047"/>
       <use xlink:href="#DejaVuSans-36" x="95.410156"/>
      </g>
     </g>
    </g>
    <g id="ytick_4">
     <g id="line2d_9">
      <g>
       <use xlink:href="#m905fc333f0" x="34.2" y="45.395376" style="stroke: #000000; stroke-width: 0.8"/>
      </g>
     </g>
     <g id="text_10">
      <!-- 0.8 -->
      <g transform="translate(11.773969 49.080618)scale(0.097 -0.097)">
       <defs>
        <path id="DejaVuSans-38" d="M 2034 2216 
Q 1584 2216 1326 1975 
Q 1069 1734 1069 1313 
Q 1069 891 1326 650 
Q 1584 409 2034 409 
Q 2484 409 2743 651 
Q 3003 894 3003 1313 
Q 3003 1734 2745 1975 
Q 2488 2216 2034 2216 
z
M 1403 2484 
Q 997 2584 770 2862 
Q 544 3141 544 3541 
Q 544 4100 942 4425 
Q 1341 4750 2034 4750 
Q 2731 4750 3128 4425 
Q 3525 4100 3525 3541 
Q 3525 3141 3298 2862 
Q 3072 2584 2669 2484 
Q 3125 2378 3379 2068 
Q 3634 1759 3634 1313 
Q 3634 634 3220 271 
Q 2806 -91 2034 -91 
Q 1263 -91 848 271 
Q 434 634 434 1313 
Q 434 1759 690 2068 
Q 947 2378 1403 2484 
z
M 1172 3481 
Q 1172 3119 1398 2916 
Q 1625 2713 2034 2713 
Q 2441 2713 2670 2916 
Q 2900 3119 2900 3481 
Q 2900 3844 2670 4047 
Q 2441 4250 2034 4250 
Q 1625 4250 1398 4047 
Q 1172 3844 1172 3481 
z
" transform="scale(0.015625)"/>
       </defs>
       <use xlink:href="#DejaVuSans-30"/>
       <use xlink:href="#DejaVuSans-2e" x="63.623047"/>
       <use xlink:href="#DejaVuSans-38" x="95.410156"/>
      </g>
     </g>
    </g>
    <g id="text_11">
     <!-- Loss -->
     <g transform="translate(5.756672 105.174172)rotate(-90)scale(0.097 -0.097)">
      <defs>
       <path id="DejaVuSans-6f" d="M 1959 3097 
Q 1497 3097 1228 2736 
Q 959 2375 959 1747 
Q 959 1119 1226 758 
Q 1494 397 1959 397 
Q 2419 397 2687 759 
Q 2956 1122 2956 1747 
Q 2956 2369 2687 2733 
Q 2419 3097 1959 3097 
z
M 1959 3584 
Q 2709 3584 3137 3096 
Q 3566 2609 3566 1747 
Q 3566 888 3137 398 
Q 2709 -91 1959 -91 
Q 1206 -91 779 398 
Q 353 888 353 1747 
Q 353 2609 779 3096 
Q 1206 3584 1959 3584 
z
" transform="scale(0.015625)"/>
       <path id="DejaVuSans-73" d="M 2834 3397 
L 2834 2853 
Q 2591 2978 2328 3040 
Q 2066 3103 1784 3103 
Q 1356 3103 1142 2972 
Q 928 2841 928 2578 
Q 928 2378 1081 2264 
Q 1234 2150 1697 2047 
L 1894 2003 
Q 2506 1872 2764 1633 
Q 3022 1394 3022 966 
Q 3022 478 2636 193 
Q 2250 -91 1575 -91 
Q 1294 -91 989 -36 
Q 684 19 347 128 
L 347 722 
Q 666 556 975 473 
Q 1284 391 1588 391 
Q 1994 391 2212 530 
Q 2431 669 2431 922 
Q 2431 1156 2273 1281 
Q 2116 1406 1581 1522 
L 1381 1569 
Q 847 1681 609 1914 
Q 372 2147 372 2553 
Q 372 3047 722 3315 
Q 1072 3584 1716 3584 
Q 2034 3584 2315 3537 
Q 2597 3491 2834 3397 
z
" transform="scale(0.015625)"/>
      </defs>
      <use xlink:href="#DejaVuSans-4c"/>
      <use xlink:href="#DejaVuSans-6f" x="53.962891"/>
      <use xlink:href="#DejaVuSans-73" x="115.144531"/>
      <use xlink:href="#DejaVuSans-73" x="167.244141"/>
     </g>
    </g>
   </g>
   <g id="line2d_10">
    <path d="M 43.838182 62.496418 
L 43.934612 62.107206 
L 44.223902 63.767326 
L 44.513192 62.254586 
L 44.706052 61.593915 
L 44.802482 59.751517 
L 44.898912 60.042734 
L 44.995342 59.786619 
L 45.188202 60.513715 
L 45.284632 60.322886 
L 45.573922 61.474226 
L 45.863213 62.184912 
L 45.959643 62.264053 
L 46.248933 61.743209 
L 46.441793 61.841856 
L 47.020373 62.824397 
L 47.116803 62.828744 
L 47.213233 62.708861 
L 49.623984 67.689038 
L 50.009704 69.215359 
L 50.106134 69.537473 
L 50.202564 69.368328 
L 50.588284 71.488913 
L 50.877574 72.650891 
L 51.166864 74.266513 
L 51.263294 74.346337 
L 51.552584 75.582703 
L 52.806175 79.157909 
L 53.095465 80.84124 
L 53.191895 80.843815 
L 53.288325 81.182198 
L 53.384755 80.96493 
L 53.481185 81.175387 
L 53.577615 81.033169 
L 54.059765 82.308087 
L 54.252625 82.164728 
L 54.638346 83.14281 
L 54.734776 83.186168 
L 55.024066 84.192388 
L 55.602646 86.045587 
L 55.699076 86.10672 
L 55.988366 87.146596 
L 56.084796 87.204267 
L 56.181226 87.427032 
L 56.277656 87.95036 
L 56.374086 87.899815 
L 56.470516 87.921794 
L 56.566946 87.809781 
L 56.759806 88.128648 
L 56.856236 88.195033 
L 57.049096 88.627828 
L 57.145526 88.532133 
L 57.434816 88.964276 
L 58.206257 90.88491 
L 58.302687 90.938489 
L 58.495547 91.388173 
L 58.881267 92.04755 
L 59.266987 92.304613 
L 59.363417 92.459333 
L 59.556277 92.922984 
L 59.652707 93.134632 
L 59.749137 93.079129 
L 59.941997 93.051327 
L 60.038427 93.192751 
L 60.134857 93.006696 
L 60.617008 94.027179 
L 60.809868 93.890244 
L 61.002728 94.027423 
L 61.099158 93.775013 
L 62.449178 95.438768 
L 62.642038 95.72349 
L 62.738468 95.770869 
L 63.124188 96.486533 
L 63.220618 96.281472 
L 63.509909 96.42308 
L 63.606339 96.313132 
L 63.992059 97.086193 
L 64.088489 97.082635 
L 64.859929 98.068332 
L 65.245649 98.793692 
L 65.438509 98.578237 
L 67.07782 100.340094 
L 67.27068 100.396879 
L 67.84926 101.034726 
L 67.94569 101.258458 
L 68.04212 101.190296 
L 68.13855 101.346675 
L 68.23498 101.193894 
L 69.199281 102.169919 
L 69.488571 102.222394 
L 69.585001 102.274827 
L 69.874291 102.759358 
L 70.260011 102.720948 
L 70.838591 102.892776 
L 71.224311 103.307114 
L 71.417171 103.365579 
L 71.513601 103.346257 
L 71.802891 103.626449 
L 72.092182 103.396013 
L 72.381472 103.324838 
L 73.345772 103.945617 
L 73.538632 103.791955 
L 74.502932 104.550071 
L 74.695792 104.516853 
L 74.888653 104.659092 
L 75.274373 104.885497 
L 75.370803 104.977465 
L 75.563663 104.872878 
L 75.756523 105.143038 
L 75.949383 104.995423 
L 76.238673 105.254675 
L 76.624393 104.819421 
L 76.817253 104.910443 
L 76.913683 104.873642 
L 77.010113 105.017138 
L 77.299403 104.87975 
L 77.588693 104.98167 
L 77.685123 104.959955 
L 78.070844 105.206532 
L 78.552994 105.30042 
L 79.035144 105.732924 
L 79.131574 105.742977 
L 79.324434 105.992903 
L 79.613724 105.828538 
L 79.806584 105.899275 
L 79.999444 106.077965 
L 80.192304 106.005848 
L 80.385164 106.156414 
L 80.867315 106.206674 
L 81.060175 106.362972 
L 81.156605 106.302746 
L 81.253035 106.047862 
L 81.349465 106.0983 
L 81.831615 106.236833 
L 82.313765 106.497515 
L 82.699485 106.91342 
L 82.892345 106.854726 
L 83.663786 107.318362 
L 83.856646 107.367309 
L 83.953076 107.375901 
L 84.049506 107.246932 
L 84.242366 107.342484 
L 84.338796 107.400354 
L 84.435226 107.278684 
L 84.628086 107.496995 
L 84.820946 107.482911 
L 85.013806 107.499703 
L 86.845977 108.191357 
L 87.135267 108.004396 
L 87.424557 108.295395 
L 88.003137 108.430172 
L 88.485287 108.760232 
L 88.581717 108.688975 
L 88.871007 108.798698 
L 89.063867 108.742172 
L 90.510318 109.32197 
L 90.799608 109.180143 
L 90.992468 109.17206 
L 92.824639 109.770005 
L 93.017499 109.78133 
L 93.499649 109.996099 
L 94.078229 110.089472 
L 94.271089 110.186043 
L 95.42825 110.533725 
L 96.10326 111.177791 
L 97.06756 111.500328 
L 97.45328 111.773898 
L 98.803301 112.090159 
L 99.285451 112.162134 
L 99.478311 112.273735 
L 99.671171 112.286236 
L 99.960461 112.427152 
L 100.153321 112.438926 
L 100.442611 112.436253 
L 100.635471 112.480838 
L 100.731901 112.564281 
L 100.924761 112.526247 
L 101.310482 112.713717 
L 101.889062 112.859646 
L 102.564072 113.051178 
L 102.853362 113.114322 
L 103.046222 113.212124 
L 103.239082 113.268874 
L 103.431942 113.305899 
L 103.624802 113.313911 
L 104.010523 113.511297 
L 104.106953 113.458986 
L 104.299813 113.269968 
L 106.131983 113.772635 
L 106.324843 113.717733 
L 107.578434 113.977305 
L 108.349874 114.042713 
L 109.121314 114.30088 
L 109.314174 114.325496 
L 109.603464 114.364767 
L 116.160707 115.216445 
L 116.353567 115.200344 
L 116.642857 115.127515 
L 117.028577 115.20629 
L 118.860748 115.470397 
L 119.150038 115.502811 
L 119.921478 115.686336 
L 120.210768 115.73057 
L 120.692918 115.907732 
L 121.175068 116.057423 
L 121.753649 115.948077 
L 123.296529 116.028791 
L 123.971539 116.186972 
L 124.64655 116.343998 
L 124.83941 116.251271 
L 125.41799 116.323266 
L 125.70728 116.368584 
L 126.093 116.486812 
L 126.76801 116.625091 
L 127.0573 116.651189 
L 128.407321 116.870497 
L 128.793041 116.967785 
L 128.985901 116.9531 
L 129.178761 116.951298 
L 129.468051 116.979437 
L 130.528782 116.95224 
L 130.721642 116.92372 
L 131.589512 117.193009 
L 131.878802 117.215553 
L 132.746672 117.432546 
L 133.421683 117.407961 
L 133.710973 117.392639 
L 134.964563 117.435544 
L 135.157423 117.377445 
L 135.736003 117.447491 
L 137.086024 117.407686 
L 137.375314 117.422493 
L 138.243184 117.55416 
L 138.436044 117.556868 
L 140.171785 117.913015 
L 140.268215 160.056 
L 140.461075 137.412383 
L 140.557505 145.502573 
L 140.653935 143.501059 
L 140.750365 145.656845 
L 140.846795 141.51251 
L 140.943225 145.91275 
L 141.039655 142.881283 
L 141.136085 145.817577 
L 141.232515 144.766594 
L 141.328945 147.084427 
L 141.425375 146.001695 
L 141.521805 146.674444 
L 141.618235 146.093725 
L 141.811096 142.81614 
L 142.003956 145.067236 
L 142.100386 144.634637 
L 142.196816 144.944304 
L 142.678966 148.045541 
L 142.775396 147.985803 
L 142.871826 148.456499 
L 142.968256 148.262959 
L 143.161116 147.801193 
L 143.257546 145.8145 
L 143.450406 147.325998 
L 143.643266 145.7507 
L 143.739696 145.606381 
L 143.836126 146.045063 
L 143.932556 145.892532 
L 144.028986 145.961521 
L 144.221846 146.899904 
L 144.414706 145.407777 
L 144.703997 146.574115 
L 144.896857 146.022203 
L 144.993287 146.171734 
L 145.186147 144.450458 
L 145.282577 144.668929 
L 145.379007 144.307491 
L 145.668297 145.381247 
L 145.764727 144.846097 
L 145.861157 145.00086 
L 145.957587 144.663488 
L 146.054017 143.57294 
L 146.150447 143.760288 
L 146.343307 143.408073 
L 146.632597 144.195971 
L 146.729027 144.032766 
L 147.018317 144.828836 
L 147.307607 143.999326 
L 147.404037 143.995521 
L 147.693328 144.555218 
L 147.982618 143.45522 
L 148.079048 143.239029 
L 148.368338 143.820385 
L 148.561198 143.018745 
L 148.657628 143.301905 
L 149.043348 142.852025 
L 149.139778 142.490559 
L 149.236208 142.640581 
L 149.332638 142.342911 
L 149.525498 142.729126 
L 149.621928 142.545474 
L 149.814788 142.06137 
L 150.007648 142.344594 
L 150.104078 142.616647 
L 150.296938 141.911982 
L 150.393369 141.558589 
L 150.586229 141.884399 
L 150.779089 141.690299 
L 151.164809 142.184056 
L 151.261239 142.230803 
L 151.454099 141.859052 
L 151.550529 141.818866 
L 151.646959 141.599598 
L 151.839819 141.942892 
L 152.129109 141.730883 
L 152.225539 141.711021 
L 152.418399 141.254554 
L 153.189839 142.700843 
L 153.3827 142.049892 
L 153.47913 142.161086 
L 153.57556 141.87615 
L 153.67199 141.237243 
L 153.76842 141.274826 
L 153.86485 141.28974 
L 153.96128 141.128614 
L 154.05771 141.28876 
L 154.25057 140.895557 
L 154.44343 140.997983 
L 154.73272 141.380426 
L 154.82915 141.154133 
L 154.92558 141.297617 
L 155.02201 141.236675 
L 155.11844 141.402988 
L 155.40773 140.598565 
L 155.50416 140.755865 
L 155.60059 140.555637 
L 155.69702 140.612214 
L 155.79345 140.470486 
L 155.98631 140.71098 
L 156.08274 140.588427 
L 156.17917 140.619963 
L 156.468461 140.972736 
L 156.564891 141.089165 
L 156.661321 140.947178 
L 156.854181 140.569121 
L 157.047041 140.75881 
L 157.143471 140.752867 
L 157.432761 140.249884 
L 157.529191 140.111483 
L 157.722051 139.678332 
L 157.818481 139.80453 
L 157.914911 139.70174 
L 158.107771 139.955478 
L 158.300631 139.474304 
L 158.493491 139.554151 
L 158.589921 139.700368 
L 158.782781 139.326995 
L 159.361362 139.751007 
L 159.457792 139.612156 
L 159.650652 139.82416 
L 159.843512 139.780166 
L 159.939942 139.786501 
L 160.132802 139.549946 
L 160.229232 139.73308 
L 160.422092 139.434889 
L 160.518522 139.231041 
L 160.711382 139.341696 
L 160.807812 138.999088 
L 160.904242 139.064858 
L 161.289962 139.375535 
L 161.386392 139.246566 
L 161.675682 139.363573 
L 161.868542 139.372522 
L 162.061403 139.461546 
L 162.157833 139.5555 
L 162.254263 139.433476 
L 162.350693 139.593462 
L 162.543553 139.127294 
L 162.736413 139.408321 
L 162.929273 139.384982 
L 163.314993 139.404432 
L 163.507853 139.445158 
L 163.604283 139.573244 
L 163.797143 139.321544 
L 163.893573 139.28516 
L 163.990003 139.092752 
L 164.279293 139.210451 
L 164.472153 139.349176 
L 164.568583 139.468542 
L 164.761443 139.289481 
L 164.954304 139.504624 
L 165.050734 139.483729 
L 165.147164 139.602652 
L 165.243594 139.198072 
L 165.725744 139.720604 
L 165.822174 139.520772 
L 165.918604 139.62851 
L 166.111464 139.554354 
L 166.207894 139.666829 
L 166.400754 139.375273 
L 166.882904 139.667139 
L 166.979334 139.527898 
L 167.075764 139.622929 
L 167.172194 139.52049 
L 167.365054 139.544833 
L 167.557914 139.360293 
L 167.847205 139.165806 
L 168.040065 139.253636 
L 168.232925 139.175635 
L 168.522215 139.32587 
L 168.907935 138.95568 
L 169.293655 139.02543 
L 169.775805 138.944944 
L 169.872235 138.771116 
L 170.161525 138.875876 
L 170.354385 138.775346 
L 170.450815 138.675192 
L 170.740106 138.838397 
L 171.029396 138.784834 
L 172.090126 138.96615 
L 172.282986 139.121262 
L 172.861566 138.243105 
L 173.536576 138.599883 
L 174.211587 138.730456 
L 174.597307 138.964491 
L 175.272317 139.018349 
L 175.465177 139.033197 
L 175.658037 138.961462 
L 175.947327 138.634654 
L 176.236617 138.6169 
L 176.333047 138.423103 
L 176.525907 138.530316 
L 176.718768 138.379994 
L 177.008058 138.402309 
L 177.200918 138.336687 
L 178.068788 138.469784 
L 178.261648 138.397504 
L 178.454508 138.4105 
L 178.647368 138.460398 
L 178.743798 138.210951 
L 178.840228 138.265878 
L 179.033088 138.348909 
L 179.129518 138.335211 
L 179.225948 138.199111 
L 179.418808 138.307714 
L 179.611669 138.233067 
L 179.900959 138.182945 
L 180.190249 138.299763 
L 180.479539 138.358891 
L 180.672399 138.313059 
L 181.154549 138.492054 
L 181.443839 138.349917 
L 182.022419 138.171029 
L 182.215279 138.198251 
L 182.40814 138.099466 
L 182.601 138.13922 
L 182.79386 138.215348 
L 183.37244 138.008317 
L 183.66173 138.044447 
L 183.85459 138.011178 
L 183.95102 138.065612 
L 184.04745 137.964109 
L 184.43317 138.091816 
L 184.81889 138.058206 
L 185.686761 138.360331 
L 187.326071 138.417208 
L 187.518931 138.384295 
L 188.290372 138.36027 
L 188.676092 138.500519 
L 188.772522 138.432662 
L 188.965382 138.496487 
L 189.447532 138.473292 
L 189.640392 138.480117 
L 190.026112 138.405094 
L 190.604692 138.615556 
L 190.893982 138.635123 
L 191.279703 138.661601 
L 191.665423 138.778191 
L 192.147573 138.619414 
L 192.436863 138.614146 
L 193.497593 138.625344 
L 193.786883 138.372695 
L 193.979744 138.315502 
L 194.172604 138.250135 
L 194.365464 138.259958 
L 194.847614 138.222302 
L 195.040474 138.124006 
L 196.679784 138.018706 
L 197.161935 138.138284 
L 198.319095 138.012063 
L 202.079866 138.25524 
L 202.369156 138.163337 
L 203.140597 138.020885 
L 203.622747 138.08247 
L 205.165627 138.14768 
L 205.647778 138.205876 
L 205.840638 138.21063 
L 206.419218 138.238361 
L 206.804938 138.210757 
L 207.287088 138.284666 
L 207.479948 138.169888 
L 207.769238 138.220479 
L 208.058528 138.231398 
L 208.733539 138.150999 
L 209.119259 138.208833 
L 209.408549 138.160685 
L 209.890699 138.12677 
L 210.083559 138.107677 
L 210.662139 138.061993 
L 210.854999 138.037356 
L 212.20502 138.043317 
L 212.88003 138.062894 
L 213.07289 138.032938 
L 213.55504 138.037896 
L 213.84433 137.971373 
L 214.13362 137.923357 
L 214.519341 137.921026 
L 215.097921 137.962531 
L 215.290781 137.948482 
L 216.737231 138.139541 
L 217.026521 138.188335 
L 217.605102 138.229703 
L 217.701532 138.031396 
L 217.797962 138.081213 
L 218.183682 138.104261 
L 218.376542 138.050519 
L 218.762262 137.952728 
L 218.955122 137.904595 
L 219.822992 137.977206 
L 220.305143 138.048758 
L 222.330173 138.19626 
L 222.715893 138.267136 
L 223.198044 138.179158 
L 223.583764 138.207286 
L 224.740924 138.444919 
L 225.801654 138.412714 
L 226.958815 138.532953 
L 227.537395 138.685225 
L 228.501695 138.383125 
L 229.273136 138.566996 
L 231.298166 138.769105 
L 231.587456 138.721609 
L 231.876747 138.724266 
L 232.551757 138.742072 
L 232.744617 138.747238 
L 233.226767 138.740942 
L 233.998207 138.829754 
L 234.383927 138.841365 
L 235.058938 138.862484 
L 235.251798 138.749101 
L 235.637518 138.81876 
L 235.926808 138.794648 
L 236.408958 138.867757 
L 236.601818 138.849377 
L 236.601818 138.849377 
" clip-path="url(#p371b906536)" style="fill: none; stroke: #1f77b4; stroke-width: 1.6; stroke-linecap: square"/>
   </g>
   <g id="line2d_11">
    <path d="M 43.838182 57.977388 
L 44.031042 136.610298 
L 44.127472 140.648967 
L 44.223902 138.844852 
L 44.320332 140.737065 
L 44.416762 132.567909 
L 44.513192 113.751786 
L 44.706052 121.293273 
L 44.898912 127.628371 
L 44.995342 123.558693 
L 45.284632 130.504374 
L 45.573922 135.896304 
L 45.766782 138.030093 
L 45.863213 139.331933 
L 45.959643 132.756473 
L 46.056073 133.712143 
L 46.345363 126.739937 
L 46.441793 126.939532 
L 46.538223 126.611096 
L 46.827513 128.425167 
L 47.020373 127.014764 
L 47.116803 123.445438 
L 47.213233 123.727539 
L 47.406093 125.016455 
L 47.502523 124.089183 
L 47.695383 126.553898 
L 47.791813 125.466607 
L 47.984673 127.800433 
L 48.177533 127.145215 
L 48.466823 129.138144 
L 48.563253 128.676249 
L 48.659683 128.815602 
L 48.756114 128.38465 
L 49.141834 130.894824 
L 49.334694 129.802499 
L 49.431124 129.955484 
L 49.623984 127.949152 
L 49.720414 127.072685 
L 49.913274 128.353579 
L 50.009704 128.087375 
L 50.106134 128.160098 
L 50.202564 128.408522 
L 50.395424 129.601861 
L 50.588284 128.145301 
L 50.781144 128.934894 
L 50.877574 129.014764 
L 51.263294 130.235014 
L 51.359724 130.486981 
L 51.456154 130.018495 
L 51.745445 131.078599 
L 51.841875 130.88244 
L 51.938305 131.290013 
L 52.034735 130.086061 
L 52.131165 130.572155 
L 52.324025 129.471187 
L 52.420455 129.914895 
L 52.516885 129.539889 
L 52.613315 129.761819 
L 52.709745 129.658514 
L 52.806175 129.068119 
L 52.902605 129.222818 
L 52.999035 129.735304 
L 53.095465 129.010376 
L 53.481185 130.309396 
L 53.577615 129.809351 
L 53.674045 130.025473 
L 53.770475 129.748523 
L 53.963335 130.474897 
L 54.059765 129.295714 
L 54.156195 129.448571 
L 54.927636 131.151296 
L 55.024066 131.028995 
L 55.120496 131.207949 
L 55.216926 130.98125 
L 55.313356 131.07191 
L 55.409786 131.429686 
L 55.506216 131.005973 
L 55.795506 131.874514 
L 55.891936 131.930979 
L 55.988366 132.252758 
L 56.181226 131.158733 
L 56.277656 130.81185 
L 56.566946 131.4265 
L 56.663376 131.378785 
L 56.952666 131.778178 
L 57.049096 131.799368 
L 57.145526 132.09507 
L 57.241956 131.947975 
L 57.338386 131.418142 
L 57.531247 131.913031 
L 57.724107 131.470321 
L 57.820537 131.749648 
L 57.916967 131.708285 
L 58.013397 131.064239 
L 58.109827 131.353019 
L 58.206257 130.078803 
L 58.591977 130.781446 
L 58.688407 130.256362 
L 58.784837 130.523798 
L 58.881267 130.300377 
L 59.363417 131.40193 
L 59.652707 130.698813 
L 59.845567 129.719275 
L 60.038427 130.169799 
L 60.231287 129.673098 
L 60.327717 129.783238 
L 60.617008 130.34094 
L 60.809868 130.321475 
L 60.906298 130.105017 
L 61.195588 130.34489 
L 61.292018 130.203842 
L 61.870598 131.391856 
L 61.967028 131.434787 
L 62.159888 130.850112 
L 62.256318 130.873695 
L 62.352748 130.643249 
L 62.449178 130.788354 
L 62.834898 129.72433 
L 62.931328 129.885647 
L 63.220618 128.954741 
L 63.317049 129.035582 
L 63.606339 129.423594 
L 63.799199 129.098033 
L 63.992059 129.249078 
L 64.088489 129.222416 
L 64.184919 129.328062 
L 64.281349 129.161049 
L 64.474209 129.331142 
L 64.667069 128.880796 
L 64.763499 129.068551 
L 64.859929 128.820035 
L 65.342079 129.308842 
L 65.438509 129.249414 
L 65.534939 128.533684 
L 65.631369 128.61447 
L 65.727799 128.682673 
L 65.920659 127.905026 
L 66.017089 127.968968 
L 66.113519 127.795297 
L 66.40281 128.11532 
L 66.59567 127.860441 
L 67.17425 128.5371 
L 67.27068 128.259519 
L 67.46354 128.580264 
L 67.55997 128.332557 
L 67.84926 128.678809 
L 67.94569 128.5707 
L 68.04212 128.645703 
L 68.13855 128.553648 
L 68.23498 128.704448 
L 68.33141 128.622049 
L 68.52427 128.24351 
L 68.81356 128.659792 
L 69.00642 128.392203 
L 69.102851 128.575978 
L 69.199281 128.390793 
L 69.295711 128.523112 
L 69.392141 128.081302 
L 69.488571 128.222137 
L 69.681431 128.084993 
L 69.874291 128.211076 
L 69.970721 128.304948 
L 70.067151 127.948862 
L 70.163581 128.057012 
L 70.356441 127.706775 
L 70.452871 127.604402 
L 70.742161 127.870947 
L 71.031451 127.228968 
L 71.417171 127.621769 
L 71.610031 127.177018 
L 71.802891 127.077729 
L 72.092182 127.022435 
L 72.285042 127.311057 
L 72.477902 126.803091 
L 73.442202 127.740253 
L 73.538632 127.671984 
L 73.635062 127.812879 
L 73.827922 127.312299 
L 74.406502 127.769495 
L 74.695792 127.327228 
L 74.985083 127.520888 
L 75.081513 127.393273 
L 75.274373 127.598253 
L 75.467233 126.918189 
L 75.852953 126.911541 
L 76.045813 127.013482 
L 76.624393 127.065345 
L 76.817253 127.259 
L 77.299403 127.805768 
L 77.685123 127.690924 
L 77.974414 127.233244 
L 78.360134 127.399956 
L 78.552994 127.257819 
L 78.745854 127.242116 
L 78.842284 126.970877 
L 79.035144 127.200483 
L 79.324434 127.124538 
L 79.710154 127.243174 
L 79.903014 127.142293 
L 80.385164 127.520603 
L 80.578024 127.685793 
L 80.674454 127.806567 
L 80.867315 127.609222 
L 81.253035 127.87339 
L 81.349465 127.91573 
L 81.638755 127.480421 
L 82.024475 127.26464 
L 82.120905 127.235076 
L 82.410195 127.583873 
L 82.506625 127.321776 
L 82.603055 127.424903 
L 82.699485 127.333438 
L 82.988775 127.561787 
L 83.085205 127.612383 
L 83.374495 127.190527 
L 83.663786 127.498242 
L 83.760216 127.357341 
L 84.049506 127.586948 
L 84.242366 127.486397 
L 84.435226 127.078702 
L 84.917376 127.356476 
L 85.013806 127.13055 
L 85.399526 127.541661 
L 85.592386 127.518974 
L 85.881676 127.725028 
L 86.074536 127.395227 
L 86.170966 127.308858 
L 86.363826 126.935587 
L 86.556687 127.140954 
L 86.749547 127.087864 
L 86.942407 127.176748 
L 87.135267 127.224433 
L 87.328127 127.200142 
L 87.520987 127.362762 
L 87.617417 127.081155 
L 87.713847 127.124935 
L 88.003137 127.184414 
L 88.195997 127.220131 
L 88.967437 127.61588 
L 89.160297 127.831061 
L 89.449588 127.696034 
L 89.738878 127.885729 
L 90.028168 127.808649 
L 90.124598 127.718365 
L 90.317458 127.91317 
L 90.413888 127.840411 
L 90.510318 127.927239 
L 90.799608 127.743017 
L 90.896038 127.82705 
L 91.281758 127.575663 
L 91.474618 127.676066 
L 91.956768 127.523667 
L 92.053198 29.016 
L 92.246058 127.470933 
L 92.342489 136.355995 
L 92.438919 133.326931 
L 92.535349 136.635556 
L 92.631779 132.511693 
L 92.728209 109.717368 
L 93.017499 126.093855 
L 93.113929 128.978395 
L 93.210359 120.801494 
L 93.499649 129.058651 
L 93.596079 126.974165 
L 94.078229 135.528093 
L 94.174659 130.376591 
L 94.271089 131.926123 
L 94.560379 124.009197 
L 94.656809 124.174861 
L 94.946099 126.644202 
L 95.138959 125.836732 
L 95.33182 118.98924 
L 95.42825 119.032577 
L 95.62111 120.650892 
L 95.71754 119.853032 
L 95.9104 122.619796 
L 96.00683 121.157967 
L 96.19969 123.580255 
L 96.39255 122.985131 
L 96.68184 125.565962 
L 96.77827 125.38603 
L 96.97113 123.734227 
L 97.26042 125.68023 
L 97.45328 126.729991 
L 97.64614 126.317247 
L 97.93543 122.640345 
L 98.224721 124.603064 
L 98.417581 124.637209 
L 98.610441 125.839129 
L 98.803301 124.816254 
L 99.285451 127.624869 
L 99.381881 127.480029 
L 99.574741 128.55974 
L 99.671171 127.551133 
L 100.153321 129.675348 
L 100.249751 128.297466 
L 100.346181 128.737412 
L 100.539041 127.049637 
L 100.635471 127.475937 
L 100.731901 126.535186 
L 100.828331 126.869721 
L 101.021192 125.421116 
L 101.117622 125.615392 
L 101.214052 126.154861 
L 101.310482 125.153848 
L 101.503342 125.78837 
L 101.599772 125.696371 
L 101.889062 125.998181 
L 101.985492 125.571652 
L 102.178352 126.378257 
L 102.371212 125.068507 
L 102.467642 124.940164 
L 102.660502 125.15365 
L 103.046222 126.650951 
L 103.335512 127.015604 
L 103.528372 127.538698 
L 103.624802 127.922627 
L 103.721232 127.589172 
L 104.106953 128.766716 
L 104.203383 129.091442 
L 104.396243 127.832481 
L 104.492673 127.482177 
L 104.878393 128.340024 
L 105.071253 128.106397 
L 105.167683 128.270167 
L 105.264113 128.200814 
L 105.456973 128.682927 
L 105.553403 128.571142 
L 105.746263 129.144303 
L 105.842693 128.901427 
L 105.939123 128.202478 
L 106.035553 128.51961 
L 106.131983 128.434772 
L 106.228413 127.912422 
L 106.324843 128.234913 
L 106.421273 127.199506 
L 106.614133 127.587436 
L 106.710563 127.539319 
L 106.806993 127.858227 
L 106.903424 127.0783 
L 106.999854 127.367277 
L 107.096284 127.026029 
L 107.385574 127.695831 
L 107.578434 128.189051 
L 107.674864 128.032783 
L 108.060584 126.292926 
L 108.253444 126.829076 
L 108.446304 126.195221 
L 108.832024 126.897258 
L 108.928454 126.508789 
L 109.217744 126.886686 
L 109.314174 126.64718 
L 109.410604 126.849248 
L 109.603464 126.608444 
L 109.989185 127.360619 
L 110.182045 127.706118 
L 110.857055 126.404385 
L 111.049915 125.276154 
L 111.242775 125.456406 
L 111.339205 125.537345 
L 111.435635 124.939986 
L 111.532065 124.970084 
L 111.724925 125.025495 
L 111.917785 125.200331 
L 112.207075 124.741709 
L 112.303505 124.715668 
L 112.399935 124.947662 
L 112.496365 124.846607 
L 112.592795 125.042939 
L 112.689226 124.994949 
L 112.785656 124.904624 
L 112.978516 125.221914 
L 113.171376 124.899203 
L 113.267806 124.886758 
L 113.460666 125.271466 
L 113.653526 125.249813 
L 113.749956 124.596783 
L 113.846386 124.704083 
L 114.039246 124.736863 
L 114.135676 124.556123 
L 114.232106 124.669317 
L 114.424966 124.55685 
L 114.810686 123.952243 
L 114.907116 124.134725 
L 115.003546 123.918287 
L 115.099976 123.983059 
L 115.389266 124.591835 
L 115.582127 124.370073 
L 115.678557 124.572747 
L 115.871417 124.167266 
L 115.967847 124.142345 
L 116.064277 124.302827 
L 116.160707 124.032352 
L 116.257137 124.159666 
L 116.353567 124.082128 
L 116.449997 124.228231 
L 116.739287 124.017636 
L 117.028577 124.516185 
L 117.125007 124.433776 
L 117.221437 124.388453 
L 117.317867 124.585885 
L 117.800017 124.018242 
L 118.185737 124.408732 
L 118.282167 124.075012 
L 118.475028 124.280909 
L 118.667888 124.043158 
L 118.860748 124.262182 
L 119.246468 123.486291 
L 119.342898 123.552651 
L 119.439328 123.549124 
L 119.632188 123.919732 
L 119.825048 123.536434 
L 119.921478 123.466602 
L 120.017908 123.587865 
L 120.114338 123.47041 
L 120.500058 123.928004 
L 120.596488 123.61328 
L 121.078638 124.107666 
L 121.271498 124.427337 
L 121.367929 124.341222 
L 121.753649 124.781591 
L 121.850079 124.921595 
L 122.042939 124.500447 
L 122.332229 124.809983 
L 122.525089 124.898633 
L 122.621519 124.884396 
L 122.910809 124.303774 
L 123.296529 124.51559 
L 123.392959 124.544884 
L 123.489389 124.703498 
L 123.778679 124.126423 
L 123.875109 124.108663 
L 123.971539 123.976034 
L 124.164399 124.001999 
L 124.35726 123.892882 
L 124.55012 123.558363 
L 124.83941 123.605329 
L 125.41799 124.236314 
L 125.51442 124.388194 
L 125.70728 124.146646 
L 125.90014 124.259698 
L 126.093 123.880029 
L 126.28586 123.792784 
L 126.57515 124.041769 
L 126.67158 123.726042 
L 126.76801 123.845294 
L 126.96087 123.712039 
L 127.0573 123.447245 
L 127.250161 123.669318 
L 127.443021 123.451984 
L 127.732311 123.785302 
L 127.828741 123.52152 
L 127.925171 123.582775 
L 128.021601 123.438576 
L 128.310891 123.739506 
L 128.600181 123.968944 
L 128.696611 123.944643 
L 128.889471 124.216106 
L 129.082331 123.871865 
L 129.275191 123.970339 
L 129.371621 123.887486 
L 129.564481 123.940734 
L 129.757341 123.339838 
L 129.853771 123.296663 
L 129.950201 123.110114 
L 130.046631 123.172723 
L 130.335922 123.00313 
L 130.625212 123.288376 
L 130.721642 123.234151 
L 131.107362 123.612644 
L 131.300222 123.625237 
L 131.493082 123.254282 
L 131.589512 123.212273 
L 131.878802 123.550274 
L 131.975232 123.359928 
L 132.457382 123.790499 
L 132.650242 123.386341 
L 132.939532 123.545622 
L 133.132393 123.723054 
L 133.228823 123.511716 
L 133.614543 123.914759 
L 133.710973 123.829341 
L 134.000263 124.052916 
L 134.096693 124.115128 
L 134.289553 123.772851 
L 134.578843 123.324048 
L 134.675273 123.43793 
L 134.771703 123.553858 
L 134.964563 123.319803 
L 135.060993 123.311913 
L 135.253853 123.524589 
L 135.543143 123.439879 
L 135.736003 123.610389 
L 135.832433 123.425963 
L 136.025294 123.541066 
L 136.121724 123.365451 
L 136.314584 123.40125 
L 136.893164 123.700535 
L 137.086024 123.501954 
L 137.375314 123.833398 
L 137.568174 123.482433 
L 138.050324 123.881302 
L 138.436044 123.814509 
L 138.628904 123.859908 
L 138.725334 123.953638 
L 139.014625 123.717307 
L 139.111055 123.81909 
L 139.400345 123.584098 
L 139.786065 123.810386 
L 139.978925 123.939329 
L 140.075355 123.760686 
L 140.171785 123.863018 
L 140.171785 123.863018 
" clip-path="url(#p371b906536)" style="fill: none; stroke: #ff7f0e; stroke-width: 1.6; stroke-linecap: square"/>
   </g>
   <g id="patch_3">
    <path d="M 34.2 166.608 
L 34.2 22.464 
" style="fill: none; stroke: #000000; stroke-width: 0.8; stroke-linejoin: miter; stroke-linecap: square"/>
   </g>
   <g id="patch_4">
    <path d="M 246.24 166.608 
L 246.24 22.464 
" style="fill: none; stroke: #000000; stroke-width: 0.8; stroke-linejoin: miter; stroke-linecap: square"/>
   </g>
   <g id="patch_5">
    <path d="M 34.2 166.608 
L 246.24 166.608 
" style="fill: none; stroke: #000000; stroke-width: 0.8; stroke-linejoin: miter; stroke-linecap: square"/>
   </g>
   <g id="patch_6">
    <path d="M 34.2 22.464 
L 246.24 22.464 
" style="fill: none; stroke: #000000; stroke-width: 0.8; stroke-linejoin: miter; stroke-linecap: square"/>
   </g>
  </g>
  <g id="axes_2">
   <g id="matplotlib.axis_3">
    <g id="ytick_5">
     <g id="line2d_12">
      <defs>
       <path id="mab1a75e27b" d="M 0 0 
L 3.5 0 
" style="stroke: #000000; stroke-width: 0.8"/>
      </defs>
      <g>
       <use xlink:href="#mab1a75e27b" x="246.24" y="156.637565" style="stroke: #000000; stroke-width: 0.8"/>
      </g>
     </g>
     <g id="text_12">
      <!-- 0.5 -->
      <g transform="translate(253.24 160.322807)scale(0.097 -0.097)">
       <use xlink:href="#DejaVuSans-30"/>
       <use xlink:href="#DejaVuSans-2e" x="63.623047"/>
       <use xlink:href="#DejaVuSans-35" x="95.410156"/>
      </g>
     </g>
    </g>
    <g id="ytick_6">
     <g id="line2d_13">
      <g>
       <use xlink:href="#mab1a75e27b" x="246.24" y="127.466922" style="stroke: #000000; stroke-width: 0.8"/>
      </g>
     </g>
     <g id="text_13">
      <!-- 0.6 -->
      <g transform="translate(253.24 131.152164)scale(0.097 -0.097)">
       <use xlink:href="#DejaVuSans-30"/>
       <use xlink:href="#DejaVuSans-2e" x="63.623047"/>
       <use xlink:href="#DejaVuSans-36" x="95.410156"/>
      </g>
     </g>
    </g>
    <g id="ytick_7">
     <g id="line2d_14">
      <g>
       <use xlink:href="#mab1a75e27b" x="246.24" y="98.296278" style="stroke: #000000; stroke-width: 0.8"/>
      </g>
     </g>
     <g id="text_14">
      <!-- 0.7 -->
      <g transform="translate(253.24 101.98152)scale(0.097 -0.097)">
       <defs>
        <path id="DejaVuSans-37" d="M 525 4666 
L 3525 4666 
L 3525 4397 
L 1831 0 
L 1172 0 
L 2766 4134 
L 525 4134 
L 525 4666 
z
" transform="scale(0.015625)"/>
       </defs>
       <use xlink:href="#DejaVuSans-30"/>
       <use xlink:href="#DejaVuSans-2e" x="63.623047"/>
       <use xlink:href="#DejaVuSans-37" x="95.410156"/>
      </g>
     </g>
    </g>
    <g id="ytick_8">
     <g id="line2d_15">
      <g>
       <use xlink:href="#mab1a75e27b" x="246.24" y="69.125635" style="stroke: #000000; stroke-width: 0.8"/>
      </g>
     </g>
     <g id="text_15">
      <!-- 0.8 -->
      <g transform="translate(253.24 72.810877)scale(0.097 -0.097)">
       <use xlink:href="#DejaVuSans-30"/>
       <use xlink:href="#DejaVuSans-2e" x="63.623047"/>
       <use xlink:href="#DejaVuSans-38" x="95.410156"/>
      </g>
     </g>
    </g>
    <g id="ytick_9">
     <g id="line2d_16">
      <g>
       <use xlink:href="#mab1a75e27b" x="246.24" y="39.954991" style="stroke: #000000; stroke-width: 0.8"/>
      </g>
     </g>
     <g id="text_16">
      <!-- 0.9 -->
      <g transform="translate(253.24 43.640233)scale(0.097 -0.097)">
       <defs>
        <path id="DejaVuSans-39" d="M 703 97 
L 703 672 
Q 941 559 1184 500 
Q 1428 441 1663 441 
Q 2288 441 2617 861 
Q 2947 1281 2994 2138 
Q 2813 1869 2534 1725 
Q 2256 1581 1919 1581 
Q 1219 1581 811 2004 
Q 403 2428 403 3163 
Q 403 3881 828 4315 
Q 1253 4750 1959 4750 
Q 2769 4750 3195 4129 
Q 3622 3509 3622 2328 
Q 3622 1225 3098 567 
Q 2575 -91 1691 -91 
Q 1453 -91 1209 -44 
Q 966 3 703 97 
z
M 1959 2075 
Q 2384 2075 2632 2365 
Q 2881 2656 2881 3163 
Q 2881 3666 2632 3958 
Q 2384 4250 1959 4250 
Q 1534 4250 1286 3958 
Q 1038 3666 1038 3163 
Q 1038 2656 1286 2365 
Q 1534 2075 1959 2075 
z
" transform="scale(0.015625)"/>
       </defs>
       <use xlink:href="#DejaVuSans-30"/>
       <use xlink:href="#DejaVuSans-2e" x="63.623047"/>
       <use xlink:href="#DejaVuSans-39" x="95.410156"/>
      </g>
     </g>
    </g>
    <g id="text_17">
     <!-- Acc -->
     <g transform="translate(280.036516 103.102313)rotate(-90)scale(0.097 -0.097)">
      <defs>
       <path id="DejaVuSans-41" d="M 2188 4044 
L 1331 1722 
L 3047 1722 
L 2188 4044 
z
M 1831 4666 
L 2547 4666 
L 4325 0 
L 3669 0 
L 3244 1197 
L 1141 1197 
L 716 0 
L 50 0 
L 1831 4666 
z
" transform="scale(0.015625)"/>
       <path id="DejaVuSans-63" d="M 3122 3366 
L 3122 2828 
Q 2878 2963 2633 3030 
Q 2388 3097 2138 3097 
Q 1578 3097 1268 2742 
Q 959 2388 959 1747 
Q 959 1106 1268 751 
Q 1578 397 2138 397 
Q 2388 397 2633 464 
Q 2878 531 3122 666 
L 3122 134 
Q 2881 22 2623 -34 
Q 2366 -91 2075 -91 
Q 1284 -91 818 406 
Q 353 903 353 1747 
Q 353 2603 823 3093 
Q 1294 3584 2113 3584 
Q 2378 3584 2631 3529 
Q 2884 3475 3122 3366 
z
" transform="scale(0.015625)"/>
      </defs>
      <use xlink:href="#DejaVuSans-41"/>
      <use xlink:href="#DejaVuSans-63" x="66.658203"/>
      <use xlink:href="#DejaVuSans-63" x="121.638672"/>
     </g>
    </g>
   </g>
   <g id="line2d_17">
    <path d="M 43.838182 120.174261 
L 43.934612 129.290087 
L 44.127472 120.174261 
L 44.706052 143.875412 
L 44.898912 155.118267 
L 44.995342 159.442437 
L 45.091772 157.93983 
L 45.284632 160.056 
L 45.381062 154.492663 
L 45.477492 155.6247 
L 45.670352 151.168066 
L 45.766782 152.296695 
L 45.959643 151.088798 
L 46.056073 152.079652 
L 46.248933 156.637565 
L 46.441793 156.637565 
L 46.634653 152.991238 
L 46.731083 152.520744 
L 46.923943 148.902932 
L 47.020373 149.130407 
L 47.116803 148.823995 
L 47.213233 149.041038 
L 47.502523 146.820519 
L 47.695383 143.742001 
L 48.852544 132.214034 
L 48.948974 131.99108 
L 49.141834 130.266788 
L 49.238264 130.729422 
L 49.720414 126.055433 
L 50.009704 123.5401 
L 50.395424 121.231168 
L 50.588284 118.890348 
L 50.781144 118.176279 
L 51.166864 114.491666 
L 51.263294 114.564518 
L 51.552584 112.521469 
L 52.034735 110.634451 
L 52.420455 108.424974 
L 52.806175 106.209584 
L 53.095465 104.010121 
L 53.191895 103.989013 
L 53.288325 103.415866 
L 53.384755 103.58346 
L 53.481185 103.386708 
L 53.577615 103.551277 
L 53.770475 102.994439 
L 54.059765 102.113002 
L 54.156195 102.11142 
L 54.252625 101.942609 
L 55.313356 96.928911 
L 55.506216 96.263891 
L 55.988366 94.047006 
L 56.759806 92.489161 
L 56.856236 92.42462 
L 57.049096 91.901982 
L 57.145526 91.974226 
L 57.724107 90.752141 
L 58.013397 89.747117 
L 58.302687 89.506446 
L 58.399117 88.988537 
L 58.495547 89.192366 
L 58.688407 88.651141 
L 58.784837 88.853214 
L 58.977697 88.441958 
L 59.266987 88.240563 
L 59.749137 87.22549 
L 60.038427 86.839462 
L 60.134857 87.142797 
L 60.713438 85.989913 
L 61.002728 85.951714 
L 61.099158 86.141841 
L 61.870598 85.068625 
L 62.159888 84.474579 
L 62.352748 84.183276 
L 62.449178 84.180842 
L 62.642038 83.710957 
L 62.834898 83.434711 
L 63.124188 82.803908 
L 63.317049 82.723041 
L 63.509909 82.554804 
L 63.606339 82.64892 
L 63.992059 81.54053 
L 64.281349 81.228711 
L 64.570639 80.672342 
L 64.667069 80.686356 
L 65.245649 79.459629 
L 65.438509 79.578453 
L 65.727799 79.233007 
L 65.824229 79.252567 
L 66.017089 78.975469 
L 66.113519 78.917292 
L 66.59567 78.095302 
L 66.6921 78.042289 
L 66.88496 77.785673 
L 66.98139 77.810258 
L 67.36711 77.385684 
L 67.46354 77.411399 
L 67.94569 76.592625 
L 68.04212 76.620862 
L 68.13855 76.432716 
L 68.23498 76.533144 
L 68.90999 75.677857 
L 69.102851 75.461649 
L 69.585001 75.207381 
L 69.874291 74.763315 
L 70.067151 74.762081 
L 70.838591 74.497815 
L 71.127881 74.145762 
L 71.706461 73.903578 
L 71.802891 73.811983 
L 71.995752 73.879549 
L 72.381472 74.011968 
L 73.056482 73.51562 
L 73.152912 73.608832 
L 73.345772 73.377706 
L 73.538632 73.503588 
L 74.599362 72.658021 
L 75.081513 72.547578 
L 75.274373 72.337073 
L 75.370803 72.260587 
L 75.563663 72.329979 
L 75.756523 72.069052 
L 75.949383 72.193352 
L 76.238673 72.025393 
L 76.527963 72.289363 
L 76.817253 72.123491 
L 76.913683 72.157169 
L 77.010113 71.979282 
L 77.202973 72.204532 
L 78.070844 71.676017 
L 78.263704 71.6414 
L 79.613724 70.77236 
L 79.806584 70.646564 
L 79.999444 70.425123 
L 80.192304 70.447187 
L 80.385164 70.373066 
L 80.770885 70.227136 
L 80.867315 70.214791 
L 81.060175 70.048988 
L 81.156605 70.084215 
L 81.349465 70.247583 
L 81.445895 70.188763 
L 81.542325 70.31628 
L 81.735185 70.106627 
L 82.024475 69.979805 
L 82.313765 69.763736 
L 82.506625 69.651729 
L 83.953076 68.88955 
L 84.049506 68.925002 
L 84.242366 68.77836 
L 84.338796 68.727224 
L 84.435226 68.849142 
L 84.628086 68.66124 
L 84.724516 68.739552 
L 84.917376 68.638881 
L 85.110236 68.624154 
L 85.399526 68.391306 
L 85.785246 68.280951 
L 86.170966 68.006878 
L 86.267396 68.083834 
L 86.749547 67.768484 
L 86.845977 67.722565 
L 87.038837 67.834399 
L 87.231697 67.66225 
L 87.617417 67.322506 
L 87.810277 67.354325 
L 88.099567 67.262834 
L 88.485287 67.011713 
L 88.678147 66.966002 
L 89.353157 66.90546 
L 89.642448 66.78156 
L 89.835308 66.699841 
L 90.606748 66.454666 
L 90.703178 66.56497 
L 90.896038 66.485963 
L 91.281758 66.366844 
L 91.571048 66.140934 
L 91.667478 66.286342 
L 91.956768 66.099188 
L 92.149628 66.060397 
L 92.342489 65.877225 
L 92.535349 65.911668 
L 92.921069 65.729539 
L 94.463949 65.098041 
L 94.560379 64.99497 
L 94.656809 65.064953 
L 94.849669 64.997718 
L 95.138959 64.932012 
L 95.33182 64.865906 
L 95.52468 64.766331 
L 96.19969 64.205772 
L 96.48898 64.112768 
L 96.77827 63.954477 
L 96.97113 63.993024 
L 97.839 63.496901 
L 98.417581 63.421407 
L 98.899731 63.375644 
L 99.285451 63.32696 
L 99.478311 63.176684 
L 99.671171 63.18463 
L 102.371212 62.330751 
L 102.564072 62.251397 
L 104.106953 61.897049 
L 104.299813 62.024583 
L 105.264113 61.678667 
L 105.456973 61.633565 
L 105.649833 61.673938 
L 108.157014 61.167036 
L 108.349874 61.125481 
L 110.471335 60.763308 
L 111.049915 60.699376 
L 111.821355 60.65024 
L 112.978516 60.654778 
L 113.074946 60.585404 
L 113.267806 60.624281 
L 113.653526 60.651057 
L 114.424966 60.629132 
L 115.099976 60.428642 
L 115.389266 60.47357 
L 115.582127 60.364658 
L 115.774987 60.402753 
L 116.353567 60.2253 
L 116.642857 60.270263 
L 117.125007 60.160742 
L 117.607157 60.100253 
L 120.500058 59.501338 
L 121.078638 59.386931 
L 121.271498 59.424765 
L 121.753649 59.462182 
L 122.428659 59.446777 
L 123.103669 59.409465 
L 123.971539 59.168341 
L 124.55012 59.148259 
L 124.64655 59.090621 
L 124.83941 59.149163 
L 125.41799 59.086396 
L 125.90014 58.909917 
L 126.57515 58.751208 
L 127.0573 58.684633 
L 129.564481 58.432469 
L 129.950201 58.443596 
L 130.239492 58.385837 
L 130.528782 58.510763 
L 131.300222 58.311124 
L 131.782372 58.23057 
L 132.071662 58.214505 
L 132.939532 58.028967 
L 133.903833 58.030654 
L 134.578843 57.911813 
L 134.868133 57.955124 
L 135.157423 58.094325 
L 135.639573 58.05656 
L 136.411014 58.061429 
L 137.857464 58.082033 
L 138.146754 58.030219 
L 138.821765 57.972146 
L 140.171785 57.730849 
L 140.268215 29.016 
L 140.364645 38.131826 
L 140.557505 29.016 
L 140.750365 38.131826 
L 140.846795 42.038611 
L 141.136085 34.485499 
L 141.232515 33.988264 
L 141.328945 32.054614 
L 141.425375 34.625743 
L 141.521805 34.225041 
L 141.811096 37.595609 
L 142.003956 34.773359 
L 142.100386 35.397085 
L 142.293246 34.816983 
L 142.389676 33.772091 
L 142.486106 34.333571 
L 142.678966 33.223303 
L 143.064686 32.662327 
L 143.257546 34.143652 
L 143.353976 33.988264 
L 143.450406 33.305805 
L 143.546836 34.225041 
L 143.643266 34.080346 
L 143.739696 34.436224 
L 144.028986 34.029697 
L 144.221846 32.922785 
L 144.414706 33.573913 
L 144.703997 32.507165 
L 144.800427 32.814255 
L 144.993287 32.662327 
L 145.379007 34.75559 
L 145.668297 33.813802 
L 145.764727 34.359756 
L 145.861157 34.269187 
L 145.957587 34.485499 
L 146.054017 35.292467 
L 146.150447 35.19124 
L 146.343307 35.85287 
L 146.632597 35.002521 
L 146.729027 34.914473 
L 147.018317 34.151685 
L 147.211177 34.760215 
L 147.500468 34.53347 
L 147.596898 34.698595 
L 147.693328 34.391992 
L 147.886188 35.169176 
L 147.982618 35.093212 
L 148.079048 35.241436 
L 148.175478 34.946778 
L 148.271908 35.093212 
L 148.368338 34.807229 
L 148.464768 34.95189 
L 148.561198 35.302778 
L 148.657628 35.02415 
L 148.850488 35.295788 
L 148.946918 35.226779 
L 149.043348 35.357443 
L 149.332638 36.308654 
L 149.525498 35.782382 
L 149.718358 36.382323 
L 149.814788 36.308654 
L 149.911218 36.416975 
L 150.007648 36.344402 
L 150.104078 36.096254 
L 150.200508 36.55409 
L 150.296938 36.482298 
L 150.393369 36.755849 
L 150.586229 36.443717 
L 150.682659 36.542823 
L 150.779089 36.474405 
L 151.068379 35.953715 
L 151.164809 35.89286 
L 151.550529 36.277757 
L 151.743389 36.156726 
L 151.839819 35.947038 
L 152.032679 36.279009 
L 152.225539 36.162811 
L 152.321969 36.54018 
L 152.418399 36.480925 
L 152.900549 35.645685 
L 152.996979 35.595837 
L 153.189839 35.36332 
L 153.3827 35.936049 
L 153.47913 35.885905 
L 153.57556 35.967642 
L 153.76842 36.64485 
L 154.44343 37.146328 
L 154.73272 36.74333 
L 154.82915 36.93238 
L 154.92558 36.761465 
L 155.02201 36.82957 
L 155.11844 36.661524 
L 155.40773 37.208712 
L 155.50416 37.042509 
L 155.79345 37.344036 
L 156.468461 36.891207 
L 156.564891 36.737645 
L 156.854181 37.236045 
L 156.950611 37.08403 
L 157.143471 37.199532 
L 157.625621 38.383643 
L 157.722051 38.432344 
L 158.107771 38.033798 
L 158.300631 38.616716 
L 158.589921 38.370463 
L 158.879211 38.97762 
L 159.168502 38.733384 
L 159.554222 38.812112 
L 159.843512 38.75743 
L 160.036372 38.751344 
L 160.422092 38.652725 
L 160.614952 38.733818 
L 160.711382 38.773791 
L 160.904242 39.022217 
L 161.289962 38.922694 
L 161.386392 39.209146 
L 161.482822 39.163035 
L 162.157833 38.851494 
L 162.254263 38.967778 
L 162.350693 38.845234 
L 162.543553 39.23201 
L 162.832843 39.024008 
L 163.604283 38.694523 
L 163.893573 39.021174 
L 164.086433 39.087523 
L 164.182863 39.047063 
L 164.375723 39.185047 
L 164.665013 38.993164 
L 164.761443 39.025538 
L 165.147164 38.659767 
L 165.243594 38.903168 
L 165.725744 38.44142 
L 165.822174 38.543065 
L 165.918604 38.439108 
L 166.111464 38.504587 
L 166.304324 38.43457 
L 166.497184 38.499128 
L 166.786474 38.330004 
L 166.882904 38.296377 
L 166.979334 38.394145 
L 167.268624 38.229141 
L 167.365054 38.261134 
L 167.654344 38.547638 
L 167.943635 38.574953 
L 168.040065 38.541882 
L 168.232925 38.72702 
L 168.522215 38.627931 
L 168.715075 38.87095 
L 169.100795 38.800324 
L 170.643675 39.170338 
L 170.932966 39.18915 
L 171.318686 39.176058 
L 171.511546 39.113534 
L 171.607976 39.250336 
L 171.897266 39.046177 
L 172.090126 38.985583 
L 172.282986 38.87095 
L 172.957996 39.418764 
L 173.343716 39.191811 
L 173.729437 39.179622 
L 173.825867 39.098268 
L 174.018727 39.196644 
L 174.983027 39.015628 
L 175.175887 38.960545 
L 175.368747 38.856101 
L 176.236617 39.155524 
L 176.333047 39.274347 
L 176.525907 39.171555 
L 176.815198 39.283301 
L 177.104488 39.29808 
L 177.683068 39.32696 
L 177.972358 39.294551 
L 178.358078 39.513019 
L 178.647368 39.388389 
L 178.743798 39.544785 
L 179.033088 39.466405 
L 179.225948 39.639875 
L 179.418808 39.542873 
L 179.804529 39.706572 
L 180.479539 39.614786 
L 180.672399 39.69454 
L 181.443839 39.580133 
L 182.69743 39.723472 
L 183.08315 39.709163 
L 183.46887 39.73573 
L 183.66173 39.688194 
L 183.85459 39.681309 
L 184.14388 39.611152 
L 184.81889 39.647856 
L 185.20461 39.478697 
L 185.590331 39.273721 
L 185.976051 39.379261 
L 186.265341 39.276068 
L 186.554631 39.325795 
L 186.940351 39.278346 
L 187.133211 39.385955 
L 187.422501 39.248058 
L 187.904651 39.43935 
L 188.676092 39.309817 
L 188.868952 39.341252 
L 190.218972 39.484278 
L 190.701122 39.279998 
L 191.279703 39.26701 
L 191.568993 39.175102 
L 193.979744 39.602128 
L 194.172604 39.661974 
L 194.751184 39.645769 
L 195.233334 39.648464 
L 195.426194 39.706815 
L 195.811914 39.664304 
L 196.004774 39.721977 
L 196.197634 39.685134 
L 196.390494 39.648517 
L 196.679784 39.625201 
L 196.969075 39.540213 
L 197.258365 39.610074 
L 198.029805 39.559964 
L 198.319095 39.598216 
L 199.186965 39.531971 
L 199.861976 39.530858 
L 200.247696 39.463344 
L 200.729846 39.467274 
L 201.019136 39.417582 
L 201.211996 39.413513 
L 201.887006 39.356762 
L 202.176296 39.450287 
L 202.562016 39.470317 
L 202.947737 39.518096 
L 203.622747 39.489495 
L 204.972767 39.352693 
L 205.744208 39.365142 
L 206.129928 39.304618 
L 206.708508 39.294429 
L 206.997798 39.302549 
L 207.383518 39.348138 
L 208.347818 39.356727 
L 208.637109 39.390075 
L 208.829969 39.386528 
L 209.215689 39.404993 
L 209.408549 39.452217 
L 210.276419 39.423337 
L 211.240719 39.455294 
L 211.53001 39.437612 
L 212.01216 39.465553 
L 213.16932 39.492572 
L 213.45861 39.451226 
L 215.001491 39.517992 
L 217.605102 39.255691 
L 217.797962 39.298202 
L 219.822992 39.412018 
L 220.690863 39.212623 
L 221.365873 39.214466 
L 221.655163 39.221403 
L 222.812323 39.163609 
L 223.101614 39.2342 
L 223.487334 39.18689 
L 223.776624 39.193758 
L 225.994515 39.033171 
L 226.573095 39.006778 
L 227.151675 38.920121 
L 227.923115 38.913183 
L 228.501695 39.007577 
L 229.176706 38.892301 
L 231.780317 38.707564 
L 233.226767 38.74585 
L 233.805347 38.685726 
L 235.058938 38.632087 
L 235.348228 38.695219 
L 236.601818 38.624088 
L 236.601818 38.624088 
" clip-path="url(#p371b906536)" style="fill: none; stroke: #1f77b4; stroke-width: 1.6; stroke-linecap: square"/>
   </g>
   <g id="line2d_18">
    <path d="M 43.838182 83.710957 
L 44.031042 35.093212 
L 44.320332 41.170441 
L 44.416762 42.038611 
L 44.513192 56.363478 
L 44.609622 51.299132 
L 44.706052 54.540306 
L 44.802482 53.877338 
L 44.898912 50.286267 
L 44.995342 52.857395 
L 45.284632 47.247652 
L 45.381062 47.247652 
L 45.670352 41.778153 
L 45.766782 42.038611 
L 45.863213 40.617967 
L 46.152503 47.247652 
L 46.248933 48.650092 
L 46.345363 48.59814 
L 46.538223 48.505015 
L 46.731083 46.071418 
L 46.827513 46.108174 
L 47.116803 50.37308 
L 47.213233 50.286267 
L 47.406093 49.166766 
L 47.502523 49.117561 
L 47.695383 47.247652 
L 47.791813 48.115823 
L 47.984673 46.418933 
L 48.081103 46.437363 
L 48.177533 46.454976 
L 48.370393 44.968696 
L 48.466823 45.015206 
L 48.659683 45.10275 
L 48.756114 45.845212 
L 49.045404 44.595778 
L 49.141834 43.991995 
L 49.334694 44.732945 
L 49.431124 44.77556 
L 49.720414 46.071418 
L 49.913274 44.968696 
L 50.009704 45.003748 
L 50.202564 45.07074 
L 50.395424 44.076931 
L 50.491854 44.122224 
L 50.588284 44.166248 
L 50.684714 43.702605 
L 50.781144 43.751167 
L 50.877574 44.291174 
L 51.070434 43.409407 
L 51.263294 43.975303 
L 51.359724 44.016719 
L 51.456154 44.512911 
L 51.649015 43.69026 
L 51.745445 43.733119 
L 51.841875 43.774952 
L 51.938305 43.386838 
L 52.034735 43.855715 
L 52.131165 43.475582 
L 52.324025 43.970053 
L 52.420455 43.601325 
L 52.613315 44.076931 
L 52.709745 44.111027 
L 52.902605 44.560882 
L 52.999035 44.209038 
L 53.095465 44.616277 
L 53.481185 43.637421 
L 53.674045 44.061543 
L 53.770475 44.092179 
L 53.963335 43.463724 
L 54.156195 44.209038 
L 54.541916 44.317568 
L 54.831206 43.44279 
L 54.927636 43.475582 
L 55.313356 43.601325 
L 55.602646 43.097361 
L 55.699076 43.130831 
L 55.988366 42.653852 
L 56.277656 43.320837 
L 56.566946 42.861089 
L 56.663376 43.165936 
L 56.952666 42.723001 
L 57.049096 42.755793 
L 57.241956 42.55951 
L 57.338386 42.851369 
L 57.627677 42.436514 
L 57.724107 42.721175 
L 57.820537 42.502428 
L 58.013397 43.059301 
L 58.109827 42.842693 
L 58.206257 43.601325 
L 58.591977 42.985702 
L 58.688407 43.483702 
L 58.784837 43.274083 
L 58.881267 43.531655 
L 59.266987 42.944529 
L 59.556277 43.02324 
L 59.845567 43.754157 
L 60.134857 43.386838 
L 60.327717 43.431732 
L 60.520578 43.056467 
L 60.906298 43.765198 
L 61.002728 43.580948 
L 61.292018 44.042087 
L 61.870598 43.174629 
L 62.449178 43.300599 
L 62.834898 43.932809 
L 62.931328 43.766224 
L 63.317049 44.553319 
L 63.509909 44.401738 
L 63.606339 44.415544 
L 63.799199 44.793399 
L 63.992059 44.643123 
L 64.281349 44.67981 
L 64.474209 44.534106 
L 64.667069 44.727155 
L 64.763499 44.571454 
L 64.859929 44.750158 
L 65.245649 44.304423 
L 65.438509 44.330591 
L 65.631369 44.838188 
L 65.727799 44.848742 
L 66.017089 45.195597 
L 66.30638 45.221921 
L 66.40281 45.075365 
L 66.59567 45.247549 
L 66.88496 45.272552 
L 67.17425 44.846778 
L 67.27068 45.00606 
L 67.55997 44.738039 
L 67.75283 44.758191 
L 67.94569 44.63276 
L 68.13855 44.653434 
L 68.33141 44.530785 
L 68.52427 44.835685 
L 68.81356 44.583033 
L 69.00642 44.603359 
L 69.102851 44.474781 
L 69.199281 44.623406 
L 69.295711 44.495698 
L 69.392141 44.643123 
L 69.585001 44.526508 
L 69.874291 44.55664 
L 69.970721 44.432479 
L 70.067151 44.709907 
L 70.163581 44.586093 
L 70.452871 44.878196 
L 70.645731 44.764485 
L 70.742161 44.773352 
L 71.031451 45.057283 
L 71.127881 45.064985 
L 71.417171 44.833703 
L 71.610031 44.976589 
L 71.706461 44.984414 
L 71.995752 45.256486 
L 72.092182 45.26325 
L 72.285042 45.153468 
L 72.477902 45.412257 
L 72.670762 45.42448 
L 73.056482 44.968696 
L 73.152912 45.095726 
L 73.635062 44.659936 
L 73.924352 44.917734 
L 74.213642 44.709072 
L 74.406502 44.725033 
L 74.695792 45.089397 
L 74.985083 44.884281 
L 75.177943 44.898782 
L 75.274373 44.79446 
L 75.467233 45.141871 
L 76.720823 45.115303 
L 77.106543 44.823792 
L 77.877984 44.981579 
L 78.070844 45.096734 
L 78.167274 45.000618 
L 78.263704 45.108748 
L 78.360134 45.013137 
L 78.842284 45.544694 
L 79.035144 45.354741 
L 79.228004 45.464122 
L 80.095874 45.409979 
L 80.385164 45.232579 
L 80.578024 45.147678 
L 80.674454 45.057943 
L 80.867315 45.258747 
L 81.253035 44.997993 
L 81.445895 45.10275 
L 81.831615 45.401407 
L 82.313765 45.333337 
L 82.410195 45.247167 
L 82.506625 45.342848 
L 82.603055 45.257095 
L 82.699485 45.352289 
L 82.892345 45.271804 
L 83.181635 45.375448 
L 83.374495 45.561994 
L 83.663786 45.309986 
L 83.760216 45.40252 
L 84.049506 45.24129 
L 84.242366 45.250853 
L 84.435226 45.519535 
L 85.110236 45.462732 
L 85.785246 44.989595 
L 86.170966 45.092996 
L 86.363826 45.267736 
L 86.556687 45.112417 
L 86.749547 45.203751 
L 87.810277 45.252939 
L 87.906707 45.416534 
L 88.195997 45.270257 
L 88.388857 45.20003 
L 88.581717 45.13043 
L 88.774577 45.295659 
L 89.160297 45.002566 
L 89.353157 45.243324 
L 89.738878 45.030802 
L 90.221028 44.978154 
L 90.317458 44.907354 
L 90.413888 44.987526 
L 90.510318 44.917004 
L 90.703178 45.001453 
L 91.956768 45.059856 
L 92.053198 83.710957 
L 92.246058 35.093212 
L 92.342489 29.016 
L 92.728209 47.247652 
L 92.824639 43.196172 
L 93.113929 35.093212 
L 93.210359 41.637909 
L 93.403219 37.524096 
L 93.499649 38.131826 
L 93.692509 41.170441 
L 94.078229 35.645685 
L 94.174659 37.735488 
L 94.271089 36.612528 
L 94.463949 41.637909 
L 94.849669 42.385883 
L 94.946099 41.36648 
L 95.042529 41.550261 
L 95.138959 42.827862 
L 95.33182 47.247652 
L 95.42825 47.247652 
L 95.52468 46.262154 
L 95.62111 46.288095 
L 95.71754 46.312698 
L 95.9104 44.579608 
L 96.00683 45.511311 
L 96.19969 43.932809 
L 96.29612 44.006461 
L 96.39255 44.076931 
L 96.68184 42.038611 
L 96.77827 42.142794 
L 97.06756 43.80771 
L 97.16399 43.871416 
L 97.35685 42.689739 
L 97.64614 42.921491 
L 97.93543 44.307066 
L 98.128291 43.259478 
L 98.224721 43.320837 
L 98.417581 43.438061 
L 98.610441 42.491561 
L 98.706871 42.55951 
L 98.803301 43.139108 
L 99.285451 41.010514 
L 99.381881 41.091503 
L 99.574741 40.324247 
L 99.671171 41.322369 
L 99.864031 40.577542 
L 100.056891 40.736355 
L 100.153321 40.383972 
L 100.249751 41.311763 
L 100.346181 40.960874 
L 100.731901 42.439296 
L 100.828331 42.095223 
L 100.924761 42.150636 
L 101.117622 43.025588 
L 101.214052 42.689739 
L 101.310482 43.112645 
L 101.406912 42.78276 
L 101.503342 42.827862 
L 101.985492 43.040349 
L 102.178352 42.43175 
L 102.371212 43.196172 
L 102.660502 43.962663 
L 103.046222 42.808649 
L 103.335512 42.921491 
L 103.624802 42.124712 
L 103.721232 42.166702 
L 103.914093 41.66053 
L 104.010523 41.705232 
L 104.106953 41.749221 
L 104.203383 41.505402 
L 104.396243 42.159747 
L 104.492673 42.479373 
L 104.781963 42.038611 
L 105.071253 42.689739 
L 105.264113 42.755793 
L 105.456973 42.55951 
L 105.553403 42.592754 
L 105.842693 42.183306 
L 105.939123 42.721175 
L 106.035553 42.502428 
L 106.228413 43.059301 
L 106.324843 42.842693 
L 106.421273 43.601325 
L 106.614133 43.409407 
L 106.710563 43.434496 
L 106.806993 43.222479 
L 106.903424 43.718949 
L 106.999854 43.507818 
L 107.096284 43.763894 
L 107.674864 42.773632 
L 108.060584 43.972504 
L 108.157014 43.774952 
L 108.349874 43.601325 
L 108.446304 44.049112 
L 108.832024 43.497142 
L 109.024884 43.951535 
L 109.217744 43.988361 
L 109.314174 44.411614 
L 109.410604 44.225834 
L 109.603464 44.458107 
L 110.085615 43.756487 
L 110.278475 43.793226 
L 110.760625 44.62977 
L 110.857055 44.643123 
L 111.049915 45.037757 
L 111.242775 44.877535 
L 111.339205 44.889324 
L 111.532065 45.092179 
L 111.724925 45.113217 
L 111.917785 44.95769 
L 112.303505 45.519535 
L 112.592795 45.202986 
L 112.689226 45.212497 
L 112.882086 45.399286 
L 112.978516 45.24049 
L 113.171376 45.42448 
L 113.267806 45.432739 
L 113.460666 45.285505 
L 113.653526 45.302944 
L 113.749956 45.795572 
L 113.942816 45.648391 
L 114.039246 45.655363 
L 114.135676 45.820835 
L 114.328536 45.675966 
L 114.521396 45.689389 
L 114.810686 46.016822 
L 114.907116 45.868789 
L 115.099976 46.03221 
L 115.389266 45.597047 
L 115.582127 45.759355 
L 115.678557 45.617181 
L 115.967847 45.929696 
L 116.064277 45.789121 
L 116.257137 45.945396 
L 116.546427 45.960714 
L 116.739287 46.112608 
L 117.125007 45.71088 
L 117.221437 45.716756 
L 117.414297 45.590231 
L 117.510727 45.59649 
L 117.607157 45.739777 
L 117.896447 45.485491 
L 117.992877 45.627057 
L 118.185737 45.370858 
L 118.282167 45.511311 
L 118.378597 45.384559 
L 118.764318 45.804857 
L 118.860748 45.67934 
L 119.342898 46.220512 
L 119.439328 46.224128 
L 119.632188 45.977162 
L 119.825048 46.112121 
L 119.921478 46.116033 
L 120.017908 45.994619 
L 120.114338 46.248661 
L 120.500058 45.892592 
L 120.692918 46.024055 
L 120.789348 46.028141 
L 121.271498 45.568427 
L 121.367929 45.693475 
L 121.850079 45.248054 
L 122.042939 45.611478 
L 122.139369 45.616711 
L 122.428659 45.401407 
L 122.621519 45.413022 
L 123.007239 45.775525 
L 123.103669 45.780098 
L 123.296529 45.676923 
L 123.392959 45.681739 
L 123.489389 45.575017 
L 123.682249 45.917681 
L 123.875109 45.925714 
L 124.067969 46.15265 
L 124.35726 46.162439 
L 124.55012 46.384611 
L 124.93584 46.288095 
L 125.51442 45.780741 
L 125.80371 46.104923 
L 125.90014 46.004582 
L 126.18943 46.220512 
L 126.47872 46.127265 
L 126.57515 46.028819 
L 126.67158 46.234786 
L 126.86444 46.139644 
L 127.0573 46.346081 
L 127.250161 46.251391 
L 127.443021 46.355887 
L 127.635881 46.262154 
L 127.732311 46.166525 
L 127.925171 46.367832 
L 128.118031 46.469773 
L 128.600181 46.096177 
L 128.793041 46.006755 
L 128.889471 45.914795 
L 129.082331 46.11113 
L 129.275191 46.022786 
L 129.564481 46.03221 
L 129.757341 46.410483 
L 130.046631 46.601462 
L 130.818072 46.523812 
L 131.107362 46.349541 
L 131.300222 46.443309 
L 131.493082 46.714043 
L 131.685942 46.628134 
L 131.878802 46.454976 
L 131.975232 46.544746 
L 132.264522 46.375326 
L 132.457382 46.379482 
L 132.650242 46.642809 
L 133.325253 46.567679 
L 133.614543 46.403597 
L 134.000263 46.327703 
L 134.096693 46.246366 
L 134.289553 46.333997 
L 134.482413 46.420828 
L 134.578843 46.50519 
L 134.771703 46.34429 
L 134.964563 46.593603 
L 135.157423 46.515135 
L 135.350283 46.437363 
L 136.025294 46.529549 
L 136.121724 46.690345 
L 136.411014 46.535791 
L 136.603874 46.460105 
L 136.893164 46.308681 
L 137.086024 46.468521 
L 137.375314 46.241237 
L 137.568174 46.476762 
L 137.953894 46.253895 
L 138.628904 46.192936 
L 138.725334 46.119928 
L 139.014625 46.351019 
L 139.111055 46.278272 
L 139.303915 46.356496 
L 139.496775 46.286148 
L 139.689635 46.216374 
L 140.171785 46.153745 
L 140.171785 46.153745 
" clip-path="url(#p371b906536)" style="fill: none; stroke: #ff7f0e; stroke-width: 1.6; stroke-linecap: square"/>
   </g>
   <g id="patch_7">
    <path d="M 34.2 166.608 
L 34.2 22.464 
" style="fill: none; stroke: #000000; stroke-width: 0.8; stroke-linejoin: miter; stroke-linecap: square"/>
   </g>
   <g id="patch_8">
    <path d="M 246.24 166.608 
L 246.24 22.464 
" style="fill: none; stroke: #000000; stroke-width: 0.8; stroke-linejoin: miter; stroke-linecap: square"/>
   </g>
   <g id="patch_9">
    <path d="M 34.2 166.608 
L 246.24 166.608 
" style="fill: none; stroke: #000000; stroke-width: 0.8; stroke-linejoin: miter; stroke-linecap: square"/>
   </g>
   <g id="patch_10">
    <path d="M 34.2 22.464 
L 246.24 22.464 
" style="fill: none; stroke: #000000; stroke-width: 0.8; stroke-linejoin: miter; stroke-linecap: square"/>
   </g>
  </g>
 </g>
 <defs>
  <clipPath id="p371b906536">
   <rect x="34.2" y="22.464" width="212.04" height="144.144"/>
  </clipPath>
 </defs>
</svg>
