<?xml version="1.0" encoding="utf-8" standalone="no"?>
<!DOCTYPE svg PUBLIC "-//W3C//DTD SVG 1.1//EN"
  "http://www.w3.org/Graphics/SVG/1.1/DTD/svg11.dtd">
<svg xmlns:xlink="http://www.w3.org/1999/xlink" width="273.6pt" height="187.2pt" viewBox="0 0 273.6 187.2" xmlns="http://www.w3.org/2000/svg" version="1.1">
 <metadata>
  <rdf:RDF xmlns:dc="http://purl.org/dc/elements/1.1/" xmlns:cc="http://creativecommons.org/ns#" xmlns:rdf="http://www.w3.org/1999/02/22-rdf-syntax-ns#">
   <cc:Work>
    <dc:type rdf:resource="http://purl.org/dc/dcmitype/StillImage"/>
    <dc:date>2022-04-20T20:27:56.612538</dc:date>
    <dc:format>image/svg+xml</dc:format>
    <dc:creator>
     <cc:Agent>
      <dc:title>Matplotlib v3.5.1, https://matplotlib.org/</dc:title>
     </cc:Agent>
    </dc:creator>
   </cc:Work>
  </rdf:RDF>
 </metadata>
 <defs>
  <style type="text/css">*{stroke-linejoin: round; stroke-linecap: butt}</style>
 </defs>
 <g id="figure_1">
  <g id="patch_1">
   <path d="M 0 187.2 
L 273.6 187.2 
L 273.6 0 
L 0 0 
z
" style="fill: #ffffff"/>
  </g>
  <g id="axes_1">
   <g id="patch_2">
    <path d="M 34.2 166.608 
L 246.24 166.608 
L 246.24 22.464 
L 34.2 22.464 
z
" style="fill: #ffffff"/>
   </g>
   <g id="matplotlib.axis_1">
    <g id="xtick_1">
     <g id="line2d_1">
      <defs>
       <path id="md373d9e183" d="M 0 0 
L 0 3.5 
" style="stroke: #000000; stroke-width: 0.8"/>
      </defs>
      <g>
       <use xlink:href="#md373d9e183" x="43.838182" y="166.608" style="stroke: #000000; stroke-width: 0.8"/>
      </g>
     </g>
     <g id="text_1">
      <!-- 0 -->
      <g transform="translate(40.752369 180.978484)scale(0.097 -0.097)">
       <defs>
        <path id="DejaVuSans-30" d="M 2034 4250 
Q 1547 4250 1301 3770 
Q 1056 3291 1056 2328 
Q 1056 1369 1301 889 
Q 1547 409 2034 409 
Q 2525 409 2770 889 
Q 3016 1369 3016 2328 
Q 3016 3291 2770 3770 
Q 2525 4250 2034 4250 
z
M 2034 4750 
Q 2819 4750 3233 4129 
Q 3647 3509 3647 2328 
Q 3647 1150 3233 529 
Q 2819 -91 2034 -91 
Q 1250 -91 836 529 
Q 422 1150 422 2328 
Q 422 3509 836 4129 
Q 1250 4750 2034 4750 
z
" transform="scale(0.015625)"/>
       </defs>
       <use xlink:href="#DejaVuSans-30"/>
      </g>
     </g>
    </g>
    <g id="xtick_2">
     <g id="line2d_2">
      <g>
       <use xlink:href="#md373d9e183" x="92.053198" y="166.608" style="stroke: #000000; stroke-width: 0.8"/>
      </g>
     </g>
     <g id="text_2">
      <!-- 500 -->
      <g transform="translate(82.795761 180.978484)scale(0.097 -0.097)">
       <defs>
        <path id="DejaVuSans-35" d="M 691 4666 
L 3169 4666 
L 3169 4134 
L 1269 4134 
L 1269 2991 
Q 1406 3038 1543 3061 
Q 1681 3084 1819 3084 
Q 2600 3084 3056 2656 
Q 3513 2228 3513 1497 
Q 3513 744 3044 326 
Q 2575 -91 1722 -91 
Q 1428 -91 1123 -41 
Q 819 9 494 109 
L 494 744 
Q 775 591 1075 516 
Q 1375 441 1709 441 
Q 2250 441 2565 725 
Q 2881 1009 2881 1497 
Q 2881 1984 2565 2268 
Q 2250 2553 1709 2553 
Q 1456 2553 1204 2497 
Q 953 2441 691 2322 
L 691 4666 
z
" transform="scale(0.015625)"/>
       </defs>
       <use xlink:href="#DejaVuSans-35"/>
       <use xlink:href="#DejaVuSans-30" x="63.623047"/>
       <use xlink:href="#DejaVuSans-30" x="127.246094"/>
      </g>
     </g>
    </g>
    <g id="xtick_3">
     <g id="line2d_3">
      <g>
       <use xlink:href="#md373d9e183" x="140.268215" y="166.608" style="stroke: #000000; stroke-width: 0.8"/>
      </g>
     </g>
     <g id="text_3">
      <!-- 1000 -->
      <g transform="translate(127.924965 180.978484)scale(0.097 -0.097)">
       <defs>
        <path id="DejaVuSans-31" d="M 794 531 
L 1825 531 
L 1825 4091 
L 703 3866 
L 703 4441 
L 1819 4666 
L 2450 4666 
L 2450 531 
L 3481 531 
L 3481 0 
L 794 0 
L 794 531 
z
" transform="scale(0.015625)"/>
       </defs>
       <use xlink:href="#DejaVuSans-31"/>
       <use xlink:href="#DejaVuSans-30" x="63.623047"/>
       <use xlink:href="#DejaVuSans-30" x="127.246094"/>
       <use xlink:href="#DejaVuSans-30" x="190.869141"/>
      </g>
     </g>
    </g>
    <g id="xtick_4">
     <g id="line2d_4">
      <g>
       <use xlink:href="#md373d9e183" x="188.483232" y="166.608" style="stroke: #000000; stroke-width: 0.8"/>
      </g>
     </g>
     <g id="text_4">
      <!-- 1500 -->
      <g transform="translate(176.139982 180.978484)scale(0.097 -0.097)">
       <use xlink:href="#DejaVuSans-31"/>
       <use xlink:href="#DejaVuSans-35" x="63.623047"/>
       <use xlink:href="#DejaVuSans-30" x="127.246094"/>
       <use xlink:href="#DejaVuSans-30" x="190.869141"/>
      </g>
     </g>
    </g>
    <g id="xtick_5">
     <g id="line2d_5">
      <g>
       <use xlink:href="#md373d9e183" x="236.698248" y="166.608" style="stroke: #000000; stroke-width: 0.8"/>
      </g>
     </g>
     <g id="text_5">
      <!-- 2000 -->
      <g transform="translate(224.354998 180.978484)scale(0.097 -0.097)">
       <defs>
        <path id="DejaVuSans-32" d="M 1228 531 
L 3431 531 
L 3431 0 
L 469 0 
L 469 531 
Q 828 903 1448 1529 
Q 2069 2156 2228 2338 
Q 2531 2678 2651 2914 
Q 2772 3150 2772 3378 
Q 2772 3750 2511 3984 
Q 2250 4219 1831 4219 
Q 1534 4219 1204 4116 
Q 875 4013 500 3803 
L 500 4441 
Q 881 4594 1212 4672 
Q 1544 4750 1819 4750 
Q 2544 4750 2975 4387 
Q 3406 4025 3406 3419 
Q 3406 3131 3298 2873 
Q 3191 2616 2906 2266 
Q 2828 2175 2409 1742 
Q 1991 1309 1228 531 
z
" transform="scale(0.015625)"/>
       </defs>
       <use xlink:href="#DejaVuSans-32"/>
       <use xlink:href="#DejaVuSans-30" x="63.623047"/>
       <use xlink:href="#DejaVuSans-30" x="127.246094"/>
       <use xlink:href="#DejaVuSans-30" x="190.869141"/>
      </g>
     </g>
    </g>
    <g id="text_6">
     <!-- Learning Curve -->
     <g transform="translate(103.313016 194.366266)scale(0.097 -0.097)">
      <defs>
       <path id="DejaVuSans-4c" d="M 628 4666 
L 1259 4666 
L 1259 531 
L 3531 531 
L 3531 0 
L 628 0 
L 628 4666 
z
" transform="scale(0.015625)"/>
       <path id="DejaVuSans-65" d="M 3597 1894 
L 3597 1613 
L 953 1613 
Q 991 1019 1311 708 
Q 1631 397 2203 397 
Q 2534 397 2845 478 
Q 3156 559 3463 722 
L 3463 178 
Q 3153 47 2828 -22 
Q 2503 -91 2169 -91 
Q 1331 -91 842 396 
Q 353 884 353 1716 
Q 353 2575 817 3079 
Q 1281 3584 2069 3584 
Q 2775 3584 3186 3129 
Q 3597 2675 3597 1894 
z
M 3022 2063 
Q 3016 2534 2758 2815 
Q 2500 3097 2075 3097 
Q 1594 3097 1305 2825 
Q 1016 2553 972 2059 
L 3022 2063 
z
" transform="scale(0.015625)"/>
       <path id="DejaVuSans-61" d="M 2194 1759 
Q 1497 1759 1228 1600 
Q 959 1441 959 1056 
Q 959 750 1161 570 
Q 1363 391 1709 391 
Q 2188 391 2477 730 
Q 2766 1069 2766 1631 
L 2766 1759 
L 2194 1759 
z
M 3341 1997 
L 3341 0 
L 2766 0 
L 2766 531 
Q 2569 213 2275 61 
Q 1981 -91 1556 -91 
Q 1019 -91 701 211 
Q 384 513 384 1019 
Q 384 1609 779 1909 
Q 1175 2209 1959 2209 
L 2766 2209 
L 2766 2266 
Q 2766 2663 2505 2880 
Q 2244 3097 1772 3097 
Q 1472 3097 1187 3025 
Q 903 2953 641 2809 
L 641 3341 
Q 956 3463 1253 3523 
Q 1550 3584 1831 3584 
Q 2591 3584 2966 3190 
Q 3341 2797 3341 1997 
z
" transform="scale(0.015625)"/>
       <path id="DejaVuSans-72" d="M 2631 2963 
Q 2534 3019 2420 3045 
Q 2306 3072 2169 3072 
Q 1681 3072 1420 2755 
Q 1159 2438 1159 1844 
L 1159 0 
L 581 0 
L 581 3500 
L 1159 3500 
L 1159 2956 
Q 1341 3275 1631 3429 
Q 1922 3584 2338 3584 
Q 2397 3584 2469 3576 
Q 2541 3569 2628 3553 
L 2631 2963 
z
" transform="scale(0.015625)"/>
       <path id="DejaVuSans-6e" d="M 3513 2113 
L 3513 0 
L 2938 0 
L 2938 2094 
Q 2938 2591 2744 2837 
Q 2550 3084 2163 3084 
Q 1697 3084 1428 2787 
Q 1159 2491 1159 1978 
L 1159 0 
L 581 0 
L 581 3500 
L 1159 3500 
L 1159 2956 
Q 1366 3272 1645 3428 
Q 1925 3584 2291 3584 
Q 2894 3584 3203 3211 
Q 3513 2838 3513 2113 
z
" transform="scale(0.015625)"/>
       <path id="DejaVuSans-69" d="M 603 3500 
L 1178 3500 
L 1178 0 
L 603 0 
L 603 3500 
z
M 603 4863 
L 1178 4863 
L 1178 4134 
L 603 4134 
L 603 4863 
z
" transform="scale(0.015625)"/>
       <path id="DejaVuSans-67" d="M 2906 1791 
Q 2906 2416 2648 2759 
Q 2391 3103 1925 3103 
Q 1463 3103 1205 2759 
Q 947 2416 947 1791 
Q 947 1169 1205 825 
Q 1463 481 1925 481 
Q 2391 481 2648 825 
Q 2906 1169 2906 1791 
z
M 3481 434 
Q 3481 -459 3084 -895 
Q 2688 -1331 1869 -1331 
Q 1566 -1331 1297 -1286 
Q 1028 -1241 775 -1147 
L 775 -588 
Q 1028 -725 1275 -790 
Q 1522 -856 1778 -856 
Q 2344 -856 2625 -561 
Q 2906 -266 2906 331 
L 2906 616 
Q 2728 306 2450 153 
Q 2172 0 1784 0 
Q 1141 0 747 490 
Q 353 981 353 1791 
Q 353 2603 747 3093 
Q 1141 3584 1784 3584 
Q 2172 3584 2450 3431 
Q 2728 3278 2906 2969 
L 2906 3500 
L 3481 3500 
L 3481 434 
z
" transform="scale(0.015625)"/>
       <path id="DejaVuSans-20" transform="scale(0.015625)"/>
       <path id="DejaVuSans-43" d="M 4122 4306 
L 4122 3641 
Q 3803 3938 3442 4084 
Q 3081 4231 2675 4231 
Q 1875 4231 1450 3742 
Q 1025 3253 1025 2328 
Q 1025 1406 1450 917 
Q 1875 428 2675 428 
Q 3081 428 3442 575 
Q 3803 722 4122 1019 
L 4122 359 
Q 3791 134 3420 21 
Q 3050 -91 2638 -91 
Q 1578 -91 968 557 
Q 359 1206 359 2328 
Q 359 3453 968 4101 
Q 1578 4750 2638 4750 
Q 3056 4750 3426 4639 
Q 3797 4528 4122 4306 
z
" transform="scale(0.015625)"/>
       <path id="DejaVuSans-75" d="M 544 1381 
L 544 3500 
L 1119 3500 
L 1119 1403 
Q 1119 906 1312 657 
Q 1506 409 1894 409 
Q 2359 409 2629 706 
Q 2900 1003 2900 1516 
L 2900 3500 
L 3475 3500 
L 3475 0 
L 2900 0 
L 2900 538 
Q 2691 219 2414 64 
Q 2138 -91 1772 -91 
Q 1169 -91 856 284 
Q 544 659 544 1381 
z
M 1991 3584 
L 1991 3584 
z
" transform="scale(0.015625)"/>
       <path id="DejaVuSans-76" d="M 191 3500 
L 800 3500 
L 1894 563 
L 2988 3500 
L 3597 3500 
L 2284 0 
L 1503 0 
L 191 3500 
z
" transform="scale(0.015625)"/>
      </defs>
      <use xlink:href="#DejaVuSans-4c"/>
      <use xlink:href="#DejaVuSans-65" x="53.962891"/>
      <use xlink:href="#DejaVuSans-61" x="115.486328"/>
      <use xlink:href="#DejaVuSans-72" x="176.765625"/>
      <use xlink:href="#DejaVuSans-6e" x="216.128906"/>
      <use xlink:href="#DejaVuSans-69" x="279.507812"/>
      <use xlink:href="#DejaVuSans-6e" x="307.291016"/>
      <use xlink:href="#DejaVuSans-67" x="370.669922"/>
      <use xlink:href="#DejaVuSans-20" x="434.146484"/>
      <use xlink:href="#DejaVuSans-43" x="465.933594"/>
      <use xlink:href="#DejaVuSans-75" x="535.757812"/>
      <use xlink:href="#DejaVuSans-72" x="599.136719"/>
      <use xlink:href="#DejaVuSans-76" x="640.25"/>
      <use xlink:href="#DejaVuSans-65" x="699.429688"/>
     </g>
    </g>
   </g>
   <g id="matplotlib.axis_2">
    <g id="ytick_1">
     <g id="line2d_6">
      <defs>
       <path id="mb1cf73a780" d="M 0 0 
L -3.5 0 
" style="stroke: #000000; stroke-width: 0.8"/>
      </defs>
      <g>
       <use xlink:href="#mb1cf73a780" x="34.2" y="165.952514" style="stroke: #000000; stroke-width: 0.8"/>
      </g>
     </g>
     <g id="text_7">
      <!-- 0.1 -->
      <g transform="translate(11.773969 169.637757)scale(0.097 -0.097)">
       <defs>
        <path id="DejaVuSans-2e" d="M 684 794 
L 1344 794 
L 1344 0 
L 684 0 
L 684 794 
z
" transform="scale(0.015625)"/>
       </defs>
       <use xlink:href="#DejaVuSans-30"/>
       <use xlink:href="#DejaVuSans-2e" x="63.623047"/>
       <use xlink:href="#DejaVuSans-31" x="95.410156"/>
      </g>
     </g>
    </g>
    <g id="ytick_2">
     <g id="line2d_7">
      <g>
       <use xlink:href="#mb1cf73a780" x="34.2" y="142.980358" style="stroke: #000000; stroke-width: 0.8"/>
      </g>
     </g>
     <g id="text_8">
      <!-- 0.2 -->
      <g transform="translate(11.773969 146.665601)scale(0.097 -0.097)">
       <use xlink:href="#DejaVuSans-30"/>
       <use xlink:href="#DejaVuSans-2e" x="63.623047"/>
       <use xlink:href="#DejaVuSans-32" x="95.410156"/>
      </g>
     </g>
    </g>
    <g id="ytick_3">
     <g id="line2d_8">
      <g>
       <use xlink:href="#mb1cf73a780" x="34.2" y="120.008202" style="stroke: #000000; stroke-width: 0.8"/>
      </g>
     </g>
     <g id="text_9">
      <!-- 0.3 -->
      <g transform="translate(11.773969 123.693445)scale(0.097 -0.097)">
       <defs>
        <path id="DejaVuSans-33" d="M 2597 2516 
Q 3050 2419 3304 2112 
Q 3559 1806 3559 1356 
Q 3559 666 3084 287 
Q 2609 -91 1734 -91 
Q 1441 -91 1130 -33 
Q 819 25 488 141 
L 488 750 
Q 750 597 1062 519 
Q 1375 441 1716 441 
Q 2309 441 2620 675 
Q 2931 909 2931 1356 
Q 2931 1769 2642 2001 
Q 2353 2234 1838 2234 
L 1294 2234 
L 1294 2753 
L 1863 2753 
Q 2328 2753 2575 2939 
Q 2822 3125 2822 3475 
Q 2822 3834 2567 4026 
Q 2313 4219 1838 4219 
Q 1578 4219 1281 4162 
Q 984 4106 628 3988 
L 628 4550 
Q 988 4650 1302 4700 
Q 1616 4750 1894 4750 
Q 2613 4750 3031 4423 
Q 3450 4097 3450 3541 
Q 3450 3153 3228 2886 
Q 3006 2619 2597 2516 
z
" transform="scale(0.015625)"/>
       </defs>
       <use xlink:href="#DejaVuSans-30"/>
       <use xlink:href="#DejaVuSans-2e" x="63.623047"/>
       <use xlink:href="#DejaVuSans-33" x="95.410156"/>
      </g>
     </g>
    </g>
    <g id="ytick_4">
     <g id="line2d_9">
      <g>
       <use xlink:href="#mb1cf73a780" x="34.2" y="97.036047" style="stroke: #000000; stroke-width: 0.8"/>
      </g>
     </g>
     <g id="text_10">
      <!-- 0.4 -->
      <g transform="translate(11.773969 100.721289)scale(0.097 -0.097)">
       <defs>
        <path id="DejaVuSans-34" d="M 2419 4116 
L 825 1625 
L 2419 1625 
L 2419 4116 
z
M 2253 4666 
L 3047 4666 
L 3047 1625 
L 3713 1625 
L 3713 1100 
L 3047 1100 
L 3047 0 
L 2419 0 
L 2419 1100 
L 313 1100 
L 313 1709 
L 2253 4666 
z
" transform="scale(0.015625)"/>
       </defs>
       <use xlink:href="#DejaVuSans-30"/>
       <use xlink:href="#DejaVuSans-2e" x="63.623047"/>
       <use xlink:href="#DejaVuSans-34" x="95.410156"/>
      </g>
     </g>
    </g>
    <g id="ytick_5">
     <g id="line2d_10">
      <g>
       <use xlink:href="#mb1cf73a780" x="34.2" y="74.063891" style="stroke: #000000; stroke-width: 0.8"/>
      </g>
     </g>
     <g id="text_11">
      <!-- 0.5 -->
      <g transform="translate(11.773969 77.749133)scale(0.097 -0.097)">
       <use xlink:href="#DejaVuSans-30"/>
       <use xlink:href="#DejaVuSans-2e" x="63.623047"/>
       <use xlink:href="#DejaVuSans-35" x="95.410156"/>
      </g>
     </g>
    </g>
    <g id="ytick_6">
     <g id="line2d_11">
      <g>
       <use xlink:href="#mb1cf73a780" x="34.2" y="51.091735" style="stroke: #000000; stroke-width: 0.8"/>
      </g>
     </g>
     <g id="text_12">
      <!-- 0.6 -->
      <g transform="translate(11.773969 54.776977)scale(0.097 -0.097)">
       <defs>
        <path id="DejaVuSans-36" d="M 2113 2584 
Q 1688 2584 1439 2293 
Q 1191 2003 1191 1497 
Q 1191 994 1439 701 
Q 1688 409 2113 409 
Q 2538 409 2786 701 
Q 3034 994 3034 1497 
Q 3034 2003 2786 2293 
Q 2538 2584 2113 2584 
z
M 3366 4563 
L 3366 3988 
Q 3128 4100 2886 4159 
Q 2644 4219 2406 4219 
Q 1781 4219 1451 3797 
Q 1122 3375 1075 2522 
Q 1259 2794 1537 2939 
Q 1816 3084 2150 3084 
Q 2853 3084 3261 2657 
Q 3669 2231 3669 1497 
Q 3669 778 3244 343 
Q 2819 -91 2113 -91 
Q 1303 -91 875 529 
Q 447 1150 447 2328 
Q 447 3434 972 4092 
Q 1497 4750 2381 4750 
Q 2619 4750 2861 4703 
Q 3103 4656 3366 4563 
z
" transform="scale(0.015625)"/>
       </defs>
       <use xlink:href="#DejaVuSans-30"/>
       <use xlink:href="#DejaVuSans-2e" x="63.623047"/>
       <use xlink:href="#DejaVuSans-36" x="95.410156"/>
      </g>
     </g>
    </g>
    <g id="ytick_7">
     <g id="line2d_12">
      <g>
       <use xlink:href="#mb1cf73a780" x="34.2" y="28.119579" style="stroke: #000000; stroke-width: 0.8"/>
      </g>
     </g>
     <g id="text_13">
      <!-- 0.7 -->
      <g transform="translate(11.773969 31.804821)scale(0.097 -0.097)">
       <defs>
        <path id="DejaVuSans-37" d="M 525 4666 
L 3525 4666 
L 3525 4397 
L 1831 0 
L 1172 0 
L 2766 4134 
L 525 4134 
L 525 4666 
z
" transform="scale(0.015625)"/>
       </defs>
       <use xlink:href="#DejaVuSans-30"/>
       <use xlink:href="#DejaVuSans-2e" x="63.623047"/>
       <use xlink:href="#DejaVuSans-37" x="95.410156"/>
      </g>
     </g>
    </g>
    <g id="text_14">
     <!-- Loss -->
     <g transform="translate(5.756672 105.174172)rotate(-90)scale(0.097 -0.097)">
      <defs>
       <path id="DejaVuSans-6f" d="M 1959 3097 
Q 1497 3097 1228 2736 
Q 959 2375 959 1747 
Q 959 1119 1226 758 
Q 1494 397 1959 397 
Q 2419 397 2687 759 
Q 2956 1122 2956 1747 
Q 2956 2369 2687 2733 
Q 2419 3097 1959 3097 
z
M 1959 3584 
Q 2709 3584 3137 3096 
Q 3566 2609 3566 1747 
Q 3566 888 3137 398 
Q 2709 -91 1959 -91 
Q 1206 -91 779 398 
Q 353 888 353 1747 
Q 353 2609 779 3096 
Q 1206 3584 1959 3584 
z
" transform="scale(0.015625)"/>
       <path id="DejaVuSans-73" d="M 2834 3397 
L 2834 2853 
Q 2591 2978 2328 3040 
Q 2066 3103 1784 3103 
Q 1356 3103 1142 2972 
Q 928 2841 928 2578 
Q 928 2378 1081 2264 
Q 1234 2150 1697 2047 
L 1894 2003 
Q 2506 1872 2764 1633 
Q 3022 1394 3022 966 
Q 3022 478 2636 193 
Q 2250 -91 1575 -91 
Q 1294 -91 989 -36 
Q 684 19 347 128 
L 347 722 
Q 666 556 975 473 
Q 1284 391 1588 391 
Q 1994 391 2212 530 
Q 2431 669 2431 922 
Q 2431 1156 2273 1281 
Q 2116 1406 1581 1522 
L 1381 1569 
Q 847 1681 609 1914 
Q 372 2147 372 2553 
Q 372 3047 722 3315 
Q 1072 3584 1716 3584 
Q 2034 3584 2315 3537 
Q 2597 3491 2834 3397 
z
" transform="scale(0.015625)"/>
      </defs>
      <use xlink:href="#DejaVuSans-4c"/>
      <use xlink:href="#DejaVuSans-6f" x="53.962891"/>
      <use xlink:href="#DejaVuSans-73" x="115.144531"/>
      <use xlink:href="#DejaVuSans-73" x="167.244141"/>
     </g>
    </g>
   </g>
   <g id="line2d_13">
    <path d="M 43.838182 29.452721 
L 43.934612 29.536601 
L 44.031042 29.016 
L 44.127472 30.665792 
L 44.223902 30.571273 
L 44.416762 30.105469 
L 44.609622 29.773714 
L 44.706052 30.136701 
L 45.091772 29.58002 
L 45.188202 29.261711 
L 45.381062 29.579062 
L 45.573922 29.499235 
L 45.959643 29.663106 
L 46.923943 29.550746 
L 47.213233 29.704238 
L 47.502523 29.602449 
L 47.695383 29.580198 
L 47.984673 29.677798 
L 48.177533 29.68233 
L 48.466823 29.703485 
L 48.659683 29.630929 
L 49.431124 30.167523 
L 50.009704 32.374024 
L 50.298994 33.831464 
L 51.359724 45.12607 
L 51.456154 45.032523 
L 51.552584 45.114719 
L 51.745445 46.909993 
L 51.938305 45.512006 
L 52.613315 48.218227 
L 52.709745 48.310336 
L 53.095465 49.752414 
L 53.191895 49.711815 
L 53.963335 54.393052 
L 54.059765 54.248364 
L 54.156195 53.864824 
L 54.445485 54.795502 
L 55.313356 57.441175 
L 55.602646 58.335485 
L 55.699076 58.348753 
L 55.988366 59.704527 
L 56.277656 61.128092 
L 56.470516 60.472647 
L 56.566946 60.878834 
L 56.663376 60.373938 
L 56.759806 60.480479 
L 57.145526 61.467378 
L 57.241956 61.400024 
L 57.338386 60.88212 
L 57.627677 61.314912 
L 58.109827 62.342546 
L 58.206257 62.22553 
L 58.302687 62.396521 
L 58.688407 64.048819 
L 59.459847 66.175753 
L 59.652707 65.983169 
L 59.845567 66.302888 
L 60.038427 65.604791 
L 60.520578 66.012594 
L 60.713438 65.857787 
L 61.002728 66.341131 
L 61.099158 66.379073 
L 61.292018 66.786246 
L 61.388448 66.781563 
L 61.581308 67.236619 
L 61.677738 67.169471 
L 61.870598 67.05759 
L 62.449178 68.014652 
L 62.545608 67.834432 
L 62.642038 68.192805 
L 62.834898 67.840908 
L 63.317049 68.658007 
L 63.413479 68.549905 
L 63.799199 68.916699 
L 63.992059 68.796355 
L 64.184919 69.067959 
L 64.377779 69.052555 
L 64.667069 69.405876 
L 64.859929 69.878485 
L 64.956359 70.112435 
L 65.149219 69.697019 
L 66.017089 72.090285 
L 66.113519 72.033626 
L 66.20995 72.017742 
L 66.59567 73.331576 
L 66.78853 73.579766 
L 66.88496 73.790082 
L 66.98139 73.580779 
L 67.17425 74.019198 
L 67.36711 74.073749 
L 67.94569 75.214736 
L 68.13855 75.208157 
L 68.23498 74.891244 
L 68.90999 75.915092 
L 69.199281 76.398231 
L 69.295711 76.316905 
L 69.488571 76.500569 
L 69.585001 76.485945 
L 69.681431 76.248641 
L 69.777861 76.290581 
L 70.260011 76.048895 
L 70.452871 76.253228 
L 70.645731 76.021517 
L 70.838591 76.141757 
L 71.513601 76.520368 
L 72.188612 77.559243 
L 72.381472 77.043913 
L 72.574332 77.318673 
L 72.863622 77.716015 
L 72.960052 77.576455 
L 73.056482 77.519097 
L 74.695792 79.59213 
L 74.888653 79.212363 
L 75.177943 79.006893 
L 75.467233 79.239433 
L 75.660093 78.829336 
L 76.045813 79.050422 
L 76.817253 80.066061 
L 77.010113 79.879364 
L 77.106543 80.098136 
L 77.202973 80.039525 
L 77.299403 80.114566 
L 77.685123 80.82181 
L 78.070844 81.082665 
L 78.360134 80.976679 
L 78.552994 81.348224 
L 78.649424 81.290202 
L 78.842284 81.522194 
L 79.035144 81.55943 
L 79.228004 81.693658 
L 79.517294 81.555254 
L 79.999444 82.013459 
L 81.060175 83.02918 
L 81.253035 83.218205 
L 81.445895 83.26378 
L 81.735185 83.521767 
L 81.831615 83.444548 
L 82.024475 83.635264 
L 82.410195 83.447136 
L 82.699485 83.463636 
L 82.892345 83.500982 
L 83.181635 83.691218 
L 83.663786 84.242765 
L 83.953076 84.424272 
L 84.338796 84.35937 
L 84.531656 84.565072 
L 85.110236 84.782707 
L 85.303096 84.975538 
L 85.495956 84.911662 
L 85.881676 85.231655 
L 85.978106 85.222564 
L 86.267396 85.485582 
L 86.749547 86.099341 
L 87.038837 86.501865 
L 87.135267 86.463622 
L 87.328127 86.617635 
L 87.520987 86.36798 
L 87.713847 86.722437 
L 87.810277 86.668879 
L 88.195997 86.951683 
L 88.292427 86.919314 
L 88.388857 86.719206 
L 88.485287 86.767006 
L 89.160297 87.254951 
L 89.449588 87.241984 
L 89.642448 87.34693 
L 89.835308 87.269691 
L 90.221028 87.411353 
L 90.799608 87.48469 
L 90.896038 87.637786 
L 90.992468 87.432453 
L 91.088898 87.48111 
L 91.378188 87.532983 
L 91.571048 87.452841 
L 92.149628 87.759703 
L 92.342489 87.893616 
L 92.438919 87.852785 
L 92.921069 88.330241 
L 93.306789 88.340956 
L 93.403219 88.441691 
L 93.596079 88.397738 
L 94.271089 88.354676 
L 94.463949 88.528481 
L 94.656809 88.361522 
L 94.849669 88.448476 
L 95.042529 88.270638 
L 95.42825 88.239892 
L 95.81397 88.393781 
L 95.9104 88.325579 
L 96.29612 88.563075 
L 96.39255 88.52045 
L 96.68184 88.644566 
L 97.16399 88.773309 
L 97.64614 89.220697 
L 97.839 89.227578 
L 98.514011 89.474391 
L 98.610441 89.441064 
L 98.899731 89.577379 
L 99.092591 89.704883 
L 99.478311 90.055863 
L 100.056891 90.356912 
L 100.153321 90.473031 
L 100.249751 90.322818 
L 100.539041 90.598687 
L 100.924761 90.873214 
L 101.310482 91.011891 
L 101.406912 90.997295 
L 101.599772 91.153992 
L 101.889062 91.092889 
L 102.081922 90.937425 
L 102.467642 91.041132 
L 102.660502 91.004915 
L 103.528372 91.019949 
L 104.106953 91.306382 
L 104.396243 91.597067 
L 104.685533 91.584189 
L 104.974823 91.764005 
L 105.553403 91.728658 
L 105.746263 91.728569 
L 106.035553 91.784599 
L 106.324843 91.841135 
L 106.999854 91.954351 
L 107.385574 92.13833 
L 107.771294 92.458179 
L 108.253444 92.548611 
L 108.349874 92.420984 
L 108.542734 92.50969 
L 108.735594 92.543525 
L 109.121314 92.610611 
L 110.664195 93.11042 
L 110.857055 92.966177 
L 111.146345 93.017435 
L 111.435635 93.108955 
L 111.724925 93.203009 
L 111.821355 93.095804 
L 112.014215 93.219269 
L 112.207075 93.171386 
L 112.592795 93.380812 
L 113.942816 93.483787 
L 114.232106 93.574629 
L 114.907116 93.687243 
L 116.064277 93.522981 
L 116.353567 93.419254 
L 116.642857 93.45899 
L 117.028577 93.595038 
L 118.185737 93.532901 
L 118.475028 93.594237 
L 118.764318 93.560328 
L 119.053608 93.601946 
L 119.246468 93.603164 
L 120.789348 93.879643 
L 121.560789 93.998986 
L 122.139369 94.222858 
L 122.332229 94.224077 
L 122.621519 94.342359 
L 123.200099 94.595246 
L 123.778679 94.670054 
L 124.26083 94.915335 
L 125.1287 95.233157 
L 125.32156 95.261857 
L 125.90014 95.425023 
L 128.600181 96.002031 
L 128.793041 96.066728 
L 128.889471 95.981198 
L 129.082331 96.001853 
L 129.275191 95.978651 
L 129.564481 95.904992 
L 129.757341 95.975282 
L 129.950201 95.810316 
L 130.721642 95.99222 
L 131.107362 96.060059 
L 131.975232 96.135354 
L 132.360952 96.161733 
L 133.903833 96.317957 
L 134.193123 96.327494 
L 135.736003 96.5547 
L 136.700304 96.746942 
L 136.989594 96.847253 
L 137.375314 96.769665 
L 137.761034 96.851628 
L 138.436044 96.891227 
L 139.014625 97.080943 
L 140.171785 97.218333 
L 140.268215 40.470506 
L 140.461075 103.080751 
L 140.557505 79.338299 
L 141.039655 116.80525 
L 141.136085 117.152114 
L 141.425375 124.392146 
L 141.521805 127.933752 
L 141.618235 122.850387 
L 141.714666 124.324594 
L 141.907526 117.630297 
L 142.003956 112.680345 
L 142.100386 113.369514 
L 142.293246 114.865095 
L 142.775396 109.881508 
L 143.257546 107.403622 
L 143.353976 107.534837 
L 143.450406 106.52245 
L 143.546836 106.606987 
L 143.836126 108.61798 
L 143.932556 108.7039 
L 144.028986 107.296848 
L 144.414706 110.180298 
L 144.511136 109.891133 
L 144.607567 109.950696 
L 144.703997 110.288106 
L 144.800427 109.106301 
L 144.896857 109.584682 
L 144.993287 108.034386 
L 145.186147 108.676748 
L 145.282577 107.783485 
L 145.379007 107.937272 
L 145.861157 111.714854 
L 145.957587 111.821621 
L 146.054017 112.200581 
L 146.150447 111.476119 
L 146.246877 112.380459 
L 146.343307 111.976853 
L 146.632597 114.255862 
L 146.729027 114.288984 
L 146.825457 115.04396 
L 146.921887 114.704763 
L 147.114747 115.468488 
L 147.211177 114.875364 
L 147.404037 112.87777 
L 147.789758 111.166019 
L 147.982618 111.284918 
L 148.079048 110.447048 
L 148.561198 112.335178 
L 148.657628 111.96659 
L 148.754058 112.411897 
L 148.850488 112.237154 
L 149.043348 113.307672 
L 149.139778 112.705121 
L 149.236208 113.101183 
L 149.332638 112.925098 
L 149.429068 113.011751 
L 149.525498 113.628904 
L 149.621928 113.518625 
L 149.911218 114.065181 
L 150.007648 114.24727 
L 150.200508 113.488201 
L 150.296938 113.701372 
L 150.586229 113.056326 
L 151.164809 114.747703 
L 151.261239 114.447098 
L 151.454099 114.896656 
L 151.646959 114.050188 
L 151.743389 114.18866 
L 151.839819 114.007522 
L 152.032679 114.764531 
L 152.225539 114.844871 
L 152.418399 115.125115 
L 152.514829 114.886921 
L 152.611259 114.931319 
L 152.996979 115.675587 
L 153.093409 115.258076 
L 153.286269 115.51062 
L 153.47913 115.124211 
L 153.57556 114.882286 
L 153.67199 115.168472 
L 153.76842 115.109321 
L 153.96128 115.271049 
L 154.15414 114.6111 
L 154.347 114.946949 
L 154.44343 115.030918 
L 154.53986 115.290493 
L 154.73272 115.153821 
L 154.92558 115.347084 
L 155.02201 115.310326 
L 155.11844 115.508806 
L 155.50416 114.923007 
L 155.60059 115.128668 
L 155.79345 114.987239 
L 155.98631 115.245116 
L 156.08274 115.032725 
L 156.275601 115.207735 
L 156.468461 114.869614 
L 156.661321 115.167096 
L 156.757751 114.640833 
L 156.854181 114.669662 
L 156.950611 114.650678 
L 157.047041 114.781872 
L 157.143471 114.442737 
L 157.239901 114.669881 
L 157.336331 113.793693 
L 157.625621 114.104615 
L 157.722051 113.880312 
L 157.818481 114.00859 
L 157.914911 113.946515 
L 158.011341 113.594892 
L 158.300631 113.92002 
L 158.686351 113.397481 
L 158.879211 112.931348 
L 158.975641 112.903231 
L 159.072071 113.187856 
L 159.168502 113.069163 
L 159.361362 113.312067 
L 159.554222 113.205684 
L 160.229232 114.269473 
L 160.422092 114.495378 
L 160.518522 114.453951 
L 160.614952 114.575629 
L 160.711382 114.319601 
L 161.289962 115.562815 
L 161.386392 115.60405 
L 161.579252 115.722059 
L 161.772112 115.809602 
L 161.868542 115.659786 
L 162.254263 116.009587 
L 162.447123 115.983366 
L 162.543553 116.186022 
L 162.639983 116.133169 
L 162.736413 116.187295 
L 162.832843 116.104147 
L 163.122133 116.24939 
L 163.314993 116.142568 
L 163.507853 116.236348 
L 164.182863 116.530771 
L 164.375723 116.207649 
L 164.761443 116.705712 
L 164.857873 116.651613 
L 165.243594 117.133143 
L 165.340024 117.333136 
L 165.629314 116.802895 
L 166.015034 117.22693 
L 166.111464 117.248667 
L 166.304324 116.995117 
L 166.400754 116.92788 
L 166.979334 117.592232 
L 167.075764 117.554926 
L 167.461484 118.067244 
L 167.557914 117.787315 
L 168.329355 118.828929 
L 168.618645 118.399129 
L 168.811505 118.656513 
L 169.100795 117.823292 
L 169.197225 117.778244 
L 169.293655 117.946805 
L 169.486515 117.790615 
L 169.582945 117.911533 
L 169.872235 117.572768 
L 170.836536 117.604986 
L 170.932966 117.726562 
L 171.125826 117.599865 
L 171.318686 117.657161 
L 171.415116 117.582072 
L 171.607976 117.657654 
L 172.090126 117.614441 
L 172.475846 117.762785 
L 172.957996 118.304391 
L 173.536576 118.708202 
L 173.729437 118.886287 
L 173.825867 118.607042 
L 173.922297 118.655295 
L 174.211587 118.988576 
L 174.500877 118.842532 
L 174.693737 118.951018 
L 174.790167 118.989281 
L 175.079457 118.799976 
L 175.175887 118.782532 
L 175.368747 118.470877 
L 176.236617 118.328661 
L 176.429477 118.320671 
L 176.622338 118.368841 
L 176.815198 118.176421 
L 177.200918 118.2862 
L 177.393778 118.198 
L 177.490208 118.175736 
L 177.586638 118.267565 
L 177.683068 118.163618 
L 177.972358 118.307492 
L 178.068788 118.28518 
L 178.165218 118.414355 
L 178.358078 118.234977 
L 178.550938 117.857886 
L 178.840228 118.097655 
L 179.225948 118.094314 
L 179.515239 118.285064 
L 179.708099 118.296689 
L 179.997389 118.508922 
L 180.286679 118.546193 
L 180.768829 118.287542 
L 180.865259 118.368937 
L 181.058119 118.110902 
L 181.347409 118.305904 
L 181.540269 118.097874 
L 181.829559 118.146653 
L 182.022419 118.156854 
L 182.50457 118.24819 
L 182.601 118.185232 
L 182.89029 118.268982 
L 183.08315 118.018999 
L 183.17958 117.924041 
L 183.37244 117.933455 
L 183.5653 117.824381 
L 183.75816 117.924021 
L 183.85459 117.853148 
L 184.04745 117.945518 
L 185.301041 118.149145 
L 185.493901 118.170355 
L 185.590331 118.0066 
L 185.879621 118.110355 
L 186.072481 118.16698 
L 186.651061 118.457185 
L 186.747491 118.366671 
L 187.036781 118.488315 
L 187.229641 118.483262 
L 187.326071 118.318028 
L 187.711791 118.551937 
L 188.290372 118.730733 
L 188.483232 118.496236 
L 188.772522 118.579397 
L 188.868952 118.384998 
L 189.158242 118.45561 
L 189.447532 118.47098 
L 189.736822 118.423673 
L 190.026112 118.185595 
L 190.315402 118.245876 
L 190.411832 118.304747 
L 190.701122 118.129367 
L 190.990412 118.141485 
L 191.279703 118.348357 
L 191.568993 118.372346 
L 191.665423 118.368718 
L 191.761853 118.240043 
L 192.051143 118.404626 
L 192.244003 118.42344 
L 192.340433 118.173614 
L 192.436863 118.218395 
L 192.822583 118.286433 
L 192.919013 118.246574 
L 193.015443 118.334829 
L 193.208303 118.294833 
L 193.786883 118.021203 
L 193.979744 118.052627 
L 194.269034 117.886702 
L 194.654754 117.978585 
L 195.522624 117.866957 
L 195.715484 117.903455 
L 196.197634 117.814481 
L 196.390494 117.935296 
L 196.486924 117.963633 
L 196.679784 117.896245 
L 197.547655 118.438885 
L 198.029805 118.389044 
L 198.126235 118.21504 
L 198.319095 118.272693 
L 198.608385 118.217218 
L 198.994105 118.364466 
L 199.186965 118.183342 
L 199.379825 118.087119 
L 199.572685 117.918414 
L 199.861976 118.022832 
L 200.247696 118.018451 
L 200.729846 118.075021 
L 201.019136 117.995961 
L 201.308426 118.058652 
L 201.501286 117.973608 
L 201.694146 118.011652 
L 202.079866 117.901928 
L 202.851307 118.155752 
L 203.044167 118.162386 
L 203.237027 118.168746 
L 203.526317 118.353211 
L 203.622747 118.247553 
L 203.815607 118.290192 
L 204.104897 118.299468 
L 205.647778 118.64814 
L 205.840638 118.630778 
L 206.804938 118.968708 
L 207.576378 119.039286 
L 207.962098 119.248007 
L 208.251388 119.149045 
L 208.733539 119.139063 
L 209.022829 119.27824 
L 209.504979 119.249609 
L 209.697839 119.290509 
L 210.662139 119.450861 
L 210.951429 119.374403 
L 211.240719 119.252156 
L 211.43358 119.107393 
L 212.30145 119.295657 
L 212.59074 119.20565 
L 213.36218 119.243927 
L 213.55504 119.179285 
L 214.13362 119.287407 
L 214.422911 119.219753 
L 214.615771 119.229851 
L 214.808631 119.351837 
L 214.905061 119.21813 
L 215.194351 119.307823 
L 215.387211 119.282793 
L 215.580071 119.266773 
L 215.772931 119.32628 
L 216.062221 119.074346 
L 216.255081 119.183085 
L 216.447941 119.115211 
L 218.183682 119.038054 
L 218.376542 118.821569 
L 219.244412 118.69822 
L 219.437272 118.682351 
L 219.726562 118.739435 
L 220.112283 118.731897 
L 220.690863 118.873936 
L 221.751593 119.011477 
L 221.848023 118.888779 
L 222.137313 118.958165 
L 222.523033 118.954502 
L 223.005184 119.098492 
L 223.198044 119.137441 
L 223.969484 119.438319 
L 224.162344 119.409716 
L 224.355204 119.413447 
L 224.740924 119.525376 
L 224.933784 119.312793 
L 226.283805 119.431521 
L 226.476665 119.307453 
L 227.826685 119.500353 
L 228.019545 119.586718 
L 228.308835 119.46465 
L 228.501695 119.486893 
L 229.369566 119.542122 
L 229.562426 119.457625 
L 229.851716 119.449698 
L 230.333866 119.443652 
L 230.816016 119.393086 
L 231.876747 119.405252 
L 232.166037 119.293261 
L 232.455327 119.301915 
L 232.744617 119.278302 
L 233.130337 119.319414 
L 233.998207 119.343875 
L 234.576787 119.510793 
L 235.830378 119.426653 
L 236.023238 119.267129 
L 236.601818 119.206567 
L 236.601818 119.206567 
" clip-path="url(#p8131838909)" style="fill: none; stroke: #1f77b4; stroke-width: 1.6; stroke-linecap: square"/>
   </g>
   <g id="line2d_14">
    <path d="M 43.838182 160.056 
L 44.031042 99.096961 
L 44.127472 99.719742 
L 44.223902 115.645272 
L 44.320332 64.361049 
L 44.416762 66.653607 
L 44.802482 102.443175 
L 45.188202 115.804857 
L 45.381062 111.184908 
L 45.573922 108.654245 
L 45.670352 103.464003 
L 46.056073 110.307734 
L 46.248933 106.346125 
L 46.441793 109.420106 
L 46.634653 112.220463 
L 46.731083 110.258413 
L 46.923943 112.348809 
L 47.020373 111.760231 
L 47.213233 108.340256 
L 47.502523 113.387349 
L 47.598953 113.330963 
L 47.791813 115.171224 
L 47.888243 114.974731 
L 47.984673 116.349208 
L 48.177533 113.716201 
L 48.273963 113.943037 
L 48.370393 113.00003 
L 48.563253 106.39843 
L 48.659683 106.907633 
L 48.756114 108.015641 
L 48.852544 106.134481 
L 49.045404 108.014108 
L 49.238264 109.992451 
L 49.334694 109.967305 
L 49.527554 111.880656 
L 49.623984 110.973619 
L 49.720414 110.985319 
L 49.913274 112.359489 
L 50.009704 111.257492 
L 50.202564 111.706235 
L 50.298994 110.61398 
L 50.395424 107.803148 
L 50.491854 108.178678 
L 50.588284 108.002223 
L 50.684714 108.900298 
L 50.781144 108.80224 
L 51.070434 110.722801 
L 51.166864 110.545031 
L 51.263294 109.253434 
L 51.456154 109.673594 
L 51.552584 109.003902 
L 51.649015 109.185615 
L 51.841875 107.425263 
L 51.938305 107.854173 
L 52.131165 105.334669 
L 52.227595 105.928101 
L 52.516885 104.980725 
L 52.613315 103.608425 
L 53.288325 106.998749 
L 53.384755 106.729569 
L 53.577615 105.53753 
L 53.674045 105.463029 
L 53.770475 106.082511 
L 53.963335 104.124857 
L 54.059765 103.665591 
L 54.252625 104.686611 
L 54.445485 104.971435 
L 54.541916 105.608217 
L 54.638346 104.947268 
L 54.734776 105.307537 
L 54.831206 104.952108 
L 55.216926 106.306924 
L 55.313356 106.227274 
L 55.988366 109.074439 
L 56.084796 108.482493 
L 56.181226 108.653834 
L 56.374086 107.586013 
L 56.566946 107.731837 
L 56.759806 106.580116 
L 56.856236 106.638165 
L 56.952666 106.481592 
L 57.145526 107.024847 
L 57.627677 108.473593 
L 57.724107 108.932024 
L 57.820537 108.690619 
L 58.013397 107.572416 
L 58.399117 108.695192 
L 58.495547 108.473422 
L 58.591977 108.259703 
L 58.688407 108.41694 
L 58.881267 108.857153 
L 58.977697 108.213997 
L 59.170557 108.668759 
L 59.266987 108.406712 
L 59.363417 108.827564 
L 59.459847 108.800768 
L 59.652707 108.046429 
L 59.845567 108.612517 
L 59.941997 108.093839 
L 60.231287 109.014363 
L 60.327717 108.842215 
L 60.520578 109.287946 
L 60.713438 109.068319 
L 60.809868 109.075048 
L 60.906298 109.480606 
L 61.099158 108.873112 
L 61.292018 108.864116 
L 61.388448 108.797981 
L 61.484878 108.976168 
L 61.581308 108.21677 
L 61.677738 108.481582 
L 61.774168 108.270178 
L 61.870598 107.639694 
L 62.063458 108.069761 
L 62.834898 109.576255 
L 62.931328 109.162776 
L 63.124188 108.004687 
L 63.220618 107.870036 
L 63.413479 107.964281 
L 63.509909 107.639386 
L 63.606339 107.803305 
L 63.702769 107.094008 
L 63.799199 107.244098 
L 63.992059 106.874073 
L 64.184919 107.181551 
L 64.281349 106.881371 
L 64.377779 107.179901 
L 64.474209 107.145341 
L 64.667069 106.576248 
L 64.763499 106.90727 
L 64.859929 106.688601 
L 64.956359 106.790679 
L 65.245649 107.403985 
L 65.534939 107.94531 
L 65.631369 107.870837 
L 65.727799 108.1254 
L 65.920659 107.474926 
L 66.017089 107.765377 
L 66.20995 107.425188 
L 66.40281 107.462041 
L 66.59567 107.361641 
L 66.78853 107.643398 
L 66.88496 107.355178 
L 67.27068 108.123805 
L 67.6564 108.470286 
L 67.94569 107.799047 
L 68.52427 108.684861 
L 68.71713 109.172587 
L 68.81356 108.884792 
L 69.199281 109.466989 
L 69.295711 108.679425 
L 69.392141 108.805149 
L 70.067151 109.985899 
L 70.163581 110.055251 
L 70.260011 110.308398 
L 70.452871 109.949559 
L 70.935021 110.824761 
L 71.127881 110.523356 
L 71.224311 110.545921 
L 71.417171 110.720589 
L 71.610031 110.955867 
L 71.706461 110.824967 
L 71.899321 111.251309 
L 71.995752 110.813479 
L 72.285042 111.098837 
L 72.477902 110.953984 
L 72.670762 110.840275 
L 72.863622 110.148579 
L 73.056482 110.584589 
L 73.152912 110.378229 
L 73.249342 110.541533 
L 73.442202 109.50645 
L 73.538632 109.351212 
L 74.020782 110.172719 
L 74.213642 109.927316 
L 74.310072 110.023375 
L 74.502932 109.888053 
L 74.599362 109.767066 
L 74.888653 109.84829 
L 74.985083 109.806048 
L 75.274373 110.150517 
L 75.467233 109.852308 
L 75.660093 110.202651 
L 75.949383 109.466592 
L 76.238673 109.336794 
L 76.527963 109.593808 
L 76.624393 109.514214 
L 76.913683 108.744095 
L 77.299403 108.981988 
L 77.395833 108.867779 
L 77.685123 109.276937 
L 78.167274 109.971645 
L 78.360134 109.526537 
L 78.552994 109.658259 
L 78.649424 109.503048 
L 78.938714 109.873347 
L 79.035144 109.789118 
L 79.131574 109.887984 
L 79.228004 109.82287 
L 79.517294 108.998884 
L 79.710154 109.017109 
L 79.806584 108.765386 
L 79.999444 109.058556 
L 80.095874 108.941287 
L 80.192304 108.529746 
L 80.288734 108.668738 
L 80.481594 108.303642 
L 80.770885 108.595654 
L 81.060175 107.87693 
L 81.156605 107.964062 
L 81.445895 107.74514 
L 81.638755 108.006283 
L 81.735185 107.8857 
L 81.831615 108.016627 
L 81.928045 107.897866 
L 82.120905 108.087472 
L 82.313765 107.685091 
L 82.506625 107.29945 
L 82.699485 107.367152 
L 82.892345 107.449903 
L 83.181635 107.388417 
L 83.470925 107.784348 
L 83.567355 107.621004 
L 83.760216 107.888568 
L 83.856646 107.837133 
L 83.953076 107.951246 
L 84.242366 107.289345 
L 84.338796 107.305392 
L 84.435226 107.109159 
L 84.531656 107.229105 
L 84.628086 106.687054 
L 84.724516 106.744104 
L 85.303096 107.493746 
L 85.495956 107.444679 
L 85.688816 107.495348 
L 85.785246 107.47231 
L 85.978106 107.644794 
L 86.074536 107.47407 
L 86.170966 107.595837 
L 86.363826 107.473577 
L 86.460256 107.637969 
L 86.749547 107.256983 
L 86.845977 107.281677 
L 87.231697 106.705231 
L 87.328127 106.825553 
L 87.810277 107.081418 
L 87.906707 106.87271 
L 88.099567 107.0243 
L 88.195997 106.917943 
L 88.485287 107.344265 
L 88.581717 107.169426 
L 89.449588 108.09197 
L 89.546018 108.013574 
L 89.835308 108.215476 
L 90.028168 107.948603 
L 90.124598 108.046381 
L 90.413888 107.764302 
L 90.606748 107.727606 
L 90.896038 108.013574 
L 91.185328 108.097967 
L 91.474618 108.183347 
L 91.667478 108.269144 
L 91.956768 108.032668 
L 92.149628 125.60434 
L 92.246058 120.74886 
L 92.342489 121.341456 
L 92.438919 127.894153 
L 92.535349 89.351885 
L 92.631779 94.903627 
L 92.921069 113.921656 
L 93.113929 121.770921 
L 93.210359 117.921645 
L 93.499649 124.214856 
L 93.692509 125.108529 
L 93.788939 124.533288 
L 93.885369 120.383045 
L 94.174659 125.417308 
L 94.463949 116.275735 
L 94.849669 120.192151 
L 94.946099 119.182468 
L 95.138959 120.562286 
L 95.23539 121.337636 
L 95.42825 119.053903 
L 95.71754 121.763568 
L 95.81397 121.89164 
L 95.9104 122.675904 
L 96.00683 122.540068 
L 96.10326 121.376447 
L 96.19969 122.224422 
L 96.48898 119.911045 
L 96.58541 120.042931 
L 96.77827 116.50572 
L 96.97113 117.694679 
L 97.06756 116.639441 
L 97.26042 117.873899 
L 97.74257 120.477085 
L 97.93543 119.874506 
L 98.128291 121.327271 
L 98.224721 120.487779 
L 98.321151 120.931367 
L 98.514011 119.669934 
L 98.610441 117.093504 
L 98.706871 117.689653 
L 98.803301 117.430373 
L 99.092591 118.662709 
L 99.189021 118.749944 
L 99.285451 119.028873 
L 99.478311 117.87049 
L 99.671171 118.452673 
L 99.864031 118.084989 
L 100.056891 116.079563 
L 100.153321 116.46593 
L 100.249751 115.96942 
L 100.346181 114.85983 
L 100.635471 115.860949 
L 100.828331 114.099056 
L 101.599772 117.212348 
L 101.889062 116.842124 
L 101.985492 117.146336 
L 102.178352 115.989911 
L 102.274782 115.665845 
L 102.371212 116.106968 
L 102.467642 116.065993 
L 102.564072 116.364119 
L 102.660502 116.296123 
L 102.756932 116.589313 
L 102.853362 116.200378 
L 102.949792 116.23259 
L 103.046222 116.295883 
L 103.431942 117.694193 
L 103.528372 116.957887 
L 103.817662 117.864157 
L 104.010523 118.212521 
L 104.203383 118.853356 
L 104.299813 118.76328 
L 104.396243 118.890223 
L 104.492673 118.119604 
L 104.685533 118.399273 
L 104.781963 118.338992 
L 105.167683 116.271928 
L 105.264113 116.558546 
L 105.456973 116.019562 
L 105.746263 116.63432 
L 105.939123 117.208767 
L 106.035553 117.058403 
L 106.228413 116.061297 
L 106.614133 116.847532 
L 107.385574 118.191044 
L 107.482004 117.405617 
L 107.578434 117.653279 
L 107.674864 117.601919 
L 107.867724 117.132541 
L 107.964154 117.179568 
L 108.060584 117.357289 
L 108.157014 117.205358 
L 108.253444 117.261983 
L 108.446304 117.574726 
L 108.639164 117.539557 
L 108.735594 117.562663 
L 109.024884 117.100391 
L 109.121314 117.404994 
L 109.699894 116.907594 
L 109.796325 116.297916 
L 109.892755 116.358533 
L 110.085615 115.963635 
L 110.182045 116.078234 
L 110.567765 116.757408 
L 110.664195 116.753746 
L 110.953485 117.294502 
L 111.049915 117.543788 
L 111.339205 116.672686 
L 111.628495 116.718837 
L 111.917785 115.823561 
L 112.014215 115.97092 
L 112.110645 115.805206 
L 112.399935 115.889689 
L 112.496365 115.8891 
L 112.689226 116.344416 
L 112.785656 116.101457 
L 112.978516 116.474063 
L 113.074946 116.247042 
L 113.653526 117.17125 
L 113.942816 117.321237 
L 114.135676 117.101603 
L 114.232106 117.277373 
L 114.810686 116.688816 
L 115.003546 116.912544 
L 115.099976 116.932617 
L 115.485696 117.587446 
L 115.774987 117.875741 
L 116.160707 117.265618 
L 116.257137 117.341687 
L 116.449997 117.519976 
L 116.642857 117.777511 
L 116.739287 117.809442 
L 117.028577 118.25811 
L 117.125007 118.219662 
L 117.414297 118.61052 
L 117.607157 118.400505 
L 117.992877 118.868062 
L 118.089307 118.812498 
L 118.571458 119.227325 
L 118.764318 119.179689 
L 119.246468 119.717748 
L 119.342898 119.614829 
L 119.632188 119.702591 
L 119.728618 119.740313 
L 119.921478 119.568288 
L 120.114338 119.819798 
L 120.210768 119.57801 
L 120.403628 119.691534 
L 120.596488 119.790065 
L 121.078638 119.36071 
L 121.271498 119.629637 
L 121.367929 119.42566 
L 121.464359 119.551063 
L 121.753649 118.763684 
L 122.332229 119.430925 
L 122.814379 119.164463 
L 123.007239 119.371787 
L 123.103669 119.300833 
L 123.296529 119.53138 
L 123.392959 119.68809 
L 123.682249 119.444891 
L 123.875109 119.683688 
L 124.067969 119.228427 
L 124.45369 118.892434 
L 124.64655 118.982284 
L 124.83941 119.002104 
L 125.1287 118.325224 
L 125.61085 118.40679 
L 125.80371 118.337506 
L 126.28586 118.834803 
L 126.38229 118.851816 
L 126.47872 118.542113 
L 126.57515 118.596506 
L 126.76801 118.585237 
L 126.86444 118.500809 
L 127.153731 118.847201 
L 127.250161 118.736018 
L 127.346591 118.866323 
L 127.443021 118.768066 
L 127.732311 118.096607 
L 128.310891 118.340861 
L 128.407321 118.029336 
L 128.503751 118.106042 
L 128.696611 117.767913 
L 128.985901 118.034334 
L 129.275191 117.734804 
L 129.371621 117.791498 
L 129.660911 117.538598 
L 129.853771 117.662111 
L 129.950201 117.553345 
L 130.432352 117.841188 
L 130.625212 117.57897 
L 130.818072 117.544089 
L 131.010932 117.66628 
L 131.300222 117.477975 
L 131.396652 117.39812 
L 131.685942 117.642538 
L 131.782372 117.470403 
L 131.975232 117.645139 
L 132.264522 117.498308 
L 132.360952 117.54895 
L 132.553812 117.4637 
L 132.650242 117.380868 
L 132.746672 117.458593 
L 132.939532 117.125969 
L 133.228823 117.304518 
L 133.518113 117.549881 
L 133.710973 117.449809 
L 133.903833 117.406377 
L 134.000263 117.377513 
L 134.193123 117.604692 
L 134.289553 117.419378 
L 134.385983 117.52889 
L 134.578843 117.344747 
L 134.675273 117.433118 
L 135.060993 117.104287 
L 135.253853 117.043478 
L 135.543143 116.692034 
L 136.025294 116.839296 
L 136.121724 116.608352 
L 136.507444 116.879511 
L 136.700304 117.047675 
L 136.796734 116.845766 
L 137.664604 117.663857 
L 137.761034 117.552236 
L 137.953894 117.714115 
L 138.243184 117.268548 
L 138.532474 117.438383 
L 138.725334 117.273964 
L 139.593205 117.531889 
L 140.075355 117.375028 
L 140.171785 117.222535 
L 140.171785 117.222535 
" clip-path="url(#p8131838909)" style="fill: none; stroke: #ff7f0e; stroke-width: 1.6; stroke-linecap: square"/>
   </g>
   <g id="patch_3">
    <path d="M 34.2 166.608 
L 34.2 22.464 
" style="fill: none; stroke: #000000; stroke-width: 0.8; stroke-linejoin: miter; stroke-linecap: square"/>
   </g>
   <g id="patch_4">
    <path d="M 246.24 166.608 
L 246.24 22.464 
" style="fill: none; stroke: #000000; stroke-width: 0.8; stroke-linejoin: miter; stroke-linecap: square"/>
   </g>
   <g id="patch_5">
    <path d="M 34.2 166.608 
L 246.24 166.608 
" style="fill: none; stroke: #000000; stroke-width: 0.8; stroke-linejoin: miter; stroke-linecap: square"/>
   </g>
   <g id="patch_6">
    <path d="M 34.2 22.464 
L 246.24 22.464 
" style="fill: none; stroke: #000000; stroke-width: 0.8; stroke-linejoin: miter; stroke-linecap: square"/>
   </g>
  </g>
  <g id="axes_2">
   <g id="matplotlib.axis_3">
    <g id="ytick_8">
     <g id="line2d_15">
      <defs>
       <path id="mbf886d8dc0" d="M 0 0 
L 3.5 0 
" style="stroke: #000000; stroke-width: 0.8"/>
      </defs>
      <g>
       <use xlink:href="#mbf886d8dc0" x="246.24" y="150.913676" style="stroke: #000000; stroke-width: 0.8"/>
      </g>
     </g>
     <g id="text_15">
      <!-- 0.5 -->
      <g transform="translate(253.24 154.598918)scale(0.097 -0.097)">
       <use xlink:href="#DejaVuSans-30"/>
       <use xlink:href="#DejaVuSans-2e" x="63.623047"/>
       <use xlink:href="#DejaVuSans-35" x="95.410156"/>
      </g>
     </g>
    </g>
    <g id="ytick_9">
     <g id="line2d_16">
      <g>
       <use xlink:href="#mbf886d8dc0" x="246.24" y="126.534141" style="stroke: #000000; stroke-width: 0.8"/>
      </g>
     </g>
     <g id="text_16">
      <!-- 0.6 -->
      <g transform="translate(253.24 130.219383)scale(0.097 -0.097)">
       <use xlink:href="#DejaVuSans-30"/>
       <use xlink:href="#DejaVuSans-2e" x="63.623047"/>
       <use xlink:href="#DejaVuSans-36" x="95.410156"/>
      </g>
     </g>
    </g>
    <g id="ytick_10">
     <g id="line2d_17">
      <g>
       <use xlink:href="#mbf886d8dc0" x="246.24" y="102.154605" style="stroke: #000000; stroke-width: 0.8"/>
      </g>
     </g>
     <g id="text_17">
      <!-- 0.7 -->
      <g transform="translate(253.24 105.839848)scale(0.097 -0.097)">
       <use xlink:href="#DejaVuSans-30"/>
       <use xlink:href="#DejaVuSans-2e" x="63.623047"/>
       <use xlink:href="#DejaVuSans-37" x="95.410156"/>
      </g>
     </g>
    </g>
    <g id="ytick_11">
     <g id="line2d_18">
      <g>
       <use xlink:href="#mbf886d8dc0" x="246.24" y="77.77507" style="stroke: #000000; stroke-width: 0.8"/>
      </g>
     </g>
     <g id="text_18">
      <!-- 0.8 -->
      <g transform="translate(253.24 81.460312)scale(0.097 -0.097)">
       <defs>
        <path id="DejaVuSans-38" d="M 2034 2216 
Q 1584 2216 1326 1975 
Q 1069 1734 1069 1313 
Q 1069 891 1326 650 
Q 1584 409 2034 409 
Q 2484 409 2743 651 
Q 3003 894 3003 1313 
Q 3003 1734 2745 1975 
Q 2488 2216 2034 2216 
z
M 1403 2484 
Q 997 2584 770 2862 
Q 544 3141 544 3541 
Q 544 4100 942 4425 
Q 1341 4750 2034 4750 
Q 2731 4750 3128 4425 
Q 3525 4100 3525 3541 
Q 3525 3141 3298 2862 
Q 3072 2584 2669 2484 
Q 3125 2378 3379 2068 
Q 3634 1759 3634 1313 
Q 3634 634 3220 271 
Q 2806 -91 2034 -91 
Q 1263 -91 848 271 
Q 434 634 434 1313 
Q 434 1759 690 2068 
Q 947 2378 1403 2484 
z
M 1172 3481 
Q 1172 3119 1398 2916 
Q 1625 2713 2034 2713 
Q 2441 2713 2670 2916 
Q 2900 3119 2900 3481 
Q 2900 3844 2670 4047 
Q 2441 4250 2034 4250 
Q 1625 4250 1398 4047 
Q 1172 3844 1172 3481 
z
" transform="scale(0.015625)"/>
       </defs>
       <use xlink:href="#DejaVuSans-30"/>
       <use xlink:href="#DejaVuSans-2e" x="63.623047"/>
       <use xlink:href="#DejaVuSans-38" x="95.410156"/>
      </g>
     </g>
    </g>
    <g id="ytick_12">
     <g id="line2d_19">
      <g>
       <use xlink:href="#mbf886d8dc0" x="246.24" y="53.395535" style="stroke: #000000; stroke-width: 0.8"/>
      </g>
     </g>
     <g id="text_19">
      <!-- 0.9 -->
      <g transform="translate(253.24 57.080777)scale(0.097 -0.097)">
       <defs>
        <path id="DejaVuSans-39" d="M 703 97 
L 703 672 
Q 941 559 1184 500 
Q 1428 441 1663 441 
Q 2288 441 2617 861 
Q 2947 1281 2994 2138 
Q 2813 1869 2534 1725 
Q 2256 1581 1919 1581 
Q 1219 1581 811 2004 
Q 403 2428 403 3163 
Q 403 3881 828 4315 
Q 1253 4750 1959 4750 
Q 2769 4750 3195 4129 
Q 3622 3509 3622 2328 
Q 3622 1225 3098 567 
Q 2575 -91 1691 -91 
Q 1453 -91 1209 -44 
Q 966 3 703 97 
z
M 1959 2075 
Q 2384 2075 2632 2365 
Q 2881 2656 2881 3163 
Q 2881 3666 2632 3958 
Q 2384 4250 1959 4250 
Q 1534 4250 1286 3958 
Q 1038 3666 1038 3163 
Q 1038 2656 1286 2365 
Q 1534 2075 1959 2075 
z
" transform="scale(0.015625)"/>
       </defs>
       <use xlink:href="#DejaVuSans-30"/>
       <use xlink:href="#DejaVuSans-2e" x="63.623047"/>
       <use xlink:href="#DejaVuSans-39" x="95.410156"/>
      </g>
     </g>
    </g>
    <g id="ytick_13">
     <g id="line2d_20">
      <g>
       <use xlink:href="#mbf886d8dc0" x="246.24" y="29.016" style="stroke: #000000; stroke-width: 0.8"/>
      </g>
     </g>
     <g id="text_20">
      <!-- 1.0 -->
      <g transform="translate(253.24 32.701242)scale(0.097 -0.097)">
       <use xlink:href="#DejaVuSans-31"/>
       <use xlink:href="#DejaVuSans-2e" x="63.623047"/>
       <use xlink:href="#DejaVuSans-30" x="95.410156"/>
      </g>
     </g>
    </g>
    <g id="text_21">
     <!-- Acc -->
     <g transform="translate(280.036516 103.102313)rotate(-90)scale(0.097 -0.097)">
      <defs>
       <path id="DejaVuSans-41" d="M 2188 4044 
L 1331 1722 
L 3047 1722 
L 2188 4044 
z
M 1831 4666 
L 2547 4666 
L 4325 0 
L 3669 0 
L 3244 1197 
L 1141 1197 
L 716 0 
L 50 0 
L 1831 4666 
z
" transform="scale(0.015625)"/>
       <path id="DejaVuSans-63" d="M 3122 3366 
L 3122 2828 
Q 2878 2963 2633 3030 
Q 2388 3097 2138 3097 
Q 1578 3097 1268 2742 
Q 959 2388 959 1747 
Q 959 1106 1268 751 
Q 1578 397 2138 397 
Q 2388 397 2633 464 
Q 2878 531 3122 666 
L 3122 134 
Q 2881 22 2623 -34 
Q 2366 -91 2075 -91 
Q 1284 -91 818 406 
Q 353 903 353 1747 
Q 353 2603 823 3093 
Q 1294 3584 2113 3584 
Q 2378 3584 2631 3529 
Q 2884 3475 3122 3366 
z
" transform="scale(0.015625)"/>
      </defs>
      <use xlink:href="#DejaVuSans-41"/>
      <use xlink:href="#DejaVuSans-63" x="66.658203"/>
      <use xlink:href="#DejaVuSans-63" x="121.638672"/>
     </g>
    </g>
   </g>
   <g id="line2d_21">
    <path d="M 43.838182 135.676466 
L 43.934612 135.676466 
L 44.031042 145.834611 
L 44.127472 131.867164 
L 44.223902 132.629027 
L 44.416762 144.383439 
L 44.609622 150.913676 
L 44.706052 147.866237 
L 44.802482 148.143277 
L 45.188202 160.056 
L 45.381062 153.602598 
L 45.477492 156.839256 
L 45.863213 150.913676 
L 45.959643 149.588694 
L 46.152503 152.132651 
L 46.345363 151.478015 
L 46.441793 151.45786 
L 46.538223 150.388252 
L 46.634653 151.421582 
L 46.827513 150.437513 
L 46.923943 150.913676 
L 47.020373 150.017368 
L 47.116803 150.913676 
L 47.213233 149.220659 
L 47.309663 149.678222 
L 47.406093 148.507795 
L 47.598953 149.770888 
L 47.695383 149.42712 
L 47.791813 148.374136 
L 47.888243 148.433206 
L 47.984673 148.143277 
L 48.081103 149.220659 
L 48.177533 148.594969 
L 48.370393 149.643913 
L 48.563253 151.523164 
L 48.756114 150.327627 
L 48.852544 150.913676 
L 48.948974 150.631506 
L 49.141834 148.464841 
L 49.431124 147.556327 
L 49.816844 143.174141 
L 50.202564 140.224891 
L 51.070434 130.664231 
L 51.745445 125.028776 
L 51.841875 125.155532 
L 51.938305 124.920793 
L 52.420455 121.962984 
L 52.613315 121.432982 
L 52.806175 120.439257 
L 53.095465 119.182587 
L 53.191895 119.195404 
L 54.059765 114.17349 
L 54.156195 114.090415 
L 54.445485 113.026561 
L 56.277656 106.725774 
L 56.374086 106.714135 
L 56.566946 106.347698 
L 56.663376 106.566569 
L 56.759806 106.443605 
L 57.049096 105.643713 
L 57.241956 105.637392 
L 57.338386 106.17463 
L 57.531247 105.628266 
L 57.916967 105.098395 
L 58.206257 104.287808 
L 58.302687 104.192962 
L 58.784837 102.662508 
L 59.170557 101.773669 
L 59.459847 100.901978 
L 59.652707 100.769409 
L 59.845567 100.457523 
L 60.038427 100.513672 
L 60.520578 99.86027 
L 60.713438 99.83439 
L 61.292018 98.671811 
L 61.388448 98.624235 
L 61.677738 98.238806 
L 61.870598 98.069734 
L 62.256318 97.504087 
L 62.449178 97.347817 
L 62.545608 97.388098 
L 62.642038 97.117001 
L 62.738468 97.158038 
L 63.220618 96.45196 
L 63.317049 96.269897 
L 63.509909 96.431355 
L 63.606339 96.399967 
L 64.088489 95.741974 
L 64.281349 95.61619 
L 64.377779 95.660991 
L 65.052789 94.584262 
L 65.149219 94.563453 
L 66.017089 92.801195 
L 66.20995 92.907651 
L 66.88496 91.679027 
L 66.98139 91.735132 
L 67.27068 91.213792 
L 67.46354 90.955875 
L 68.04212 90.327627 
L 68.13855 90.265971 
L 68.23498 90.384764 
L 69.585001 88.770871 
L 69.681431 88.83196 
L 69.777861 88.723281 
L 70.067151 88.848555 
L 70.163581 88.797027 
L 70.260011 88.912086 
L 70.452871 88.644652 
L 70.645731 88.70872 
L 71.224311 88.093609 
L 71.417171 88.159726 
L 71.706461 87.758066 
L 71.899321 87.512268 
L 71.995752 87.468645 
L 72.188612 87.278953 
L 72.381472 87.39965 
L 72.863622 87.038489 
L 72.960052 87.148723 
L 74.792222 85.564023 
L 74.985083 85.497135 
L 75.274373 85.584716 
L 75.467233 85.472403 
L 75.660093 85.637653 
L 75.949383 85.49404 
L 76.817253 84.545187 
L 77.010113 84.66494 
L 77.202973 84.475931 
L 77.781554 83.92175 
L 77.974414 83.784109 
L 78.456564 83.615996 
L 78.552994 83.506967 
L 78.649424 83.566894 
L 78.842284 83.392751 
L 79.035144 83.428658 
L 79.228004 83.298559 
L 79.517294 83.35247 
L 79.806584 83.03884 
L 79.903014 83.097939 
L 80.385164 82.707119 
L 80.867315 82.524329 
L 81.349465 81.994604 
L 81.542325 81.879792 
L 81.831615 81.748312 
L 82.024475 81.597811 
L 82.313765 81.774832 
L 82.603055 81.608942 
L 82.988775 81.616193 
L 83.278065 81.342801 
L 83.663786 80.984458 
L 84.242366 80.786236 
L 84.435226 80.721412 
L 85.592386 80.239713 
L 85.785246 80.17948 
L 87.038837 79.241105 
L 87.617417 79.081115 
L 87.906707 78.919526 
L 88.292427 78.817269 
L 88.485287 78.832484 
L 89.738878 78.401165 
L 90.799608 78.224696 
L 90.992468 78.179329 
L 91.378188 78.089685 
L 91.667478 78.100046 
L 92.631779 77.612781 
L 93.113929 77.406044 
L 93.499649 77.414807 
L 93.788939 77.42864 
L 95.62111 77.248277 
L 95.81397 77.210728 
L 96.19969 77.192477 
L 96.48898 77.067522 
L 96.97113 77.018726 
L 97.35685 76.892623 
L 100.828331 75.654219 
L 101.599772 75.337116 
L 102.081922 75.382454 
L 102.660502 75.301209 
L 102.949792 75.298405 
L 103.431942 75.170718 
L 104.106953 74.922348 
L 104.492673 74.703448 
L 104.685533 74.679413 
L 105.167683 74.560184 
L 105.553403 74.537457 
L 105.746263 74.538053 
L 106.324843 74.445895 
L 110.664195 73.498118 
L 110.857055 73.545432 
L 111.339205 73.466919 
L 111.724925 73.344391 
L 111.917785 73.3483 
L 114.907116 72.848785 
L 116.160707 72.982749 
L 116.546427 72.992006 
L 117.028577 72.822977 
L 117.510727 72.855339 
L 118.475028 72.761539 
L 118.764318 72.769124 
L 119.246468 72.703791 
L 119.535758 72.692123 
L 120.885778 72.556327 
L 121.175068 72.564436 
L 121.753649 72.429803 
L 122.042939 72.381995 
L 124.067969 71.965541 
L 124.45369 71.869518 
L 129.371621 71.22719 
L 129.757341 71.225809 
L 129.950201 71.318853 
L 132.939532 71.021281 
L 136.507444 70.65698 
L 136.796734 70.622265 
L 137.182454 70.607762 
L 138.436044 70.553691 
L 138.918195 70.435886 
L 139.978925 70.391594 
L 140.171785 70.354554 
L 140.268215 120.439257 
L 140.461075 69.648563 
L 140.557505 82.346233 
L 141.232515 55.33482 
L 141.328945 54.411354 
L 141.425375 54.802043 
L 141.521805 52.960182 
L 141.618235 54.411354 
L 141.714666 53.776465 
L 142.003956 58.688464 
L 142.100386 57.966692 
L 142.293246 56.72002 
L 142.678966 60.076468 
L 142.775396 60.054758 
L 142.871826 60.034603 
L 142.968256 60.541267 
L 143.064686 60.506232 
L 143.161116 60.473464 
L 143.257546 60.918907 
L 143.353976 60.413885 
L 143.546836 61.667169 
L 143.932556 60.271812 
L 144.028986 61.014146 
L 144.221846 60.215998 
L 144.607567 59.159177 
L 144.703997 59.166225 
L 144.800427 59.807856 
L 144.896857 59.490419 
L 145.089717 60.68549 
L 145.186147 60.662516 
L 145.282577 61.502878 
L 145.379007 61.46562 
L 145.764727 59.753131 
L 146.054017 59.240625 
L 146.150447 59.24465 
L 146.536167 57.874346 
L 146.825457 57.282121 
L 146.921887 57.531348 
L 147.114747 57.162514 
L 147.211177 57.611866 
L 147.404037 58.677769 
L 147.500468 58.688464 
L 147.886188 59.299957 
L 147.982618 59.114188 
L 148.079048 59.490419 
L 148.561198 58.439571 
L 148.657628 58.797812 
L 148.754058 58.634393 
L 148.850488 58.813215 
L 149.429068 57.744494 
L 149.525498 57.448316 
L 149.814788 57.814331 
L 150.007648 57.847186 
L 150.200508 58.318321 
L 150.393369 58.340438 
L 150.586229 58.502826 
L 151.164809 57.752849 
L 151.357669 58.04551 
L 151.454099 58.057862 
L 151.646959 58.594112 
L 151.743389 58.601581 
L 151.839819 58.734848 
L 152.129109 58.261606 
L 152.418399 58.050683 
L 152.611259 58.191129 
L 152.996979 57.886508 
L 153.093409 57.898468 
L 153.189839 57.797402 
L 153.57556 58.284594 
L 153.76842 58.193628 
L 153.96128 58.318321 
L 154.15414 58.649752 
L 154.25057 58.551142 
L 154.44343 58.666783 
L 154.82915 58.387723 
L 155.02201 58.599939 
L 155.21487 58.513681 
L 155.3113 58.713995 
L 155.40773 58.622477 
L 155.50416 58.915429 
L 155.60059 58.823794 
L 155.79345 59.020141 
L 155.98631 58.932953 
L 156.17917 59.21505 
L 157.047041 59.316275 
L 157.143471 59.576997 
L 157.239901 59.490419 
L 157.336331 59.918425 
L 157.625621 59.742974 
L 157.722051 59.992738 
L 157.818481 59.906742 
L 158.107771 60.063869 
L 158.686351 60.125308 
L 158.879211 60.275838 
L 158.975641 60.349947 
L 159.168502 60.186528 
L 159.457792 60.32847 
L 159.747082 60.241021 
L 160.518522 59.707067 
L 160.807812 59.632826 
L 161.193532 59.210836 
L 161.289962 59.281691 
L 161.482822 59.145692 
L 161.675682 59.148773 
L 162.061403 58.953428 
L 162.254263 59.024646 
L 162.447123 59.094643 
L 162.543553 58.964995 
L 162.929273 59.103028 
L 163.411423 58.921401 
L 163.700713 58.865949 
L 163.893573 58.747141 
L 164.182863 58.756092 
L 164.375723 58.883358 
L 165.436454 58.327273 
L 165.532884 58.33169 
L 165.725744 58.397939 
L 166.015034 58.353313 
L 166.304324 58.309675 
L 166.400754 58.31402 
L 166.690044 58.049811 
L 167.365054 58.031531 
L 167.461484 57.929012 
L 167.654344 57.99343 
L 167.943635 57.744494 
L 168.040065 57.803258 
L 168.329355 57.559669 
L 168.618645 57.63096 
L 168.811505 57.54088 
L 169.197225 57.769269 
L 169.390085 57.680062 
L 169.486515 57.736138 
L 169.582945 57.641975 
L 169.872235 57.907332 
L 172.668706 57.953134 
L 174.115157 57.455901 
L 175.465177 57.616996 
L 175.658037 57.627168 
L 178.068788 57.66816 
L 178.261648 57.715954 
L 178.743798 57.890519 
L 178.936658 57.822658 
L 179.322378 57.764038 
L 179.515239 57.697804 
L 179.708099 57.669381 
L 179.997389 57.571934 
L 181.829559 57.726852 
L 182.022419 57.770083 
L 182.311709 57.781897 
L 182.601 57.724295 
L 182.69743 57.659195 
L 183.17958 57.953033 
L 183.46887 57.963306 
L 185.20461 57.956913 
L 185.397471 57.898468 
L 185.976051 58.01482 
L 186.458201 57.934956 
L 186.843921 57.916327 
L 188.001081 57.862255 
L 188.097511 57.834864 
L 188.483232 58.060986 
L 188.772522 58.039262 
L 188.965382 58.105219 
L 191.954713 58.12844 
L 192.244003 58.023132 
L 192.533293 58.08736 
L 192.629723 58.033914 
L 192.822583 58.067162 
L 193.690453 58.200065 
L 194.269034 58.295347 
L 194.558324 58.220656 
L 195.329764 58.398244 
L 195.619054 58.324439 
L 196.197634 58.388929 
L 196.486924 58.316316 
L 196.776214 58.322318 
L 197.354795 58.10288 
L 197.547655 58.08194 
L 198.029805 58.04288 
L 198.222665 58.073003 
L 198.511955 58.105219 
L 198.994105 58.016651 
L 199.186965 58.121059 
L 200.344126 58.074137 
L 200.633416 58.056612 
L 201.115566 58.092069 
L 201.308426 58.072451 
L 201.501286 58.124822 
L 201.790576 58.107385 
L 201.983436 58.159247 
L 202.465586 58.098782 
L 202.947737 57.992442 
L 203.333457 57.908538 
L 203.622747 57.892597 
L 204.490617 57.777087 
L 204.876337 57.787303 
L 205.454917 57.712365 
L 205.744208 57.765026 
L 206.226358 57.710897 
L 206.612078 57.654879 
L 207.672808 57.574884 
L 208.154958 57.54524 
L 208.444248 57.618056 
L 209.312119 57.556545 
L 210.179989 57.475577 
L 210.758569 57.471275 
L 211.53001 57.554889 
L 212.01216 57.445163 
L 213.94076 57.39904 
L 214.23005 57.427042 
L 214.519341 57.415315 
L 215.483641 57.305313 
L 215.869361 57.355272 
L 219.051552 57.478657 
L 219.340842 57.61592 
L 220.015852 57.613377 
L 220.980153 57.544862 
L 221.462303 57.466015 
L 223.198044 57.419864 
L 223.969484 57.24604 
L 224.355204 57.221424 
L 224.837354 57.234342 
L 225.126644 57.259321 
L 226.283805 57.169852 
L 226.573095 57.228646 
L 227.151675 57.243686 
L 228.598125 57.130893 
L 231.587456 57.320556 
L 232.262467 57.352424 
L 233.130337 57.340769 
L 234.962508 57.273809 
L 235.348228 57.236478 
L 236.505388 57.355068 
L 236.601818 57.341976 
L 236.601818 57.341976 
" clip-path="url(#p8131838909)" style="fill: none; stroke: #1f77b4; stroke-width: 1.6; stroke-linecap: square"/>
   </g>
   <g id="line2d_22">
    <path d="M 43.838182 29.016 
L 44.031042 59.490419 
L 44.127472 67.109024 
L 44.223902 59.490419 
L 44.320332 79.806693 
L 44.416762 76.904379 
L 44.706052 65.585297 
L 44.898912 62.029959 
L 44.995342 61.834599 
L 45.188202 57.458793 
L 45.284632 61.39507 
L 45.381062 61.283034 
L 45.477492 61.183436 
L 45.670352 65.585297 
L 45.766782 65.295077 
L 45.959643 63.465349 
L 46.056073 64.569484 
L 46.152503 64.366321 
L 46.248933 66.522975 
L 46.345363 66.262515 
L 46.441793 66.020656 
L 46.634653 64.569484 
L 46.731083 66.371733 
L 46.827513 66.156698 
L 47.020373 64.868263 
L 47.213233 67.109024 
L 47.598953 64.061585 
L 47.984673 61.568226 
L 48.081103 62.199263 
L 48.177533 62.140368 
L 48.273963 62.083986 
L 48.563253 64.366321 
L 48.659683 64.27072 
L 48.756114 63.592746 
L 48.852544 64.090328 
L 48.948974 64.005145 
L 49.238264 62.698255 
L 49.334694 63.168373 
L 49.623984 61.988326 
L 49.816844 61.909029 
L 49.913274 61.39507 
L 50.009704 61.834599 
L 50.106134 61.799085 
L 50.202564 61.764631 
L 50.588284 63.353371 
L 50.781144 62.830083 
L 50.974004 62.741021 
L 51.166864 62.260818 
L 51.263294 62.616007 
L 51.359724 62.576439 
L 51.649015 62.46353 
L 51.841875 63.843905 
L 51.938305 63.792697 
L 52.131165 65.094908 
L 52.227595 65.031217 
L 52.324025 65.653783 
L 52.420455 65.585297 
L 52.613315 66.44654 
L 53.191895 64.465832 
L 53.577615 65.465791 
L 53.674045 65.407782 
L 53.770475 65.057868 
L 53.963335 65.815299 
L 54.059765 65.756185 
L 54.252625 65.361631 
L 54.445485 65.255842 
L 54.541916 64.932273 
L 54.638346 65.153803 
L 54.734776 64.836802 
L 54.831206 65.05531 
L 55.120496 64.397317 
L 55.313356 64.315534 
L 55.988366 62.609846 
L 56.374086 63.21249 
L 56.566946 63.156515 
L 56.759806 63.779415 
L 56.856236 63.747868 
L 56.952666 64.161677 
L 57.145526 63.87522 
L 57.338386 63.813026 
L 57.724107 63.063282 
L 57.820537 63.038811 
L 57.916967 63.429283 
L 58.013397 63.402676 
L 58.109827 63.376418 
L 58.399117 62.898744 
L 58.591977 63.052369 
L 58.688407 63.02938 
L 58.881267 62.790195 
L 59.074127 63.132015 
L 59.170557 63.109259 
L 59.266987 63.276064 
L 59.459847 63.042647 
L 59.652707 63.368978 
L 59.845567 62.957566 
L 59.941997 63.118327 
L 60.231287 62.698255 
L 60.424148 62.83732 
L 60.809868 62.761684 
L 60.906298 62.572108 
L 61.292018 63.006697 
L 61.484878 62.96848 
L 61.677738 63.094917 
L 61.774168 63.075648 
L 61.870598 63.380777 
L 62.159888 63.000565 
L 62.352748 62.964193 
L 62.834898 62.260818 
L 63.124188 62.977547 
L 63.220618 62.960284 
L 63.317049 62.793072 
L 63.895629 63.427306 
L 64.184919 63.371593 
L 64.281349 63.496447 
L 64.474209 63.317435 
L 64.667069 63.422598 
L 64.859929 63.247539 
L 64.956359 63.230465 
L 65.245649 62.906838 
L 65.342079 62.89158 
L 65.534939 62.726635 
L 65.631369 62.712379 
L 65.727799 62.564596 
L 65.920659 62.935348 
L 66.113519 62.774297 
L 66.30638 62.746237 
L 66.59567 62.962187 
L 66.78853 62.805627 
L 66.88496 62.918797 
L 67.27068 62.487899 
L 67.36711 62.475664 
L 67.55997 62.328113 
L 67.6564 62.316676 
L 67.94569 62.525724 
L 68.23498 62.489875 
L 68.71713 61.961313 
L 68.81356 62.069019 
L 69.199281 61.683648 
L 69.392141 62.010865 
L 69.777861 61.63491 
L 69.874291 61.627005 
L 70.260011 61.263474 
L 70.452871 61.580722 
L 70.645731 61.456509 
L 70.935021 61.219459 
L 71.224311 61.415123 
L 71.802891 61.270711 
L 71.899321 61.160244 
L 72.092182 61.252547 
L 72.477902 61.331161 
L 72.863622 61.710415 
L 73.056482 61.495322 
L 73.152912 61.688574 
L 73.249342 61.581798 
L 73.442202 62.161874 
L 73.635062 62.046336 
L 74.020782 61.722621 
L 74.310072 61.701492 
L 74.502932 61.878702 
L 75.370803 61.906079 
L 75.467233 61.991363 
L 75.660093 61.79211 
L 75.852953 62.052831 
L 76.045813 62.310443 
L 76.335103 62.195253 
L 76.527963 62.089712 
L 77.010113 62.405361 
L 77.588693 62.268709 
L 77.877984 62.073001 
L 78.070844 61.97288 
L 78.167274 61.880577 
L 78.360134 61.952143 
L 78.552994 62.022926 
L 78.649424 62.100101 
L 78.842284 61.918329 
L 79.806584 62.668233 
L 79.999444 62.489236 
L 80.095874 62.562111 
L 80.192304 62.795847 
L 80.288734 62.706712 
L 80.481594 62.849802 
L 80.578024 62.761234 
L 80.674454 62.832263 
L 80.770885 62.744203 
L 81.445895 63.15358 
L 81.638755 63.057397 
L 81.928045 62.953425 
L 82.120905 62.859451 
L 82.699485 63.18658 
L 84.145936 63.054258 
L 84.338796 63.18209 
L 84.435226 63.245563 
L 84.531656 63.164638 
L 84.724516 63.434165 
L 85.303096 63.025733 
L 85.495956 63.150165 
L 85.688816 63.203393 
L 85.785246 63.264773 
L 85.978106 63.177963 
L 86.170966 63.230465 
L 86.942407 63.163679 
L 87.231697 63.40952 
L 87.713847 63.166062 
L 87.810277 63.158012 
L 87.906707 63.349622 
L 88.099567 63.26659 
L 88.195997 63.324512 
L 88.871007 62.941582 
L 89.160297 62.854903 
L 89.738878 62.493145 
L 90.510318 62.883442 
L 90.703178 62.806935 
L 90.896038 62.731052 
L 91.088898 62.717858 
L 91.956768 62.659761 
L 92.149628 59.490419 
L 92.342489 59.490419 
L 92.438919 53.395541 
L 92.535349 64.569484 
L 92.631779 63.843905 
L 92.824639 56.104371 
L 92.921069 56.44298 
L 93.113929 51.871814 
L 93.210359 52.457863 
L 93.403219 49.332274 
L 93.788939 51.470837 
L 93.885369 54.919253 
L 94.078229 52.564421 
L 94.174659 52.86554 
L 94.463949 57.146238 
L 94.560379 57.233049 
L 94.753239 55.287056 
L 94.849669 55.427167 
L 95.042529 56.633442 
L 95.23539 56.801497 
L 95.42825 59.490419 
L 95.52468 58.666783 
L 95.62111 58.688464 
L 95.9104 57.260586 
L 96.10326 58.073003 
L 96.19969 57.412612 
L 96.29612 57.458793 
L 96.58541 57.585768 
L 96.77827 59.490419 
L 96.97113 58.318321 
L 97.16399 58.92608 
L 97.45328 57.351857 
L 97.54971 57.388737 
L 97.74257 56.44298 
L 97.839 56.492939 
L 97.93543 56.541284 
L 98.128291 55.681117 
L 98.224721 56.677399 
L 98.321151 56.258287 
L 98.803301 58.202768 
L 99.092591 57.431343 
L 99.189021 57.458793 
L 99.285451 57.084538 
L 99.478311 57.927632 
L 99.671171 57.585768 
L 99.864031 57.632224 
L 100.056891 59.12763 
L 100.153321 58.77337 
L 100.249751 59.136072 
L 100.442611 60.183026 
L 100.635471 59.829028 
L 100.828331 60.484144 
L 101.310482 59.176251 
L 101.503342 58.87477 
L 101.599772 58.880931 
L 101.889062 59.490419 
L 101.985492 59.197395 
L 102.178352 59.777907 
L 102.274782 59.775233 
L 102.371212 59.490419 
L 102.467642 59.770002 
L 102.756932 59.21832 
L 102.853362 59.220732 
L 103.046222 59.490419 
L 103.431942 58.466062 
L 103.528372 58.728556 
L 103.914093 58.015852 
L 104.106953 58.039262 
L 104.299813 57.823849 
L 104.396243 57.836768 
L 104.589103 58.327273 
L 104.685533 58.336079 
L 104.878393 59.035574 
L 105.167683 60.157741 
L 105.264113 59.932084 
L 105.456973 60.143443 
L 105.746263 59.703521 
L 105.842693 59.702053 
L 106.035553 59.490419 
L 106.228413 60.314055 
L 106.421273 60.099907 
L 106.517703 60.095867 
L 106.806993 59.688307 
L 106.903424 59.687028 
L 107.096284 59.296309 
L 107.192714 59.490419 
L 107.385574 59.109495 
L 107.482004 59.490419 
L 107.674864 59.303459 
L 107.964154 59.673993 
L 108.060584 59.490419 
L 108.253444 59.851058 
L 108.446304 59.668631 
L 108.832024 59.664562 
L 109.024884 60.006935 
L 109.217744 59.830917 
L 109.507034 60.160183 
L 109.699894 60.152903 
L 109.892755 60.309623 
L 109.989185 60.305249 
L 110.182045 60.457857 
L 110.471335 60.125308 
L 110.664195 60.118754 
L 111.049915 59.490419 
L 111.146345 59.64355 
L 111.339205 60.09687 
L 111.435635 60.093876 
L 111.628495 59.938565 
L 112.110645 60.5111 
L 112.303505 60.356995 
L 112.399935 60.352897 
L 112.496365 60.491919 
L 112.689226 60.199127 
L 112.882086 60.473464 
L 113.267806 60.041999 
L 113.364236 60.176778 
L 113.460666 60.037044 
L 113.557096 60.170645 
L 113.749956 60.029793 
L 113.942816 60.025056 
L 114.135676 60.285399 
L 114.328536 60.147192 
L 114.521396 60.141583 
L 114.714256 60.523452 
L 114.810686 60.519092 
L 115.003546 60.382977 
L 115.099976 60.379257 
L 115.485696 59.990006 
L 115.774987 59.983932 
L 116.064277 60.22181 
L 116.449997 60.210287 
L 117.028577 59.607629 
L 117.125007 59.607178 
L 117.414297 59.374982 
L 117.510727 59.490419 
L 117.992877 59.038945 
L 118.089307 59.040616 
L 118.475028 58.714707 
L 119.053608 58.622826 
L 119.246468 58.521266 
L 119.439328 58.635003 
L 120.017908 58.547917 
L 120.114338 58.446778 
L 120.210768 58.554339 
L 120.403628 58.457386 
L 120.692918 58.570048 
L 120.982208 58.781711 
L 121.175068 58.685819 
L 121.464359 58.494528 
L 121.657219 58.797812 
L 121.946509 58.706512 
L 122.332229 58.426231 
L 122.717949 58.535114 
L 122.814379 58.633332 
L 123.007239 58.544008 
L 123.296529 58.45897 
L 123.392959 58.368658 
L 123.585819 58.561314 
L 123.682249 58.656771 
L 123.875109 58.569743 
L 124.164399 59.12545 
L 124.93584 59.2231 
L 125.1287 59.401836 
L 125.61085 59.490419 
L 125.70728 59.577491 
L 126.28586 59.148003 
L 126.67158 59.236469 
L 126.86444 59.406239 
L 127.153731 59.15646 
L 127.250161 59.240625 
L 127.443021 59.159177 
L 127.635881 59.490419 
L 127.732311 59.572565 
L 127.925171 59.490419 
L 128.118031 59.40916 
L 128.310891 59.328758 
L 128.503751 59.490419 
L 128.600181 59.570617 
L 128.696611 59.810355 
L 128.985901 59.649145 
L 129.564481 60.037393 
L 129.950201 59.954492 
L 130.335922 59.72013 
L 130.432352 59.719549 
L 130.721642 60.021074 
L 131.589512 59.935296 
L 131.685942 59.860256 
L 131.782372 59.933145 
L 131.975232 59.857582 
L 132.168092 59.928902 
L 132.650242 59.851494 
L 132.746672 59.77859 
L 132.939532 59.992346 
L 133.518113 59.631838 
L 133.710973 59.701559 
L 134.964563 59.695398 
L 135.157423 59.830539 
L 135.639573 60.095867 
L 136.025294 59.957209 
L 136.121724 60.089255 
L 136.700304 59.818813 
L 136.893164 59.817403 
L 137.664604 59.361831 
L 137.857464 59.298358 
L 138.050324 59.299158 
L 138.339614 59.236992 
L 138.532474 59.174944 
L 138.725334 59.301918 
L 138.918195 59.240117 
L 139.303915 59.118024 
L 140.171785 59.185668 
L 140.171785 59.185668 
" clip-path="url(#p8131838909)" style="fill: none; stroke: #ff7f0e; stroke-width: 1.6; stroke-linecap: square"/>
   </g>
   <g id="patch_7">
    <path d="M 34.2 166.608 
L 34.2 22.464 
" style="fill: none; stroke: #000000; stroke-width: 0.8; stroke-linejoin: miter; stroke-linecap: square"/>
   </g>
   <g id="patch_8">
    <path d="M 246.24 166.608 
L 246.24 22.464 
" style="fill: none; stroke: #000000; stroke-width: 0.8; stroke-linejoin: miter; stroke-linecap: square"/>
   </g>
   <g id="patch_9">
    <path d="M 34.2 166.608 
L 246.24 166.608 
" style="fill: none; stroke: #000000; stroke-width: 0.8; stroke-linejoin: miter; stroke-linecap: square"/>
   </g>
   <g id="patch_10">
    <path d="M 34.2 22.464 
L 246.24 22.464 
" style="fill: none; stroke: #000000; stroke-width: 0.8; stroke-linejoin: miter; stroke-linecap: square"/>
   </g>
  </g>
 </g>
 <defs>
  <clipPath id="p8131838909">
   <rect x="34.2" y="22.464" width="212.04" height="144.144"/>
  </clipPath>
 </defs>
</svg>
