<?xml version="1.0" encoding="utf-8" standalone="no"?>
<!DOCTYPE svg PUBLIC "-//W3C//DTD SVG 1.1//EN"
  "http://www.w3.org/Graphics/SVG/1.1/DTD/svg11.dtd">
<svg xmlns:xlink="http://www.w3.org/1999/xlink" width="273.6pt" height="187.2pt" viewBox="0 0 273.6 187.2" xmlns="http://www.w3.org/2000/svg" version="1.1">
 <metadata>
  <rdf:RDF xmlns:dc="http://purl.org/dc/elements/1.1/" xmlns:cc="http://creativecommons.org/ns#" xmlns:rdf="http://www.w3.org/1999/02/22-rdf-syntax-ns#">
   <cc:Work>
    <dc:type rdf:resource="http://purl.org/dc/dcmitype/StillImage"/>
    <dc:date>2022-04-20T20:07:32.341251</dc:date>
    <dc:format>image/svg+xml</dc:format>
    <dc:creator>
     <cc:Agent>
      <dc:title>Matplotlib v3.5.1, https://matplotlib.org/</dc:title>
     </cc:Agent>
    </dc:creator>
   </cc:Work>
  </rdf:RDF>
 </metadata>
 <defs>
  <style type="text/css">*{stroke-linejoin: round; stroke-linecap: butt}</style>
 </defs>
 <g id="figure_1">
  <g id="patch_1">
   <path d="M 0 187.2 
L 273.6 187.2 
L 273.6 0 
L 0 0 
z
" style="fill: #ffffff"/>
  </g>
  <g id="axes_1">
   <g id="patch_2">
    <path d="M 34.2 166.608 
L 246.24 166.608 
L 246.24 22.464 
L 34.2 22.464 
z
" style="fill: #ffffff"/>
   </g>
   <g id="matplotlib.axis_1">
    <g id="xtick_1">
     <g id="line2d_1">
      <defs>
       <path id="m7c8a14f90b" d="M 0 0 
L 0 3.5 
" style="stroke: #000000; stroke-width: 0.8"/>
      </defs>
      <g>
       <use xlink:href="#m7c8a14f90b" x="43.838182" y="166.608" style="stroke: #000000; stroke-width: 0.8"/>
      </g>
     </g>
     <g id="text_1">
      <!-- 0 -->
      <g transform="translate(40.752369 180.978484)scale(0.097 -0.097)">
       <defs>
        <path id="DejaVuSans-30" d="M 2034 4250 
Q 1547 4250 1301 3770 
Q 1056 3291 1056 2328 
Q 1056 1369 1301 889 
Q 1547 409 2034 409 
Q 2525 409 2770 889 
Q 3016 1369 3016 2328 
Q 3016 3291 2770 3770 
Q 2525 4250 2034 4250 
z
M 2034 4750 
Q 2819 4750 3233 4129 
Q 3647 3509 3647 2328 
Q 3647 1150 3233 529 
Q 2819 -91 2034 -91 
Q 1250 -91 836 529 
Q 422 1150 422 2328 
Q 422 3509 836 4129 
Q 1250 4750 2034 4750 
z
" transform="scale(0.015625)"/>
       </defs>
       <use xlink:href="#DejaVuSans-30"/>
      </g>
     </g>
    </g>
    <g id="xtick_2">
     <g id="line2d_2">
      <g>
       <use xlink:href="#m7c8a14f90b" x="92.053198" y="166.608" style="stroke: #000000; stroke-width: 0.8"/>
      </g>
     </g>
     <g id="text_2">
      <!-- 500 -->
      <g transform="translate(82.795761 180.978484)scale(0.097 -0.097)">
       <defs>
        <path id="DejaVuSans-35" d="M 691 4666 
L 3169 4666 
L 3169 4134 
L 1269 4134 
L 1269 2991 
Q 1406 3038 1543 3061 
Q 1681 3084 1819 3084 
Q 2600 3084 3056 2656 
Q 3513 2228 3513 1497 
Q 3513 744 3044 326 
Q 2575 -91 1722 -91 
Q 1428 -91 1123 -41 
Q 819 9 494 109 
L 494 744 
Q 775 591 1075 516 
Q 1375 441 1709 441 
Q 2250 441 2565 725 
Q 2881 1009 2881 1497 
Q 2881 1984 2565 2268 
Q 2250 2553 1709 2553 
Q 1456 2553 1204 2497 
Q 953 2441 691 2322 
L 691 4666 
z
" transform="scale(0.015625)"/>
       </defs>
       <use xlink:href="#DejaVuSans-35"/>
       <use xlink:href="#DejaVuSans-30" x="63.623047"/>
       <use xlink:href="#DejaVuSans-30" x="127.246094"/>
      </g>
     </g>
    </g>
    <g id="xtick_3">
     <g id="line2d_3">
      <g>
       <use xlink:href="#m7c8a14f90b" x="140.268215" y="166.608" style="stroke: #000000; stroke-width: 0.8"/>
      </g>
     </g>
     <g id="text_3">
      <!-- 1000 -->
      <g transform="translate(127.924965 180.978484)scale(0.097 -0.097)">
       <defs>
        <path id="DejaVuSans-31" d="M 794 531 
L 1825 531 
L 1825 4091 
L 703 3866 
L 703 4441 
L 1819 4666 
L 2450 4666 
L 2450 531 
L 3481 531 
L 3481 0 
L 794 0 
L 794 531 
z
" transform="scale(0.015625)"/>
       </defs>
       <use xlink:href="#DejaVuSans-31"/>
       <use xlink:href="#DejaVuSans-30" x="63.623047"/>
       <use xlink:href="#DejaVuSans-30" x="127.246094"/>
       <use xlink:href="#DejaVuSans-30" x="190.869141"/>
      </g>
     </g>
    </g>
    <g id="xtick_4">
     <g id="line2d_4">
      <g>
       <use xlink:href="#m7c8a14f90b" x="188.483232" y="166.608" style="stroke: #000000; stroke-width: 0.8"/>
      </g>
     </g>
     <g id="text_4">
      <!-- 1500 -->
      <g transform="translate(176.139982 180.978484)scale(0.097 -0.097)">
       <use xlink:href="#DejaVuSans-31"/>
       <use xlink:href="#DejaVuSans-35" x="63.623047"/>
       <use xlink:href="#DejaVuSans-30" x="127.246094"/>
       <use xlink:href="#DejaVuSans-30" x="190.869141"/>
      </g>
     </g>
    </g>
    <g id="xtick_5">
     <g id="line2d_5">
      <g>
       <use xlink:href="#m7c8a14f90b" x="236.698248" y="166.608" style="stroke: #000000; stroke-width: 0.8"/>
      </g>
     </g>
     <g id="text_5">
      <!-- 2000 -->
      <g transform="translate(224.354998 180.978484)scale(0.097 -0.097)">
       <defs>
        <path id="DejaVuSans-32" d="M 1228 531 
L 3431 531 
L 3431 0 
L 469 0 
L 469 531 
Q 828 903 1448 1529 
Q 2069 2156 2228 2338 
Q 2531 2678 2651 2914 
Q 2772 3150 2772 3378 
Q 2772 3750 2511 3984 
Q 2250 4219 1831 4219 
Q 1534 4219 1204 4116 
Q 875 4013 500 3803 
L 500 4441 
Q 881 4594 1212 4672 
Q 1544 4750 1819 4750 
Q 2544 4750 2975 4387 
Q 3406 4025 3406 3419 
Q 3406 3131 3298 2873 
Q 3191 2616 2906 2266 
Q 2828 2175 2409 1742 
Q 1991 1309 1228 531 
z
" transform="scale(0.015625)"/>
       </defs>
       <use xlink:href="#DejaVuSans-32"/>
       <use xlink:href="#DejaVuSans-30" x="63.623047"/>
       <use xlink:href="#DejaVuSans-30" x="127.246094"/>
       <use xlink:href="#DejaVuSans-30" x="190.869141"/>
      </g>
     </g>
    </g>
    <g id="text_6">
     <!-- Learning Curve -->
     <g transform="translate(103.313016 194.366266)scale(0.097 -0.097)">
      <defs>
       <path id="DejaVuSans-4c" d="M 628 4666 
L 1259 4666 
L 1259 531 
L 3531 531 
L 3531 0 
L 628 0 
L 628 4666 
z
" transform="scale(0.015625)"/>
       <path id="DejaVuSans-65" d="M 3597 1894 
L 3597 1613 
L 953 1613 
Q 991 1019 1311 708 
Q 1631 397 2203 397 
Q 2534 397 2845 478 
Q 3156 559 3463 722 
L 3463 178 
Q 3153 47 2828 -22 
Q 2503 -91 2169 -91 
Q 1331 -91 842 396 
Q 353 884 353 1716 
Q 353 2575 817 3079 
Q 1281 3584 2069 3584 
Q 2775 3584 3186 3129 
Q 3597 2675 3597 1894 
z
M 3022 2063 
Q 3016 2534 2758 2815 
Q 2500 3097 2075 3097 
Q 1594 3097 1305 2825 
Q 1016 2553 972 2059 
L 3022 2063 
z
" transform="scale(0.015625)"/>
       <path id="DejaVuSans-61" d="M 2194 1759 
Q 1497 1759 1228 1600 
Q 959 1441 959 1056 
Q 959 750 1161 570 
Q 1363 391 1709 391 
Q 2188 391 2477 730 
Q 2766 1069 2766 1631 
L 2766 1759 
L 2194 1759 
z
M 3341 1997 
L 3341 0 
L 2766 0 
L 2766 531 
Q 2569 213 2275 61 
Q 1981 -91 1556 -91 
Q 1019 -91 701 211 
Q 384 513 384 1019 
Q 384 1609 779 1909 
Q 1175 2209 1959 2209 
L 2766 2209 
L 2766 2266 
Q 2766 2663 2505 2880 
Q 2244 3097 1772 3097 
Q 1472 3097 1187 3025 
Q 903 2953 641 2809 
L 641 3341 
Q 956 3463 1253 3523 
Q 1550 3584 1831 3584 
Q 2591 3584 2966 3190 
Q 3341 2797 3341 1997 
z
" transform="scale(0.015625)"/>
       <path id="DejaVuSans-72" d="M 2631 2963 
Q 2534 3019 2420 3045 
Q 2306 3072 2169 3072 
Q 1681 3072 1420 2755 
Q 1159 2438 1159 1844 
L 1159 0 
L 581 0 
L 581 3500 
L 1159 3500 
L 1159 2956 
Q 1341 3275 1631 3429 
Q 1922 3584 2338 3584 
Q 2397 3584 2469 3576 
Q 2541 3569 2628 3553 
L 2631 2963 
z
" transform="scale(0.015625)"/>
       <path id="DejaVuSans-6e" d="M 3513 2113 
L 3513 0 
L 2938 0 
L 2938 2094 
Q 2938 2591 2744 2837 
Q 2550 3084 2163 3084 
Q 1697 3084 1428 2787 
Q 1159 2491 1159 1978 
L 1159 0 
L 581 0 
L 581 3500 
L 1159 3500 
L 1159 2956 
Q 1366 3272 1645 3428 
Q 1925 3584 2291 3584 
Q 2894 3584 3203 3211 
Q 3513 2838 3513 2113 
z
" transform="scale(0.015625)"/>
       <path id="DejaVuSans-69" d="M 603 3500 
L 1178 3500 
L 1178 0 
L 603 0 
L 603 3500 
z
M 603 4863 
L 1178 4863 
L 1178 4134 
L 603 4134 
L 603 4863 
z
" transform="scale(0.015625)"/>
       <path id="DejaVuSans-67" d="M 2906 1791 
Q 2906 2416 2648 2759 
Q 2391 3103 1925 3103 
Q 1463 3103 1205 2759 
Q 947 2416 947 1791 
Q 947 1169 1205 825 
Q 1463 481 1925 481 
Q 2391 481 2648 825 
Q 2906 1169 2906 1791 
z
M 3481 434 
Q 3481 -459 3084 -895 
Q 2688 -1331 1869 -1331 
Q 1566 -1331 1297 -1286 
Q 1028 -1241 775 -1147 
L 775 -588 
Q 1028 -725 1275 -790 
Q 1522 -856 1778 -856 
Q 2344 -856 2625 -561 
Q 2906 -266 2906 331 
L 2906 616 
Q 2728 306 2450 153 
Q 2172 0 1784 0 
Q 1141 0 747 490 
Q 353 981 353 1791 
Q 353 2603 747 3093 
Q 1141 3584 1784 3584 
Q 2172 3584 2450 3431 
Q 2728 3278 2906 2969 
L 2906 3500 
L 3481 3500 
L 3481 434 
z
" transform="scale(0.015625)"/>
       <path id="DejaVuSans-20" transform="scale(0.015625)"/>
       <path id="DejaVuSans-43" d="M 4122 4306 
L 4122 3641 
Q 3803 3938 3442 4084 
Q 3081 4231 2675 4231 
Q 1875 4231 1450 3742 
Q 1025 3253 1025 2328 
Q 1025 1406 1450 917 
Q 1875 428 2675 428 
Q 3081 428 3442 575 
Q 3803 722 4122 1019 
L 4122 359 
Q 3791 134 3420 21 
Q 3050 -91 2638 -91 
Q 1578 -91 968 557 
Q 359 1206 359 2328 
Q 359 3453 968 4101 
Q 1578 4750 2638 4750 
Q 3056 4750 3426 4639 
Q 3797 4528 4122 4306 
z
" transform="scale(0.015625)"/>
       <path id="DejaVuSans-75" d="M 544 1381 
L 544 3500 
L 1119 3500 
L 1119 1403 
Q 1119 906 1312 657 
Q 1506 409 1894 409 
Q 2359 409 2629 706 
Q 2900 1003 2900 1516 
L 2900 3500 
L 3475 3500 
L 3475 0 
L 2900 0 
L 2900 538 
Q 2691 219 2414 64 
Q 2138 -91 1772 -91 
Q 1169 -91 856 284 
Q 544 659 544 1381 
z
M 1991 3584 
L 1991 3584 
z
" transform="scale(0.015625)"/>
       <path id="DejaVuSans-76" d="M 191 3500 
L 800 3500 
L 1894 563 
L 2988 3500 
L 3597 3500 
L 2284 0 
L 1503 0 
L 191 3500 
z
" transform="scale(0.015625)"/>
      </defs>
      <use xlink:href="#DejaVuSans-4c"/>
      <use xlink:href="#DejaVuSans-65" x="53.962891"/>
      <use xlink:href="#DejaVuSans-61" x="115.486328"/>
      <use xlink:href="#DejaVuSans-72" x="176.765625"/>
      <use xlink:href="#DejaVuSans-6e" x="216.128906"/>
      <use xlink:href="#DejaVuSans-69" x="279.507812"/>
      <use xlink:href="#DejaVuSans-6e" x="307.291016"/>
      <use xlink:href="#DejaVuSans-67" x="370.669922"/>
      <use xlink:href="#DejaVuSans-20" x="434.146484"/>
      <use xlink:href="#DejaVuSans-43" x="465.933594"/>
      <use xlink:href="#DejaVuSans-75" x="535.757812"/>
      <use xlink:href="#DejaVuSans-72" x="599.136719"/>
      <use xlink:href="#DejaVuSans-76" x="640.25"/>
      <use xlink:href="#DejaVuSans-65" x="699.429688"/>
     </g>
    </g>
   </g>
   <g id="matplotlib.axis_2">
    <g id="ytick_1">
     <g id="line2d_6">
      <defs>
       <path id="m1bf6d0be76" d="M 0 0 
L -3.5 0 
" style="stroke: #000000; stroke-width: 0.8"/>
      </defs>
      <g>
       <use xlink:href="#m1bf6d0be76" x="34.2" y="143.351347" style="stroke: #000000; stroke-width: 0.8"/>
      </g>
     </g>
     <g id="text_7">
      <!-- 0.2 -->
      <g transform="translate(11.773969 147.036589)scale(0.097 -0.097)">
       <defs>
        <path id="DejaVuSans-2e" d="M 684 794 
L 1344 794 
L 1344 0 
L 684 0 
L 684 794 
z
" transform="scale(0.015625)"/>
       </defs>
       <use xlink:href="#DejaVuSans-30"/>
       <use xlink:href="#DejaVuSans-2e" x="63.623047"/>
       <use xlink:href="#DejaVuSans-32" x="95.410156"/>
      </g>
     </g>
    </g>
    <g id="ytick_2">
     <g id="line2d_7">
      <g>
       <use xlink:href="#m1bf6d0be76" x="34.2" y="103.53989" style="stroke: #000000; stroke-width: 0.8"/>
      </g>
     </g>
     <g id="text_8">
      <!-- 0.4 -->
      <g transform="translate(11.773969 107.225133)scale(0.097 -0.097)">
       <defs>
        <path id="DejaVuSans-34" d="M 2419 4116 
L 825 1625 
L 2419 1625 
L 2419 4116 
z
M 2253 4666 
L 3047 4666 
L 3047 1625 
L 3713 1625 
L 3713 1100 
L 3047 1100 
L 3047 0 
L 2419 0 
L 2419 1100 
L 313 1100 
L 313 1709 
L 2253 4666 
z
" transform="scale(0.015625)"/>
       </defs>
       <use xlink:href="#DejaVuSans-30"/>
       <use xlink:href="#DejaVuSans-2e" x="63.623047"/>
       <use xlink:href="#DejaVuSans-34" x="95.410156"/>
      </g>
     </g>
    </g>
    <g id="ytick_3">
     <g id="line2d_8">
      <g>
       <use xlink:href="#m1bf6d0be76" x="34.2" y="63.728434" style="stroke: #000000; stroke-width: 0.8"/>
      </g>
     </g>
     <g id="text_9">
      <!-- 0.6 -->
      <g transform="translate(11.773969 67.413676)scale(0.097 -0.097)">
       <defs>
        <path id="DejaVuSans-36" d="M 2113 2584 
Q 1688 2584 1439 2293 
Q 1191 2003 1191 1497 
Q 1191 994 1439 701 
Q 1688 409 2113 409 
Q 2538 409 2786 701 
Q 3034 994 3034 1497 
Q 3034 2003 2786 2293 
Q 2538 2584 2113 2584 
z
M 3366 4563 
L 3366 3988 
Q 3128 4100 2886 4159 
Q 2644 4219 2406 4219 
Q 1781 4219 1451 3797 
Q 1122 3375 1075 2522 
Q 1259 2794 1537 2939 
Q 1816 3084 2150 3084 
Q 2853 3084 3261 2657 
Q 3669 2231 3669 1497 
Q 3669 778 3244 343 
Q 2819 -91 2113 -91 
Q 1303 -91 875 529 
Q 447 1150 447 2328 
Q 447 3434 972 4092 
Q 1497 4750 2381 4750 
Q 2619 4750 2861 4703 
Q 3103 4656 3366 4563 
z
" transform="scale(0.015625)"/>
       </defs>
       <use xlink:href="#DejaVuSans-30"/>
       <use xlink:href="#DejaVuSans-2e" x="63.623047"/>
       <use xlink:href="#DejaVuSans-36" x="95.410156"/>
      </g>
     </g>
    </g>
    <g id="ytick_4">
     <g id="line2d_9">
      <g>
       <use xlink:href="#m1bf6d0be76" x="34.2" y="23.916977" style="stroke: #000000; stroke-width: 0.8"/>
      </g>
     </g>
     <g id="text_10">
      <!-- 0.8 -->
      <g transform="translate(11.773969 27.602219)scale(0.097 -0.097)">
       <defs>
        <path id="DejaVuSans-38" d="M 2034 2216 
Q 1584 2216 1326 1975 
Q 1069 1734 1069 1313 
Q 1069 891 1326 650 
Q 1584 409 2034 409 
Q 2484 409 2743 651 
Q 3003 894 3003 1313 
Q 3003 1734 2745 1975 
Q 2488 2216 2034 2216 
z
M 1403 2484 
Q 997 2584 770 2862 
Q 544 3141 544 3541 
Q 544 4100 942 4425 
Q 1341 4750 2034 4750 
Q 2731 4750 3128 4425 
Q 3525 4100 3525 3541 
Q 3525 3141 3298 2862 
Q 3072 2584 2669 2484 
Q 3125 2378 3379 2068 
Q 3634 1759 3634 1313 
Q 3634 634 3220 271 
Q 2806 -91 2034 -91 
Q 1263 -91 848 271 
Q 434 634 434 1313 
Q 434 1759 690 2068 
Q 947 2378 1403 2484 
z
M 1172 3481 
Q 1172 3119 1398 2916 
Q 1625 2713 2034 2713 
Q 2441 2713 2670 2916 
Q 2900 3119 2900 3481 
Q 2900 3844 2670 4047 
Q 2441 4250 2034 4250 
Q 1625 4250 1398 4047 
Q 1172 3844 1172 3481 
z
" transform="scale(0.015625)"/>
       </defs>
       <use xlink:href="#DejaVuSans-30"/>
       <use xlink:href="#DejaVuSans-2e" x="63.623047"/>
       <use xlink:href="#DejaVuSans-38" x="95.410156"/>
      </g>
     </g>
    </g>
    <g id="text_11">
     <!-- Loss -->
     <g transform="translate(5.756672 105.174172)rotate(-90)scale(0.097 -0.097)">
      <defs>
       <path id="DejaVuSans-6f" d="M 1959 3097 
Q 1497 3097 1228 2736 
Q 959 2375 959 1747 
Q 959 1119 1226 758 
Q 1494 397 1959 397 
Q 2419 397 2687 759 
Q 2956 1122 2956 1747 
Q 2956 2369 2687 2733 
Q 2419 3097 1959 3097 
z
M 1959 3584 
Q 2709 3584 3137 3096 
Q 3566 2609 3566 1747 
Q 3566 888 3137 398 
Q 2709 -91 1959 -91 
Q 1206 -91 779 398 
Q 353 888 353 1747 
Q 353 2609 779 3096 
Q 1206 3584 1959 3584 
z
" transform="scale(0.015625)"/>
       <path id="DejaVuSans-73" d="M 2834 3397 
L 2834 2853 
Q 2591 2978 2328 3040 
Q 2066 3103 1784 3103 
Q 1356 3103 1142 2972 
Q 928 2841 928 2578 
Q 928 2378 1081 2264 
Q 1234 2150 1697 2047 
L 1894 2003 
Q 2506 1872 2764 1633 
Q 3022 1394 3022 966 
Q 3022 478 2636 193 
Q 2250 -91 1575 -91 
Q 1294 -91 989 -36 
Q 684 19 347 128 
L 347 722 
Q 666 556 975 473 
Q 1284 391 1588 391 
Q 1994 391 2212 530 
Q 2431 669 2431 922 
Q 2431 1156 2273 1281 
Q 2116 1406 1581 1522 
L 1381 1569 
Q 847 1681 609 1914 
Q 372 2147 372 2553 
Q 372 3047 722 3315 
Q 1072 3584 1716 3584 
Q 2034 3584 2315 3537 
Q 2597 3491 2834 3397 
z
" transform="scale(0.015625)"/>
      </defs>
      <use xlink:href="#DejaVuSans-4c"/>
      <use xlink:href="#DejaVuSans-6f" x="53.962891"/>
      <use xlink:href="#DejaVuSans-73" x="115.144531"/>
      <use xlink:href="#DejaVuSans-73" x="167.244141"/>
     </g>
    </g>
   </g>
   <g id="line2d_10">
    <path d="M 43.838182 45.149304 
L 43.934612 52.518268 
L 44.031042 50.964141 
L 44.127472 51.051264 
L 44.223902 51.42708 
L 44.416762 50.393708 
L 44.513192 50.754883 
L 44.609622 49.177395 
L 44.898912 50.5657 
L 45.188202 52.829432 
L 46.827513 71.453667 
L 47.502523 80.232458 
L 47.791813 82.461155 
L 47.888243 81.930813 
L 47.984673 82.012347 
L 48.273963 84.572034 
L 48.370393 84.001915 
L 48.466823 83.918216 
L 48.659683 85.378338 
L 48.756114 85.450102 
L 49.141834 88.739707 
L 49.238264 89.046446 
L 49.334694 87.964774 
L 49.431124 88.315751 
L 49.913274 91.633304 
L 50.202564 92.80831 
L 50.395424 93.821778 
L 50.877574 96.431784 
L 51.359724 98.163329 
L 51.456154 97.546155 
L 51.552584 98.299376 
L 51.649015 98.159723 
L 51.745445 98.761312 
L 51.841875 98.611745 
L 51.938305 98.761372 
L 52.324025 100.593341 
L 52.420455 100.609821 
L 52.613315 101.777863 
L 52.709745 101.910018 
L 52.902605 102.576811 
L 52.999035 102.719609 
L 53.384755 104.495997 
L 53.481185 104.316146 
L 53.866905 106.232906 
L 54.059765 105.91235 
L 54.445485 106.820128 
L 54.734776 108.393522 
L 54.831206 108.348134 
L 55.024066 108.572069 
L 55.216926 108.891076 
L 55.409786 109.510736 
L 55.602646 110.006368 
L 55.891936 110.662654 
L 55.988366 110.369061 
L 56.084796 110.49526 
L 56.663376 112.169796 
L 56.856236 112.551117 
L 57.145526 113.480244 
L 57.241956 113.326851 
L 57.338386 113.503897 
L 57.531247 114.323958 
L 57.627677 114.217721 
L 57.724107 114.542026 
L 57.916967 114.080363 
L 58.206257 115.052364 
L 58.495547 115.716036 
L 58.591977 115.726245 
L 58.881267 116.004723 
L 59.074127 115.58493 
L 59.363417 116.226059 
L 59.459847 116.089947 
L 59.845567 117.117861 
L 59.941997 116.72983 
L 60.038427 116.799387 
L 60.424148 117.681103 
L 60.520578 117.717943 
L 61.388448 119.819835 
L 61.677738 119.32825 
L 61.967028 119.778641 
L 62.159888 119.045513 
L 62.256318 119.209982 
L 62.352748 118.827647 
L 62.545608 119.018331 
L 62.738468 118.80976 
L 62.931328 118.786506 
L 63.124188 118.702924 
L 63.509909 119.315525 
L 63.799199 119.850446 
L 63.895629 119.922038 
L 63.992059 119.522238 
L 64.281349 120.079916 
L 64.377779 119.960735 
L 64.956359 120.674642 
L 65.052789 120.531892 
L 65.438509 121.006232 
L 65.631369 120.342109 
L 66.20995 121.411508 
L 66.40281 121.294533 
L 66.98139 121.592819 
L 67.27068 121.16503 
L 67.46354 120.985077 
L 67.94569 121.151201 
L 68.04212 121.194917 
L 68.13855 121.063984 
L 68.71713 121.620737 
L 68.81356 121.344164 
L 69.00642 121.649117 
L 69.102851 121.44871 
L 69.199281 121.620315 
L 69.392141 121.560487 
L 69.874291 121.764181 
L 70.260011 122.187883 
L 70.549301 122.303244 
L 70.935021 122.703198 
L 71.127881 122.763192 
L 71.224311 122.771901 
L 72.092182 123.704208 
L 72.381472 123.404481 
L 72.960052 124.167811 
L 73.056482 123.956103 
L 73.345772 124.268466 
L 73.538632 124.252276 
L 73.635062 124.338954 
L 73.731492 124.184351 
L 74.020782 124.555658 
L 74.310072 124.673166 
L 74.695792 124.853937 
L 74.888653 124.946369 
L 75.081513 125.021123 
L 75.949383 125.964886 
L 76.045813 125.836693 
L 76.720823 126.761093 
L 77.299403 127.238269 
L 77.492263 127.432898 
L 77.685123 127.569622 
L 77.781554 127.527259 
L 78.263704 127.948362 
L 78.360134 127.910875 
L 78.456564 128.003396 
L 78.649424 127.860545 
L 78.938714 128.048607 
L 79.131574 128.017302 
L 79.613724 128.296841 
L 80.192304 128.586276 
L 80.288734 128.428765 
L 80.578024 128.579869 
L 81.156605 128.786297 
L 81.349465 128.913137 
L 81.542325 128.931955 
L 81.638755 128.745079 
L 82.120905 129.150029 
L 83.181635 129.411391 
L 83.278065 129.520054 
L 83.374495 129.376212 
L 83.760216 129.663564 
L 84.049506 129.619392 
L 84.242366 129.726655 
L 84.435226 129.676864 
L 85.013806 129.997984 
L 85.206666 130.102073 
L 85.399526 130.010204 
L 85.978106 130.463995 
L 86.460256 130.402292 
L 86.653117 130.532253 
L 86.845977 130.495164 
L 87.038837 130.49616 
L 87.231697 130.583129 
L 87.520987 130.660706 
L 87.617417 130.392035 
L 87.713847 130.468183 
L 87.810277 130.396408 
L 88.581717 130.820489 
L 88.774577 130.68475 
L 89.063867 130.832033 
L 89.256727 130.592994 
L 89.642448 130.681416 
L 89.931738 130.642696 
L 90.510318 130.75022 
L 90.703178 130.670827 
L 90.992468 130.779656 
L 91.378188 130.906579 
L 91.763908 131.142237 
L 91.956768 131.152108 
L 92.824639 131.613498 
L 93.017499 131.513805 
L 93.210359 131.544819 
L 93.981799 131.999921 
L 94.271089 131.975604 
L 94.367519 131.946803 
L 94.753239 132.198133 
L 94.946099 132.252521 
L 95.23539 132.287374 
L 95.71754 132.509577 
L 96.00683 132.707113 
L 96.39255 132.599452 
L 96.8747 132.699395 
L 97.06756 132.488778 
L 97.54971 132.734123 
L 97.93543 132.820587 
L 98.706871 133.11475 
L 98.899731 133.079535 
L 99.092591 133.089828 
L 99.478311 133.268173 
L 99.671171 133.330427 
L 99.864031 133.037326 
L 100.056891 133.083605 
L 100.442611 133.054744 
L 101.117622 133.126312 
L 101.985492 133.271631 
L 102.178352 133.216947 
L 102.660502 133.450018 
L 105.746263 134.292014 
L 105.842693 134.188597 
L 106.324843 134.398378 
L 106.421273 134.4299 
L 106.517703 134.319824 
L 106.903424 134.511585 
L 107.096284 134.473556 
L 108.253444 134.664783 
L 108.446304 134.659491 
L 109.314174 134.870328 
L 109.603464 134.813845 
L 110.182045 135.046578 
L 110.374905 135.035173 
L 110.760625 135.183044 
L 113.942816 135.952 
L 115.485696 136.15056 
L 115.774987 136.247853 
L 116.064277 136.155605 
L 117.317867 136.585441 
L 117.510727 136.549906 
L 117.896447 136.568925 
L 118.475028 136.72621 
L 118.860748 136.850529 
L 119.921478 137.038763 
L 120.403628 137.052508 
L 120.596488 136.964442 
L 122.042939 137.200076 
L 122.717949 137.347836 
L 122.910809 137.330128 
L 123.296529 137.37727 
L 124.35726 137.682155 
L 124.55012 137.59395 
L 124.93584 137.549552 
L 125.22513 137.599719 
L 125.41799 137.562535 
L 126.38229 137.497949 
L 127.828741 137.757229 
L 128.021601 137.763535 
L 130.239492 137.879976 
L 130.432352 137.926423 
L 130.625212 137.874981 
L 130.914502 137.989959 
L 131.203792 137.960075 
L 131.589512 137.913058 
L 134.289553 138.383245 
L 134.482413 138.389127 
L 135.060993 138.479026 
L 135.350283 138.357463 
L 135.928864 138.489281 
L 136.121724 138.460624 
L 136.700304 138.581019 
L 137.182454 138.61419 
L 138.243184 138.695863 
L 138.532474 138.707574 
L 138.918195 138.731953 
L 139.496775 138.768396 
L 139.786065 138.733644 
L 140.171785 138.803029 
L 140.268215 157.781426 
L 140.364645 152.781041 
L 140.653935 158.83785 
L 140.750365 153.095833 
L 140.846795 155.149459 
L 141.039655 148.277586 
L 141.425375 154.906128 
L 141.618235 157.323459 
L 141.811096 156.396437 
L 142.100386 159.22839 
L 142.196816 160.056 
L 142.293246 158.361913 
L 142.389676 158.516737 
L 142.486106 159.166809 
L 142.582536 158.774424 
L 142.678966 157.374305 
L 142.775396 158.276891 
L 142.968256 156.146987 
L 143.064686 155.845878 
L 143.161116 155.907097 
L 143.257546 156.258346 
L 143.353976 156.09068 
L 143.546836 156.389066 
L 143.739696 154.969818 
L 143.836126 155.132341 
L 143.932556 153.393095 
L 144.221846 154.329597 
L 144.318276 153.539455 
L 144.414706 153.94461 
L 144.703997 152.140104 
L 145.089717 152.961132 
L 145.186147 152.275092 
L 145.764727 154.431693 
L 145.861157 154.557008 
L 146.054017 155.13394 
L 146.150447 154.837479 
L 146.246877 154.923032 
L 146.632597 155.990449 
L 146.729027 156.156262 
L 146.825457 156.039537 
L 147.114747 156.775518 
L 147.307607 155.695949 
L 147.404037 155.690052 
L 148.079048 151.732684 
L 148.175478 151.690345 
L 148.464768 150.75942 
L 148.657628 151.042696 
L 149.043348 150.512517 
L 149.139778 150.351504 
L 149.429068 150.540358 
L 149.718358 150.224418 
L 149.911218 150.211387 
L 150.007648 150.226043 
L 150.104078 150.095647 
L 150.200508 149.768162 
L 150.393369 149.853826 
L 150.489799 149.93442 
L 150.875519 150.688285 
L 150.971949 150.142978 
L 151.164809 150.429123 
L 151.261239 150.006302 
L 151.454099 150.214152 
L 151.839819 150.51699 
L 151.936249 150.649786 
L 152.129109 149.88578 
L 152.321969 150.179501 
L 152.418399 150.403899 
L 152.514829 150.290027 
L 153.189839 151.203873 
L 153.286269 151.156992 
L 153.57556 151.49078 
L 153.67199 151.54262 
L 153.96128 151.213053 
L 154.15414 151.531606 
L 154.25057 151.394833 
L 154.44343 151.662033 
L 154.82915 151.76525 
L 155.02201 152.010693 
L 155.21487 151.523669 
L 155.50416 151.766344 
L 155.60059 151.239924 
L 155.79345 151.538521 
L 155.88988 151.44917 
L 155.98631 151.136389 
L 156.17917 151.263466 
L 156.564891 151.665509 
L 156.661321 151.457425 
L 156.757751 151.57114 
L 156.854181 151.401788 
L 157.143471 151.685884 
L 157.432761 151.779238 
L 157.529191 151.536453 
L 158.107771 152.107791 
L 158.300631 152.16955 
L 158.879211 152.440739 
L 158.975641 152.268763 
L 159.554222 152.570056 
L 159.747082 152.612831 
L 159.939942 152.709208 
L 160.229232 152.946346 
L 160.518522 152.77 
L 160.807812 152.944673 
L 161.000672 152.674994 
L 161.579252 152.760342 
L 161.675682 152.645082 
L 161.964972 152.78675 
L 162.350693 152.622192 
L 162.447123 152.664274 
L 162.639983 152.346545 
L 163.025703 152.285711 
L 163.122133 152.404044 
L 163.218563 151.922389 
L 163.314993 151.982636 
L 163.411423 152.069963 
L 163.604283 152.042001 
L 163.700713 152.141997 
L 163.893573 152.090118 
L 164.761443 152.618805 
L 164.954304 152.614172 
L 165.243594 152.837775 
L 165.340024 152.754873 
L 165.532884 152.780385 
L 165.629314 152.834281 
L 165.725744 152.685488 
L 166.400754 153.073269 
L 166.786474 153.194696 
L 166.979334 153.208459 
L 167.075764 153.258676 
L 167.268624 153.007016 
L 167.654344 153.184308 
L 167.847205 153.19908 
L 168.136495 153.44112 
L 168.329355 153.497677 
L 168.425785 153.259795 
L 168.618645 153.406019 
L 168.907935 153.322713 
L 169.390085 153.609057 
L 169.486515 153.467493 
L 169.968665 153.681832 
L 170.161525 153.670033 
L 170.257955 153.736959 
L 170.450815 153.641433 
L 173.440146 154.216104 
L 173.633007 154.022063 
L 174.115157 154.289814 
L 174.308017 154.160088 
L 174.404447 154.218513 
L 174.500877 154.080995 
L 174.693737 154.095544 
L 174.983027 153.850457 
L 175.079457 153.899408 
L 175.368747 153.710444 
L 175.561607 153.701462 
L 175.754467 153.717121 
L 175.947327 153.783222 
L 176.140187 153.735903 
L 176.525907 153.855241 
L 177.104488 154.08478 
L 177.393778 153.763426 
L 177.683068 153.8755 
L 178.068788 153.85576 
L 178.261648 153.667007 
L 178.454508 153.712808 
L 178.550938 153.762676 
L 178.743798 153.634608 
L 178.936658 153.696942 
L 179.033088 153.7527 
L 179.322378 153.590195 
L 179.418808 153.60451 
L 179.611669 153.528448 
L 179.804529 153.597379 
L 180.190249 153.356377 
L 180.383109 153.345636 
L 181.443839 153.467914 
L 181.636699 153.296988 
L 182.50457 153.446875 
L 182.69743 153.423258 
L 183.75816 153.779132 
L 184.04745 153.74621 
L 184.24031 153.769504 
L 184.5296 153.772948 
L 184.62603 153.825731 
L 184.81889 153.792833 
L 184.91532 153.842018 
L 185.10818 153.732895 
L 186.168911 153.846595 
L 186.265341 153.893511 
L 186.458201 153.665462 
L 186.651061 153.736547 
L 186.843921 153.615841 
L 187.133211 153.567818 
L 188.290372 153.773917 
L 188.483232 153.69079 
L 188.772522 153.587573 
L 188.965382 153.559898 
L 189.254672 153.555422 
L 189.447532 153.485744 
L 190.604692 153.450752 
L 191.279703 153.705538 
L 191.665423 153.462225 
L 192.244003 153.65514 
L 193.594023 153.88016 
L 193.883313 153.865024 
L 194.461894 154.025207 
L 195.426194 153.982393 
L 195.908344 154.106631 
L 196.197634 154.143489 
L 196.679784 154.143996 
L 197.354795 154.240522 
L 197.740515 154.273429 
L 198.704815 154.377684 
L 198.994105 154.368018 
L 199.283395 154.371728 
L 199.572685 154.267586 
L 199.765546 154.303233 
L 200.054836 154.159877 
L 200.536986 154.184553 
L 200.729846 154.121625 
L 201.019136 154.132933 
L 201.308426 154.106851 
L 201.597716 154.068202 
L 201.983436 154.102766 
L 202.851307 154.243595 
L 203.044167 154.185547 
L 203.526317 154.260686 
L 203.912037 154.301175 
L 204.104897 154.186923 
L 204.490617 154.241038 
L 205.069197 154.260452 
L 205.262057 154.083273 
L 205.454917 154.079512 
L 205.744208 154.053492 
L 207.769238 154.179036 
L 208.540679 154.228838 
L 209.022829 154.347234 
L 209.312119 154.13899 
L 209.987129 154.303565 
L 210.372849 154.216024 
L 210.565709 154.232276 
L 210.854999 154.134318 
L 211.337149 154.191387 
L 212.01216 154.234234 
L 212.39788 154.260704 
L 212.59074 154.124713 
L 214.13362 154.370996 
L 214.712201 154.491179 
L 215.483641 154.534696 
L 215.676501 154.582173 
L 215.869361 154.473836 
L 216.062221 154.44335 
L 216.737231 154.419941 
L 217.026521 154.339643 
L 217.219382 154.240949 
L 217.797962 154.186187 
L 218.569402 154.206295 
L 218.762262 154.150982 
L 219.630132 154.113009 
L 221.462303 153.970664 
L 222.040883 154.001 
L 222.426603 153.983814 
L 224.162344 154.081908 
L 224.451634 154.098946 
L 225.030214 154.13756 
L 226.573095 154.130376 
L 227.248105 154.168993 
L 228.887416 154.269386 
L 229.176706 154.273272 
L 229.658856 154.285397 
L 230.044576 154.243711 
L 230.526726 154.303301 
L 230.719586 154.258224 
L 232.262467 154.202875 
L 233.033907 154.219477 
L 236.601818 154.081368 
L 236.601818 154.081368 
" clip-path="url(#pfc88a099ef)" style="fill: none; stroke: #1f77b4; stroke-width: 1.6; stroke-linecap: square"/>
   </g>
   <g id="line2d_11">
    <path d="M 43.838182 56.422218 
L 44.031042 137.34299 
L 44.223902 152.981875 
L 44.513192 131.676275 
L 44.802482 141.357474 
L 44.898912 142.022775 
L 44.995342 140.846638 
L 45.091772 143.523249 
L 45.188202 143.268792 
L 45.284632 144.355534 
L 45.477492 143.085811 
L 45.670352 145.984129 
L 45.766782 145.783603 
L 45.863213 142.933681 
L 46.056073 144.887439 
L 46.152503 144.204303 
L 46.248933 145.605834 
L 46.441793 143.655401 
L 46.827513 144.993091 
L 46.923943 143.446588 
L 47.116803 144.858139 
L 47.309663 144.265901 
L 47.502523 136.551748 
L 47.598953 136.659159 
L 48.177533 140.439316 
L 48.273963 139.660274 
L 48.370393 139.727396 
L 48.563253 140.083252 
L 49.045404 142.495846 
L 49.238264 141.728669 
L 49.334694 142.061664 
L 49.431124 140.019731 
L 49.527554 140.024954 
L 49.623984 140.084314 
L 49.816844 140.640734 
L 49.913274 139.235819 
L 50.009704 139.579463 
L 50.106134 138.407921 
L 50.298994 139.229691 
L 50.395424 138.93053 
L 50.491854 139.031986 
L 50.588284 139.568423 
L 50.684714 139.535507 
L 50.781144 139.890954 
L 50.877574 139.679827 
L 51.070434 140.354557 
L 51.166864 139.903032 
L 51.263294 140.311773 
L 51.359724 140.115322 
L 51.649015 141.298774 
L 51.841875 139.41357 
L 51.938305 139.079883 
L 52.034735 138.050638 
L 52.420455 139.459561 
L 52.516885 139.186889 
L 52.999035 140.845745 
L 53.191895 141.09753 
L 53.288325 141.130902 
L 53.674045 141.939161 
L 53.866905 142.584253 
L 53.963335 142.440369 
L 54.252625 143.284332 
L 54.349055 143.0995 
L 54.638346 142.286919 
L 54.734776 142.475183 
L 54.831206 142.391406 
L 55.024066 143.013454 
L 55.120496 142.903524 
L 55.216926 142.387977 
L 55.409786 142.842017 
L 55.506216 142.543595 
L 55.891936 143.093464 
L 56.084796 142.966196 
L 56.374086 143.506843 
L 56.470516 143.238193 
L 56.663376 143.577844 
L 56.759806 143.490995 
L 57.338386 144.057678 
L 57.434816 143.655345 
L 58.013397 144.390007 
L 58.109827 144.22845 
L 58.302687 144.562603 
L 58.399117 144.487671 
L 58.977697 145.455261 
L 59.170557 145.747849 
L 59.363417 145.878293 
L 59.941997 146.312628 
L 60.327717 146.857335 
L 60.424148 146.886404 
L 60.617008 147.009714 
L 61.002728 147.194309 
L 61.195588 147.39582 
L 61.388448 147.352584 
L 61.484878 147.458845 
L 61.581308 147.368184 
L 62.063458 147.910094 
L 62.159888 147.55408 
L 63.702769 148.921755 
L 63.799199 148.873783 
L 63.895629 148.998141 
L 64.088489 148.730101 
L 64.570639 149.256439 
L 64.956359 149.040551 
L 65.052789 149.088713 
L 65.149219 148.955795 
L 65.245649 148.525888 
L 65.438509 148.593087 
L 65.824229 148.83441 
L 66.017089 148.809094 
L 66.20995 148.724279 
L 66.40281 148.84252 
L 66.59567 148.888516 
L 66.6921 148.734364 
L 67.94569 149.428291 
L 68.13855 149.040842 
L 68.42784 149.324009 
L 68.6207 149.544381 
L 68.81356 149.504314 
L 69.199281 149.444904 
L 69.488571 149.632889 
L 69.681431 149.343485 
L 69.874291 149.333595 
L 69.970721 149.205646 
L 70.260011 149.458931 
L 70.452871 149.345831 
L 70.549301 149.417088 
L 70.742161 148.999944 
L 71.127881 149.030786 
L 71.224311 149.110429 
L 71.417171 148.920231 
L 72.188612 149.422492 
L 72.381472 149.441048 
L 72.477902 149.547908 
L 72.574332 149.349992 
L 73.056482 149.659606 
L 73.345772 149.487095 
L 73.731492 149.708503 
L 74.792222 150.276519 
L 74.985083 150.152304 
L 75.081513 150.238388 
L 75.467233 149.948159 
L 77.395833 150.707965 
L 77.781554 150.562851 
L 78.167274 150.748534 
L 78.263704 150.805763 
L 78.456564 150.696121 
L 78.842284 150.834654 
L 79.035144 150.563556 
L 79.131574 150.606264 
L 79.517294 150.423354 
L 79.710154 150.386882 
L 80.192304 150.550659 
L 80.481594 150.670645 
L 80.578024 150.151215 
L 80.674454 150.220271 
L 81.060175 150.476407 
L 81.349465 150.062847 
L 81.638755 150.117855 
L 82.024475 150.310511 
L 82.217335 150.117392 
L 82.410195 150.118246 
L 82.506625 150.152826 
L 82.699485 149.982594 
L 83.278065 150.28157 
L 83.663786 150.415651 
L 83.760216 150.219921 
L 83.856646 150.267988 
L 84.049506 150.265888 
L 84.145936 150.326846 
L 84.338796 150.044278 
L 84.628086 150.100588 
L 85.303096 150.207516 
L 85.495956 150.052649 
L 85.688816 149.939913 
L 86.170966 150.109199 
L 86.363826 150.114725 
L 86.460256 150.167043 
L 86.556687 149.892911 
L 86.653117 149.951796 
L 86.845977 149.920081 
L 87.231697 150.003526 
L 87.424557 149.718579 
L 87.617417 149.8462 
L 87.810277 149.560244 
L 88.195997 149.730815 
L 88.388857 149.749896 
L 88.581717 149.726603 
L 88.774577 149.610222 
L 88.967437 149.615896 
L 89.256727 149.696093 
L 89.546018 149.670839 
L 90.124598 149.87956 
L 90.510318 149.879264 
L 90.896038 149.980253 
L 91.185328 149.64646 
L 91.860338 149.846977 
L 91.956768 149.780677 
L 92.053198 29.016 
L 92.246058 128.709758 
L 92.438919 149.766884 
L 92.631779 128.237417 
L 92.728209 120.29236 
L 93.017499 133.990904 
L 93.113929 134.323099 
L 93.210359 130.410788 
L 93.403219 134.157307 
L 93.499649 136.292598 
L 93.692509 134.491733 
L 93.981799 140.281568 
L 94.078229 136.571334 
L 94.174659 138.303597 
L 94.271089 137.965888 
L 94.367519 136.728844 
L 94.463949 138.334431 
L 94.656809 136.198805 
L 95.042529 140.064517 
L 95.138959 138.712533 
L 95.33182 140.724001 
L 95.42825 140.59413 
L 95.52468 140.793193 
L 95.71754 134.509408 
L 96.39255 140.835681 
L 96.48898 139.309256 
L 96.68184 140.109244 
L 96.77827 139.973542 
L 96.97113 140.141979 
L 97.26042 142.303337 
L 97.45328 140.5679 
L 97.54971 141.031627 
L 97.74257 137.72965 
L 97.839 137.52161 
L 97.93543 138.158765 
L 98.03186 137.868233 
L 98.128291 136.689545 
L 98.224721 137.316116 
L 98.321151 135.68849 
L 98.417581 135.873966 
L 98.514011 136.184051 
L 98.610441 135.773632 
L 98.706871 135.841519 
L 98.899731 136.498063 
L 99.285451 137.964669 
L 99.381881 136.990221 
L 99.478311 137.523242 
L 99.574741 137.362727 
L 99.864031 138.859879 
L 100.056891 136.212149 
L 100.153321 136.077861 
L 100.249751 135.132301 
L 100.635471 136.911122 
L 100.731901 136.406058 
L 101.310482 138.762964 
L 101.406912 138.897923 
L 101.503342 138.464237 
L 101.889062 139.804825 
L 102.178352 140.576691 
L 102.274782 140.393209 
L 102.564072 141.161033 
L 102.756932 140.114094 
L 102.949792 140.256091 
L 103.239082 141.228665 
L 103.431942 140.450124 
L 103.624802 141.046606 
L 103.721232 140.814725 
L 104.106953 141.261058 
L 104.203383 141.17199 
L 104.299813 141.238382 
L 104.589103 141.983844 
L 104.685533 141.594381 
L 104.878393 142.081567 
L 104.974823 141.590984 
L 105.264113 142.162785 
L 105.360543 141.928198 
L 105.553403 142.268206 
L 105.649833 141.782093 
L 106.131983 142.809098 
L 106.228413 142.752329 
L 106.324843 142.34446 
L 106.517703 142.805139 
L 106.614133 142.617771 
L 107.385574 144.358716 
L 107.674864 144.496291 
L 107.771294 144.706908 
L 107.964154 144.442158 
L 108.060584 144.58743 
L 108.349874 145.002245 
L 108.542734 145.313828 
L 108.735594 145.697281 
L 109.024884 145.57107 
L 109.699894 146.300998 
L 109.796325 146.174775 
L 110.278475 146.97299 
L 110.374905 146.588347 
L 110.857055 147.372921 
L 110.953485 147.195961 
L 111.821355 148.294701 
L 111.917785 147.985811 
L 112.207075 148.211402 
L 112.303505 147.980036 
L 112.785656 148.554393 
L 112.978516 148.446807 
L 113.074946 148.469258 
L 113.267806 148.728802 
L 113.460666 147.870623 
L 113.749956 148.222178 
L 113.846386 148.184 
L 114.039246 148.35931 
L 114.328536 148.131567 
L 114.810686 148.617093 
L 115.003546 148.282587 
L 115.196406 148.365492 
L 115.774987 148.992238 
L 116.064277 149.209469 
L 116.160707 149.340257 
L 116.353567 148.862794 
L 116.546427 149.024335 
L 116.932147 149.42649 
L 117.028577 149.451172 
L 117.221437 149.212608 
L 117.607157 149.567574 
L 117.896447 149.209891 
L 117.992877 149.237716 
L 118.185737 148.985098 
L 118.475028 149.29273 
L 118.571458 149.102743 
L 118.860748 149.353359 
L 118.957178 149.071097 
L 119.053608 149.182528 
L 119.150038 149.050743 
L 119.439328 149.342135 
L 119.632188 148.898563 
L 120.307198 149.587391 
L 120.500058 149.429744 
L 120.596488 149.426425 
L 120.692918 149.534999 
L 120.789348 149.284036 
L 121.271498 149.536613 
L 121.464359 149.530135 
L 121.560789 149.3701 
L 122.139369 149.819646 
L 122.332229 149.895417 
L 123.007239 150.432881 
L 123.200099 150.249669 
L 123.296529 150.345435 
L 123.392959 150.222852 
L 123.489389 150.293634 
L 123.682249 149.913505 
L 123.778679 149.843361 
L 124.45369 150.335558 
L 124.55012 150.089189 
L 125.22513 150.664736 
L 125.41799 150.481613 
L 125.80371 150.31122 
L 125.90014 150.074439 
L 126.47872 150.401985 
L 126.67158 150.030311 
L 126.76801 150.095051 
L 127.0573 150.149305 
L 127.443021 149.926343 
L 127.925171 149.944721 
L 128.118031 150.044993 
L 128.310891 149.960825 
L 128.696611 150.081884 
L 128.793041 149.830416 
L 129.275191 150.209981 
L 129.564481 149.807491 
L 129.660911 149.767038 
L 129.950201 149.87892 
L 130.143062 149.902361 
L 130.239492 149.957025 
L 130.432352 149.845553 
L 130.528782 149.924201 
L 130.914502 149.505492 
L 131.589512 149.955901 
L 131.878802 150.042917 
L 131.975232 149.811107 
L 132.071662 149.882701 
L 132.168092 149.752622 
L 132.360952 149.897879 
L 132.553812 149.574028 
L 132.843102 149.6408 
L 132.939532 149.67212 
L 133.035963 149.455455 
L 133.518113 149.67309 
L 133.710973 149.55807 
L 133.903833 149.606653 
L 134.482413 149.894222 
L 134.675273 150.005255 
L 134.771703 149.720768 
L 134.868133 149.788371 
L 134.964563 149.678115 
L 135.253853 149.746895 
L 135.446713 149.809956 
L 135.639573 149.39515 
L 135.832433 149.524727 
L 136.025294 149.335331 
L 136.411014 149.560595 
L 136.603874 149.56979 
L 136.700304 149.593765 
L 136.893164 149.240264 
L 136.989594 149.301498 
L 137.182454 149.356023 
L 137.471744 149.49893 
L 137.761034 149.475299 
L 138.339614 149.736086 
L 138.436044 149.569772 
L 138.532474 149.6342 
L 138.725334 149.545956 
L 139.111055 149.694233 
L 139.207485 149.47505 
L 139.303915 149.534136 
L 139.400345 149.362578 
L 139.978925 149.687343 
L 140.171785 149.452213 
L 140.171785 149.452213 
" clip-path="url(#pfc88a099ef)" style="fill: none; stroke: #ff7f0e; stroke-width: 1.6; stroke-linecap: square"/>
   </g>
   <g id="patch_3">
    <path d="M 34.2 166.608 
L 34.2 22.464 
" style="fill: none; stroke: #000000; stroke-width: 0.8; stroke-linejoin: miter; stroke-linecap: square"/>
   </g>
   <g id="patch_4">
    <path d="M 246.24 166.608 
L 246.24 22.464 
" style="fill: none; stroke: #000000; stroke-width: 0.8; stroke-linejoin: miter; stroke-linecap: square"/>
   </g>
   <g id="patch_5">
    <path d="M 34.2 166.608 
L 246.24 166.608 
" style="fill: none; stroke: #000000; stroke-width: 0.8; stroke-linejoin: miter; stroke-linecap: square"/>
   </g>
   <g id="patch_6">
    <path d="M 34.2 22.464 
L 246.24 22.464 
" style="fill: none; stroke: #000000; stroke-width: 0.8; stroke-linejoin: miter; stroke-linecap: square"/>
   </g>
  </g>
  <g id="axes_2">
   <g id="matplotlib.axis_3">
    <g id="ytick_5">
     <g id="line2d_12">
      <defs>
       <path id="m1e6329973c" d="M 0 0 
L 3.5 0 
" style="stroke: #000000; stroke-width: 0.8"/>
      </defs>
      <g>
       <use xlink:href="#m1e6329973c" x="246.24" y="148.143273" style="stroke: #000000; stroke-width: 0.8"/>
      </g>
     </g>
     <g id="text_12">
      <!-- 0.6 -->
      <g transform="translate(253.24 151.828516)scale(0.097 -0.097)">
       <use xlink:href="#DejaVuSans-30"/>
       <use xlink:href="#DejaVuSans-2e" x="63.623047"/>
       <use xlink:href="#DejaVuSans-36" x="95.410156"/>
      </g>
     </g>
    </g>
    <g id="ytick_6">
     <g id="line2d_13">
      <g>
       <use xlink:href="#m1e6329973c" x="246.24" y="116.376003" style="stroke: #000000; stroke-width: 0.8"/>
      </g>
     </g>
     <g id="text_13">
      <!-- 0.7 -->
      <g transform="translate(253.24 120.061245)scale(0.097 -0.097)">
       <defs>
        <path id="DejaVuSans-37" d="M 525 4666 
L 3525 4666 
L 3525 4397 
L 1831 0 
L 1172 0 
L 2766 4134 
L 525 4134 
L 525 4666 
z
" transform="scale(0.015625)"/>
       </defs>
       <use xlink:href="#DejaVuSans-30"/>
       <use xlink:href="#DejaVuSans-2e" x="63.623047"/>
       <use xlink:href="#DejaVuSans-37" x="95.410156"/>
      </g>
     </g>
    </g>
    <g id="ytick_7">
     <g id="line2d_14">
      <g>
       <use xlink:href="#m1e6329973c" x="246.24" y="84.608732" style="stroke: #000000; stroke-width: 0.8"/>
      </g>
     </g>
     <g id="text_14">
      <!-- 0.8 -->
      <g transform="translate(253.24 88.293974)scale(0.097 -0.097)">
       <use xlink:href="#DejaVuSans-30"/>
       <use xlink:href="#DejaVuSans-2e" x="63.623047"/>
       <use xlink:href="#DejaVuSans-38" x="95.410156"/>
      </g>
     </g>
    </g>
    <g id="ytick_8">
     <g id="line2d_15">
      <g>
       <use xlink:href="#m1e6329973c" x="246.24" y="52.841461" style="stroke: #000000; stroke-width: 0.8"/>
      </g>
     </g>
     <g id="text_15">
      <!-- 0.9 -->
      <g transform="translate(253.24 56.526703)scale(0.097 -0.097)">
       <defs>
        <path id="DejaVuSans-39" d="M 703 97 
L 703 672 
Q 941 559 1184 500 
Q 1428 441 1663 441 
Q 2288 441 2617 861 
Q 2947 1281 2994 2138 
Q 2813 1869 2534 1725 
Q 2256 1581 1919 1581 
Q 1219 1581 811 2004 
Q 403 2428 403 3163 
Q 403 3881 828 4315 
Q 1253 4750 1959 4750 
Q 2769 4750 3195 4129 
Q 3622 3509 3622 2328 
Q 3622 1225 3098 567 
Q 2575 -91 1691 -91 
Q 1453 -91 1209 -44 
Q 966 3 703 97 
z
M 1959 2075 
Q 2384 2075 2632 2365 
Q 2881 2656 2881 3163 
Q 2881 3666 2632 3958 
Q 2384 4250 1959 4250 
Q 1534 4250 1286 3958 
Q 1038 3666 1038 3163 
Q 1038 2656 1286 2365 
Q 1534 2075 1959 2075 
z
" transform="scale(0.015625)"/>
       </defs>
       <use xlink:href="#DejaVuSans-30"/>
       <use xlink:href="#DejaVuSans-2e" x="63.623047"/>
       <use xlink:href="#DejaVuSans-39" x="95.410156"/>
      </g>
     </g>
    </g>
    <g id="text_16">
     <!-- Acc -->
     <g transform="translate(280.036516 103.102313)rotate(-90)scale(0.097 -0.097)">
      <defs>
       <path id="DejaVuSans-41" d="M 2188 4044 
L 1331 1722 
L 3047 1722 
L 2188 4044 
z
M 1831 4666 
L 2547 4666 
L 4325 0 
L 3669 0 
L 3244 1197 
L 1141 1197 
L 716 0 
L 50 0 
L 1831 4666 
z
" transform="scale(0.015625)"/>
       <path id="DejaVuSans-63" d="M 3122 3366 
L 3122 2828 
Q 2878 2963 2633 3030 
Q 2388 3097 2138 3097 
Q 1578 3097 1268 2742 
Q 959 2388 959 1747 
Q 959 1106 1268 751 
Q 1578 397 2138 397 
Q 2388 397 2633 464 
Q 2878 531 3122 666 
L 3122 134 
Q 2881 22 2623 -34 
Q 2366 -91 2075 -91 
Q 1284 -91 818 406 
Q 353 903 353 1747 
Q 353 2603 823 3093 
Q 1294 3584 2113 3584 
Q 2378 3584 2631 3529 
Q 2884 3475 3122 3366 
z
" transform="scale(0.015625)"/>
      </defs>
      <use xlink:href="#DejaVuSans-41"/>
      <use xlink:href="#DejaVuSans-63" x="66.658203"/>
      <use xlink:href="#DejaVuSans-63" x="121.638672"/>
     </g>
    </g>
   </g>
   <g id="line2d_16">
    <path d="M 43.838182 160.056 
L 44.031042 126.965087 
L 44.127472 135.23782 
L 44.223902 128.288722 
L 44.416762 140.201456 
L 44.513192 140.201456 
L 44.609622 151.231754 
L 44.706052 150.128728 
L 45.670352 109.426908 
L 45.766782 108.056012 
L 45.959643 102.218858 
L 46.056073 102.146906 
L 46.345363 96.815595 
L 46.731083 90.244851 
L 47.406093 80.637823 
L 47.502523 80.637823 
L 47.791813 79.219646 
L 47.984673 79.735335 
L 48.273963 78.103196 
L 48.466823 78.61184 
L 48.659683 77.523375 
L 48.756114 77.583285 
L 49.141834 75.319633 
L 49.238264 75.06462 
L 49.334694 76.18766 
L 49.431124 75.926568 
L 49.913274 73.502596 
L 50.106134 73.11716 
L 50.588284 70.850365 
L 50.684714 70.986317 
L 50.781144 70.84654 
L 50.974004 70.313451 
L 51.166864 70.065916 
L 51.263294 70.201451 
L 51.359724 69.830917 
L 51.456154 70.462373 
L 51.552584 69.852635 
L 51.649015 70.226294 
L 51.745445 69.873312 
L 51.938305 70.360182 
L 52.227595 69.582455 
L 52.324025 69.483578 
L 52.420455 69.828134 
L 52.613315 68.984059 
L 52.709745 69.322859 
L 52.902605 68.725089 
L 52.999035 68.642363 
L 53.384755 67.533827 
L 53.481185 67.663568 
L 53.866905 66.456003 
L 54.059765 67.092192 
L 54.252625 66.794291 
L 54.445485 66.685984 
L 54.927636 65.746915 
L 55.313356 65.581463 
L 56.277656 63.685089 
L 56.470516 63.79154 
L 57.145526 62.640173 
L 57.338386 62.754653 
L 57.531247 62.171708 
L 57.627677 62.299953 
L 57.724107 62.152565 
L 57.916967 62.404057 
L 58.784837 61.292378 
L 58.977697 61.285921 
L 59.170557 61.527831 
L 59.363417 61.150954 
L 59.459847 61.392315 
L 59.845567 60.545496 
L 59.941997 60.783278 
L 60.327717 60.206109 
L 60.520578 59.870433 
L 60.617008 59.87564 
L 61.484878 58.948897 
L 61.677738 59.92932 
L 61.774168 59.827716 
L 61.967028 59.627727 
L 62.159888 60.055634 
L 62.256318 59.955999 
L 62.352748 60.06317 
L 62.545608 59.968724 
L 62.738468 60.178578 
L 62.931328 60.184656 
L 63.124188 60.585713 
L 63.509909 60.105319 
L 63.702769 59.824119 
L 63.895629 59.928298 
L 63.992059 60.121451 
L 64.281349 59.944355 
L 64.377779 60.041054 
L 64.763499 59.78144 
L 64.859929 59.967341 
L 64.956359 59.880791 
L 65.052789 60.064553 
L 65.342079 59.719637 
L 65.438509 59.636134 
L 65.631369 59.908625 
L 66.20995 59.079017 
L 66.30638 59.256 
L 66.6921 59.031415 
L 67.07782 59.14241 
L 67.27068 59.562705 
L 67.46354 59.814765 
L 67.84926 59.830254 
L 68.04212 59.680252 
L 68.13855 59.841558 
L 68.71713 59.403426 
L 68.81356 59.561456 
L 69.199281 59.279138 
L 69.392141 59.439743 
L 69.681431 59.307105 
L 69.874291 59.464529 
L 70.356441 58.912921 
L 70.452871 58.991349 
L 71.031451 58.608393 
L 71.224311 58.693334 
L 71.513601 58.370402 
L 71.802891 58.463504 
L 72.381472 58.777765 
L 72.670762 58.533089 
L 73.442202 58.140307 
L 73.635062 58.093311 
L 73.731492 58.293489 
L 74.020782 58.06434 
L 74.213642 58.144378 
L 74.502932 58.106962 
L 74.599362 57.991233 
L 74.792222 58.070229 
L 75.949383 57.454376 
L 76.045813 57.523582 
L 76.527963 57.045953 
L 76.720823 57.009749 
L 78.456564 56.205703 
L 78.649424 56.340689 
L 79.228004 56.197315 
L 79.517294 56.12737 
L 80.192304 55.950955 
L 80.288734 56.016091 
L 80.481594 55.936886 
L 81.253035 55.730327 
L 81.735185 55.693669 
L 82.120905 55.445491 
L 82.217335 55.409118 
L 82.410195 55.485425 
L 82.603055 55.413189 
L 82.988775 55.417184 
L 83.278065 55.214317 
L 83.374495 55.324479 
L 83.760216 55.137896 
L 83.953076 55.164973 
L 84.531656 55.150791 
L 84.820946 54.95741 
L 85.110236 55.044434 
L 85.206666 55.011601 
L 85.399526 55.268129 
L 86.749547 54.907043 
L 87.038837 54.902082 
L 87.328127 54.80934 
L 88.003137 54.857188 
L 88.485287 54.621526 
L 89.931738 54.731575 
L 90.028168 54.702832 
L 90.221028 54.810438 
L 90.992468 54.826911 
L 93.017499 54.333471 
L 93.210359 54.358617 
L 93.596079 54.216303 
L 93.885369 54.177828 
L 94.174659 54.101823 
L 94.463949 54.102183 
L 94.753239 53.952409 
L 94.946099 53.940745 
L 95.23539 53.867657 
L 96.8747 53.504488 
L 97.16399 53.615578 
L 97.54971 53.489037 
L 97.839 53.421876 
L 98.224721 53.298289 
L 99.671171 53.046854 
L 99.864031 53.14166 
L 100.056891 53.065845 
L 100.346181 53.139104 
L 100.731901 53.022863 
L 101.310482 53.001088 
L 101.696202 52.887707 
L 101.889062 52.913894 
L 103.431942 52.507876 
L 103.817662 52.40167 
L 104.396243 52.38692 
L 104.878393 52.233927 
L 105.746263 52.106572 
L 105.939123 52.133478 
L 106.421273 51.925101 
L 106.614133 51.98272 
L 108.253444 51.761183 
L 108.542734 51.771919 
L 111.532065 51.180794 
L 112.110645 51.038026 
L 114.039246 50.842392 
L 114.617826 50.815486 
L 115.003546 50.735108 
L 115.582127 50.736073 
L 115.871417 50.723293 
L 121.078638 50.088561 
L 121.271498 50.164546 
L 121.657219 50.118838 
L 121.850079 50.145157 
L 122.235799 50.051089 
L 122.428659 50.101721 
L 124.74298 49.934186 
L 125.1287 49.962077 
L 126.67158 50.071065 
L 128.793041 49.933069 
L 129.082331 49.880108 
L 129.660911 49.797534 
L 130.625212 49.831332 
L 131.203792 49.750538 
L 131.782372 49.736072 
L 132.360952 49.656962 
L 132.939532 49.6218 
L 139.689635 49.050141 
L 140.075355 49.077255 
L 140.171785 49.049251 
L 140.364645 40.928734 
L 140.461075 34.310559 
L 140.557505 35.965098 
L 140.653935 32.986924 
L 140.846795 40.928734 
L 140.943225 40.928734 
L 141.039655 43.134786 
L 141.425375 36.346918 
L 141.618235 34.310559 
L 141.811096 36.257072 
L 141.907526 35.413585 
L 142.003956 35.703855 
L 142.196816 34.310559 
L 142.389676 35.74928 
L 142.486106 35.137819 
L 142.582536 35.369467 
L 142.678966 37.110557 
L 142.775396 36.516611 
L 142.968256 36.820893 
L 143.161116 37.726391 
L 143.450406 38.008955 
L 143.546836 37.525096 
L 143.739696 38.245696 
L 143.836126 38.316285 
L 144.028986 39.439647 
L 144.221846 38.565107 
L 144.318276 38.620075 
L 144.414706 38.221289 
L 144.607567 40.065498 
L 144.896857 40.928734 
L 145.282577 39.804899 
L 145.764727 38.19018 
L 145.861157 38.236589 
L 145.957587 37.95056 
L 146.054017 37.999374 
L 146.246877 38.407513 
L 146.439737 37.874196 
L 146.536167 37.920473 
L 146.632597 37.669038 
L 146.729027 37.716962 
L 146.825457 37.763522 
L 147.114747 37.34389 
L 147.404037 38.016737 
L 147.596898 38.092363 
L 148.079048 40.20234 
L 148.175478 40.211106 
L 148.464768 40.697863 
L 148.946918 40.710549 
L 149.139778 40.928734 
L 149.236208 40.928734 
L 149.429068 40.72191 
L 149.911218 41.518476 
L 150.007648 41.512682 
L 150.200508 41.883274 
L 150.296938 41.685102 
L 150.489799 42.04208 
L 150.875519 41.465346 
L 150.971949 41.81509 
L 151.164809 41.45122 
L 151.357669 41.613378 
L 151.454099 41.607527 
L 151.646959 41.762962 
L 151.936249 41.416967 
L 152.129109 41.889446 
L 152.225539 41.881759 
L 152.900549 40.928734 
L 152.996979 40.928734 
L 153.3827 40.493954 
L 153.57556 40.643065 
L 153.96128 40.651056 
L 154.15414 40.517944 
L 154.25057 40.656755 
L 154.53986 40.39572 
L 154.63629 40.39928 
L 154.73272 40.534266 
L 155.02201 40.155173 
L 155.21487 40.419635 
L 155.40773 40.300422 
L 155.50416 40.304379 
L 155.60059 40.556458 
L 155.88988 40.319697 
L 155.98631 40.444477 
L 156.275601 40.215405 
L 156.372031 40.219646 
L 156.564891 40.111188 
L 156.854181 40.354897 
L 157.047041 40.24801 
L 157.143471 40.251873 
L 157.336331 40.14794 
L 157.529191 40.487516 
L 157.625621 40.38027 
L 158.011341 40.070156 
L 158.493491 39.988263 
L 158.686351 39.89465 
L 160.422092 40.077825 
L 160.614952 40.179504 
L 161.772112 40.131012 
L 162.061403 39.966621 
L 162.254263 39.975028 
L 162.350693 40.151822 
L 162.447123 40.069228 
L 162.736413 40.419635 
L 162.832843 40.337326 
L 163.025703 40.509859 
L 163.122133 40.428194 
L 163.314993 40.59783 
L 163.411423 40.516808 
L 163.507853 40.600557 
L 163.700713 40.440501 
L 163.893573 40.525177 
L 164.375723 40.216825 
L 165.050734 40.159187 
L 165.243594 40.088731 
L 166.111464 40.043022 
L 166.304324 39.976296 
L 167.268624 39.939544 
L 167.654344 39.744421 
L 167.943635 39.825708 
L 168.329355 39.636834 
L 168.425785 39.776762 
L 168.618645 39.649975 
L 168.907935 39.796094 
L 169.004365 39.733477 
L 169.197225 39.741411 
L 169.486515 39.687825 
L 170.065095 39.39161 
L 170.547245 39.352983 
L 171.029396 39.191469 
L 171.318686 39.330545 
L 171.897266 39.118286 
L 172.090126 39.129231 
L 173.729437 39.160075 
L 174.115157 39.067371 
L 176.236617 39.123777 
L 177.104488 38.803306 
L 177.393778 38.922709 
L 177.683068 38.887131 
L 179.611669 38.889876 
L 179.804529 38.851495 
L 180.190249 39.015035 
L 180.575969 38.938538 
L 181.058119 38.868366 
L 181.347409 38.789844 
L 181.829559 38.998429 
L 182.311709 38.793347 
L 182.601 38.943272 
L 183.17958 38.791927 
L 183.5653 38.722682 
L 183.75816 38.688505 
L 184.04745 38.746919 
L 184.33674 38.717854 
L 184.5296 38.770625 
L 184.62603 38.732244 
L 184.81889 38.784618 
L 185.10818 38.755818 
L 185.686761 38.699298 
L 185.879621 38.708708 
L 187.808221 38.718213 
L 188.193942 38.656221 
L 188.868952 38.923618 
L 189.254672 38.86136 
L 189.447532 38.908319 
L 189.929682 39.004848 
L 190.122542 39.050594 
L 190.604692 38.992635 
L 191.376133 38.834852 
L 191.761853 38.887604 
L 192.147573 38.792248 
L 192.822583 38.67419 
L 193.304733 38.586541 
L 193.497593 38.559105 
L 193.690453 38.639199 
L 194.944044 38.58673 
L 195.619054 38.477136 
L 197.836945 38.471815 
L 198.126235 38.484085 
L 199.765546 38.647719 
L 200.054836 38.722682 
L 200.440556 38.705016 
L 202.272726 38.678148 
L 202.851307 38.607275 
L 203.815607 38.552212 
L 204.394187 38.48418 
L 204.779907 38.528411 
L 205.069197 38.509609 
L 205.454917 38.641206 
L 205.744208 38.651298 
L 206.129928 38.606574 
L 206.419218 38.616704 
L 207.094228 38.52559 
L 207.383518 38.507451 
L 208.540679 38.464412 
L 209.119259 38.401795 
L 209.312119 38.491905 
L 210.083559 38.381875 
L 210.565709 38.426523 
L 212.01216 38.370287 
L 212.49431 38.360877 
L 213.84433 38.303978 
L 214.808631 38.183988 
L 217.605102 38.382008 
L 217.894392 38.391494 
L 218.280112 38.379508 
L 218.762262 38.419518 
L 220.208713 38.560544 
L 220.690863 38.598508 
L 223.198044 38.576619 
L 223.680194 38.567284 
L 225.126644 38.517335 
L 225.705224 38.511275 
L 229.080276 38.49537 
L 229.851716 38.452256 
L 230.044576 38.478878 
L 231.008876 38.399485 
L 235.058938 38.406566 
L 235.926808 38.34944 
L 236.601818 38.387347 
L 236.601818 38.387347 
" clip-path="url(#pfc88a099ef)" style="fill: none; stroke: #1f77b4; stroke-width: 1.6; stroke-linecap: square"/>
   </g>
   <g id="line2d_17">
    <path d="M 43.838182 60.783278 
L 44.031042 34.310559 
L 44.223902 29.016 
L 44.513192 55.819642 
L 44.898912 44.237831 
L 44.995342 45.510551 
L 45.091772 43.765106 
L 45.188202 44.899639 
L 45.284632 43.410552 
L 45.477492 45.340857 
L 45.670352 42.914196 
L 45.863213 44.538648 
L 45.959643 43.518461 
L 46.152503 44.899639 
L 46.248933 43.983272 
L 46.441793 48.019635 
L 46.538223 47.090487 
L 46.634653 47.546909 
L 46.731083 46.692951 
L 46.923943 47.546909 
L 47.116803 46.034192 
L 47.502523 50.601466 
L 47.598953 50.856006 
L 47.984673 48.148562 
L 48.081103 48.429345 
L 48.177533 47.834661 
L 48.370393 50.028727 
L 48.466823 49.43783 
L 48.563253 49.664725 
L 48.659683 49.104143 
L 48.756114 49.328728 
L 49.045404 47.78757 
L 49.141834 48.019635 
L 49.238264 48.940224 
L 49.334694 48.459773 
L 49.527554 50.194179 
L 49.623984 50.367773 
L 49.720414 49.895294 
L 49.913274 50.235552 
L 50.009704 49.786911 
L 50.106134 49.953518 
L 50.298994 49.104143 
L 50.491854 50.005097 
L 50.588284 49.597621 
L 50.684714 49.75298 
L 50.781144 49.360122 
L 50.877574 49.514478 
L 51.070434 48.766062 
L 51.166864 49.43783 
L 51.263294 49.074188 
L 51.359724 49.222409 
L 51.649015 48.192585 
L 52.034735 50.16341 
L 52.420455 48.870544 
L 52.516885 49.43783 
L 52.902605 48.243557 
L 52.999035 48.374188 
L 53.095465 48.092742 
L 53.288325 48.349119 
L 53.384755 48.076363 
L 53.481185 48.202185 
L 53.866905 47.168725 
L 53.963335 47.297179 
L 54.252625 46.575442 
L 54.445485 47.189175 
L 54.831206 47.662014 
L 55.024066 47.207522 
L 55.120496 47.32257 
L 55.216926 47.769374 
L 55.409786 47.328137 
L 55.506216 47.763902 
L 55.602646 47.546909 
L 55.795506 47.758695 
L 55.891936 47.546909 
L 56.084796 47.753734 
L 56.374086 47.142747 
L 56.470516 47.546909 
L 56.663376 47.151797 
L 56.759806 47.252777 
L 57.049096 46.683673 
L 57.145526 47.070795 
L 57.338386 46.70204 
L 57.434816 46.801201 
L 57.820537 46.096355 
L 57.916967 46.196273 
L 58.013397 46.026523 
L 58.109827 46.125552 
L 58.302687 45.793758 
L 58.399117 45.89237 
L 59.170557 44.651461 
L 59.266987 44.751664 
L 59.556277 44.318531 
L 59.749137 44.516911 
L 60.327717 43.699137 
L 60.424148 43.797882 
L 60.520578 43.667289 
L 60.809868 43.957388 
L 61.195588 43.451679 
L 61.292018 43.54692 
L 61.484878 43.302643 
L 61.581308 43.611772 
L 62.063458 43.018678 
L 62.159888 43.111686 
L 62.352748 42.883332 
L 62.449178 42.975602 
L 62.642038 42.752115 
L 62.738468 42.843645 
L 62.834898 42.733691 
L 62.931328 42.824389 
L 63.606339 42.085308 
L 63.799199 42.265093 
L 63.895629 42.163698 
L 64.088489 42.340189 
L 64.377779 42.04208 
L 64.474209 42.129236 
L 64.570639 42.03176 
L 64.859929 42.288629 
L 65.052789 42.09665 
L 65.245649 42.264241 
L 65.342079 42.169643 
L 65.438509 42.252369 
L 65.534939 42.158661 
L 65.631369 42.240705 
L 65.824229 42.055845 
L 66.113519 42.298021 
L 66.30638 42.116607 
L 66.40281 42.196038 
L 66.49924 42.106553 
L 66.6921 42.263503 
L 66.78853 42.174831 
L 66.98139 42.329263 
L 67.07782 42.241425 
L 67.17425 42.317732 
L 67.75283 41.805849 
L 67.84926 41.881759 
L 67.94569 41.798863 
L 68.13855 41.948921 
L 68.6207 41.544379 
L 68.71713 41.771975 
L 68.81356 41.692373 
L 69.00642 41.838095 
L 69.102851 41.759156 
L 69.199281 41.981621 
L 69.392141 41.824424 
L 69.488571 41.89543 
L 69.681431 42.183484 
L 69.777861 42.105303 
L 69.874291 42.174225 
L 69.970721 42.388624 
L 70.260011 42.156105 
L 70.452871 42.433954 
L 70.549301 42.357116 
L 70.838591 42.553849 
L 71.127881 42.466768 
L 71.224311 42.391691 
L 71.417171 42.658217 
L 71.802891 42.497991 
L 72.285042 42.270263 
L 72.381472 42.332596 
L 72.477902 42.26125 
L 72.574332 42.456013 
L 73.056482 42.234949 
L 73.442202 42.34691 
L 73.635062 42.337765 
L 74.502932 41.737855 
L 74.695792 41.732818 
L 74.792222 41.668648 
L 74.888653 41.850763 
L 75.274373 41.718068 
L 75.467233 42.075348 
L 76.238673 41.576814 
L 76.335103 41.751109 
L 77.106543 41.387808 
L 77.492263 41.496001 
L 78.070844 41.263368 
L 78.456564 41.369952 
L 78.842284 41.256003 
L 79.613724 41.569203 
L 80.192304 41.348935 
L 80.385164 41.346719 
L 80.481594 41.293512 
L 80.674454 41.395287 
L 81.156605 41.235761 
L 81.638755 41.383415 
L 82.313765 41.127284 
L 82.795915 41.271908 
L 83.663786 40.928734 
L 83.953076 40.976355 
L 84.145936 40.88134 
L 84.435226 41.116927 
L 84.628086 41.116037 
L 85.013806 41.207075 
L 85.399526 41.112572 
L 85.881676 41.246763 
L 86.170966 41.199482 
L 86.363826 41.198252 
L 86.460256 41.152827 
L 86.653117 41.241044 
L 86.845977 41.239662 
L 87.038837 41.23828 
L 87.520987 41.366052 
L 87.713847 41.364139 
L 87.906707 41.362246 
L 88.485287 41.185471 
L 88.871007 41.268121 
L 89.256727 41.181116 
L 89.546018 41.221333 
L 90.124598 41.052568 
L 90.510318 41.133419 
L 91.088898 40.969179 
L 91.185328 41.251572 
L 91.281758 41.210654 
L 91.860338 41.048099 
L 91.956768 41.087578 
L 92.053198 100.492367 
L 92.246058 47.546909 
L 92.438919 36.957829 
L 92.631779 55.110554 
L 92.728209 55.819642 
L 92.921069 48.870544 
L 93.113929 50.856006 
L 93.210359 54.674184 
L 93.306789 52.274183 
L 93.403219 52.841468 
L 93.499649 50.856006 
L 93.692509 51.959032 
L 93.981799 47.546909 
L 94.078229 48.148562 
L 94.174659 46.971425 
L 94.271089 47.546909 
L 94.367519 49.664725 
L 94.463949 48.565089 
L 94.560379 49.01763 
L 94.656809 50.856006 
L 94.946099 47.973888 
L 95.042529 48.374188 
L 95.138959 49.953518 
L 95.33182 48.303278 
L 95.62111 51.378492 
L 95.71754 51.619646 
L 96.39255 46.971425 
L 96.48898 48.110162 
L 96.68184 47.006662 
L 96.97113 47.801468 
L 97.26042 46.343605 
L 97.45328 48.940224 
L 97.54971 48.459773 
L 97.74257 50.856006 
L 97.839 51.018751 
L 97.93543 50.535763 
L 98.128291 50.856006 
L 98.224721 50.397823 
L 98.417581 51.300519 
L 98.706871 51.706916 
L 98.803301 51.275468 
L 99.092591 51.660923 
L 99.285451 50.856006 
L 99.381881 51.500641 
L 99.478311 51.110546 
L 99.574741 51.232998 
L 99.864031 50.129612 
L 100.153321 51.439955 
L 100.249751 51.548602 
L 100.635471 50.194179 
L 100.731901 50.746923 
L 101.117622 49.497531 
L 101.214052 49.615097 
L 101.310482 49.32087 
L 101.503342 49.552423 
L 102.081922 47.925093 
L 102.274782 48.165432 
L 102.467642 47.668357 
L 102.949792 48.243557 
L 103.239082 47.546909 
L 103.335512 47.659079 
L 103.431942 48.103061 
L 103.624802 47.656314 
L 104.299813 48.374188 
L 104.589103 47.749 
L 104.685533 47.847745 
L 104.878393 47.448146 
L 104.974823 47.841061 
L 105.167683 47.450304 
L 105.360543 47.642132 
L 105.456973 47.452368 
L 105.649833 47.640125 
L 106.035553 46.912292 
L 106.324843 47.191579 
L 106.517703 46.84566 
L 106.614133 46.937342 
L 107.385574 45.644192 
L 107.674864 45.922817 
L 107.771294 45.771301 
L 107.964154 46.191388 
L 108.253444 45.745512 
L 108.446304 45.921397 
L 108.735594 45.492998 
L 109.024884 45.752158 
L 109.410604 45.20678 
L 109.507034 45.510551 
L 109.699894 45.244934 
L 109.796325 45.328928 
L 110.278475 44.690656 
L 110.374905 44.774897 
L 110.857055 44.170291 
L 110.953485 44.254626 
L 111.049915 44.137553 
L 111.146345 44.221188 
L 111.821355 43.434656 
L 111.917785 43.71029 
L 112.207075 43.386922 
L 112.303505 43.469364 
L 112.592795 43.155406 
L 112.689226 43.237394 
L 112.785656 43.134786 
L 112.882086 43.21613 
L 112.978516 43.114564 
L 113.074946 43.195226 
L 113.267806 42.995048 
L 113.460666 43.154573 
L 113.557096 43.055999 
L 113.653526 43.134786 
L 113.749956 43.037177 
L 113.846386 43.115359 
L 114.039246 42.922849 
L 114.328536 43.153816 
L 114.714256 42.779589 
L 115.099976 43.079648 
L 115.292836 42.89778 
L 115.389266 42.971379 
L 115.774987 42.616769 
L 115.871417 42.690027 
L 116.160707 42.431663 
L 116.353567 42.576741 
L 116.835717 42.160024 
L 117.221437 42.444349 
L 117.317867 42.3631 
L 117.414297 42.432874 
L 117.607157 42.27227 
L 117.896447 42.478715 
L 117.992877 42.399436 
L 118.089307 42.467279 
L 118.185737 42.680598 
L 118.475028 42.444898 
L 118.571458 42.655225 
L 118.860748 42.423161 
L 118.957178 42.488732 
L 119.150038 42.477674 
L 119.439328 42.252369 
L 119.632188 42.519861 
L 120.307198 42.009247 
L 120.596488 42.198897 
L 120.692918 42.128006 
L 120.789348 42.323204 
L 121.367929 42.035377 
L 121.753649 42.149572 
L 122.139369 41.880225 
L 122.235799 42.066884 
L 123.007239 41.668648 
L 123.200099 41.909214 
L 123.489389 41.839497 
L 123.682249 42.075348 
L 123.875109 42.068418 
L 124.45369 41.812477 
L 124.55012 42.103561 
L 124.64655 42.041531 
L 125.41799 41.672568 
L 125.99657 41.884902 
L 126.47872 41.705173 
L 126.96087 41.858564 
L 127.153731 41.85347 
L 127.635881 42.001957 
L 128.118031 41.828798 
L 128.600181 41.973706 
L 128.696611 41.918852 
L 128.889471 42.01737 
L 129.275191 41.800889 
L 129.564481 42.048726 
L 129.853771 42.090704 
L 130.239492 41.97897 
L 130.432352 41.973706 
L 130.625212 41.968499 
L 131.107362 42.102406 
L 131.878802 41.79197 
L 132.264522 41.87871 
L 132.360952 41.829063 
L 132.553812 42.013431 
L 132.939532 41.909782 
L 133.132393 41.998189 
L 133.518113 41.89613 
L 133.807403 41.935193 
L 134.675273 41.601013 
L 134.964563 41.819066 
L 135.253853 41.768908 
L 135.736003 41.890848 
L 135.928864 41.886625 
L 136.121724 41.882441 
L 136.603874 41.743497 
L 137.182454 41.902417 
L 137.471744 41.854152 
L 137.761034 41.890109 
L 137.953894 41.802839 
L 138.146754 41.882081 
L 138.532474 41.79197 
L 138.821765 41.827492 
L 139.111055 41.781386 
L 139.496775 42.09665 
L 139.978925 41.965318 
L 140.171785 42.040584 
L 140.171785 42.040584 
" clip-path="url(#pfc88a099ef)" style="fill: none; stroke: #ff7f0e; stroke-width: 1.6; stroke-linecap: square"/>
   </g>
   <g id="patch_7">
    <path d="M 34.2 166.608 
L 34.2 22.464 
" style="fill: none; stroke: #000000; stroke-width: 0.8; stroke-linejoin: miter; stroke-linecap: square"/>
   </g>
   <g id="patch_8">
    <path d="M 246.24 166.608 
L 246.24 22.464 
" style="fill: none; stroke: #000000; stroke-width: 0.8; stroke-linejoin: miter; stroke-linecap: square"/>
   </g>
   <g id="patch_9">
    <path d="M 34.2 166.608 
L 246.24 166.608 
" style="fill: none; stroke: #000000; stroke-width: 0.8; stroke-linejoin: miter; stroke-linecap: square"/>
   </g>
   <g id="patch_10">
    <path d="M 34.2 22.464 
L 246.24 22.464 
" style="fill: none; stroke: #000000; stroke-width: 0.8; stroke-linejoin: miter; stroke-linecap: square"/>
   </g>
  </g>
 </g>
 <defs>
  <clipPath id="pfc88a099ef">
   <rect x="34.2" y="22.464" width="212.04" height="144.144"/>
  </clipPath>
 </defs>
</svg>
