<?xml version="1.0" encoding="utf-8" standalone="no"?>
<!DOCTYPE svg PUBLIC "-//W3C//DTD SVG 1.1//EN"
  "http://www.w3.org/Graphics/SVG/1.1/DTD/svg11.dtd">
<svg xmlns:xlink="http://www.w3.org/1999/xlink" width="273.6pt" height="187.2pt" viewBox="0 0 273.6 187.2" xmlns="http://www.w3.org/2000/svg" version="1.1">
 <metadata>
  <rdf:RDF xmlns:dc="http://purl.org/dc/elements/1.1/" xmlns:cc="http://creativecommons.org/ns#" xmlns:rdf="http://www.w3.org/1999/02/22-rdf-syntax-ns#">
   <cc:Work>
    <dc:type rdf:resource="http://purl.org/dc/dcmitype/StillImage"/>
    <dc:date>2022-04-20T17:15:30.082289</dc:date>
    <dc:format>image/svg+xml</dc:format>
    <dc:creator>
     <cc:Agent>
      <dc:title>Matplotlib v3.5.1, https://matplotlib.org/</dc:title>
     </cc:Agent>
    </dc:creator>
   </cc:Work>
  </rdf:RDF>
 </metadata>
 <defs>
  <style type="text/css">*{stroke-linejoin: round; stroke-linecap: butt}</style>
 </defs>
 <g id="figure_1">
  <g id="patch_1">
   <path d="M 0 187.2 
L 273.6 187.2 
L 273.6 0 
L 0 0 
L 0 187.2 
z
" style="fill: none"/>
  </g>
  <g id="axes_1">
   <g id="patch_2">
    <path d="M 34.2 163.8 
L 246.24 163.8 
L 246.24 22.464 
L 34.2 22.464 
z
" style="fill: #ffffff"/>
   </g>
   <g id="matplotlib.axis_1">
    <g id="xtick_1">
     <g id="line2d_1">
      <defs>
       <path id="me97b705d40" d="M 0 0 
L 0 3.5 
" style="stroke: #000000; stroke-width: 0.8"/>
      </defs>
      <g>
       <use xlink:href="#me97b705d40" x="43.838182" y="163.8" style="stroke: #000000; stroke-width: 0.8"/>
      </g>
     </g>
     <g id="text_1">
      <!-- 0 -->
      <g transform="translate(40.752369 178.170484)scale(0.097 -0.097)">
       <defs>
        <path id="DejaVuSans-30" d="M 2034 4250 
Q 1547 4250 1301 3770 
Q 1056 3291 1056 2328 
Q 1056 1369 1301 889 
Q 1547 409 2034 409 
Q 2525 409 2770 889 
Q 3016 1369 3016 2328 
Q 3016 3291 2770 3770 
Q 2525 4250 2034 4250 
z
M 2034 4750 
Q 2819 4750 3233 4129 
Q 3647 3509 3647 2328 
Q 3647 1150 3233 529 
Q 2819 -91 2034 -91 
Q 1250 -91 836 529 
Q 422 1150 422 2328 
Q 422 3509 836 4129 
Q 1250 4750 2034 4750 
z
" transform="scale(0.015625)"/>
       </defs>
       <use xlink:href="#DejaVuSans-30"/>
      </g>
     </g>
    </g>
    <g id="xtick_2">
     <g id="line2d_2">
      <g>
       <use xlink:href="#me97b705d40" x="92.053198" y="163.8" style="stroke: #000000; stroke-width: 0.8"/>
      </g>
     </g>
     <g id="text_2">
      <!-- 500 -->
      <g transform="translate(82.795761 178.170484)scale(0.097 -0.097)">
       <defs>
        <path id="DejaVuSans-35" d="M 691 4666 
L 3169 4666 
L 3169 4134 
L 1269 4134 
L 1269 2991 
Q 1406 3038 1543 3061 
Q 1681 3084 1819 3084 
Q 2600 3084 3056 2656 
Q 3513 2228 3513 1497 
Q 3513 744 3044 326 
Q 2575 -91 1722 -91 
Q 1428 -91 1123 -41 
Q 819 9 494 109 
L 494 744 
Q 775 591 1075 516 
Q 1375 441 1709 441 
Q 2250 441 2565 725 
Q 2881 1009 2881 1497 
Q 2881 1984 2565 2268 
Q 2250 2553 1709 2553 
Q 1456 2553 1204 2497 
Q 953 2441 691 2322 
L 691 4666 
z
" transform="scale(0.015625)"/>
       </defs>
       <use xlink:href="#DejaVuSans-35"/>
       <use xlink:href="#DejaVuSans-30" x="63.623047"/>
       <use xlink:href="#DejaVuSans-30" x="127.246094"/>
      </g>
     </g>
    </g>
    <g id="xtick_3">
     <g id="line2d_3">
      <g>
       <use xlink:href="#me97b705d40" x="140.268215" y="163.8" style="stroke: #000000; stroke-width: 0.8"/>
      </g>
     </g>
     <g id="text_3">
      <!-- 1000 -->
      <g transform="translate(127.924965 178.170484)scale(0.097 -0.097)">
       <defs>
        <path id="DejaVuSans-31" d="M 794 531 
L 1825 531 
L 1825 4091 
L 703 3866 
L 703 4441 
L 1819 4666 
L 2450 4666 
L 2450 531 
L 3481 531 
L 3481 0 
L 794 0 
L 794 531 
z
" transform="scale(0.015625)"/>
       </defs>
       <use xlink:href="#DejaVuSans-31"/>
       <use xlink:href="#DejaVuSans-30" x="63.623047"/>
       <use xlink:href="#DejaVuSans-30" x="127.246094"/>
       <use xlink:href="#DejaVuSans-30" x="190.869141"/>
      </g>
     </g>
    </g>
    <g id="xtick_4">
     <g id="line2d_4">
      <g>
       <use xlink:href="#me97b705d40" x="188.483232" y="163.8" style="stroke: #000000; stroke-width: 0.8"/>
      </g>
     </g>
     <g id="text_4">
      <!-- 1500 -->
      <g transform="translate(176.139982 178.170484)scale(0.097 -0.097)">
       <use xlink:href="#DejaVuSans-31"/>
       <use xlink:href="#DejaVuSans-35" x="63.623047"/>
       <use xlink:href="#DejaVuSans-30" x="127.246094"/>
       <use xlink:href="#DejaVuSans-30" x="190.869141"/>
      </g>
     </g>
    </g>
    <g id="xtick_5">
     <g id="line2d_5">
      <g>
       <use xlink:href="#me97b705d40" x="236.698248" y="163.8" style="stroke: #000000; stroke-width: 0.8"/>
      </g>
     </g>
     <g id="text_5">
      <!-- 2000 -->
      <g transform="translate(224.354998 178.170484)scale(0.097 -0.097)">
       <defs>
        <path id="DejaVuSans-32" d="M 1228 531 
L 3431 531 
L 3431 0 
L 469 0 
L 469 531 
Q 828 903 1448 1529 
Q 2069 2156 2228 2338 
Q 2531 2678 2651 2914 
Q 2772 3150 2772 3378 
Q 2772 3750 2511 3984 
Q 2250 4219 1831 4219 
Q 1534 4219 1204 4116 
Q 875 4013 500 3803 
L 500 4441 
Q 881 4594 1212 4672 
Q 1544 4750 1819 4750 
Q 2544 4750 2975 4387 
Q 3406 4025 3406 3419 
Q 3406 3131 3298 2873 
Q 3191 2616 2906 2266 
Q 2828 2175 2409 1742 
Q 1991 1309 1228 531 
z
" transform="scale(0.015625)"/>
       </defs>
       <use xlink:href="#DejaVuSans-32"/>
       <use xlink:href="#DejaVuSans-30" x="63.623047"/>
       <use xlink:href="#DejaVuSans-30" x="127.246094"/>
       <use xlink:href="#DejaVuSans-30" x="190.869141"/>
      </g>
     </g>
    </g>
    <g id="text_6">
     <!-- Learning Curve -->
     <g transform="translate(103.313016 191.558266)scale(0.097 -0.097)">
      <defs>
       <path id="DejaVuSans-4c" d="M 628 4666 
L 1259 4666 
L 1259 531 
L 3531 531 
L 3531 0 
L 628 0 
L 628 4666 
z
" transform="scale(0.015625)"/>
       <path id="DejaVuSans-65" d="M 3597 1894 
L 3597 1613 
L 953 1613 
Q 991 1019 1311 708 
Q 1631 397 2203 397 
Q 2534 397 2845 478 
Q 3156 559 3463 722 
L 3463 178 
Q 3153 47 2828 -22 
Q 2503 -91 2169 -91 
Q 1331 -91 842 396 
Q 353 884 353 1716 
Q 353 2575 817 3079 
Q 1281 3584 2069 3584 
Q 2775 3584 3186 3129 
Q 3597 2675 3597 1894 
z
M 3022 2063 
Q 3016 2534 2758 2815 
Q 2500 3097 2075 3097 
Q 1594 3097 1305 2825 
Q 1016 2553 972 2059 
L 3022 2063 
z
" transform="scale(0.015625)"/>
       <path id="DejaVuSans-61" d="M 2194 1759 
Q 1497 1759 1228 1600 
Q 959 1441 959 1056 
Q 959 750 1161 570 
Q 1363 391 1709 391 
Q 2188 391 2477 730 
Q 2766 1069 2766 1631 
L 2766 1759 
L 2194 1759 
z
M 3341 1997 
L 3341 0 
L 2766 0 
L 2766 531 
Q 2569 213 2275 61 
Q 1981 -91 1556 -91 
Q 1019 -91 701 211 
Q 384 513 384 1019 
Q 384 1609 779 1909 
Q 1175 2209 1959 2209 
L 2766 2209 
L 2766 2266 
Q 2766 2663 2505 2880 
Q 2244 3097 1772 3097 
Q 1472 3097 1187 3025 
Q 903 2953 641 2809 
L 641 3341 
Q 956 3463 1253 3523 
Q 1550 3584 1831 3584 
Q 2591 3584 2966 3190 
Q 3341 2797 3341 1997 
z
" transform="scale(0.015625)"/>
       <path id="DejaVuSans-72" d="M 2631 2963 
Q 2534 3019 2420 3045 
Q 2306 3072 2169 3072 
Q 1681 3072 1420 2755 
Q 1159 2438 1159 1844 
L 1159 0 
L 581 0 
L 581 3500 
L 1159 3500 
L 1159 2956 
Q 1341 3275 1631 3429 
Q 1922 3584 2338 3584 
Q 2397 3584 2469 3576 
Q 2541 3569 2628 3553 
L 2631 2963 
z
" transform="scale(0.015625)"/>
       <path id="DejaVuSans-6e" d="M 3513 2113 
L 3513 0 
L 2938 0 
L 2938 2094 
Q 2938 2591 2744 2837 
Q 2550 3084 2163 3084 
Q 1697 3084 1428 2787 
Q 1159 2491 1159 1978 
L 1159 0 
L 581 0 
L 581 3500 
L 1159 3500 
L 1159 2956 
Q 1366 3272 1645 3428 
Q 1925 3584 2291 3584 
Q 2894 3584 3203 3211 
Q 3513 2838 3513 2113 
z
" transform="scale(0.015625)"/>
       <path id="DejaVuSans-69" d="M 603 3500 
L 1178 3500 
L 1178 0 
L 603 0 
L 603 3500 
z
M 603 4863 
L 1178 4863 
L 1178 4134 
L 603 4134 
L 603 4863 
z
" transform="scale(0.015625)"/>
       <path id="DejaVuSans-67" d="M 2906 1791 
Q 2906 2416 2648 2759 
Q 2391 3103 1925 3103 
Q 1463 3103 1205 2759 
Q 947 2416 947 1791 
Q 947 1169 1205 825 
Q 1463 481 1925 481 
Q 2391 481 2648 825 
Q 2906 1169 2906 1791 
z
M 3481 434 
Q 3481 -459 3084 -895 
Q 2688 -1331 1869 -1331 
Q 1566 -1331 1297 -1286 
Q 1028 -1241 775 -1147 
L 775 -588 
Q 1028 -725 1275 -790 
Q 1522 -856 1778 -856 
Q 2344 -856 2625 -561 
Q 2906 -266 2906 331 
L 2906 616 
Q 2728 306 2450 153 
Q 2172 0 1784 0 
Q 1141 0 747 490 
Q 353 981 353 1791 
Q 353 2603 747 3093 
Q 1141 3584 1784 3584 
Q 2172 3584 2450 3431 
Q 2728 3278 2906 2969 
L 2906 3500 
L 3481 3500 
L 3481 434 
z
" transform="scale(0.015625)"/>
       <path id="DejaVuSans-20" transform="scale(0.015625)"/>
       <path id="DejaVuSans-43" d="M 4122 4306 
L 4122 3641 
Q 3803 3938 3442 4084 
Q 3081 4231 2675 4231 
Q 1875 4231 1450 3742 
Q 1025 3253 1025 2328 
Q 1025 1406 1450 917 
Q 1875 428 2675 428 
Q 3081 428 3442 575 
Q 3803 722 4122 1019 
L 4122 359 
Q 3791 134 3420 21 
Q 3050 -91 2638 -91 
Q 1578 -91 968 557 
Q 359 1206 359 2328 
Q 359 3453 968 4101 
Q 1578 4750 2638 4750 
Q 3056 4750 3426 4639 
Q 3797 4528 4122 4306 
z
" transform="scale(0.015625)"/>
       <path id="DejaVuSans-75" d="M 544 1381 
L 544 3500 
L 1119 3500 
L 1119 1403 
Q 1119 906 1312 657 
Q 1506 409 1894 409 
Q 2359 409 2629 706 
Q 2900 1003 2900 1516 
L 2900 3500 
L 3475 3500 
L 3475 0 
L 2900 0 
L 2900 538 
Q 2691 219 2414 64 
Q 2138 -91 1772 -91 
Q 1169 -91 856 284 
Q 544 659 544 1381 
z
M 1991 3584 
L 1991 3584 
z
" transform="scale(0.015625)"/>
       <path id="DejaVuSans-76" d="M 191 3500 
L 800 3500 
L 1894 563 
L 2988 3500 
L 3597 3500 
L 2284 0 
L 1503 0 
L 191 3500 
z
" transform="scale(0.015625)"/>
      </defs>
      <use xlink:href="#DejaVuSans-4c"/>
      <use xlink:href="#DejaVuSans-65" x="53.962891"/>
      <use xlink:href="#DejaVuSans-61" x="115.486328"/>
      <use xlink:href="#DejaVuSans-72" x="176.765625"/>
      <use xlink:href="#DejaVuSans-6e" x="216.128906"/>
      <use xlink:href="#DejaVuSans-69" x="279.507812"/>
      <use xlink:href="#DejaVuSans-6e" x="307.291016"/>
      <use xlink:href="#DejaVuSans-67" x="370.669922"/>
      <use xlink:href="#DejaVuSans-20" x="434.146484"/>
      <use xlink:href="#DejaVuSans-43" x="465.933594"/>
      <use xlink:href="#DejaVuSans-75" x="535.757812"/>
      <use xlink:href="#DejaVuSans-72" x="599.136719"/>
      <use xlink:href="#DejaVuSans-76" x="640.25"/>
      <use xlink:href="#DejaVuSans-65" x="699.429688"/>
     </g>
    </g>
   </g>
   <g id="matplotlib.axis_2">
    <g id="ytick_1">
     <g id="line2d_6">
      <defs>
       <path id="m945f6009e6" d="M 0 0 
L -3.5 0 
" style="stroke: #000000; stroke-width: 0.8"/>
      </defs>
      <g>
       <use xlink:href="#m945f6009e6" x="34.2" y="158.710069" style="stroke: #000000; stroke-width: 0.8"/>
      </g>
     </g>
     <g id="text_7">
      <!-- 0.00 -->
      <g transform="translate(5.602344 162.395311)scale(0.097 -0.097)">
       <defs>
        <path id="DejaVuSans-2e" d="M 684 794 
L 1344 794 
L 1344 0 
L 684 0 
L 684 794 
z
" transform="scale(0.015625)"/>
       </defs>
       <use xlink:href="#DejaVuSans-30"/>
       <use xlink:href="#DejaVuSans-2e" x="63.623047"/>
       <use xlink:href="#DejaVuSans-30" x="95.410156"/>
       <use xlink:href="#DejaVuSans-30" x="159.033203"/>
      </g>
     </g>
    </g>
    <g id="ytick_2">
     <g id="line2d_7">
      <g>
       <use xlink:href="#m945f6009e6" x="34.2" y="135.90267" style="stroke: #000000; stroke-width: 0.8"/>
      </g>
     </g>
     <g id="text_8">
      <!-- 0.25 -->
      <g transform="translate(5.602344 139.587912)scale(0.097 -0.097)">
       <use xlink:href="#DejaVuSans-30"/>
       <use xlink:href="#DejaVuSans-2e" x="63.623047"/>
       <use xlink:href="#DejaVuSans-32" x="95.410156"/>
       <use xlink:href="#DejaVuSans-35" x="159.033203"/>
      </g>
     </g>
    </g>
    <g id="ytick_3">
     <g id="line2d_8">
      <g>
       <use xlink:href="#m945f6009e6" x="34.2" y="113.09527" style="stroke: #000000; stroke-width: 0.8"/>
      </g>
     </g>
     <g id="text_9">
      <!-- 0.50 -->
      <g transform="translate(5.602344 116.780512)scale(0.097 -0.097)">
       <use xlink:href="#DejaVuSans-30"/>
       <use xlink:href="#DejaVuSans-2e" x="63.623047"/>
       <use xlink:href="#DejaVuSans-35" x="95.410156"/>
       <use xlink:href="#DejaVuSans-30" x="159.033203"/>
      </g>
     </g>
    </g>
    <g id="ytick_4">
     <g id="line2d_9">
      <g>
       <use xlink:href="#m945f6009e6" x="34.2" y="90.287871" style="stroke: #000000; stroke-width: 0.8"/>
      </g>
     </g>
     <g id="text_10">
      <!-- 0.75 -->
      <g transform="translate(5.602344 93.973113)scale(0.097 -0.097)">
       <defs>
        <path id="DejaVuSans-37" d="M 525 4666 
L 3525 4666 
L 3525 4397 
L 1831 0 
L 1172 0 
L 2766 4134 
L 525 4134 
L 525 4666 
z
" transform="scale(0.015625)"/>
       </defs>
       <use xlink:href="#DejaVuSans-30"/>
       <use xlink:href="#DejaVuSans-2e" x="63.623047"/>
       <use xlink:href="#DejaVuSans-37" x="95.410156"/>
       <use xlink:href="#DejaVuSans-35" x="159.033203"/>
      </g>
     </g>
    </g>
    <g id="ytick_5">
     <g id="line2d_10">
      <g>
       <use xlink:href="#m945f6009e6" x="34.2" y="67.480472" style="stroke: #000000; stroke-width: 0.8"/>
      </g>
     </g>
     <g id="text_11">
      <!-- 1.00 -->
      <g transform="translate(5.602344 71.165714)scale(0.097 -0.097)">
       <use xlink:href="#DejaVuSans-31"/>
       <use xlink:href="#DejaVuSans-2e" x="63.623047"/>
       <use xlink:href="#DejaVuSans-30" x="95.410156"/>
       <use xlink:href="#DejaVuSans-30" x="159.033203"/>
      </g>
     </g>
    </g>
    <g id="ytick_6">
     <g id="line2d_11">
      <g>
       <use xlink:href="#m945f6009e6" x="34.2" y="44.673072" style="stroke: #000000; stroke-width: 0.8"/>
      </g>
     </g>
     <g id="text_12">
      <!-- 1.25 -->
      <g transform="translate(5.602344 48.358314)scale(0.097 -0.097)">
       <use xlink:href="#DejaVuSans-31"/>
       <use xlink:href="#DejaVuSans-2e" x="63.623047"/>
       <use xlink:href="#DejaVuSans-32" x="95.410156"/>
       <use xlink:href="#DejaVuSans-35" x="159.033203"/>
      </g>
     </g>
    </g>
    <g id="text_13">
     <!-- Loss -->
     <g transform="translate(-0.414953 103.770172)rotate(-90)scale(0.097 -0.097)">
      <defs>
       <path id="DejaVuSans-6f" d="M 1959 3097 
Q 1497 3097 1228 2736 
Q 959 2375 959 1747 
Q 959 1119 1226 758 
Q 1494 397 1959 397 
Q 2419 397 2687 759 
Q 2956 1122 2956 1747 
Q 2956 2369 2687 2733 
Q 2419 3097 1959 3097 
z
M 1959 3584 
Q 2709 3584 3137 3096 
Q 3566 2609 3566 1747 
Q 3566 888 3137 398 
Q 2709 -91 1959 -91 
Q 1206 -91 779 398 
Q 353 888 353 1747 
Q 353 2609 779 3096 
Q 1206 3584 1959 3584 
z
" transform="scale(0.015625)"/>
       <path id="DejaVuSans-73" d="M 2834 3397 
L 2834 2853 
Q 2591 2978 2328 3040 
Q 2066 3103 1784 3103 
Q 1356 3103 1142 2972 
Q 928 2841 928 2578 
Q 928 2378 1081 2264 
Q 1234 2150 1697 2047 
L 1894 2003 
Q 2506 1872 2764 1633 
Q 3022 1394 3022 966 
Q 3022 478 2636 193 
Q 2250 -91 1575 -91 
Q 1294 -91 989 -36 
Q 684 19 347 128 
L 347 722 
Q 666 556 975 473 
Q 1284 391 1588 391 
Q 1994 391 2212 530 
Q 2431 669 2431 922 
Q 2431 1156 2273 1281 
Q 2116 1406 1581 1522 
L 1381 1569 
Q 847 1681 609 1914 
Q 372 2147 372 2553 
Q 372 3047 722 3315 
Q 1072 3584 1716 3584 
Q 2034 3584 2315 3537 
Q 2597 3491 2834 3397 
z
" transform="scale(0.015625)"/>
      </defs>
      <use xlink:href="#DejaVuSans-4c"/>
      <use xlink:href="#DejaVuSans-6f" x="53.962891"/>
      <use xlink:href="#DejaVuSans-73" x="115.144531"/>
      <use xlink:href="#DejaVuSans-73" x="167.244141"/>
     </g>
    </g>
   </g>
   <g id="line2d_12">
    <path d="M 43.838182 32.465179 
L 44.031042 29.424554 
L 44.127472 28.888364 
L 44.609622 30.874138 
L 44.706052 30.570464 
L 44.898912 31.799549 
L 44.995342 31.670871 
L 45.477492 33.604683 
L 45.863213 35.853969 
L 45.959643 36.212162 
L 50.009704 74.108439 
L 51.841875 86.125414 
L 52.034735 86.744416 
L 52.516885 89.318284 
L 53.288325 93.500882 
L 53.866905 96.042537 
L 55.313356 100.769167 
L 55.409786 100.489103 
L 55.988366 102.257081 
L 56.084796 102.24179 
L 56.277656 102.46826 
L 57.241956 104.384438 
L 57.627677 105.269305 
L 58.302687 106.768383 
L 58.688407 107.418798 
L 59.845567 109.656078 
L 59.941997 109.581179 
L 60.134857 109.853418 
L 60.424148 110.375372 
L 60.713438 110.756931 
L 61.581308 112.28776 
L 61.967028 112.868811 
L 62.352748 113.494746 
L 63.220618 114.612592 
L 63.509909 114.751824 
L 64.763499 116.461029 
L 64.956359 116.445292 
L 65.149219 116.647611 
L 65.245649 116.548046 
L 65.920659 117.153461 
L 67.46354 118.298129 
L 67.84926 118.661583 
L 68.04212 118.696202 
L 68.13855 118.66637 
L 68.42784 118.936595 
L 69.00642 119.397448 
L 69.295711 119.665237 
L 69.392141 119.608581 
L 69.874291 120.010955 
L 71.031451 120.400461 
L 71.899321 121.085163 
L 72.188612 121.262966 
L 72.767192 121.776889 
L 72.863622 121.707466 
L 75.467233 123.458301 
L 75.756523 123.436205 
L 75.949383 123.486713 
L 76.624393 123.878351 
L 78.842284 124.963146 
L 79.035144 125.038217 
L 79.517294 125.343272 
L 81.735185 126.155622 
L 82.217335 126.24324 
L 82.410195 126.292538 
L 82.699485 126.365653 
L 82.988775 126.458415 
L 83.278065 126.465887 
L 83.760216 126.610704 
L 85.592386 127.220148 
L 86.170966 127.512409 
L 86.363826 127.556495 
L 86.845977 127.685703 
L 87.038837 127.688425 
L 87.810277 127.778427 
L 88.099567 127.768927 
L 89.063867 128.082373 
L 89.449588 128.181976 
L 90.124598 128.366423 
L 90.510318 128.470838 
L 91.281758 128.612604 
L 91.667478 128.651736 
L 93.113929 129.20213 
L 93.499649 129.280762 
L 94.367519 129.513651 
L 98.996161 130.730352 
L 99.189021 130.709724 
L 99.574741 130.776485 
L 99.960461 130.831047 
L 100.731901 131.015397 
L 101.214052 131.113887 
L 101.406912 131.109597 
L 102.853362 131.371314 
L 105.264113 131.676638 
L 109.217744 132.445976 
L 110.278475 132.447343 
L 110.664195 132.469679 
L 111.049915 132.525358 
L 111.242775 132.473477 
L 117.800017 133.297972 
L 118.860748 133.507346 
L 120.403628 133.624893 
L 122.525089 133.820604 
L 123.585819 133.966549 
L 124.35726 134.084058 
L 124.93584 134.159099 
L 125.22513 134.108743 
L 129.275191 134.453121 
L 131.010932 134.488915 
L 132.360952 134.67104 
L 135.446713 135.015018 
L 137.375314 135.157758 
L 140.171785 135.351833 
L 140.364645 145.188904 
L 140.557505 139.911845 
L 140.846795 144.767649 
L 140.943225 143.656387 
L 141.039655 145.174572 
L 141.136085 144.698453 
L 141.425375 146.265763 
L 141.521805 146.824216 
L 141.714666 145.872655 
L 142.003956 146.671007 
L 142.100386 146.88162 
L 142.196816 147.36219 
L 142.293246 147.188811 
L 142.389676 146.723934 
L 142.582536 142.828575 
L 142.678966 142.339768 
L 142.871826 142.904534 
L 143.064686 142.858871 
L 143.161116 142.008676 
L 143.450406 142.929773 
L 143.546836 143.047563 
L 143.643266 143.430073 
L 143.739696 143.303122 
L 144.028986 143.902711 
L 144.318276 144.116474 
L 144.414706 144.265167 
L 144.511136 143.917896 
L 144.607567 143.94808 
L 144.993287 144.713484 
L 145.186147 144.364244 
L 145.571867 144.987657 
L 145.668297 145.061712 
L 145.861157 144.462617 
L 145.957587 144.68438 
L 146.343307 145.341863 
L 146.632597 145.739707 
L 146.825457 146.090861 
L 146.921887 145.981416 
L 147.404037 146.461942 
L 147.500468 146.538648 
L 147.596898 146.343975 
L 147.789758 146.418625 
L 147.886188 146.308634 
L 148.079048 145.794071 
L 148.368338 146.043305 
L 148.464768 146.091852 
L 148.657628 145.582969 
L 148.754058 145.460081 
L 148.946918 145.639097 
L 149.332638 145.358183 
L 149.718358 145.683222 
L 149.814788 145.499562 
L 150.007648 145.593608 
L 150.104078 145.321802 
L 150.200508 145.377628 
L 150.296938 145.383051 
L 150.586229 145.080692 
L 150.682659 145.186745 
L 150.779089 145.039674 
L 151.261239 145.408199 
L 151.357669 145.384235 
L 151.454099 145.208518 
L 151.743389 145.276995 
L 151.936249 145.390555 
L 152.129109 145.470909 
L 152.321969 145.309105 
L 152.418399 145.090366 
L 152.514829 145.139537 
L 152.900549 145.293515 
L 152.996979 145.224917 
L 153.093409 145.308782 
L 153.286269 145.251896 
L 153.47913 145.351988 
L 153.67199 145.275444 
L 154.92558 145.266813 
L 156.08274 145.75181 
L 156.372031 145.792878 
L 156.757751 145.949837 
L 156.950611 145.699404 
L 157.336331 145.518753 
L 157.529191 145.291414 
L 157.625621 145.194546 
L 157.722051 144.935207 
L 157.818481 144.980645 
L 158.589921 145.187191 
L 158.975641 145.186913 
L 159.843512 145.382981 
L 160.132802 145.438272 
L 160.518522 145.560387 
L 161.482822 145.745422 
L 161.675682 145.702721 
L 161.868542 145.692493 
L 162.157833 145.702483 
L 162.350693 145.618293 
L 164.279293 145.804651 
L 164.472153 145.763016 
L 165.147164 145.918261 
L 165.340024 145.790418 
L 165.532884 145.767736 
L 165.629314 145.799159 
L 165.822174 145.70668 
L 166.111464 145.606581 
L 167.268624 145.680821 
L 167.654344 145.585298 
L 168.425785 145.764976 
L 168.618645 145.755698 
L 168.811505 145.74696 
L 169.390085 145.704353 
L 169.679375 145.69761 
L 170.257955 145.768436 
L 170.932966 145.79136 
L 171.222256 145.751094 
L 171.511546 145.58997 
L 173.150856 145.636607 
L 173.633007 145.440686 
L 174.308017 145.461065 
L 174.597307 145.421786 
L 175.272317 145.397844 
L 175.561607 145.319148 
L 177.200918 145.370089 
L 177.586638 145.385243 
L 177.875928 145.427946 
L 178.068788 145.413525 
L 178.550938 145.456229 
L 181.443839 145.721726 
L 181.636699 145.676183 
L 182.022419 145.669724 
L 185.01175 145.524787 
L 185.397471 145.530667 
L 185.783191 145.510973 
L 186.458201 145.520754 
L 188.676092 145.658252 
L 189.543962 145.731199 
L 190.026112 145.65741 
L 191.472563 145.721596 
L 192.147573 145.745455 
L 195.426194 145.922649 
L 195.715484 145.874819 
L 196.101204 145.879004 
L 196.390494 145.799408 
L 197.258365 145.68609 
L 201.501286 145.762535 
L 202.272726 145.810221 
L 204.972767 145.803482 
L 205.454917 145.732429 
L 206.226358 145.74892 
L 206.804938 145.769063 
L 207.672808 145.765531 
L 208.058528 145.716513 
L 208.829969 145.720768 
L 211.240719 145.829829 
L 211.62644 145.746654 
L 225.223074 145.842595 
L 226.090945 145.844242 
L 229.465996 145.89497 
L 229.851716 145.888252 
L 230.816016 145.891089 
L 231.780317 145.899039 
L 232.937477 145.910404 
L 236.601818 145.964357 
L 236.601818 145.964357 
" clip-path="url(#pe6d39ed0c2)" style="fill: none; stroke: #1f77b4; stroke-width: 1.6; stroke-linecap: square"/>
   </g>
   <g id="line2d_13">
    <path d="M 43.838182 156.661603 
L 43.934612 149.974101 
L 44.031042 151.867073 
L 44.127472 131.639697 
L 44.223902 134.191181 
L 44.416762 140.494367 
L 44.609622 139.52967 
L 44.706052 140.461977 
L 44.802482 138.798154 
L 44.995342 140.072403 
L 45.284632 132.920908 
L 45.573922 135.267719 
L 45.670352 135.74785 
L 45.766782 135.342374 
L 46.056073 136.798656 
L 46.923943 140.602381 
L 47.020373 140.68916 
L 47.213233 140.473574 
L 47.406093 141.158413 
L 47.502523 141.102459 
L 47.598953 140.690026 
L 47.791813 141.360916 
L 47.888243 140.7621 
L 48.081103 141.166467 
L 48.273963 139.509696 
L 48.370393 139.16116 
L 48.563253 139.605058 
L 48.659683 139.563366 
L 48.756114 139.206879 
L 48.852544 139.250485 
L 48.948974 139.499006 
L 49.045404 139.345656 
L 49.238264 139.620562 
L 49.334694 139.453839 
L 49.527554 139.839887 
L 49.623984 139.884003 
L 50.298994 140.989674 
L 50.491854 140.550333 
L 50.588284 140.61549 
L 50.684714 140.717499 
L 50.877574 139.884442 
L 51.359724 140.548325 
L 51.456154 140.314388 
L 51.938305 141.151981 
L 52.034735 141.245843 
L 52.131165 141.158031 
L 52.420455 141.583085 
L 52.516885 141.48309 
L 52.613315 141.02443 
L 52.806175 141.322569 
L 52.999035 141.023402 
L 53.095465 141.03416 
L 53.191895 140.73554 
L 53.288325 140.784563 
L 53.384755 140.688519 
L 53.481185 140.857282 
L 53.770475 140.525221 
L 53.963335 140.776271 
L 54.059765 140.694904 
L 54.252625 140.895837 
L 54.349055 140.622802 
L 54.445485 140.671441 
L 54.541916 140.605202 
L 54.638346 140.731861 
L 54.927636 140.110831 
L 55.216926 140.495296 
L 55.313356 140.002265 
L 55.795506 140.582577 
L 56.759806 141.035886 
L 57.049096 141.291267 
L 57.145526 141.253553 
L 57.724107 141.845679 
L 57.916967 141.596476 
L 58.399117 141.839805 
L 58.591977 141.71419 
L 58.784837 141.733684 
L 58.977697 141.827494 
L 59.170557 141.822865 
L 59.749137 142.123365 
L 59.845567 142.063378 
L 60.231287 142.294081 
L 60.713438 142.141897 
L 61.099158 142.266153 
L 61.292018 142.305852 
L 61.581308 142.40574 
L 61.870598 142.167772 
L 62.256318 142.00304 
L 62.545608 141.991066 
L 62.931328 142.112414 
L 63.220618 141.772528 
L 64.377779 142.093301 
L 64.763499 142.040278 
L 65.534939 142.441977 
L 65.920659 142.546613 
L 66.20995 142.610822 
L 66.40281 142.50601 
L 66.59567 142.470578 
L 66.78853 142.497755 
L 66.98139 142.530935 
L 67.55997 142.523348 
L 68.33141 142.782419 
L 68.81356 142.565065 
L 69.00642 142.452752 
L 70.452871 142.593585 
L 70.645731 142.47315 
L 71.031451 142.56463 
L 71.224311 142.54733 
L 72.092182 142.481106 
L 72.285042 142.411455 
L 73.538632 142.732894 
L 74.310072 142.503544 
L 74.792222 142.629015 
L 75.563663 142.593012 
L 75.756523 142.560384 
L 76.913683 142.638402 
L 77.106543 142.605493 
L 77.395833 142.666311 
L 77.588693 142.470338 
L 78.167274 142.530654 
L 79.613724 142.621935 
L 79.903014 142.633449 
L 80.481594 142.623232 
L 81.060175 142.654969 
L 81.253035 142.702041 
L 81.445895 142.583732 
L 82.217335 142.40007 
L 82.988775 142.543417 
L 83.760216 142.662064 
L 84.628086 142.603358 
L 85.592386 142.751753 
L 85.881676 142.74337 
L 86.556687 142.800766 
L 86.749547 142.724649 
L 87.520987 142.698868 
L 87.713847 142.569515 
L 88.678147 142.806387 
L 89.160297 142.680044 
L 89.642448 142.709611 
L 90.317458 142.776805 
L 91.088898 142.84274 
L 91.378188 142.860185 
L 91.956768 142.934425 
L 92.053198 157.375636 
L 92.149628 155.45008 
L 92.246058 155.953348 
L 92.438919 149.47567 
L 92.631779 151.901293 
L 92.824639 147.108464 
L 92.921069 147.096576 
L 93.017499 143.517604 
L 93.210359 145.261198 
L 93.306789 138.765374 
L 93.403219 139.522983 
L 93.499649 135.779565 
L 93.596079 136.974435 
L 93.692509 136.657116 
L 94.078229 138.60959 
L 94.174659 138.570028 
L 94.271089 138.380689 
L 94.560379 140.035102 
L 94.656809 139.359057 
L 95.042529 141.481548 
L 95.138959 141.527376 
L 95.33182 141.043083 
L 95.42825 141.279665 
L 95.71754 142.254319 
L 95.81397 141.812612 
L 96.00683 142.562233 
L 96.10326 141.396768 
L 96.29612 141.858991 
L 96.48898 140.417471 
L 96.58541 140.093779 
L 96.77827 140.731698 
L 96.8747 140.515419 
L 96.97113 139.871624 
L 97.06756 139.905519 
L 97.16399 140.213015 
L 97.26042 139.852834 
L 97.45328 140.163981 
L 97.54971 140.137105 
L 97.839 140.812558 
L 97.93543 140.676953 
L 98.03186 140.934712 
L 98.128291 140.777116 
L 98.321151 141.296965 
L 98.417581 141.257893 
L 98.706871 140.577727 
L 98.803301 140.315323 
L 98.899731 140.483411 
L 99.092591 138.870035 
L 99.189021 139.117146 
L 99.574741 139.733803 
L 99.671171 139.368364 
L 99.960461 140.04225 
L 100.056891 139.965843 
L 100.249751 140.355233 
L 100.346181 140.241202 
L 100.731901 140.758984 
L 100.828331 140.265686 
L 101.021192 140.613637 
L 101.406912 139.900355 
L 101.503342 140.046475 
L 101.599772 139.903395 
L 101.792632 140.254135 
L 101.889062 139.968824 
L 102.178352 140.324306 
L 102.274782 140.033048 
L 102.467642 140.283953 
L 102.756932 139.694951 
L 102.949792 139.884325 
L 103.046222 139.503728 
L 103.431942 140.051151 
L 103.528372 139.390315 
L 104.106953 140.129356 
L 104.203383 140.091991 
L 104.396243 140.278178 
L 104.492673 140.219208 
L 104.589103 140.297697 
L 104.685533 140.06041 
L 105.071253 140.545125 
L 105.167683 140.45566 
L 105.264113 140.565387 
L 105.360543 140.294954 
L 105.939123 140.949601 
L 106.035553 140.792122 
L 106.421273 140.803046 
L 106.517703 140.913165 
L 106.710563 140.725967 
L 106.903424 140.748662 
L 107.385574 141.046772 
L 107.674864 141.346685 
L 107.771294 141.218071 
L 108.157014 141.485688 
L 108.253444 141.280152 
L 108.446304 141.472537 
L 108.639164 141.463386 
L 108.735594 141.489883 
L 108.928454 141.248616 
L 109.217744 141.507225 
L 109.507034 141.404177 
L 109.603464 141.466809 
L 109.796325 141.371658 
L 109.892755 141.384704 
L 110.085615 141.291825 
L 110.278475 141.40032 
L 110.471335 141.103265 
L 110.857055 140.89257 
L 111.242775 140.602483 
L 111.339205 140.423772 
L 111.628495 140.506257 
L 111.724925 140.411455 
L 112.207075 140.689009 
L 112.592795 140.831631 
L 112.785656 140.611261 
L 112.882086 140.53418 
L 113.557096 140.921829 
L 114.424966 141.167734 
L 114.521396 140.737805 
L 114.617826 140.794793 
L 114.714256 140.836715 
L 114.907116 140.646153 
L 115.196406 140.770956 
L 115.485696 140.73405 
L 115.967847 141.036596 
L 116.160707 140.968748 
L 116.546427 141.20449 
L 116.739287 141.191082 
L 116.835717 141.246279 
L 117.125007 140.733227 
L 117.510727 140.941914 
L 117.703587 140.948959 
L 117.896447 140.995015 
L 118.475028 141.239406 
L 118.860748 141.075017 
L 119.246468 141.209549 
L 119.439328 141.208914 
L 119.825048 141.283676 
L 120.017908 141.135453 
L 120.114338 141.176194 
L 120.403628 140.880128 
L 121.753649 141.27597 
L 122.332229 140.853689 
L 122.910809 141.055821 
L 123.296529 141.085871 
L 123.489389 140.921141 
L 123.682249 140.904397 
L 123.875109 141.003679 
L 124.164399 140.825624 
L 124.35726 140.769403 
L 124.74298 140.882717 
L 125.03227 140.810538 
L 125.22513 140.631274 
L 125.41799 140.577209 
L 125.99657 140.40147 
L 126.28586 140.47977 
L 126.47872 140.455747 
L 126.76801 140.462787 
L 127.153731 140.594337 
L 127.539451 140.647229 
L 128.407321 140.805205 
L 128.600181 140.7593 
L 129.178761 140.933683 
L 129.371621 140.893085 
L 129.468051 140.937604 
L 129.660911 140.825876 
L 129.757341 140.86434 
L 129.950201 140.768975 
L 130.335922 140.664023 
L 130.914502 140.82707 
L 132.071662 140.96087 
L 132.264522 140.967919 
L 132.457382 141.016058 
L 132.650242 140.760909 
L 133.614543 141.067421 
L 134.000263 141.07192 
L 134.578843 141.216167 
L 134.868133 141.070909 
L 135.543143 141.136041 
L 135.832433 141.028175 
L 137.182454 141.383426 
L 137.568174 141.122516 
L 138.146754 141.268363 
L 138.918195 141.471065 
L 139.207485 141.468458 
L 140.171785 141.649589 
L 140.171785 141.649589 
" clip-path="url(#pe6d39ed0c2)" style="fill: none; stroke: #ff7f0e; stroke-width: 1.6; stroke-linecap: square"/>
   </g>
   <g id="patch_3">
    <path d="M 34.2 163.8 
L 34.2 22.464 
" style="fill: none; stroke: #000000; stroke-width: 0.8; stroke-linejoin: miter; stroke-linecap: square"/>
   </g>
   <g id="patch_4">
    <path d="M 246.24 163.8 
L 246.24 22.464 
" style="fill: none; stroke: #000000; stroke-width: 0.8; stroke-linejoin: miter; stroke-linecap: square"/>
   </g>
   <g id="patch_5">
    <path d="M 34.2 163.8 
L 246.24 163.8 
" style="fill: none; stroke: #000000; stroke-width: 0.8; stroke-linejoin: miter; stroke-linecap: square"/>
   </g>
   <g id="patch_6">
    <path d="M 34.2 22.464 
L 246.24 22.464 
" style="fill: none; stroke: #000000; stroke-width: 0.8; stroke-linejoin: miter; stroke-linecap: square"/>
   </g>
  </g>
  <g id="axes_2">
   <g id="matplotlib.axis_3">
    <g id="ytick_7">
     <g id="line2d_14">
      <defs>
       <path id="m2101ccee6d" d="M 0 0 
L 3.5 0 
" style="stroke: #000000; stroke-width: 0.8"/>
      </defs>
      <g>
       <use xlink:href="#m2101ccee6d" x="246.24" y="137.088176" style="stroke: #000000; stroke-width: 0.8"/>
      </g>
     </g>
     <g id="text_14">
      <!-- 0.7 -->
      <g transform="translate(253.24 140.773418)scale(0.097 -0.097)">
       <use xlink:href="#DejaVuSans-30"/>
       <use xlink:href="#DejaVuSans-2e" x="63.623047"/>
       <use xlink:href="#DejaVuSans-37" x="95.410156"/>
      </g>
     </g>
    </g>
    <g id="ytick_8">
     <g id="line2d_15">
      <g>
       <use xlink:href="#m2101ccee6d" x="246.24" y="101.021572" style="stroke: #000000; stroke-width: 0.8"/>
      </g>
     </g>
     <g id="text_15">
      <!-- 0.8 -->
      <g transform="translate(253.24 104.706814)scale(0.097 -0.097)">
       <defs>
        <path id="DejaVuSans-38" d="M 2034 2216 
Q 1584 2216 1326 1975 
Q 1069 1734 1069 1313 
Q 1069 891 1326 650 
Q 1584 409 2034 409 
Q 2484 409 2743 651 
Q 3003 894 3003 1313 
Q 3003 1734 2745 1975 
Q 2488 2216 2034 2216 
z
M 1403 2484 
Q 997 2584 770 2862 
Q 544 3141 544 3541 
Q 544 4100 942 4425 
Q 1341 4750 2034 4750 
Q 2731 4750 3128 4425 
Q 3525 4100 3525 3541 
Q 3525 3141 3298 2862 
Q 3072 2584 2669 2484 
Q 3125 2378 3379 2068 
Q 3634 1759 3634 1313 
Q 3634 634 3220 271 
Q 2806 -91 2034 -91 
Q 1263 -91 848 271 
Q 434 634 434 1313 
Q 434 1759 690 2068 
Q 947 2378 1403 2484 
z
M 1172 3481 
Q 1172 3119 1398 2916 
Q 1625 2713 2034 2713 
Q 2441 2713 2670 2916 
Q 2900 3119 2900 3481 
Q 2900 3844 2670 4047 
Q 2441 4250 2034 4250 
Q 1625 4250 1398 4047 
Q 1172 3844 1172 3481 
z
" transform="scale(0.015625)"/>
       </defs>
       <use xlink:href="#DejaVuSans-30"/>
       <use xlink:href="#DejaVuSans-2e" x="63.623047"/>
       <use xlink:href="#DejaVuSans-38" x="95.410156"/>
      </g>
     </g>
    </g>
    <g id="ytick_9">
     <g id="line2d_16">
      <g>
       <use xlink:href="#m2101ccee6d" x="246.24" y="64.954968" style="stroke: #000000; stroke-width: 0.8"/>
      </g>
     </g>
     <g id="text_16">
      <!-- 0.9 -->
      <g transform="translate(253.24 68.64021)scale(0.097 -0.097)">
       <defs>
        <path id="DejaVuSans-39" d="M 703 97 
L 703 672 
Q 941 559 1184 500 
Q 1428 441 1663 441 
Q 2288 441 2617 861 
Q 2947 1281 2994 2138 
Q 2813 1869 2534 1725 
Q 2256 1581 1919 1581 
Q 1219 1581 811 2004 
Q 403 2428 403 3163 
Q 403 3881 828 4315 
Q 1253 4750 1959 4750 
Q 2769 4750 3195 4129 
Q 3622 3509 3622 2328 
Q 3622 1225 3098 567 
Q 2575 -91 1691 -91 
Q 1453 -91 1209 -44 
Q 966 3 703 97 
z
M 1959 2075 
Q 2384 2075 2632 2365 
Q 2881 2656 2881 3163 
Q 2881 3666 2632 3958 
Q 2384 4250 1959 4250 
Q 1534 4250 1286 3958 
Q 1038 3666 1038 3163 
Q 1038 2656 1286 2365 
Q 1534 2075 1959 2075 
z
" transform="scale(0.015625)"/>
       </defs>
       <use xlink:href="#DejaVuSans-30"/>
       <use xlink:href="#DejaVuSans-2e" x="63.623047"/>
       <use xlink:href="#DejaVuSans-39" x="95.410156"/>
      </g>
     </g>
    </g>
    <g id="ytick_10">
     <g id="line2d_17">
      <g>
       <use xlink:href="#m2101ccee6d" x="246.24" y="28.888364" style="stroke: #000000; stroke-width: 0.8"/>
      </g>
     </g>
     <g id="text_17">
      <!-- 1.0 -->
      <g transform="translate(253.24 32.573606)scale(0.097 -0.097)">
       <use xlink:href="#DejaVuSans-31"/>
       <use xlink:href="#DejaVuSans-2e" x="63.623047"/>
       <use xlink:href="#DejaVuSans-30" x="95.410156"/>
      </g>
     </g>
    </g>
    <g id="text_18">
     <!-- Acc -->
     <g transform="translate(280.036516 101.698313)rotate(-90)scale(0.097 -0.097)">
      <defs>
       <path id="DejaVuSans-41" d="M 2188 4044 
L 1331 1722 
L 3047 1722 
L 2188 4044 
z
M 1831 4666 
L 2547 4666 
L 4325 0 
L 3669 0 
L 3244 1197 
L 1141 1197 
L 716 0 
L 50 0 
L 1831 4666 
z
" transform="scale(0.015625)"/>
       <path id="DejaVuSans-63" d="M 3122 3366 
L 3122 2828 
Q 2878 2963 2633 3030 
Q 2388 3097 2138 3097 
Q 1578 3097 1268 2742 
Q 959 2388 959 1747 
Q 959 1106 1268 751 
Q 1578 397 2138 397 
Q 2388 397 2633 464 
Q 2878 531 3122 666 
L 3122 134 
Q 2881 22 2623 -34 
Q 2366 -91 2075 -91 
Q 1284 -91 818 406 
Q 353 903 353 1747 
Q 353 2603 823 3093 
Q 1294 3584 2113 3584 
Q 2378 3584 2631 3529 
Q 2884 3475 3122 3366 
z
" transform="scale(0.015625)"/>
      </defs>
      <use xlink:href="#DejaVuSans-41"/>
      <use xlink:href="#DejaVuSans-63" x="66.658203"/>
      <use xlink:href="#DejaVuSans-63" x="121.638672"/>
     </g>
    </g>
   </g>
   <g id="line2d_18">
    <path d="M 43.838182 119.054874 
L 44.031042 134.082633 
L 44.127472 135.961094 
L 44.320332 152.867315 
L 44.513192 147.231908 
L 44.609622 146.605754 
L 44.706052 157.375636 
L 44.802482 147.744212 
L 44.898912 149.11037 
L 44.995342 153.734304 
L 45.091772 152.867315 
L 45.188202 149.11037 
L 45.284632 150.049612 
L 45.573922 142.782898 
L 45.670352 142.723587 
L 45.863213 137.498028 
L 45.959643 136.696154 
L 46.538223 119.054874 
L 46.923943 112.224084 
L 47.116803 109.39417 
L 47.213233 109.036368 
L 47.309663 109.307149 
L 47.695383 103.660585 
L 47.791813 103.490412 
L 47.984673 101.636349 
L 48.081103 102.524341 
L 48.177533 102.39368 
L 48.370393 102.148653 
L 48.563253 100.570746 
L 48.659683 100.491184 
L 48.948974 97.348118 
L 49.431124 94.984998 
L 49.720414 93.241067 
L 49.816844 93.650807 
L 50.106134 92.414772 
L 50.298994 91.540818 
L 50.395424 90.632812 
L 50.491854 90.716824 
L 50.877574 88.897824 
L 51.166864 88.316299 
L 51.263294 88.421378 
L 51.359724 88.238478 
L 51.841875 85.779136 
L 51.938305 86.170625 
L 52.227595 85.754736 
L 52.420455 84.991967 
L 53.577615 80.822508 
L 53.674045 80.755996 
L 53.963335 80.138677 
L 54.059765 80.50237 
L 54.252625 79.555324 
L 54.349055 79.709482 
L 55.120496 77.792239 
L 55.216926 77.760122 
L 55.313356 77.352854 
L 55.409786 77.883796 
L 55.988366 76.811507 
L 56.084796 77.317642 
L 56.181226 77.291694 
L 56.374086 77.757241 
L 56.566946 77.700316 
L 56.663376 77.50426 
L 56.856236 78.612536 
L 57.049096 78.545292 
L 57.338386 77.968367 
L 57.531247 78.070093 
L 57.916967 77.498542 
L 58.013397 77.62701 
L 58.206257 77.277721 
L 58.495547 77.212906 
L 58.688407 76.880213 
L 58.784837 76.861575 
L 59.074127 76.381732 
L 59.170557 76.648428 
L 59.459847 76.1843 
L 59.556277 76.308254 
L 59.845567 75.591381 
L 60.038427 75.838966 
L 60.231287 75.289838 
L 60.520578 75.526223 
L 60.617008 75.25972 
L 60.713438 75.38047 
L 60.809868 75.245166 
L 61.002728 75.356866 
L 62.834898 72.833161 
L 63.027758 73.069954 
L 63.124188 72.850144 
L 63.317049 72.972227 
L 63.606339 72.986781 
L 63.799199 72.671135 
L 64.088489 72.903285 
L 64.281349 72.913325 
L 64.474209 72.608642 
L 64.667069 72.517322 
L 64.859929 72.324748 
L 65.052789 72.237641 
L 65.149219 72.143912 
L 65.342079 72.361509 
L 65.438509 72.468845 
L 65.920659 72.109495 
L 66.017089 72.215133 
L 66.20995 72.036705 
L 66.40281 72.149115 
L 66.6921 71.98266 
L 66.98139 71.913869 
L 67.17425 71.838048 
L 67.27068 71.846797 
L 67.6564 71.335697 
L 67.84926 71.176466 
L 68.13855 71.565998 
L 68.33141 71.408057 
L 68.52427 71.515716 
L 69.00642 71.046364 
L 69.199281 70.812365 
L 69.585001 70.775411 
L 69.777861 70.548635 
L 69.970721 70.656681 
L 70.163581 70.845407 
L 70.260011 70.69284 
L 70.356441 70.949733 
L 70.645731 70.820642 
L 70.838591 71.003498 
L 70.935021 70.934105 
L 71.031451 71.02448 
L 71.513601 70.762577 
L 71.610031 70.77367 
L 71.802891 70.485798 
L 71.995752 70.740392 
L 72.863622 70.239568 
L 73.056482 70.189973 
L 73.249342 69.993681 
L 73.442202 69.873145 
L 73.827922 69.636695 
L 74.117212 69.749535 
L 74.213642 69.762906 
L 74.406502 69.647594 
L 74.599362 69.674617 
L 74.695792 69.617778 
L 74.792222 69.771312 
L 75.370803 69.435802 
L 75.852953 69.774687 
L 76.045813 69.597871 
L 76.238673 69.423162 
L 76.335103 69.503304 
L 76.624393 69.278205 
L 76.720823 69.22601 
L 76.913683 69.253612 
L 77.202973 69.164463 
L 77.395833 69.127423 
L 77.588693 68.962366 
L 77.877984 68.941148 
L 79.710154 67.928278 
L 79.903014 67.780182 
L 79.999444 67.796649 
L 80.192304 67.59079 
L 80.578024 67.775625 
L 80.963745 67.48943 
L 81.349465 67.498115 
L 81.735185 67.449424 
L 81.928045 67.482358 
L 82.313765 67.209126 
L 82.699485 67.220283 
L 82.892345 67.142506 
L 83.181635 67.302833 
L 83.470925 67.241953 
L 83.567355 67.312829 
L 83.856646 67.144097 
L 84.724516 67.18262 
L 85.110236 66.930649 
L 86.460256 66.491673 
L 86.749547 66.440896 
L 87.038837 66.290393 
L 87.617417 66.143974 
L 87.906707 66.342911 
L 88.195997 66.294757 
L 88.388857 66.181853 
L 88.581717 66.166891 
L 89.256727 65.709534 
L 89.546018 65.714263 
L 89.642448 65.778971 
L 89.931738 65.642032 
L 90.221028 65.600349 
L 90.703178 65.547444 
L 91.185328 65.587235 
L 91.378188 65.575541 
L 91.860338 65.569328 
L 92.728209 65.230078 
L 93.403219 64.823649 
L 93.596079 64.859055 
L 94.946099 64.547429 
L 95.138959 64.540507 
L 96.58541 64.222776 
L 96.68184 64.322653 
L 97.06756 64.147879 
L 97.26042 64.102047 
L 97.74257 63.908398 
L 101.021192 63.232091 
L 101.310482 63.210551 
L 101.985492 62.924722 
L 102.756932 62.884973 
L 103.335512 62.883189 
L 103.914093 62.809173 
L 104.106953 62.880845 
L 106.517703 62.33722 
L 106.903424 62.236204 
L 108.446304 61.877757 
L 108.832024 61.782437 
L 109.507034 61.74228 
L 109.699894 61.909874 
L 110.182045 61.931973 
L 110.664195 61.921267 
L 110.953485 61.843769 
L 111.532065 61.883152 
L 111.724925 61.853486 
L 112.014215 61.904843 
L 112.496365 61.768163 
L 112.882086 61.773365 
L 113.267806 61.653453 
L 113.460666 61.687526 
L 113.846386 61.724115 
L 114.232106 61.698619 
L 115.292836 61.607148 
L 115.582127 61.626667 
L 115.967847 61.572214 
L 116.835717 61.362572 
L 117.125007 61.353049 
L 117.800017 61.174556 
L 118.475028 60.970181 
L 118.764318 60.933399 
L 119.342898 60.94692 
L 119.632188 60.967945 
L 120.114338 60.879268 
L 120.500058 60.888405 
L 120.692918 60.949457 
L 121.078638 60.901969 
L 121.657219 60.775844 
L 125.03227 60.468023 
L 125.61085 60.457253 
L 126.093 60.378014 
L 126.76801 60.409981 
L 127.250161 60.384162 
L 129.275191 60.273838 
L 130.528782 60.3715 
L 130.914502 60.331945 
L 133.132393 60.013806 
L 133.614543 59.919389 
L 134.000263 59.883102 
L 135.736003 59.770864 
L 136.025294 59.838946 
L 139.593205 59.571282 
L 139.882495 59.65983 
L 140.171785 59.70276 
L 140.364645 40.159177 
L 140.557505 51.429991 
L 140.653935 51.429991 
L 140.846795 44.989529 
L 140.943225 48.612288 
L 141.039655 46.420738 
L 141.232515 49.380754 
L 141.521805 44.989529 
L 141.618235 45.418896 
L 141.811096 47.452053 
L 141.907526 47.673046 
L 142.003956 46.684382 
L 142.100386 46.92167 
L 142.196816 46.062936 
L 142.293246 46.306888 
L 142.389676 47.509709 
L 142.582536 52.331655 
L 142.871826 52.235046 
L 143.161116 54.338586 
L 143.450406 52.755971 
L 143.546836 52.718092 
L 143.643266 52.056145 
L 143.739696 52.648462 
L 144.028986 50.866459 
L 144.221846 50.893288 
L 144.318276 50.381543 
L 144.414706 50.405362 
L 144.607567 50.939959 
L 144.703997 50.950385 
L 144.896857 50.049881 
L 144.993287 50.077484 
L 145.089717 50.104012 
L 145.186147 50.563002 
L 145.475437 49.380754 
L 145.668297 49.452663 
L 145.861157 50.283816 
L 146.054017 49.582314 
L 146.150447 49.612109 
L 146.343307 48.964501 
L 146.439737 49.002422 
L 146.825457 47.836405 
L 146.921887 47.88774 
L 147.018317 47.620141 
L 147.114747 47.673046 
L 147.404037 46.92167 
L 147.596898 47.038766 
L 147.693328 46.806057 
L 148.079048 48.13122 
L 148.271908 47.673046 
L 148.368338 47.717245 
L 148.464768 47.760433 
L 148.754058 48.643953 
L 148.946918 48.209749 
L 149.139778 48.76378 
L 149.525498 48.176558 
L 149.621928 48.209749 
L 149.814788 48.048756 
L 150.007648 48.115054 
L 150.104078 48.584922 
L 150.296938 48.424444 
L 150.393369 48.452799 
L 150.586229 48.716657 
L 150.682659 48.534747 
L 150.779089 48.765972 
L 151.261239 48.097748 
L 151.357669 48.126469 
L 151.454099 48.347376 
L 151.646959 48.020336 
L 151.839819 48.262977 
L 152.129109 47.97603 
L 152.514829 48.788394 
L 152.804119 48.504736 
L 152.996979 48.54872 
L 153.093409 48.402022 
L 153.286269 48.612288 
L 153.47913 48.326437 
L 153.57556 48.510928 
L 153.76842 48.392477 
L 153.86485 48.413867 
L 153.96128 48.277316 
L 154.05771 48.455744 
L 154.25057 48.342087 
L 154.44343 48.383835 
L 154.73272 48.145773 
L 154.92558 48.188704 
L 155.50416 47.460394 
L 155.69702 47.649721 
L 155.79345 47.673046 
L 155.98631 47.44397 
L 156.17917 47.627794 
L 156.275601 47.65056 
L 156.468461 47.561905 
L 156.564891 47.584649 
L 156.757751 47.367246 
L 156.950611 47.543503 
L 157.047041 47.56571 
L 157.432761 48.029859 
L 157.625621 48.067437 
L 157.722051 48.333617 
L 157.914911 48.244769 
L 158.011341 48.261988 
L 158.300631 48.072725 
L 158.493491 48.108067 
L 158.589921 48.007438 
L 158.686351 48.142678 
L 158.782781 48.042908 
L 158.975641 48.193239 
L 159.072071 48.209749 
L 159.264932 48.128446 
L 159.361362 48.145021 
L 160.036372 47.600106 
L 160.325662 47.547222 
L 160.518522 47.477184 
L 161.000672 47.673046 
L 161.097102 47.794248 
L 161.289962 47.724511 
L 161.579252 47.673046 
L 161.868542 47.522779 
L 162.736413 47.576716 
L 163.218563 47.280074 
L 163.411423 47.408048 
L 163.604283 47.348371 
L 163.797143 47.56571 
L 164.086433 47.339772 
L 164.375723 47.658084 
L 164.857873 47.379542 
L 165.050734 47.323563 
L 165.147164 47.252386 
L 165.340024 47.370772 
L 165.629314 47.24613 
L 165.822174 47.362323 
L 166.304324 47.354197 
L 166.690044 47.167578 
L 167.461484 47.367719 
L 167.654344 47.475313 
L 168.425785 47.044764 
L 168.618645 46.998072 
L 168.715075 46.93689 
L 169.197225 47.311095 
L 169.486515 47.203436 
L 169.582945 47.217302 
L 169.679375 47.378382 
L 169.968665 47.271819 
L 170.161525 47.298562 
L 170.354385 47.252944 
L 170.643675 47.221279 
L 171.029396 47.062542 
L 171.125826 47.216592 
L 171.222256 47.159689 
L 171.415116 47.394763 
L 171.607976 47.350371 
L 171.800836 47.306516 
L 171.993696 47.263199 
L 172.282986 47.233059 
L 172.475846 47.12353 
L 172.668706 47.149091 
L 173.054426 47.199309 
L 173.440146 47.640392 
L 173.633007 47.727198 
L 173.922297 47.630116 
L 174.404447 47.747126 
L 174.597307 47.767764 
L 174.693737 47.71503 
L 174.886597 47.923512 
L 175.272317 47.776276 
L 175.850897 48.140141 
L 176.236617 48.054775 
L 176.622338 48.030848 
L 176.911628 47.998452 
L 177.393778 47.9845 
L 177.683068 47.953135 
L 178.068788 47.931165 
L 178.454508 47.85285 
L 179.033088 47.850184 
L 179.225948 47.867855 
L 179.900959 47.818949 
L 180.286679 47.745299 
L 182.215279 47.862631 
L 182.50457 47.835652 
L 182.69743 47.903068 
L 183.17958 47.790981 
L 184.43317 47.795839 
L 184.72246 47.770644 
L 185.10818 48.043919 
L 185.686761 47.895931 
L 185.976051 47.96569 
L 186.458201 47.86089 
L 187.808221 47.870779 
L 188.386802 47.733174 
L 188.772522 47.673046 
L 189.061812 47.650818 
L 189.254672 47.665672 
L 190.411832 47.665844 
L 190.701122 47.644369 
L 191.183273 47.594925 
L 191.858283 47.434748 
L 192.629723 47.410628 
L 192.822583 47.425353 
L 193.111873 47.365118 
L 193.786883 47.213561 
L 194.751184 47.208423 
L 195.329764 47.095068 
L 196.101204 47.193719 
L 196.294064 47.285749 
L 196.486924 47.338526 
L 196.679784 47.467897 
L 197.065505 47.456546 
L 197.836945 47.434318 
L 198.029805 47.410069 
L 198.222665 47.535764 
L 198.994105 47.402072 
L 201.501286 47.495843 
L 201.790576 47.479032 
L 202.176296 47.538666 
L 202.562016 47.527896 
L 202.851307 47.545889 
L 203.237027 47.500723 
L 203.622747 47.558852 
L 205.937068 47.595935 
L 206.129928 47.607135 
L 206.419218 47.689449 
L 209.504979 47.761873 
L 209.987129 47.662684 
L 210.179989 47.70411 
L 210.758569 47.642262 
L 213.84433 47.859923 
L 214.03719 47.928091 
L 214.905061 47.881506 
L 215.290781 47.870779 
L 216.255081 47.830192 
L 216.930091 47.720254 
L 217.412242 47.799687 
L 217.894392 47.794248 
L 218.280112 47.840038 
L 218.665832 47.857666 
L 220.594433 47.835222 
L 220.980153 47.852377 
L 222.137313 47.796806 
L 223.198044 47.659954 
L 223.873054 47.586498 
L 224.355204 47.556853 
L 224.740924 47.574524 
L 227.151675 47.581424 
L 228.887416 47.289189 
L 229.562426 47.393408 
L 230.816016 47.353316 
L 231.587456 47.292607 
L 231.973177 47.309998 
L 233.033907 47.263414 
L 233.805347 47.158464 
L 233.998207 47.213561 
L 234.769648 47.156034 
L 235.251798 47.177725 
L 236.023238 47.12123 
L 236.601818 47.147091 
L 236.601818 47.147091 
" clip-path="url(#pe6d39ed0c2)" style="fill: none; stroke: #1f77b4; stroke-width: 1.6; stroke-linecap: square"/>
   </g>
   <g id="line2d_19">
    <path d="M 43.838182 28.888364 
L 43.934612 51.429991 
L 44.031042 43.916123 
L 44.127472 62.700805 
L 44.416762 48.209749 
L 44.513192 51.429991 
L 44.609622 58.94386 
L 44.706052 55.938312 
L 44.898912 58.94386 
L 44.995342 56.631904 
L 45.188202 67.960524 
L 45.284632 68.336212 
L 45.477492 63.953113 
L 45.573922 64.4804 
L 45.670352 62.700805 
L 45.766782 65.384322 
L 45.959643 62.210772 
L 46.056073 62.700805 
L 46.248933 60.099838 
L 46.441793 61.090695 
L 46.923943 56.211544 
L 47.213233 57.691552 
L 47.406093 56.1756 
L 47.598953 57.065398 
L 47.791813 55.72364 
L 47.888243 57.196446 
L 47.984673 56.553094 
L 48.081103 56.940176 
L 48.273963 60.542555 
L 48.370393 60.822343 
L 48.563253 59.544969 
L 48.852544 60.36159 
L 48.948974 59.778732 
L 49.045404 60.036786 
L 49.238264 58.94386 
L 49.334694 59.98027 
L 49.431124 59.453283 
L 49.623984 59.929299 
L 50.106134 57.577702 
L 50.202564 57.822385 
L 50.491854 59.802594 
L 50.684714 58.94386 
L 50.877574 61.177716 
L 50.974004 60.747188 
L 51.263294 59.52186 
L 51.456154 59.883102 
L 52.034735 57.720681 
L 52.131165 57.907472 
L 52.420455 56.940176 
L 52.613315 57.310425 
L 52.806175 56.705683 
L 52.999035 57.065398 
L 53.095465 56.774904 
L 53.384755 57.29082 
L 53.481185 57.009612 
L 53.770475 57.498893 
L 53.963335 56.959072 
L 54.059765 57.118067 
L 54.252625 56.600087 
L 54.541916 57.065398 
L 54.638346 56.81605 
L 54.927636 58.425666 
L 55.216926 57.68104 
L 55.313356 58.192484 
L 55.795506 57.020318 
L 55.988366 57.287272 
L 56.181226 56.846963 
L 56.277656 56.978699 
L 56.374086 56.764263 
L 56.470516 57.236173 
L 56.856236 56.402419 
L 56.952666 56.530651 
L 57.049096 56.330338 
L 57.145526 56.781611 
L 57.724107 55.627396 
L 58.109827 56.119858 
L 58.302687 55.759175 
L 58.399117 55.879001 
L 58.495547 56.291901 
L 58.591977 56.113967 
L 58.688407 56.229172 
L 58.881267 55.880893 
L 59.074127 56.108443 
L 59.652707 55.118618 
L 59.845567 55.344405 
L 59.941997 55.186936 
L 60.038427 55.298078 
L 60.231287 54.989203 
L 60.327717 55.099549 
L 60.424148 54.948057 
L 60.713438 55.272324 
L 61.002728 54.830123 
L 61.099158 55.186936 
L 61.484878 54.615214 
L 61.581308 54.719841 
L 61.774168 55.166836 
L 61.870598 55.266864 
L 62.063458 54.989203 
L 62.545608 55.475925 
L 62.642038 55.340277 
L 62.834898 55.528465 
L 62.931328 55.394601 
L 63.220618 55.670498 
L 63.317049 55.538569 
L 63.509909 55.718394 
L 63.606339 55.588163 
L 63.702769 55.676969 
L 64.088489 55.169115 
L 64.184919 55.257813 
L 64.281349 55.13401 
L 64.763499 55.566064 
L 65.438509 54.736093 
L 65.534939 54.821201 
L 66.017089 54.259884 
L 66.20995 54.429089 
L 66.30638 54.897926 
L 66.49924 54.677513 
L 66.59567 54.758924 
L 66.6921 55.029081 
L 66.88496 54.811227 
L 67.07782 54.969576 
L 67.27068 55.310116 
L 67.36711 55.202264 
L 67.46354 55.278558 
L 67.75283 54.960612 
L 67.94569 55.112082 
L 68.33141 54.70073 
L 68.52427 54.850696 
L 68.6207 54.750067 
L 68.81356 55.071323 
L 68.90999 55.143748 
L 69.00642 55.043527 
L 69.199281 55.186936 
L 69.392141 54.989203 
L 69.585001 55.13085 
L 69.970721 54.744929 
L 70.163581 55.049805 
L 70.260011 54.954679 
L 70.356441 55.023578 
L 70.549301 55.484245 
L 70.742161 55.294273 
L 70.838591 55.360743 
L 71.031451 55.173651 
L 71.127881 55.239841 
L 71.224311 55.147381 
L 71.320741 55.213206 
L 71.417171 55.121477 
L 71.513601 55.186936 
L 71.610031 55.095938 
L 71.706461 55.16101 
L 71.802891 55.070743 
L 71.995752 55.199749 
L 72.285042 55.694618 
L 72.381472 55.604372 
L 72.477902 55.817282 
L 73.538632 54.85865 
L 73.635062 54.920304 
L 73.924352 54.814838 
L 74.117212 54.93647 
L 74.599362 54.670354 
L 74.888653 54.570456 
L 74.985083 54.630348 
L 75.177943 54.610721 
L 75.274373 54.669924 
L 75.852953 54.340778 
L 75.949383 54.534534 
L 76.624393 54.008063 
L 76.720823 54.198251 
L 76.817253 54.124472 
L 77.010113 54.370208 
L 77.395833 54.207323 
L 77.588693 54.576819 
L 77.877984 54.486487 
L 78.263704 54.57826 
L 78.649424 54.418943 
L 78.842284 54.402519 
L 79.131574 54.316787 
L 79.517294 54.407184 
L 79.999444 54.187738 
L 80.385164 54.277361 
L 80.963745 53.999507 
L 81.735185 54.290603 
L 81.831615 54.226305 
L 82.024475 54.439322 
L 82.699485 54.108198 
L 82.988775 54.143841 
L 83.470925 53.946774 
L 83.953076 54.078768 
L 84.145936 54.066128 
L 84.242366 54.113508 
L 84.435226 54.421307 
L 85.592386 53.819188 
L 85.881676 53.854379 
L 86.363826 53.673951 
L 86.460256 53.821531 
L 86.845977 53.699275 
L 87.135267 53.734251 
L 87.424557 53.669222 
L 87.713847 54.099384 
L 88.678147 53.655141 
L 88.871007 53.934607 
L 89.546018 54.134984 
L 89.835308 54.070857 
L 90.124598 54.101255 
L 90.510318 53.986265 
L 90.896038 54.05755 
L 91.571048 53.793219 
L 91.860338 54.004882 
L 91.956768 53.954664 
L 92.149628 28.888364 
L 92.246058 28.888364 
L 92.342489 40.159177 
L 92.631779 35.328826 
L 93.017499 49.380754 
L 93.210359 46.228079 
L 93.306789 51.429991 
L 93.403219 49.927217 
L 93.499649 54.247695 
L 93.596079 52.755971 
L 93.981799 56.797046 
L 94.078229 55.528465 
L 94.271089 58.94386 
L 94.463949 56.631904 
L 94.656809 57.870453 
L 95.042529 54.247695 
L 95.23539 55.407929 
L 95.33182 57.226413 
L 95.71754 54.319947 
L 95.81397 54.811227 
L 96.00683 53.576805 
L 96.10326 55.099549 
L 96.29612 53.934607 
L 96.48898 55.74647 
L 96.58541 56.126156 
L 96.77827 55.036648 
L 97.06756 56.108443 
L 97.16399 55.604372 
L 97.26042 55.938312 
L 97.35685 55.455288 
L 97.54971 56.093781 
L 97.839 54.755806 
L 97.93543 55.065734 
L 98.03186 54.650233 
L 98.128291 54.95212 
L 98.321151 54.162307 
L 98.417581 54.45796 
L 98.610441 55.676969 
L 98.706871 55.938312 
L 98.803301 56.827272 
L 98.899731 56.439244 
L 99.092591 58.740796 
L 99.189021 58.34275 
L 99.478311 57.209903 
L 99.574741 57.422061 
L 99.671171 58.192484 
L 99.960461 57.133287 
L 100.056891 57.33375 
L 100.249751 56.672233 
L 100.346181 57.389277 
L 100.635471 56.439244 
L 100.828331 56.820371 
L 101.021192 56.226076 
L 101.406912 56.950387 
L 101.503342 56.666944 
L 101.599772 56.839977 
L 101.792632 56.291901 
L 101.889062 56.463558 
L 102.081922 55.938312 
L 102.274782 56.275391 
L 102.371212 56.021808 
L 102.467642 56.186478 
L 102.660502 56.913089 
L 102.756932 57.065398 
L 102.949792 56.571066 
L 103.046222 57.114412 
L 103.431942 56.165626 
L 103.528372 56.68971 
L 104.010523 55.577651 
L 104.203383 55.867328 
L 104.396243 55.449032 
L 104.492673 55.591517 
L 104.589103 55.387679 
L 104.685533 55.528465 
L 105.071253 54.744929 
L 105.167683 54.885285 
L 105.264113 54.696904 
L 105.360543 55.484245 
L 105.939123 54.38373 
L 106.324843 54.909577 
L 106.517703 54.56491 
L 106.710563 54.8186 
L 106.806993 54.650233 
L 106.903424 54.774875 
L 107.192714 54.283359 
L 107.289144 54.407184 
L 107.674864 53.780965 
L 107.771294 53.904081 
L 108.157014 53.308453 
L 108.253444 53.697491 
L 108.446304 53.407319 
L 108.542734 53.526888 
L 108.639164 53.384468 
L 108.928454 53.735391 
L 109.217744 53.318944 
L 109.410604 53.54716 
L 109.603464 53.277669 
L 109.796325 53.745086 
L 109.892755 53.85382 
L 109.989185 54.202486 
L 110.182045 53.934607 
L 110.278475 54.040073 
L 110.374905 54.380462 
L 110.471335 54.247695 
L 110.760625 54.55113 
L 110.857055 54.420211 
L 110.953485 54.519443 
L 111.049915 55.073086 
L 111.146345 54.941501 
L 111.339205 55.13085 
L 111.532065 54.872301 
L 111.724925 55.05864 
L 111.821355 54.931612 
L 111.917785 55.023578 
L 112.303505 54.528128 
L 112.399935 54.619836 
L 112.592795 54.379366 
L 112.689226 54.680179 
L 112.785656 54.560782 
L 112.882086 54.650233 
L 113.267806 54.183955 
L 113.364236 54.273083 
L 113.557096 54.046436 
L 113.653526 54.134984 
L 113.749956 54.023284 
L 113.846386 54.111143 
L 113.942816 54.000518 
L 114.039246 54.087733 
L 114.232106 53.869556 
L 114.328536 53.956212 
L 114.424966 53.848617 
L 114.521396 54.512607 
L 114.617826 54.403572 
L 114.714256 54.295462 
L 114.907116 54.460798 
L 115.099976 54.247695 
L 115.292836 54.410709 
L 115.389266 54.305673 
L 115.485696 54.386267 
L 115.967847 53.874264 
L 116.064277 53.954664 
L 116.160707 54.214008 
L 116.546427 53.816758 
L 116.739287 53.973603 
L 116.835717 53.876371 
L 117.125007 54.452823 
L 117.510727 54.066945 
L 117.607157 54.141756 
L 117.703587 54.047189 
L 117.800017 54.121527 
L 117.992877 53.934607 
L 118.089307 54.008558 
L 118.282167 53.824519 
L 118.378597 53.898061 
L 118.475028 53.807106 
L 118.764318 54.024702 
L 118.957178 53.845156 
L 119.053608 53.916786 
L 119.246468 53.739905 
L 119.342898 53.811148 
L 119.632188 53.550642 
L 119.728618 53.621541 
L 119.825048 53.53596 
L 120.017908 53.676402 
L 120.114338 53.591509 
L 120.403628 54.104415 
L 120.596488 53.934607 
L 120.692918 54.001851 
L 120.982208 53.751557 
L 121.078638 53.967799 
L 121.367929 53.721117 
L 121.464359 53.787285 
L 121.657219 53.625604 
L 121.850079 53.756867 
L 122.042939 54.030958 
L 122.235799 54.157965 
L 122.332229 54.363974 
L 122.717949 54.044544 
L 122.814379 54.247695 
L 123.103669 54.15173 
L 123.200099 54.212912 
L 123.296529 54.134984 
L 123.585819 54.591309 
L 123.971539 54.417438 
L 124.067969 54.476147 
L 124.26083 54.727129 
L 124.35726 54.784398 
L 124.64655 54.688219 
L 124.93584 54.857382 
L 125.03227 54.781668 
L 125.22513 55.023578 
L 125.51442 55.186936 
L 125.61085 55.111566 
L 125.80371 55.347479 
L 125.99657 55.453009 
L 126.28586 55.355777 
L 126.38229 55.534205 
L 126.67158 55.312158 
L 126.86444 55.539794 
L 127.539451 55.156389 
L 127.828741 55.186936 
L 128.021601 55.166836 
L 128.214461 55.146951 
L 128.889471 54.784742 
L 129.082331 54.767329 
L 129.468051 54.617105 
L 130.335922 54.941501 
L 130.914502 54.666162 
L 131.107362 54.650233 
L 131.685942 54.275061 
L 131.782372 54.431906 
L 131.975232 54.417438 
L 132.264522 54.44992 
L 132.457382 54.328202 
L 132.650242 54.74179 
L 133.807403 54.130835 
L 134.000263 54.118452 
L 134.578843 53.877961 
L 134.675273 54.025068 
L 134.964563 53.957072 
L 135.253853 53.990393 
L 135.543143 53.923536 
L 136.025294 54.044222 
L 136.989594 53.602107 
L 137.278884 53.828044 
L 137.568174 54.051101 
L 137.761034 54.040073 
L 138.821765 53.563562 
L 139.207485 53.638158 
L 139.786065 53.429655 
L 139.978925 53.512141 
L 140.171785 53.413661 
L 140.171785 53.413661 
" clip-path="url(#pe6d39ed0c2)" style="fill: none; stroke: #ff7f0e; stroke-width: 1.6; stroke-linecap: square"/>
   </g>
   <g id="patch_7">
    <path d="M 34.2 163.8 
L 34.2 22.464 
" style="fill: none; stroke: #000000; stroke-width: 0.8; stroke-linejoin: miter; stroke-linecap: square"/>
   </g>
   <g id="patch_8">
    <path d="M 246.24 163.8 
L 246.24 22.464 
" style="fill: none; stroke: #000000; stroke-width: 0.8; stroke-linejoin: miter; stroke-linecap: square"/>
   </g>
   <g id="patch_9">
    <path d="M 34.2 163.8 
L 246.24 163.8 
" style="fill: none; stroke: #000000; stroke-width: 0.8; stroke-linejoin: miter; stroke-linecap: square"/>
   </g>
   <g id="patch_10">
    <path d="M 34.2 22.464 
L 246.24 22.464 
" style="fill: none; stroke: #000000; stroke-width: 0.8; stroke-linejoin: miter; stroke-linecap: square"/>
   </g>
  </g>
 </g>
 <defs>
  <clipPath id="pe6d39ed0c2">
   <rect x="34.2" y="22.464" width="212.04" height="141.336"/>
  </clipPath>
 </defs>
</svg>
