<?xml version="1.0" encoding="utf-8" standalone="no"?>
<!DOCTYPE svg PUBLIC "-//W3C//DTD SVG 1.1//EN"
  "http://www.w3.org/Graphics/SVG/1.1/DTD/svg11.dtd">
<svg xmlns:xlink="http://www.w3.org/1999/xlink" width="273.6pt" height="187.2pt" viewBox="0 0 273.6 187.2" xmlns="http://www.w3.org/2000/svg" version="1.1">
 <metadata>
  <rdf:RDF xmlns:dc="http://purl.org/dc/elements/1.1/" xmlns:cc="http://creativecommons.org/ns#" xmlns:rdf="http://www.w3.org/1999/02/22-rdf-syntax-ns#">
   <cc:Work>
    <dc:type rdf:resource="http://purl.org/dc/dcmitype/StillImage"/>
    <dc:date>2022-04-20T17:44:46.656320</dc:date>
    <dc:format>image/svg+xml</dc:format>
    <dc:creator>
     <cc:Agent>
      <dc:title>Matplotlib v3.5.1, https://matplotlib.org/</dc:title>
     </cc:Agent>
    </dc:creator>
   </cc:Work>
  </rdf:RDF>
 </metadata>
 <defs>
  <style type="text/css">*{stroke-linejoin: round; stroke-linecap: butt}</style>
 </defs>
 <g id="figure_1">
  <g id="patch_1">
   <path d="M 0 187.2 
L 273.6 187.2 
L 273.6 0 
L 0 0 
L 0 187.2 
z
" style="fill: none"/>
  </g>
  <g id="axes_1">
   <g id="patch_2">
    <path d="M 34.2 163.8 
L 246.24 163.8 
L 246.24 22.464 
L 34.2 22.464 
z
" style="fill: #ffffff"/>
   </g>
   <g id="matplotlib.axis_1">
    <g id="xtick_1">
     <g id="line2d_1">
      <defs>
       <path id="m61ed9e9b98" d="M 0 0 
L 0 3.5 
" style="stroke: #000000; stroke-width: 0.8"/>
      </defs>
      <g>
       <use xlink:href="#m61ed9e9b98" x="43.838182" y="163.8" style="stroke: #000000; stroke-width: 0.8"/>
      </g>
     </g>
     <g id="text_1">
      <!-- 0 -->
      <g transform="translate(40.752369 178.170484)scale(0.097 -0.097)">
       <defs>
        <path id="DejaVuSans-30" d="M 2034 4250 
Q 1547 4250 1301 3770 
Q 1056 3291 1056 2328 
Q 1056 1369 1301 889 
Q 1547 409 2034 409 
Q 2525 409 2770 889 
Q 3016 1369 3016 2328 
Q 3016 3291 2770 3770 
Q 2525 4250 2034 4250 
z
M 2034 4750 
Q 2819 4750 3233 4129 
Q 3647 3509 3647 2328 
Q 3647 1150 3233 529 
Q 2819 -91 2034 -91 
Q 1250 -91 836 529 
Q 422 1150 422 2328 
Q 422 3509 836 4129 
Q 1250 4750 2034 4750 
z
" transform="scale(0.015625)"/>
       </defs>
       <use xlink:href="#DejaVuSans-30"/>
      </g>
     </g>
    </g>
    <g id="xtick_2">
     <g id="line2d_2">
      <g>
       <use xlink:href="#m61ed9e9b98" x="92.053198" y="163.8" style="stroke: #000000; stroke-width: 0.8"/>
      </g>
     </g>
     <g id="text_2">
      <!-- 500 -->
      <g transform="translate(82.795761 178.170484)scale(0.097 -0.097)">
       <defs>
        <path id="DejaVuSans-35" d="M 691 4666 
L 3169 4666 
L 3169 4134 
L 1269 4134 
L 1269 2991 
Q 1406 3038 1543 3061 
Q 1681 3084 1819 3084 
Q 2600 3084 3056 2656 
Q 3513 2228 3513 1497 
Q 3513 744 3044 326 
Q 2575 -91 1722 -91 
Q 1428 -91 1123 -41 
Q 819 9 494 109 
L 494 744 
Q 775 591 1075 516 
Q 1375 441 1709 441 
Q 2250 441 2565 725 
Q 2881 1009 2881 1497 
Q 2881 1984 2565 2268 
Q 2250 2553 1709 2553 
Q 1456 2553 1204 2497 
Q 953 2441 691 2322 
L 691 4666 
z
" transform="scale(0.015625)"/>
       </defs>
       <use xlink:href="#DejaVuSans-35"/>
       <use xlink:href="#DejaVuSans-30" x="63.623047"/>
       <use xlink:href="#DejaVuSans-30" x="127.246094"/>
      </g>
     </g>
    </g>
    <g id="xtick_3">
     <g id="line2d_3">
      <g>
       <use xlink:href="#m61ed9e9b98" x="140.268215" y="163.8" style="stroke: #000000; stroke-width: 0.8"/>
      </g>
     </g>
     <g id="text_3">
      <!-- 1000 -->
      <g transform="translate(127.924965 178.170484)scale(0.097 -0.097)">
       <defs>
        <path id="DejaVuSans-31" d="M 794 531 
L 1825 531 
L 1825 4091 
L 703 3866 
L 703 4441 
L 1819 4666 
L 2450 4666 
L 2450 531 
L 3481 531 
L 3481 0 
L 794 0 
L 794 531 
z
" transform="scale(0.015625)"/>
       </defs>
       <use xlink:href="#DejaVuSans-31"/>
       <use xlink:href="#DejaVuSans-30" x="63.623047"/>
       <use xlink:href="#DejaVuSans-30" x="127.246094"/>
       <use xlink:href="#DejaVuSans-30" x="190.869141"/>
      </g>
     </g>
    </g>
    <g id="xtick_4">
     <g id="line2d_4">
      <g>
       <use xlink:href="#m61ed9e9b98" x="188.483232" y="163.8" style="stroke: #000000; stroke-width: 0.8"/>
      </g>
     </g>
     <g id="text_4">
      <!-- 1500 -->
      <g transform="translate(176.139982 178.170484)scale(0.097 -0.097)">
       <use xlink:href="#DejaVuSans-31"/>
       <use xlink:href="#DejaVuSans-35" x="63.623047"/>
       <use xlink:href="#DejaVuSans-30" x="127.246094"/>
       <use xlink:href="#DejaVuSans-30" x="190.869141"/>
      </g>
     </g>
    </g>
    <g id="xtick_5">
     <g id="line2d_5">
      <g>
       <use xlink:href="#m61ed9e9b98" x="236.698248" y="163.8" style="stroke: #000000; stroke-width: 0.8"/>
      </g>
     </g>
     <g id="text_5">
      <!-- 2000 -->
      <g transform="translate(224.354998 178.170484)scale(0.097 -0.097)">
       <defs>
        <path id="DejaVuSans-32" d="M 1228 531 
L 3431 531 
L 3431 0 
L 469 0 
L 469 531 
Q 828 903 1448 1529 
Q 2069 2156 2228 2338 
Q 2531 2678 2651 2914 
Q 2772 3150 2772 3378 
Q 2772 3750 2511 3984 
Q 2250 4219 1831 4219 
Q 1534 4219 1204 4116 
Q 875 4013 500 3803 
L 500 4441 
Q 881 4594 1212 4672 
Q 1544 4750 1819 4750 
Q 2544 4750 2975 4387 
Q 3406 4025 3406 3419 
Q 3406 3131 3298 2873 
Q 3191 2616 2906 2266 
Q 2828 2175 2409 1742 
Q 1991 1309 1228 531 
z
" transform="scale(0.015625)"/>
       </defs>
       <use xlink:href="#DejaVuSans-32"/>
       <use xlink:href="#DejaVuSans-30" x="63.623047"/>
       <use xlink:href="#DejaVuSans-30" x="127.246094"/>
       <use xlink:href="#DejaVuSans-30" x="190.869141"/>
      </g>
     </g>
    </g>
    <g id="text_6">
     <!-- Learning Curve -->
     <g transform="translate(103.313016 191.558266)scale(0.097 -0.097)">
      <defs>
       <path id="DejaVuSans-4c" d="M 628 4666 
L 1259 4666 
L 1259 531 
L 3531 531 
L 3531 0 
L 628 0 
L 628 4666 
z
" transform="scale(0.015625)"/>
       <path id="DejaVuSans-65" d="M 3597 1894 
L 3597 1613 
L 953 1613 
Q 991 1019 1311 708 
Q 1631 397 2203 397 
Q 2534 397 2845 478 
Q 3156 559 3463 722 
L 3463 178 
Q 3153 47 2828 -22 
Q 2503 -91 2169 -91 
Q 1331 -91 842 396 
Q 353 884 353 1716 
Q 353 2575 817 3079 
Q 1281 3584 2069 3584 
Q 2775 3584 3186 3129 
Q 3597 2675 3597 1894 
z
M 3022 2063 
Q 3016 2534 2758 2815 
Q 2500 3097 2075 3097 
Q 1594 3097 1305 2825 
Q 1016 2553 972 2059 
L 3022 2063 
z
" transform="scale(0.015625)"/>
       <path id="DejaVuSans-61" d="M 2194 1759 
Q 1497 1759 1228 1600 
Q 959 1441 959 1056 
Q 959 750 1161 570 
Q 1363 391 1709 391 
Q 2188 391 2477 730 
Q 2766 1069 2766 1631 
L 2766 1759 
L 2194 1759 
z
M 3341 1997 
L 3341 0 
L 2766 0 
L 2766 531 
Q 2569 213 2275 61 
Q 1981 -91 1556 -91 
Q 1019 -91 701 211 
Q 384 513 384 1019 
Q 384 1609 779 1909 
Q 1175 2209 1959 2209 
L 2766 2209 
L 2766 2266 
Q 2766 2663 2505 2880 
Q 2244 3097 1772 3097 
Q 1472 3097 1187 3025 
Q 903 2953 641 2809 
L 641 3341 
Q 956 3463 1253 3523 
Q 1550 3584 1831 3584 
Q 2591 3584 2966 3190 
Q 3341 2797 3341 1997 
z
" transform="scale(0.015625)"/>
       <path id="DejaVuSans-72" d="M 2631 2963 
Q 2534 3019 2420 3045 
Q 2306 3072 2169 3072 
Q 1681 3072 1420 2755 
Q 1159 2438 1159 1844 
L 1159 0 
L 581 0 
L 581 3500 
L 1159 3500 
L 1159 2956 
Q 1341 3275 1631 3429 
Q 1922 3584 2338 3584 
Q 2397 3584 2469 3576 
Q 2541 3569 2628 3553 
L 2631 2963 
z
" transform="scale(0.015625)"/>
       <path id="DejaVuSans-6e" d="M 3513 2113 
L 3513 0 
L 2938 0 
L 2938 2094 
Q 2938 2591 2744 2837 
Q 2550 3084 2163 3084 
Q 1697 3084 1428 2787 
Q 1159 2491 1159 1978 
L 1159 0 
L 581 0 
L 581 3500 
L 1159 3500 
L 1159 2956 
Q 1366 3272 1645 3428 
Q 1925 3584 2291 3584 
Q 2894 3584 3203 3211 
Q 3513 2838 3513 2113 
z
" transform="scale(0.015625)"/>
       <path id="DejaVuSans-69" d="M 603 3500 
L 1178 3500 
L 1178 0 
L 603 0 
L 603 3500 
z
M 603 4863 
L 1178 4863 
L 1178 4134 
L 603 4134 
L 603 4863 
z
" transform="scale(0.015625)"/>
       <path id="DejaVuSans-67" d="M 2906 1791 
Q 2906 2416 2648 2759 
Q 2391 3103 1925 3103 
Q 1463 3103 1205 2759 
Q 947 2416 947 1791 
Q 947 1169 1205 825 
Q 1463 481 1925 481 
Q 2391 481 2648 825 
Q 2906 1169 2906 1791 
z
M 3481 434 
Q 3481 -459 3084 -895 
Q 2688 -1331 1869 -1331 
Q 1566 -1331 1297 -1286 
Q 1028 -1241 775 -1147 
L 775 -588 
Q 1028 -725 1275 -790 
Q 1522 -856 1778 -856 
Q 2344 -856 2625 -561 
Q 2906 -266 2906 331 
L 2906 616 
Q 2728 306 2450 153 
Q 2172 0 1784 0 
Q 1141 0 747 490 
Q 353 981 353 1791 
Q 353 2603 747 3093 
Q 1141 3584 1784 3584 
Q 2172 3584 2450 3431 
Q 2728 3278 2906 2969 
L 2906 3500 
L 3481 3500 
L 3481 434 
z
" transform="scale(0.015625)"/>
       <path id="DejaVuSans-20" transform="scale(0.015625)"/>
       <path id="DejaVuSans-43" d="M 4122 4306 
L 4122 3641 
Q 3803 3938 3442 4084 
Q 3081 4231 2675 4231 
Q 1875 4231 1450 3742 
Q 1025 3253 1025 2328 
Q 1025 1406 1450 917 
Q 1875 428 2675 428 
Q 3081 428 3442 575 
Q 3803 722 4122 1019 
L 4122 359 
Q 3791 134 3420 21 
Q 3050 -91 2638 -91 
Q 1578 -91 968 557 
Q 359 1206 359 2328 
Q 359 3453 968 4101 
Q 1578 4750 2638 4750 
Q 3056 4750 3426 4639 
Q 3797 4528 4122 4306 
z
" transform="scale(0.015625)"/>
       <path id="DejaVuSans-75" d="M 544 1381 
L 544 3500 
L 1119 3500 
L 1119 1403 
Q 1119 906 1312 657 
Q 1506 409 1894 409 
Q 2359 409 2629 706 
Q 2900 1003 2900 1516 
L 2900 3500 
L 3475 3500 
L 3475 0 
L 2900 0 
L 2900 538 
Q 2691 219 2414 64 
Q 2138 -91 1772 -91 
Q 1169 -91 856 284 
Q 544 659 544 1381 
z
M 1991 3584 
L 1991 3584 
z
" transform="scale(0.015625)"/>
       <path id="DejaVuSans-76" d="M 191 3500 
L 800 3500 
L 1894 563 
L 2988 3500 
L 3597 3500 
L 2284 0 
L 1503 0 
L 191 3500 
z
" transform="scale(0.015625)"/>
      </defs>
      <use xlink:href="#DejaVuSans-4c"/>
      <use xlink:href="#DejaVuSans-65" x="53.962891"/>
      <use xlink:href="#DejaVuSans-61" x="115.486328"/>
      <use xlink:href="#DejaVuSans-72" x="176.765625"/>
      <use xlink:href="#DejaVuSans-6e" x="216.128906"/>
      <use xlink:href="#DejaVuSans-69" x="279.507812"/>
      <use xlink:href="#DejaVuSans-6e" x="307.291016"/>
      <use xlink:href="#DejaVuSans-67" x="370.669922"/>
      <use xlink:href="#DejaVuSans-20" x="434.146484"/>
      <use xlink:href="#DejaVuSans-43" x="465.933594"/>
      <use xlink:href="#DejaVuSans-75" x="535.757812"/>
      <use xlink:href="#DejaVuSans-72" x="599.136719"/>
      <use xlink:href="#DejaVuSans-76" x="640.25"/>
      <use xlink:href="#DejaVuSans-65" x="699.429688"/>
     </g>
    </g>
   </g>
   <g id="matplotlib.axis_2">
    <g id="ytick_1">
     <g id="line2d_6">
      <defs>
       <path id="mde554be539" d="M 0 0 
L -3.5 0 
" style="stroke: #000000; stroke-width: 0.8"/>
      </defs>
      <g>
       <use xlink:href="#mde554be539" x="34.2" y="163.598676" style="stroke: #000000; stroke-width: 0.8"/>
      </g>
     </g>
     <g id="text_7">
      <!-- 0.0 -->
      <g transform="translate(11.773969 167.283918)scale(0.097 -0.097)">
       <defs>
        <path id="DejaVuSans-2e" d="M 684 794 
L 1344 794 
L 1344 0 
L 684 0 
L 684 794 
z
" transform="scale(0.015625)"/>
       </defs>
       <use xlink:href="#DejaVuSans-30"/>
       <use xlink:href="#DejaVuSans-2e" x="63.623047"/>
       <use xlink:href="#DejaVuSans-30" x="95.410156"/>
      </g>
     </g>
    </g>
    <g id="ytick_2">
     <g id="line2d_7">
      <g>
       <use xlink:href="#mde554be539" x="34.2" y="124.711733" style="stroke: #000000; stroke-width: 0.8"/>
      </g>
     </g>
     <g id="text_8">
      <!-- 0.5 -->
      <g transform="translate(11.773969 128.396975)scale(0.097 -0.097)">
       <use xlink:href="#DejaVuSans-30"/>
       <use xlink:href="#DejaVuSans-2e" x="63.623047"/>
       <use xlink:href="#DejaVuSans-35" x="95.410156"/>
      </g>
     </g>
    </g>
    <g id="ytick_3">
     <g id="line2d_8">
      <g>
       <use xlink:href="#mde554be539" x="34.2" y="85.82479" style="stroke: #000000; stroke-width: 0.8"/>
      </g>
     </g>
     <g id="text_9">
      <!-- 1.0 -->
      <g transform="translate(11.773969 89.510032)scale(0.097 -0.097)">
       <use xlink:href="#DejaVuSans-31"/>
       <use xlink:href="#DejaVuSans-2e" x="63.623047"/>
       <use xlink:href="#DejaVuSans-30" x="95.410156"/>
      </g>
     </g>
    </g>
    <g id="ytick_4">
     <g id="line2d_9">
      <g>
       <use xlink:href="#mde554be539" x="34.2" y="46.937848" style="stroke: #000000; stroke-width: 0.8"/>
      </g>
     </g>
     <g id="text_10">
      <!-- 1.5 -->
      <g transform="translate(11.773969 50.62309)scale(0.097 -0.097)">
       <use xlink:href="#DejaVuSans-31"/>
       <use xlink:href="#DejaVuSans-2e" x="63.623047"/>
       <use xlink:href="#DejaVuSans-35" x="95.410156"/>
      </g>
     </g>
    </g>
    <g id="text_11">
     <!-- Loss -->
     <g transform="translate(5.756672 103.770172)rotate(-90)scale(0.097 -0.097)">
      <defs>
       <path id="DejaVuSans-6f" d="M 1959 3097 
Q 1497 3097 1228 2736 
Q 959 2375 959 1747 
Q 959 1119 1226 758 
Q 1494 397 1959 397 
Q 2419 397 2687 759 
Q 2956 1122 2956 1747 
Q 2956 2369 2687 2733 
Q 2419 3097 1959 3097 
z
M 1959 3584 
Q 2709 3584 3137 3096 
Q 3566 2609 3566 1747 
Q 3566 888 3137 398 
Q 2709 -91 1959 -91 
Q 1206 -91 779 398 
Q 353 888 353 1747 
Q 353 2609 779 3096 
Q 1206 3584 1959 3584 
z
" transform="scale(0.015625)"/>
       <path id="DejaVuSans-73" d="M 2834 3397 
L 2834 2853 
Q 2591 2978 2328 3040 
Q 2066 3103 1784 3103 
Q 1356 3103 1142 2972 
Q 928 2841 928 2578 
Q 928 2378 1081 2264 
Q 1234 2150 1697 2047 
L 1894 2003 
Q 2506 1872 2764 1633 
Q 3022 1394 3022 966 
Q 3022 478 2636 193 
Q 2250 -91 1575 -91 
Q 1294 -91 989 -36 
Q 684 19 347 128 
L 347 722 
Q 666 556 975 473 
Q 1284 391 1588 391 
Q 1994 391 2212 530 
Q 2431 669 2431 922 
Q 2431 1156 2273 1281 
Q 2116 1406 1581 1522 
L 1381 1569 
Q 847 1681 609 1914 
Q 372 2147 372 2553 
Q 372 3047 722 3315 
Q 1072 3584 1716 3584 
Q 2034 3584 2315 3537 
Q 2597 3491 2834 3397 
z
" transform="scale(0.015625)"/>
      </defs>
      <use xlink:href="#DejaVuSans-4c"/>
      <use xlink:href="#DejaVuSans-6f" x="53.962891"/>
      <use xlink:href="#DejaVuSans-73" x="115.144531"/>
      <use xlink:href="#DejaVuSans-73" x="167.244141"/>
     </g>
    </g>
   </g>
   <g id="line2d_10">
    <path d="M 43.838182 28.888364 
L 44.127472 31.261881 
L 44.223902 31.420319 
L 44.320332 31.160415 
L 44.513192 31.394851 
L 44.609622 31.346046 
L 45.477492 33.134104 
L 45.959643 34.960054 
L 46.441793 37.940669 
L 46.923943 43.156251 
L 48.756114 73.211704 
L 50.491854 90.346025 
L 51.359724 96.056859 
L 51.649015 97.49356 
L 52.324025 100.817726 
L 52.999035 103.108756 
L 53.191895 103.540329 
L 53.770475 105.380872 
L 54.156195 106.701041 
L 54.445485 107.677659 
L 56.181226 113.196794 
L 56.856236 114.846847 
L 57.049096 115.265978 
L 57.434816 115.916893 
L 57.627677 116.160142 
L 58.109827 117.144492 
L 58.206257 116.952732 
L 58.881267 118.150612 
L 59.266987 118.72387 
L 61.002728 121.499013 
L 61.195588 121.442138 
L 61.677738 122.113956 
L 62.159888 122.800857 
L 62.449178 123.241197 
L 62.834898 123.403575 
L 63.317049 123.927533 
L 64.281349 125.080643 
L 65.245649 125.968159 
L 65.342079 125.933048 
L 65.534939 126.074328 
L 66.113519 126.46936 
L 66.40281 126.703536 
L 66.49924 126.547884 
L 66.98139 127.075179 
L 67.94569 127.609099 
L 68.6207 127.876867 
L 69.874291 128.523107 
L 69.970721 128.453009 
L 70.549301 128.787455 
L 70.935021 129.065244 
L 71.513601 129.507439 
L 71.610031 129.358488 
L 72.188612 129.787602 
L 73.345772 130.356924 
L 73.731492 130.510138 
L 74.695792 131.078181 
L 74.888653 131.11316 
L 75.274373 131.318629 
L 76.720823 131.699335 
L 77.299403 131.966747 
L 79.710154 132.851653 
L 79.903014 132.894482 
L 81.060175 133.329068 
L 82.410195 133.583303 
L 83.181635 133.950419 
L 83.953076 134.187163 
L 84.917376 134.563896 
L 85.978106 134.749507 
L 86.556687 134.960001 
L 88.388857 135.424103 
L 88.967437 135.541523 
L 89.642448 135.815828 
L 89.931738 135.918948 
L 90.799608 136.200552 
L 91.281758 136.218096 
L 92.631779 136.503186 
L 92.921069 136.490839 
L 94.367519 136.624982 
L 94.656809 136.667734 
L 94.849669 136.659348 
L 95.62111 136.803521 
L 99.767601 137.718524 
L 100.056891 137.756311 
L 100.539041 137.832478 
L 101.792632 137.925841 
L 102.853362 138.18438 
L 107.096284 138.874777 
L 107.385574 138.899087 
L 107.867724 138.976326 
L 108.928454 139.154413 
L 110.374905 139.519911 
L 112.110645 139.895768 
L 115.774987 140.062537 
L 118.089307 140.370525 
L 118.571458 140.388724 
L 119.632188 140.49143 
L 120.210768 140.520058 
L 120.789348 140.580262 
L 122.621519 140.712977 
L 123.200099 140.765453 
L 125.1287 140.954259 
L 126.38229 140.98396 
L 129.950201 141.387188 
L 130.239492 141.379192 
L 137.471744 141.822597 
L 138.436044 141.878708 
L 139.111055 141.928439 
L 140.171785 142.041664 
L 140.268215 139.275425 
L 140.364645 139.312696 
L 140.557505 149.767329 
L 140.653935 151.355427 
L 140.750365 150.884378 
L 140.846795 152.081018 
L 140.943225 147.775896 
L 141.136085 149.563424 
L 141.521805 152.14259 
L 141.618235 152.76374 
L 141.714666 151.93197 
L 141.907526 152.983658 
L 142.003956 152.193096 
L 142.293246 152.56878 
L 142.389676 152.267195 
L 142.775396 153.559593 
L 142.871826 153.620511 
L 143.064686 154.16536 
L 143.353976 152.390795 
L 143.450406 152.637091 
L 143.546836 152.19925 
L 143.643266 152.31111 
L 143.739696 152.194852 
L 144.028986 152.593005 
L 144.125416 152.282897 
L 144.414706 152.562292 
L 144.511136 152.480585 
L 144.703997 151.362564 
L 144.896857 150.630874 
L 145.089717 150.756181 
L 145.186147 150.679697 
L 145.379007 150.841837 
L 145.571867 150.601224 
L 145.861157 150.849432 
L 145.957587 150.967653 
L 146.536167 150.656025 
L 146.921887 151.116858 
L 147.114747 150.739863 
L 147.307607 150.859954 
L 147.404037 150.66096 
L 147.596898 150.824848 
L 147.886188 150.815406 
L 147.982618 150.848453 
L 148.175478 150.56184 
L 148.368338 150.595377 
L 148.561198 150.71962 
L 148.946918 150.974189 
L 149.236208 150.531045 
L 149.525498 150.785527 
L 149.718358 150.798389 
L 149.911218 150.689863 
L 150.489799 150.934416 
L 150.586229 150.919843 
L 150.779089 150.621456 
L 151.357669 150.736739 
L 151.454099 150.449449 
L 151.550529 150.512 
L 151.743389 150.417034 
L 152.804119 150.579757 
L 152.996979 150.458623 
L 153.67199 150.814011 
L 153.86485 150.97031 
L 153.96128 150.80892 
L 154.15414 150.951 
L 154.44343 150.757601 
L 154.63629 150.790933 
L 154.92558 150.662423 
L 155.3113 150.70604 
L 155.40773 150.706411 
L 155.69702 150.453893 
L 156.275601 150.180322 
L 157.239901 150.429409 
L 157.432761 150.316483 
L 157.529191 150.384608 
L 158.204201 149.971348 
L 158.493491 149.944488 
L 158.686351 149.861766 
L 159.747082 150.171601 
L 160.132802 149.952002 
L 160.422092 150.049946 
L 160.518522 150.09236 
L 160.711382 149.874275 
L 163.700713 149.93696 
L 163.990003 150.00522 
L 164.182863 149.969649 
L 164.375723 149.944532 
L 164.568583 149.834608 
L 165.050734 149.945674 
L 165.243594 149.83041 
L 165.629314 149.891803 
L 166.304324 149.888043 
L 166.690044 149.848918 
L 166.882904 149.830997 
L 167.172194 149.890558 
L 167.365054 149.838886 
L 169.293655 149.749008 
L 169.679375 149.743016 
L 169.968665 149.816224 
L 170.161525 149.78605 
L 170.547245 149.831452 
L 170.740106 149.729147 
L 172.379416 149.918164 
L 172.572276 149.763172 
L 173.343716 149.77847 
L 176.333047 149.896075 
L 176.622338 149.899171 
L 177.393778 149.940709 
L 178.358078 149.968662 
L 178.647368 149.830561 
L 179.033088 149.881168 
L 179.322378 149.773696 
L 180.093819 149.799332 
L 180.479539 149.793874 
L 180.768829 149.643227 
L 183.17958 149.657403 
L 183.37244 149.612306 
L 184.72246 149.619859 
L 185.10818 149.616048 
L 185.590331 149.608566 
L 186.361771 149.535947 
L 186.651061 149.52516 
L 187.229641 149.545532 
L 187.615361 149.50607 
L 187.904651 149.519847 
L 188.386802 149.450922 
L 188.772522 149.404363 
L 189.736822 149.455882 
L 190.411832 149.487887 
L 190.701122 149.474405 
L 190.990412 149.404533 
L 191.279703 149.37422 
L 192.822583 149.381933 
L 193.111873 149.275255 
L 193.690453 149.244741 
L 194.269034 149.200366 
L 199.958406 149.530787 
L 200.633416 149.578513 
L 201.790576 149.588139 
L 202.562016 149.594909 
L 203.429887 149.499373 
L 204.104897 149.529872 
L 204.587047 149.545903 
L 204.779907 149.498099 
L 205.744208 149.556594 
L 206.612078 149.551497 
L 206.804938 149.507574 
L 207.865668 149.572525 
L 208.733539 149.618196 
L 209.022829 149.604378 
L 211.337149 149.651299 
L 212.7836 149.697608 
L 213.26575 149.718375 
L 214.905061 149.734872 
L 215.580071 149.70121 
L 217.508672 149.740097 
L 218.762262 149.831103 
L 219.630132 149.885269 
L 220.690863 149.924648 
L 221.173013 149.828436 
L 224.162344 149.787196 
L 224.644494 149.769187 
L 225.898084 149.800985 
L 226.380235 149.813346 
L 227.923115 149.913891 
L 230.237436 149.876652 
L 231.780317 149.887219 
L 232.551757 149.905746 
L 233.033907 149.839792 
L 235.444658 149.866081 
L 236.601818 149.908023 
L 236.601818 149.908023 
" clip-path="url(#p3e8679ef2b)" style="fill: none; stroke: #1f77b4; stroke-width: 1.6; stroke-linecap: square"/>
   </g>
   <g id="line2d_11">
    <path d="M 43.838182 148.23285 
L 43.934612 137.347662 
L 44.031042 145.937778 
L 44.223902 130.913489 
L 44.802482 144.248085 
L 44.898912 145.693776 
L 44.995342 145.479858 
L 45.091772 146.364478 
L 45.188202 144.095126 
L 45.477492 146.864236 
L 45.670352 143.270324 
L 46.152503 146.934423 
L 46.441793 148.05392 
L 46.538223 146.510099 
L 46.634653 146.550034 
L 46.731083 146.726986 
L 46.827513 145.55714 
L 47.116803 146.741378 
L 47.309663 144.825283 
L 47.695383 146.099108 
L 47.888243 146.808198 
L 47.984673 146.010438 
L 48.370393 147.017097 
L 48.563253 146.185931 
L 48.659683 146.092206 
L 48.756114 145.817631 
L 48.852544 146.141527 
L 48.948974 146.044375 
L 49.141834 146.529928 
L 49.238264 146.413031 
L 49.431124 145.852388 
L 49.527554 145.641812 
L 49.816844 146.45442 
L 49.913274 146.327664 
L 50.009704 145.728679 
L 50.106134 145.959589 
L 50.202564 145.53652 
L 50.395424 145.866455 
L 50.491854 145.418471 
L 50.588284 145.632654 
L 50.684714 145.573904 
L 50.877574 145.904312 
L 51.649015 147.207584 
L 51.745445 146.734143 
L 51.841875 146.790444 
L 52.034735 146.280093 
L 52.227595 146.636224 
L 52.324025 146.573228 
L 53.288325 148.088116 
L 53.577615 147.487906 
L 53.674045 147.635561 
L 53.963335 146.401827 
L 54.059765 146.498562 
L 54.156195 146.378778 
L 54.349055 146.66418 
L 54.445485 146.5768 
L 54.541916 146.725774 
L 54.638346 146.545755 
L 54.927636 146.84559 
L 55.024066 146.797816 
L 55.120496 146.934536 
L 55.313356 146.272267 
L 55.409786 146.344773 
L 55.506216 146.483357 
L 55.602646 146.353459 
L 55.891936 146.687728 
L 55.988366 146.529529 
L 56.181226 146.749994 
L 56.277656 146.457794 
L 56.374086 146.558893 
L 56.470516 146.310455 
L 57.049096 146.904038 
L 57.241956 146.518223 
L 57.338386 146.631076 
L 57.434816 146.53525 
L 57.820537 146.869199 
L 57.916967 146.769341 
L 58.013397 146.879273 
L 58.206257 146.613155 
L 58.977697 146.763898 
L 59.074127 146.469577 
L 59.170557 146.565448 
L 59.266987 146.38677 
L 59.652707 146.627947 
L 59.845567 146.464817 
L 60.231287 146.689561 
L 60.327717 146.53198 
L 60.520578 146.580034 
L 60.617008 146.487952 
L 61.002728 146.76568 
L 61.195588 146.474672 
L 62.352748 147.356203 
L 62.642038 147.261988 
L 63.220618 147.678298 
L 63.413479 147.114168 
L 63.509909 147.173056 
L 63.992059 147.388431 
L 64.184919 147.37277 
L 64.474209 147.427213 
L 64.570639 147.500498 
L 64.667069 147.364715 
L 64.859929 147.445308 
L 65.149219 147.264886 
L 65.438509 147.414859 
L 65.534939 147.215872 
L 65.631369 147.268241 
L 65.824229 147.059378 
L 66.113519 147.166458 
L 66.20995 147.029686 
L 66.49924 147.169151 
L 66.88496 146.707359 
L 66.98139 146.665218 
L 67.17425 146.518083 
L 67.46354 146.264556 
L 67.6564 146.294646 
L 67.75283 146.361403 
L 67.94569 146.349344 
L 68.04212 146.359667 
L 68.23498 146.262201 
L 68.52427 146.352312 
L 68.90999 146.546066 
L 69.102851 146.394554 
L 69.295711 146.44933 
L 69.488571 146.513593 
L 69.585001 146.408778 
L 69.681431 146.470378 
L 69.777861 146.297812 
L 70.163581 146.517823 
L 70.356441 146.450083 
L 70.645731 146.564391 
L 71.127881 146.66906 
L 71.320741 146.608096 
L 71.802891 146.752385 
L 72.092182 146.572845 
L 72.574332 146.736599 
L 72.767192 146.649824 
L 73.249342 146.778616 
L 74.020782 147.071682 
L 74.599362 147.107295 
L 74.888653 147.143314 
L 75.274373 147.149047 
L 76.045813 146.655274 
L 76.238673 146.634281 
L 76.913683 146.572517 
L 77.202973 146.36078 
L 78.263704 146.638803 
L 78.456564 146.548829 
L 78.552994 146.559012 
L 78.745854 146.364367 
L 78.842284 146.399433 
L 79.035144 146.242083 
L 79.420864 146.326479 
L 79.903014 146.419236 
L 80.192304 146.431401 
L 80.481594 146.459592 
L 81.060175 146.685904 
L 81.253035 146.640078 
L 81.349465 146.638015 
L 81.542325 146.529712 
L 81.735185 146.541759 
L 82.120905 146.648546 
L 82.410195 146.482111 
L 83.470925 146.821574 
L 83.953076 146.901825 
L 85.303096 147.146951 
L 87.617417 147.400477 
L 88.678147 147.656879 
L 90.124598 147.52132 
L 90.413888 147.393215 
L 90.799608 147.357354 
L 91.185328 147.293884 
L 91.378188 147.289335 
L 91.667478 147.315926 
L 91.860338 147.228347 
L 91.956768 147.225595 
L 92.053198 157.375636 
L 92.149628 148.845586 
L 92.246058 153.654973 
L 92.438919 133.165957 
L 93.113929 148.188195 
L 93.210359 147.914072 
L 93.596079 150.755102 
L 93.692509 151.41706 
L 93.788939 149.083686 
L 93.885369 149.261053 
L 94.174659 150.511884 
L 94.367519 151.510168 
L 94.463949 151.455992 
L 94.656809 151.830118 
L 94.849669 149.672777 
L 94.946099 149.945958 
L 95.042529 148.613615 
L 95.138959 148.666719 
L 95.33182 149.110142 
L 95.42825 149.114439 
L 95.52468 148.276007 
L 95.62111 148.661471 
L 95.71754 148.46962 
L 96.10326 149.516964 
L 96.29612 147.448893 
L 96.48898 147.69486 
L 96.58541 147.924078 
L 96.68184 147.097491 
L 96.77827 147.341123 
L 96.8747 147.28886 
L 96.97113 146.962181 
L 97.26042 147.536648 
L 97.45328 147.620696 
L 97.54971 146.922516 
L 97.64614 147.125825 
L 97.74257 146.883019 
L 98.03186 147.605853 
L 98.224721 146.189475 
L 98.321151 146.381336 
L 98.803301 147.136387 
L 98.899731 147.109816 
L 99.864031 148.555208 
L 99.960461 148.054331 
L 100.056891 148.211208 
L 100.153321 147.721495 
L 100.249751 147.766871 
L 100.442611 148.099222 
L 100.539041 147.933488 
L 101.117622 148.715733 
L 101.214052 148.742111 
L 101.503342 149.157352 
L 101.792632 148.417793 
L 101.889062 148.530434 
L 102.081922 147.332612 
L 102.178352 147.207615 
L 102.756932 147.863373 
L 102.853362 147.522737 
L 103.142652 147.755311 
L 103.239082 147.631544 
L 103.335512 147.760555 
L 103.624802 147.063478 
L 104.010523 147.413759 
L 104.106953 147.413294 
L 104.203383 147.281755 
L 104.396243 147.462616 
L 104.492673 147.123843 
L 104.589103 147.22661 
L 104.685533 147.000647 
L 105.264113 147.667056 
L 105.456973 147.331483 
L 105.553403 147.428168 
L 105.649833 147.298648 
L 106.035553 147.698606 
L 106.131983 147.599555 
L 106.228413 147.705476 
L 106.421273 147.393576 
L 106.710563 147.548364 
L 106.903424 147.738994 
L 106.999854 147.490623 
L 107.096284 147.536843 
L 107.192714 147.551372 
L 107.289144 147.273138 
L 107.385574 147.37291 
L 107.578434 147.137159 
L 107.867724 147.322538 
L 108.060584 147.231215 
L 108.446304 147.474824 
L 108.542734 147.330589 
L 108.735594 147.405825 
L 108.832024 147.256004 
L 109.217744 147.572594 
L 109.410604 147.170118 
L 110.278475 147.803373 
L 110.471335 147.879121 
L 110.953485 148.139262 
L 111.435635 148.491124 
L 111.532065 148.297606 
L 111.724925 147.854148 
L 112.207075 148.052126 
L 112.399935 148.022848 
L 112.689226 148.06246 
L 112.785656 148.132942 
L 112.978516 148.102225 
L 113.171376 148.077499 
L 113.364236 147.922719 
L 113.846386 148.122405 
L 114.039246 147.875514 
L 114.232106 148.001013 
L 114.424966 147.78794 
L 114.714256 147.952588 
L 115.099976 147.602654 
L 115.871417 147.474028 
L 116.257137 147.60955 
L 116.546427 147.563738 
L 117.125007 147.835358 
L 117.317867 147.64915 
L 117.510727 147.698561 
L 117.703587 147.78192 
L 117.992877 147.591866 
L 118.378597 147.753381 
L 118.571458 147.61538 
L 118.764318 147.641689 
L 119.246468 147.8097 
L 119.439328 147.566162 
L 120.114338 147.643924 
L 120.210768 147.64532 
L 120.403628 147.499447 
L 120.789348 147.563362 
L 120.982208 147.472618 
L 121.560789 147.517722 
L 122.235799 147.790591 
L 122.428659 147.79424 
L 122.621519 147.844774 
L 122.814379 147.786411 
L 123.103669 147.853871 
L 123.392959 147.805583 
L 123.585819 147.868629 
L 123.778679 147.505866 
L 123.875109 147.550732 
L 124.067969 147.381745 
L 124.35726 147.402093 
L 124.55012 147.283667 
L 124.93584 147.319008 
L 125.1287 147.299738 
L 125.41799 147.116439 
L 125.51442 147.148006 
L 125.70728 147.076387 
L 126.47872 147.369715 
L 126.67158 147.253731 
L 126.76801 147.279819 
L 126.96087 147.057365 
L 127.153731 146.954095 
L 127.346591 146.969044 
L 128.214461 147.19066 
L 128.407321 147.067962 
L 128.696611 147.107357 
L 129.275191 147.332826 
L 129.468051 147.271176 
L 130.046631 147.284534 
L 130.239492 147.259349 
L 130.335922 147.292704 
L 130.625212 147.101655 
L 131.685942 147.42326 
L 132.264522 147.48643 
L 132.939532 147.650644 
L 133.903833 147.747289 
L 134.096693 147.583581 
L 134.771703 147.725105 
L 135.157423 147.644096 
L 136.025294 147.861961 
L 138.146754 147.961564 
L 138.821765 147.681444 
L 139.111055 147.662164 
L 139.303915 147.617186 
L 139.882495 147.688715 
L 140.075355 147.60975 
L 140.171785 147.609021 
L 140.171785 147.609021 
" clip-path="url(#p3e8679ef2b)" style="fill: none; stroke: #ff7f0e; stroke-width: 1.6; stroke-linecap: square"/>
   </g>
   <g id="patch_3">
    <path d="M 34.2 163.8 
L 34.2 22.464 
" style="fill: none; stroke: #000000; stroke-width: 0.8; stroke-linejoin: miter; stroke-linecap: square"/>
   </g>
   <g id="patch_4">
    <path d="M 246.24 163.8 
L 246.24 22.464 
" style="fill: none; stroke: #000000; stroke-width: 0.8; stroke-linejoin: miter; stroke-linecap: square"/>
   </g>
   <g id="patch_5">
    <path d="M 34.2 163.8 
L 246.24 163.8 
" style="fill: none; stroke: #000000; stroke-width: 0.8; stroke-linejoin: miter; stroke-linecap: square"/>
   </g>
   <g id="patch_6">
    <path d="M 34.2 22.464 
L 246.24 22.464 
" style="fill: none; stroke: #000000; stroke-width: 0.8; stroke-linejoin: miter; stroke-linecap: square"/>
   </g>
  </g>
  <g id="axes_2">
   <g id="matplotlib.axis_3">
    <g id="ytick_5">
     <g id="line2d_12">
      <defs>
       <path id="mec3b263e90" d="M 0 0 
L 3.5 0 
" style="stroke: #000000; stroke-width: 0.8"/>
      </defs>
      <g>
       <use xlink:href="#mec3b263e90" x="246.24" y="157.375636" style="stroke: #000000; stroke-width: 0.8"/>
      </g>
     </g>
     <g id="text_12">
      <!-- 0.0 -->
      <g transform="translate(253.24 161.060879)scale(0.097 -0.097)">
       <use xlink:href="#DejaVuSans-30"/>
       <use xlink:href="#DejaVuSans-2e" x="63.623047"/>
       <use xlink:href="#DejaVuSans-30" x="95.410156"/>
      </g>
     </g>
    </g>
    <g id="ytick_6">
     <g id="line2d_13">
      <g>
       <use xlink:href="#mec3b263e90" x="246.24" y="131.678182" style="stroke: #000000; stroke-width: 0.8"/>
      </g>
     </g>
     <g id="text_13">
      <!-- 0.2 -->
      <g transform="translate(253.24 135.363424)scale(0.097 -0.097)">
       <use xlink:href="#DejaVuSans-30"/>
       <use xlink:href="#DejaVuSans-2e" x="63.623047"/>
       <use xlink:href="#DejaVuSans-32" x="95.410156"/>
      </g>
     </g>
    </g>
    <g id="ytick_7">
     <g id="line2d_14">
      <g>
       <use xlink:href="#mec3b263e90" x="246.24" y="105.980727" style="stroke: #000000; stroke-width: 0.8"/>
      </g>
     </g>
     <g id="text_14">
      <!-- 0.4 -->
      <g transform="translate(253.24 109.665969)scale(0.097 -0.097)">
       <defs>
        <path id="DejaVuSans-34" d="M 2419 4116 
L 825 1625 
L 2419 1625 
L 2419 4116 
z
M 2253 4666 
L 3047 4666 
L 3047 1625 
L 3713 1625 
L 3713 1100 
L 3047 1100 
L 3047 0 
L 2419 0 
L 2419 1100 
L 313 1100 
L 313 1709 
L 2253 4666 
z
" transform="scale(0.015625)"/>
       </defs>
       <use xlink:href="#DejaVuSans-30"/>
       <use xlink:href="#DejaVuSans-2e" x="63.623047"/>
       <use xlink:href="#DejaVuSans-34" x="95.410156"/>
      </g>
     </g>
    </g>
    <g id="ytick_8">
     <g id="line2d_15">
      <g>
       <use xlink:href="#mec3b263e90" x="246.24" y="80.283273" style="stroke: #000000; stroke-width: 0.8"/>
      </g>
     </g>
     <g id="text_15">
      <!-- 0.6 -->
      <g transform="translate(253.24 83.968515)scale(0.097 -0.097)">
       <defs>
        <path id="DejaVuSans-36" d="M 2113 2584 
Q 1688 2584 1439 2293 
Q 1191 2003 1191 1497 
Q 1191 994 1439 701 
Q 1688 409 2113 409 
Q 2538 409 2786 701 
Q 3034 994 3034 1497 
Q 3034 2003 2786 2293 
Q 2538 2584 2113 2584 
z
M 3366 4563 
L 3366 3988 
Q 3128 4100 2886 4159 
Q 2644 4219 2406 4219 
Q 1781 4219 1451 3797 
Q 1122 3375 1075 2522 
Q 1259 2794 1537 2939 
Q 1816 3084 2150 3084 
Q 2853 3084 3261 2657 
Q 3669 2231 3669 1497 
Q 3669 778 3244 343 
Q 2819 -91 2113 -91 
Q 1303 -91 875 529 
Q 447 1150 447 2328 
Q 447 3434 972 4092 
Q 1497 4750 2381 4750 
Q 2619 4750 2861 4703 
Q 3103 4656 3366 4563 
z
" transform="scale(0.015625)"/>
       </defs>
       <use xlink:href="#DejaVuSans-30"/>
       <use xlink:href="#DejaVuSans-2e" x="63.623047"/>
       <use xlink:href="#DejaVuSans-36" x="95.410156"/>
      </g>
     </g>
    </g>
    <g id="ytick_9">
     <g id="line2d_16">
      <g>
       <use xlink:href="#mec3b263e90" x="246.24" y="54.585818" style="stroke: #000000; stroke-width: 0.8"/>
      </g>
     </g>
     <g id="text_16">
      <!-- 0.8 -->
      <g transform="translate(253.24 58.27106)scale(0.097 -0.097)">
       <defs>
        <path id="DejaVuSans-38" d="M 2034 2216 
Q 1584 2216 1326 1975 
Q 1069 1734 1069 1313 
Q 1069 891 1326 650 
Q 1584 409 2034 409 
Q 2484 409 2743 651 
Q 3003 894 3003 1313 
Q 3003 1734 2745 1975 
Q 2488 2216 2034 2216 
z
M 1403 2484 
Q 997 2584 770 2862 
Q 544 3141 544 3541 
Q 544 4100 942 4425 
Q 1341 4750 2034 4750 
Q 2731 4750 3128 4425 
Q 3525 4100 3525 3541 
Q 3525 3141 3298 2862 
Q 3072 2584 2669 2484 
Q 3125 2378 3379 2068 
Q 3634 1759 3634 1313 
Q 3634 634 3220 271 
Q 2806 -91 2034 -91 
Q 1263 -91 848 271 
Q 434 634 434 1313 
Q 434 1759 690 2068 
Q 947 2378 1403 2484 
z
M 1172 3481 
Q 1172 3119 1398 2916 
Q 1625 2713 2034 2713 
Q 2441 2713 2670 2916 
Q 2900 3119 2900 3481 
Q 2900 3844 2670 4047 
Q 2441 4250 2034 4250 
Q 1625 4250 1398 4047 
Q 1172 3844 1172 3481 
z
" transform="scale(0.015625)"/>
       </defs>
       <use xlink:href="#DejaVuSans-30"/>
       <use xlink:href="#DejaVuSans-2e" x="63.623047"/>
       <use xlink:href="#DejaVuSans-38" x="95.410156"/>
      </g>
     </g>
    </g>
    <g id="ytick_10">
     <g id="line2d_17">
      <g>
       <use xlink:href="#mec3b263e90" x="246.24" y="28.888364" style="stroke: #000000; stroke-width: 0.8"/>
      </g>
     </g>
     <g id="text_17">
      <!-- 1.0 -->
      <g transform="translate(253.24 32.573606)scale(0.097 -0.097)">
       <use xlink:href="#DejaVuSans-31"/>
       <use xlink:href="#DejaVuSans-2e" x="63.623047"/>
       <use xlink:href="#DejaVuSans-30" x="95.410156"/>
      </g>
     </g>
    </g>
    <g id="text_18">
     <!-- Acc -->
     <g transform="translate(280.036516 101.698313)rotate(-90)scale(0.097 -0.097)">
      <defs>
       <path id="DejaVuSans-41" d="M 2188 4044 
L 1331 1722 
L 3047 1722 
L 2188 4044 
z
M 1831 4666 
L 2547 4666 
L 4325 0 
L 3669 0 
L 3244 1197 
L 1141 1197 
L 716 0 
L 50 0 
L 1831 4666 
z
" transform="scale(0.015625)"/>
       <path id="DejaVuSans-63" d="M 3122 3366 
L 3122 2828 
Q 2878 2963 2633 3030 
Q 2388 3097 2138 3097 
Q 1578 3097 1268 2742 
Q 959 2388 959 1747 
Q 959 1106 1268 751 
Q 1578 397 2138 397 
Q 2388 397 2633 464 
Q 2878 531 3122 666 
L 3122 134 
Q 2881 22 2623 -34 
Q 2366 -91 2075 -91 
Q 1284 -91 818 406 
Q 353 903 353 1747 
Q 353 2603 823 3093 
Q 1294 3584 2113 3584 
Q 2378 3584 2631 3529 
Q 2884 3475 3122 3366 
z
" transform="scale(0.015625)"/>
      </defs>
      <use xlink:href="#DejaVuSans-41"/>
      <use xlink:href="#DejaVuSans-63" x="66.658203"/>
      <use xlink:href="#DejaVuSans-63" x="121.638672"/>
     </g>
    </g>
   </g>
   <g id="line2d_18">
    <path d="M 43.838182 157.375636 
L 44.031042 143.991546 
L 44.127472 143.322341 
L 44.320332 148.006773 
L 44.416762 148.197974 
L 44.513192 149.345182 
L 44.609622 148.452909 
L 44.802482 149.345182 
L 44.898912 148.006773 
L 45.091772 149.345182 
L 45.188202 148.274455 
L 45.284632 148.843278 
L 45.381062 148.400423 
L 45.573922 148.922526 
L 45.670352 148.943659 
L 45.863213 146.059996 
L 46.152503 139.0662 
L 46.827513 118.980026 
L 47.598953 103.170068 
L 48.466823 91.984789 
L 49.045404 85.831586 
L 50.491854 75.694441 
L 52.034735 69.227387 
L 52.516885 67.54044 
L 52.613315 67.469462 
L 52.806175 66.819444 
L 52.902605 66.758299 
L 53.095465 66.55699 
L 53.288325 66.201584 
L 53.577615 65.497789 
L 53.963335 64.495093 
L 54.445485 63.469957 
L 55.216926 61.954942 
L 56.181226 60.076411 
L 56.759806 59.225636 
L 57.145526 58.583713 
L 57.434816 58.295664 
L 57.531247 58.370801 
L 58.399117 57.470444 
L 58.784837 56.943475 
L 60.231287 55.656543 
L 61.099158 54.808884 
L 61.195588 54.843148 
L 61.581308 54.368777 
L 61.677738 54.404488 
L 62.642038 53.553329 
L 62.738468 53.631951 
L 63.895629 52.710763 
L 64.088489 52.675258 
L 64.377779 52.454374 
L 65.245649 52.151475 
L 65.342079 52.226872 
L 65.438509 52.123146 
L 65.631369 52.342951 
L 65.920659 52.281423 
L 66.20995 52.083629 
L 66.88496 51.808622 
L 67.17425 51.657843 
L 68.04212 51.354515 
L 68.23498 51.272462 
L 69.874291 50.905439 
L 70.067151 50.891218 
L 70.356441 50.739343 
L 70.742161 50.685313 
L 71.513601 50.330796 
L 71.610031 50.423318 
L 72.188612 50.094212 
L 73.152912 49.767549 
L 73.827922 49.762394 
L 75.177943 49.2601 
L 75.467233 49.269612 
L 75.852953 49.241827 
L 76.817253 48.97621 
L 79.324434 48.583654 
L 79.613724 48.532756 
L 81.928045 48.1939 
L 82.217335 48.189635 
L 82.410195 48.193494 
L 83.085205 47.960693 
L 84.145936 47.747475 
L 84.435226 47.689523 
L 85.399526 47.533146 
L 85.978106 47.497748 
L 86.556687 47.354788 
L 87.810277 47.163358 
L 89.063867 46.999605 
L 93.017499 46.222205 
L 93.403219 46.243503 
L 95.33182 46.105061 
L 95.81397 46.049744 
L 100.249751 45.374094 
L 101.021192 45.368373 
L 102.467642 45.252555 
L 103.239082 45.144502 
L 113.557096 43.817907 
L 114.039246 43.847698 
L 114.617826 43.889475 
L 115.292836 43.866998 
L 121.271498 43.391125 
L 123.103669 43.319764 
L 124.164399 43.235337 
L 126.47872 43.180327 
L 131.203792 42.930593 
L 135.543143 42.924788 
L 137.278884 42.77194 
L 139.111055 42.716333 
L 140.171785 42.636501 
L 140.268215 36.918818 
L 140.364645 40.934045 
L 140.557505 34.911205 
L 140.653935 33.706639 
L 140.750365 34.242003 
L 140.846795 33.477193 
L 140.943225 35.915011 
L 141.039655 35.134272 
L 141.328945 35.580407 
L 141.618235 34.242003 
L 141.714666 34.911205 
L 141.907526 34.242003 
L 142.003956 34.805541 
L 142.100386 34.50968 
L 142.389676 34.823914 
L 142.775396 33.944579 
L 142.871826 34.050802 
L 143.064686 33.706639 
L 143.546836 35.312729 
L 143.739696 35.399545 
L 144.028986 35.111963 
L 144.125416 35.156037 
L 144.318276 35.05127 
L 144.414706 35.093713 
L 144.607567 35.696792 
L 144.896857 36.591045 
L 145.089717 36.446438 
L 145.186147 36.609953 
L 145.379007 36.323972 
L 145.571867 36.775414 
L 145.668297 36.777934 
L 145.957587 36.383455 
L 146.246877 36.663884 
L 146.439737 36.671726 
L 146.729027 36.446438 
L 146.825457 36.453285 
L 146.921887 36.345216 
L 147.114747 36.472684 
L 147.307607 36.376218 
L 147.500468 36.284837 
L 147.693328 36.198136 
L 147.789758 36.308908 
L 147.982618 36.224826 
L 148.175478 36.628563 
L 148.271908 36.536417 
L 148.464768 36.732067 
L 148.850488 36.472684 
L 148.946918 36.477585 
L 149.236208 36.918818 
L 149.525498 36.753243 
L 149.718358 36.8377 
L 149.814788 36.999125 
L 150.296938 36.689379 
L 150.586229 36.695751 
L 150.779089 36.991826 
L 150.971949 37.062222 
L 151.164809 37.130145 
L 151.357669 37.057275 
L 151.454099 37.124731 
L 151.646959 37.121269 
L 151.936249 37.247932 
L 152.804119 37.225324 
L 152.900549 37.344673 
L 153.57556 36.976593 
L 153.76842 36.918818 
L 153.86485 36.862268 
L 154.05771 36.918818 
L 154.25057 36.863815 
L 154.44343 36.918818 
L 154.63629 36.918818 
L 155.11844 37.074246 
L 155.50416 37.12084 
L 155.79345 37.364953 
L 155.98631 37.457444 
L 156.275601 37.592033 
L 157.143471 37.466351 
L 157.336331 37.460201 
L 159.264932 37.324394 
L 159.650652 37.236858 
L 159.939942 37.310547 
L 160.325662 37.341472 
L 160.518522 37.261349 
L 160.711382 37.37124 
L 161.000672 37.364953 
L 162.447123 37.405512 
L 162.639983 37.435801 
L 163.025703 37.49484 
L 163.604283 37.38148 
L 166.690044 37.415246 
L 166.882904 37.440657 
L 167.461484 37.514721 
L 168.329355 37.661357 
L 168.618645 37.653806 
L 169.197225 37.719194 
L 169.679375 37.679875 
L 171.800836 37.530896 
L 172.379416 37.447771 
L 172.861566 37.558413 
L 176.911628 37.572213 
L 177.200918 37.546197 
L 177.779498 37.515954 
L 178.165218 37.509889 
L 178.550938 37.524126 
L 179.129518 37.554897 
L 179.418808 37.589667 
L 180.093819 37.617122 
L 180.575969 37.704612 
L 180.961689 37.735154 
L 181.347409 37.708702 
L 182.118849 37.657252 
L 182.98672 37.58802 
L 183.37244 37.617896 
L 188.676092 37.621281 
L 188.965382 37.696471 
L 190.026112 37.617796 
L 191.568993 37.732412 
L 216.062221 37.439217 
L 216.351511 37.467737 
L 218.087252 37.375996 
L 218.955122 37.361131 
L 220.690863 37.284279 
L 221.365873 37.30985 
L 223.005184 37.358206 
L 223.969484 37.362387 
L 236.601818 37.352462 
L 236.601818 37.352462 
" clip-path="url(#p3e8679ef2b)" style="fill: none; stroke: #1f77b4; stroke-width: 1.6; stroke-linecap: square"/>
   </g>
   <g id="line2d_19">
    <path d="M 43.838182 44.949273 
L 43.934612 44.949273 
L 44.031042 39.595634 
L 44.320332 42.272457 
L 44.416762 40.360444 
L 44.513192 42.941659 
L 44.898912 38.25723 
L 44.995342 40.007451 
L 45.091772 39.213233 
L 45.188202 39.595634 
L 45.477492 37.811088 
L 45.670352 38.524908 
L 46.152503 36.5976 
L 46.248933 36.918818 
L 46.441793 36.345216 
L 46.538223 36.641904 
L 46.634653 36.383455 
L 46.827513 36.918818 
L 47.116803 36.230493 
L 47.309663 36.701778 
L 47.406093 36.496164 
L 47.502523 36.712906 
L 47.888243 35.985048 
L 47.984673 36.553794 
L 48.177533 36.220514 
L 48.273963 36.406239 
L 48.370393 36.249616 
L 48.756114 36.918818 
L 48.852544 36.767304 
L 48.948974 37.216241 
L 49.045404 37.064826 
L 49.238264 37.341472 
L 49.431124 37.871582 
L 49.527554 37.989544 
L 49.816844 37.556153 
L 49.913274 37.671673 
L 50.009704 38.030724 
L 50.106134 37.892206 
L 50.298994 38.099765 
L 50.395424 37.96627 
L 50.491854 38.066029 
L 50.588284 37.936762 
L 50.684714 38.034162 
L 50.974004 37.668327 
L 51.070434 37.764126 
L 51.649015 37.114683 
L 52.034735 37.479079 
L 52.227595 37.283842 
L 52.324025 37.369969 
L 53.288325 36.513243 
L 53.577615 37.076276 
L 53.674045 36.996781 
L 53.866905 37.301219 
L 53.963335 37.373369 
L 54.059765 37.294074 
L 54.156195 37.513664 
L 54.349055 37.356843 
L 54.445485 37.42524 
L 54.541916 37.349023 
L 54.638346 37.41628 
L 54.734776 37.341472 
L 54.831206 37.407626 
L 55.024066 37.39927 
L 55.216926 37.391198 
L 55.313356 37.454181 
L 55.699076 37.307392 
L 55.891936 37.301219 
L 55.988366 37.487909 
L 56.374086 37.347928 
L 56.566946 37.341472 
L 57.049096 37.151589 
L 57.434816 37.258133 
L 57.820537 37.13883 
L 58.302687 37.291087 
L 58.688407 37.177865 
L 59.266987 37.367725 
L 59.652707 37.259504 
L 59.941997 37.301219 
L 60.134857 37.296724 
L 60.424148 37.522265 
L 60.713438 37.557601 
L 61.002728 37.502039 
L 61.292018 37.536548 
L 62.352748 37.12686 
L 62.738468 37.204164 
L 63.317049 37.037493 
L 63.509909 37.114683 
L 63.895629 37.034085 
L 64.377779 37.143969 
L 64.570639 37.06753 
L 64.763499 37.139841 
L 65.245649 37.242916 
L 65.438509 37.168652 
L 65.631369 37.237202 
L 65.920659 37.267966 
L 66.113519 37.264957 
L 66.40281 37.29471 
L 66.49924 37.25909 
L 66.88496 37.521101 
L 67.27068 37.708702 
L 67.46354 37.767565 
L 67.6564 37.760718 
L 67.75283 37.725091 
L 67.94569 37.782652 
L 68.42784 37.859887 
L 68.90999 37.749552 
L 69.874291 37.955962 
L 70.356441 37.849885 
L 70.549301 37.843184 
L 71.127881 37.767105 
L 71.513601 37.755326 
L 71.802891 37.719102 
L 71.995752 37.768453 
L 72.381472 37.757011 
L 72.767192 37.745876 
L 73.056482 37.711298 
L 73.731492 37.615996 
L 74.213642 37.630379 
L 74.406502 37.625899 
L 74.599362 37.721867 
L 74.792222 37.716873 
L 74.985083 37.761522 
L 75.370803 37.751244 
L 75.563663 37.843536 
L 75.756523 37.886339 
L 76.624393 37.978555 
L 76.913683 37.992661 
L 77.588693 38.039876 
L 78.263704 37.950663 
L 78.456564 38.034162 
L 78.552994 38.008821 
L 78.745854 38.09131 
L 79.131574 38.078528 
L 79.613724 38.084532 
L 79.999444 38.029414 
L 80.288734 38.084187 
L 80.578024 38.054013 
L 81.349465 37.948365 
L 81.928045 37.973324 
L 82.313765 37.962778 
L 82.699485 37.952439 
L 83.567355 37.832692 
L 83.953076 37.823931 
L 84.724516 37.73131 
L 85.592386 37.806983 
L 86.653117 37.694794 
L 86.942407 37.779221 
L 88.388857 37.59525 
L 88.871007 37.570865 
L 89.738878 37.508058 
L 90.124598 37.603329 
L 91.088898 37.654809 
L 91.474618 37.648859 
L 91.956768 37.818233 
L 92.053198 28.888364 
L 92.149628 36.918818 
L 92.246058 34.242003 
L 92.438919 44.949273 
L 92.535349 44.949273 
L 92.824639 39.595634 
L 93.113929 36.918818 
L 93.210359 37.536548 
L 93.692509 35.134272 
L 93.885369 36.11577 
L 93.981799 35.771607 
L 94.078229 36.188778 
L 94.367519 35.312729 
L 94.463949 35.683367 
L 94.656809 35.198005 
L 94.849669 36.383455 
L 94.946099 36.141678 
L 95.138959 36.675471 
L 95.23539 36.446438 
L 95.52468 37.135858 
L 95.62111 36.918818 
L 95.71754 37.124731 
L 95.9104 36.722954 
L 96.00683 36.918818 
L 96.10326 36.732067 
L 96.29612 37.454181 
L 96.39255 37.267966 
L 96.48898 37.431397 
L 96.58541 37.253423 
L 96.68184 37.410482 
L 96.77827 37.240036 
L 96.97113 37.536548 
L 97.06756 37.373369 
L 97.16399 37.513664 
L 97.26042 37.356843 
L 97.45328 37.623241 
L 97.54971 38.30338 
L 97.64614 38.143801 
L 97.74257 38.25723 
L 98.03186 37.811088 
L 98.224721 38.524908 
L 98.514011 38.099765 
L 98.610441 38.199033 
L 98.803301 37.936762 
L 98.899731 38.034162 
L 99.189021 37.668327 
L 99.285451 37.764126 
L 99.864031 37.114683 
L 99.960461 37.209073 
L 100.056891 37.110019 
L 100.249751 37.292328 
L 100.442611 37.101326 
L 100.539041 37.369969 
L 101.021192 36.918818 
L 101.214052 37.086117 
L 101.503342 36.8377 
L 101.792632 37.076276 
L 101.889062 36.996781 
L 102.081922 37.301219 
L 102.178352 37.373369 
L 102.564072 37.064826 
L 102.660502 37.135858 
L 102.756932 37.062222 
L 102.853362 37.132014 
L 102.949792 37.059703 
L 103.046222 37.128307 
L 103.142652 37.057275 
L 103.239082 37.124731 
L 103.431942 37.121269 
L 103.624802 37.383387 
L 104.010523 37.240036 
L 104.492673 37.536548 
L 105.071253 37.273105 
L 105.360543 37.207687 
L 105.649833 37.258133 
L 106.228413 37.027338 
L 106.614133 37.130145 
L 106.999854 37.021771 
L 107.578434 37.216241 
L 107.867724 37.162165 
L 108.157014 37.205619 
L 108.349874 37.202249 
L 108.928454 37.375093 
L 109.314174 37.275724 
L 109.507034 37.360051 
L 110.278475 37.087878 
L 110.471335 37.086117 
L 111.435635 36.759798 
L 112.014215 36.918818 
L 112.207075 36.918818 
L 112.592795 36.993871 
L 112.785656 36.918818 
L 112.978516 36.992492 
L 113.557096 37.133921 
L 113.846386 37.095697 
L 114.135676 37.128307 
L 114.328536 37.1265 
L 114.521396 37.124731 
L 114.714256 37.054924 
L 114.907116 37.121269 
L 115.871417 37.372152 
L 116.160707 37.33474 
L 116.739287 37.450015 
L 117.125007 37.380339 
L 117.607157 37.46223 
L 117.896447 37.42632 
L 118.089307 37.422575 
L 118.378597 37.387752 
L 118.764318 37.438773 
L 119.246468 37.401216 
L 119.825048 37.446776 
L 120.210768 37.439561 
L 120.403628 37.490475 
L 120.789348 37.482832 
L 121.464359 37.548656 
L 122.235799 37.379159 
L 122.428659 37.427078 
L 122.621519 37.423877 
L 122.814379 37.470915 
L 123.103669 37.440925 
L 123.296529 37.487128 
L 124.93584 37.764126 
L 125.1287 37.805903 
L 125.61085 37.816203 
L 126.28586 37.730888 
L 127.250161 37.840343 
L 128.118031 37.711153 
L 128.793041 37.759707 
L 129.564481 37.660094 
L 129.950201 37.652565 
L 130.335922 37.64519 
L 130.914502 37.674155 
L 131.685942 37.581526 
L 132.071662 37.575154 
L 132.746672 37.469368 
L 132.939532 37.504566 
L 133.421683 37.516437 
L 134.289553 37.559056 
L 134.964563 37.494993 
L 135.157423 37.528269 
L 136.025294 37.463555 
L 136.700304 37.472646 
L 137.761034 37.375284 
L 138.050324 37.42282 
L 140.171785 37.721867 
L 140.171785 37.721867 
" clip-path="url(#p3e8679ef2b)" style="fill: none; stroke: #ff7f0e; stroke-width: 1.6; stroke-linecap: square"/>
   </g>
   <g id="patch_7">
    <path d="M 34.2 163.8 
L 34.2 22.464 
" style="fill: none; stroke: #000000; stroke-width: 0.8; stroke-linejoin: miter; stroke-linecap: square"/>
   </g>
   <g id="patch_8">
    <path d="M 246.24 163.8 
L 246.24 22.464 
" style="fill: none; stroke: #000000; stroke-width: 0.8; stroke-linejoin: miter; stroke-linecap: square"/>
   </g>
   <g id="patch_9">
    <path d="M 34.2 163.8 
L 246.24 163.8 
" style="fill: none; stroke: #000000; stroke-width: 0.8; stroke-linejoin: miter; stroke-linecap: square"/>
   </g>
   <g id="patch_10">
    <path d="M 34.2 22.464 
L 246.24 22.464 
" style="fill: none; stroke: #000000; stroke-width: 0.8; stroke-linejoin: miter; stroke-linecap: square"/>
   </g>
  </g>
 </g>
 <defs>
  <clipPath id="p3e8679ef2b">
   <rect x="34.2" y="22.464" width="212.04" height="141.336"/>
  </clipPath>
 </defs>
</svg>
